<svg enable-background="new 0 0 283.5 283.5" viewBox="0 0 283.5 283.5" xmlns="http://www.w3.org/2000/svg"><path d="m0 0h283.5v283.5h-283.5z" stroke="#000" stroke-miterlimit="10" stroke-width="3"/><g fill="#fff"><path d="m189.5 71.9-9.7 17.6 9.7 17.5-20.5-3.4-14.5 14.2-3-19.6-18.7-8.7 18.7-8.8 3-19.6 14.5 14.2z" stroke="#000" stroke-miterlimit="10" stroke-width="3"/><path d="m33.4 41.5-33.4 28.7v213.3h283.5v-27.3z" stroke="#000" stroke-miterlimit="10" stroke-width="3"/><path d="m225.4 120.8-137.4 162.7h195.5v-93.9z" stroke="#000" stroke-miterlimit="10" stroke-width="3"/><path d="m244.7 1c-34.1 7.5-65.7 57.2-65.7 57.2 32.2-42.5 54.5-54.2 65.7-57.2z"/><path d="m182.2 61.1c55-60 88.3-61.1 90.2-61.1h-2.5c-40.2 3.5-87.7 61.1-87.7 61.1z"/><path d="m283.5 2.4v-1.1c-41.4 9.1-98.6 62.6-98.6 62.6 48.4-42.3 82.3-56.7 98.6-61.5z"/></g></svg>