<svg enable-background="new 0 0 300 60" viewBox="0 0 300 60" xmlns="http://www.w3.org/2000/svg" xmlns:xlink="http://www.w3.org/1999/xlink"><clipPath id="a"><path d="m4 3h54v54h-54z"/></clipPath><clipPath id="b"><path d="m4 3h54v54h-54z"/></clipPath><path clip-path="url(#a)" d="m5.5 4.5h50.9v50.9h-50.9z"/><path clip-path="url(#a)" d="m5.5 4.5h50.9v50.9h-50.9z" fill="none" stroke="#000" stroke-miterlimit="10" stroke-width=".5392"/><path clip-path="url(#a)" d="m39.6 17.5-1.8 3.1 1.8 3.2-3.7-.6-2.6 2.5-.5-3.5-3.4-1.6 3.4-1.6.5-3.5 2.6 2.6z" fill="#fff"/><path clip-path="url(#a)" d="m39.6 17.5-1.8 3.1 1.8 3.2-3.7-.6-2.6 2.5-.5-3.5-3.4-1.6 3.4-1.6.5-3.5 2.6 2.6z" fill="none" stroke="#000" stroke-miterlimit="10" stroke-width=".5392"/><path clip-path="url(#a)" d="m11.5 12-6 5.1v38.4h51v-4.9z" fill="#fff"/><path clip-path="url(#a)" d="m11.5 12-6 5.1v38.4h51v-4.9z" fill="none" stroke="#000" stroke-miterlimit="10" stroke-width=".5392"/><path clip-path="url(#a)" d="m46 26.2-24.7 29.3h35.2v-16.9z" fill="#fff"/><path clip-path="url(#a)" d="m46 26.2-24.7 29.3h35.2v-16.9z" fill="none" stroke="#000" stroke-miterlimit="10" stroke-width=".5392"/><g clip-path="url(#a)" fill="#fff"><path clip-path="url(#b)" d="m49.5 4.7c-6.1 1.4-11.8 10.3-11.8 10.3 5.8-7.6 9.8-9.7 11.8-10.3"/><path clip-path="url(#b)" d="m38.3 15.5c9.9-10.8 15.9-11 16.2-11h-.5c-7.2.7-15.7 11-15.7 11"/><path clip-path="url(#b)" d="m56.5 5v-.2c-7.5 1.6-17.8 11.2-17.8 11.2 8.8-7.6 14.9-10.2 17.8-11"/></g><path d="m84.9 30.2c.5.1 1.3.2 2.4.2 3.5 0 8.4-1.5 8.4-5.4 0-3.5-3.6-3.8-4.5-3.8-4.2 0-11.6 4.3-13.9 5.8.5.8 6.2 10.3 6.5 10.8 1.4 2.5 2 5.2 2 6 0 1.5-.9 1.6-1.2 1.6-.8 0-1.1-.8-1.4-2.2-2-6.6-4.2-10.2-7.4-15.3-2 1.4-2.1 1.4-4.5 3.4-.4.4-.8.6-1.4.6-1.2 0-3.2-1.3-3.2-3 0-.3 0-.4.1-.7 1.2 1.2 2 1.3 2.2 1.3.5 0 1.1-.3 2.2-.9.6-.3 3.2-1.8 3.8-2.2-.3-.4-1.6-2.4-1.9-2.8s-.7-1.2-.7-2 .5-1.5 1.1-1.7c.8-.3 6-.6 6.4-.6.7 0 1.2 0 1.2-.6 0-.4-.7-1.2-.8-1.3-.7-.8-1.9-1.3-3-1.9.3-.1.5-.2 1.1-.2 2.1 0 6.2 2 6.2 4.6 0 .5-.2 1-.8 1-.4 0-.6 0-1.5-.3-.5-.2-2-.4-3.6-.4-2.2 0-4.1.2-4.1 1.7 0 .6.5 1.5.9 2.1.7.9 1 1.4 1.2 1.7 1.7-.9 3.6-2.1 7.1-3.5 4.2-1.7 7.1-2 8.1-2 2.4 0 6.2 1.4 6.2 5.4 0 3-2.4 6.1-7.7 6.1-1.1 0-3.6-.2-5.3-1.3z"/><path d="m120.8 16.4c0-1.6-.3-1.7-2.8-2.9.3-.2.8-.6 1.9-.6 2 0 3.6 1.4 3.6 2.3 0 .1-.2.9-.4 1.7s-.3 1.7-.5 2.8c2.6-.6 3.8-1 5.9-1.7.3-.1.6-.2.9-.2.7 0 2.1.7 2.1 1.2s-.5.7-.7.8c-1.2.5-4.5 1.4-8.4 1.9-.1 1.6-.2 4-.1 6.1 2.5-.6 3.3-.9 5-1.6.2-.1.5-.2.7-.2.7 0 2 .5 2 1.1 0 .5-.5.8-.8 1-.7.2-4.1.9-6.8 1.4.1 1.6.4 6.8.5 8.7 4.3 1 8.1 2.8 8.1 4.7 0 .7-.5 1.1-.8 1.1s-.5-.1-1.7-1c-.4-.3-2.8-1.8-5.4-2.5 0 2.2-.9 3.1-1.5 3.5-1.7 1.3-4.1 1.3-4.6 1.3-3.9 0-6.4-1.9-6.4-3.8 0-1.2.8-2 1.9-2.6 2.1-1.2 5.8-1.2 6.5-1.2.9 0 1.4 0 2 .1 0-1.3-.3-6.8-.4-8-1.9.3-3.8.5-5.7.5-2.3 0-3.7-.4-3.7-1.7 0-.6.7-1.6 1.9-1.9-.3.3-.6.7-.6 1.2 0 .7.8.8 2.7.8 1.5 0 3.3-.2 5.4-.5 0-2.1 0-3.2.2-6.2-1.5.2-6.6.7-7.7.7-1 0-4-.3-5-2.5.6.3 2.2 1 4.9 1 .8 0 3.9-.2 7.8-.8-.1-.9 0-3.5 0-4zm-4 22.9c-2.5 0-5 .6-5 2.2 0 1.1 1.7 2 4.6 2 1.6 0 5-.5 4.6-3.8-.8-.2-1.8-.4-4.2-.4z"/><path d="m155 15.8c0-.5-.5-1.3-2.3-1.7.3-.3.6-.6 1.4-.6 1.4 0 2.6.9 3.3 1.6.3.3.5.5.5.9 0 .3-.1.4-.9 1.4-.5.6-.6.8-1.8 2.8.9-.3 2-.6 3.4-1.3 1.2-.5 1.4-.6 1.9-.6.4 0 2 .4 2 1 0 .5-.7.8-.8.8-.9.3-1.5.5-7.5 2-.8 1.6-4.7 9.6-5.1 10.3-.5.8-2.7 4.7-2.9 4.9-.3.3-.6.3-.6.3-.2 0-.7-.2-.7-1.2 0-1.1.3-1.4 1.1-2.4 1.4-1.7 3.1-5 4.5-7.7.6-1.3 1.4-2.8 1.8-3.7-1.5.4-2.6.6-3.9.6-3.4 0-3.7-2.4-3.8-3 1.1 1.1 2.1 1.4 3.3 1.4 1.5 0 3.6-.4 5.1-.7.2-.2 2-4.3 2-5.1zm9.9 7.5c4.3 0 7.6 3.7 7.6 5.4 0 .5-.4.8-.8.8-.3 0-.8-.2-.9-.3-1.1-.6-1.5-.8-2.9-.8-1.6 0-3.6.4-4.6 1.4-.5.5-.8 1.1-.8 2.5 0 1 .5 4.8.6 5.9 3.6.8 7.2 2.5 7.2 4.5 0 .7-.4 1.1-.8 1.1-.3 0-.6-.2-.8-.3-3.2-2.3-3.7-2.7-5.4-3.2-.1 5-5.1 5.2-6 5.2-2.8 0-5.4-1.6-5.4-3.7 0-2.5 3.3-4 6.9-4 1 0 1.7.1 2.4.2-.2-3.1-.2-3.4-.2-4.2 0-3.9 2.4-5.1 6.5-6.2.3-.1.8-.2.8-.7 0-.4-.9-1.1-1.4-1.4-.8-.5-1.7-.9-3.8-1.6.3-.5.9-.6 1.8-.6zm-6.4 15.8c-1.4 0-5.2.5-5.2 2.5 0 1.6 2.3 1.9 3.4 1.9 1.2 0 4.7-.5 4.5-4-.6-.2-1.4-.4-2.7-.4z"/><path d="m195.1 45c1.9-2 5.2-5.7 7.6-11.1-3.2-1.5-6.5-2.6-10-3-.5 1-2.9 5.7-5.2 8.1-.8.9-2.4 2.2-3.6 2.2-.6 0-1-.2-1.6-1.1-1.1-1.5-1.3-2.5-1.3-3.3 0-2.8 3.2-6.7 10.4-7.3 2.7-5.5 4.6-11.9 4.6-12.1 0-.3-.2-.3-.3-.3-.7 0-2.3.5-4 1.6-.6.4-1.3.8-1.7.8-.7 0-2.4-.9-2.4-3 0-.5.1-.7.2-1 .6 1.4 1.9 1.4 2.1 1.4.5 0 4.4-.9 6.3-1.7.3-.1.6-.2.8-.2.5 0 2.2 1.2 2.2 1.9 0 .4-.2.6-.6 1.2-.5.7-1.4 2.5-2 3.6-.6 1.2-3 6.6-3.5 7.8 4.3.3 8.9 1.9 10.2 2.5.4-1.1 1-3.2 1-4.7 0-1.2-.3-2-1.4-3.1.3-.1.4-.1.5-.1 1.6 0 3.3 2.2 3.3 3 0 .3-.6 3.1-1.6 5.7 4.1 2 7 3.8 7 5.4 0 .6-.3 1.2-1.1 1.2-.4 0-.8-.3-2.2-1.5-2.1-1.8-3.4-2.5-4.6-3.2-2.9 6.1-6.3 9.2-9.1 10.4zm-8.7-13.1c-2 .9-4 2.4-4 4.5 0 1.4.8 2.7 1.8 2.7 1.7 0 5-4.9 6.5-8.2-.9.1-2.3.1-4.3 1z"/><path d="m251.5 20.9h-8.1c0 .5.1 3.2.1 3.5 0 .8-.9 1.2-1.6 1.2-.3 0-.6 0-.5-1h-6.9v3h8.5l.7-1.1c.2-.2.3-.5.6-.5.2 0 .5.2.7.4l1.6 1.1c.4.3.4.5.4.6 0 .3-.3.4-.6.4h-12v2.7h12.9l1-1.3c.2-.2.4-.5.6-.5s.6.2.7.4l1.4 1.3c.2.2.4.3.4.6s-.3.4-.6.4h-28.5c-1.2 0-3.3.2-4.9.5l-.9-1.6c2.1.2 4.2.3 6.3.3h9.6v-2.7h-5.9c-1.2 0-3.3.1-4.9.4l-.9-1.6c2.1.2 4.2.3 6.3.3h5.3v-3h-6c-1.2 0-3.3.2-4.9.5l-.9-1.6c2.1.2 4.2.3 6.3.3h5.5c0-1.6 0-1.7 0-2.8h-9.3c-1.2 0-3.3.2-4.9.5l-.9-1.6c2.1.2 4.2.3 6.3.3h9v-2.7h-5.7c-1.2 0-3.3.2-4.9.5l-.9-1.6c2.1.2 4.2.3 6.3.3h5.1c-.1-2.3-.1-3-.8-4.3l3.6.8c.2 0 .5.2.5.5 0 .5-.8.9-1.3 1.2v1.9h6.5l.6-.8c.2-.2.3-.5.5-.5s.5.2.7.3l1.3.8c.3.2.5.3.5.5 0 .5-1.2 1.1-1.4 1.3 0 .2 0 1.3.1 2h4.3l1.1-1.2c.3-.3.4-.5.6-.5s.6.3.7.4l1.6 1.2c.2.2.4.3.4.6.2-.1-.2-.1-.4-.1zm-7.2 15.9c0 .4.1 5.9.2 7v1.3c0 .8-.8 1.4-1.6 1.4s-.8-.8-.6-1.6h-16.6v.6c0 .2-.2 1.3-1.6 1.3-.4 0-.9-.1-.9-.9 0-.4.2-1.9.2-2.2 0-.8.2-2.8.2-4.9 0-2.2 0-2.5-.4-5.3l2.7 1.4h16l.8-1c.1-.2.3-.4.5-.4s.5.2.6.3l1.5 1.1c.2.2.4.3.4.5-.1.5-.9 1-1.4 1.4zm-2.1-.9h-16.6v3.5h16.6zm0 4.3h-16.6v3.8h16.6zm-.7-19.3h-6.9v2.8h6.9zm0-3.6h-6.9v2.7h6.9z"/><path d="m283.7 21.2c0 1.2.1 3.7.1 4.8 0 1.2-1.4 1.3-1.6 1.3-.6 0-.6-.3-.6-.9h-20.1c0 9.1-1.4 14.7-6.4 19.2l-.2-.2c2.2-3.5 4.4-7.4 4.4-18.4 0-2.1-.1-6.5-.7-8.4l2.8 1.1h19.5l.9-1c.3-.4.4-.4.5-.4.2 0 .6.2.7.3l1.1.8c.5.3.6.5.6.6.2.6-.7 1.1-1 1.2zm4-5.5h-25c-1.4 0-3.5.2-4.9.5l-.9-1.6c2.8.2 5.6.3 6.3.3h20.3l1.1-1.6c.1-.2.3-.5.6-.5.2 0 .6.3.7.4l2.1 1.7c.2.2.4.3.4.6-.1.2-.5.2-.7.2zm.8 16.4h-16.1l1.6.8c.1.1.5.2.5.5 0 .6-.8.8-1.2.9-.3.8-.3 1.1-.6 1.7h9.3l.8-1c.2-.2.3-.3.5-.3s.3.1.5.3l1.3 1.1c.3.3.4.4.4.5 0 .5-1.1 1-1.4 1.2-.1.4-.9 4.7-1.9 6.4-.8 1.5-2.9 2.9-6.1 2.8-.2-1.5-.8-2.1-2.5-3.5l.1-.2c2.3 1 3.8 1.1 4.4 1.1 1.8 0 2.4-1 3.1-3.7.3-1.1.6-2.9.8-3.8h-9.8c-1.4 3.3-5.4 9.2-13.5 10v-.3c11.4-3.7 12.3-13.5 12.3-13.9 0-.3-.1-.4-.2-.6h-2.7c-1.4 0-3.5.2-4.9.5l-.9-1.6c2.8.2 5.6.3 6.3.3h3.2c0-.8 0-2.9-.5-4.3l3 .8c.5.1.6.2.6.4 0 .5-.6.8-1.1 1-.1 1.2-.1 1.7-.1 2.1h10.4l1.1-1.7c.1-.2.4-.5.6-.5s.6.3.7.4l1.8 1.7c.1.1.3.3.3.6.5.2.2.3-.1.3zm-6.8-11.3h-20.1v.6 4.2h20.1z"/></svg>