<svg height="400.62933" viewBox="0 0 400.62933 400.62933" width="400.62933" xmlns="http://www.w3.org/2000/svg" xmlns:xlink="http://www.w3.org/1999/xlink"><clipPath id="a"><path d="m0 300.472h300.472v-300.472h-300.472z"/></clipPath><g transform="matrix(1.3333333 0 0 -1.3333333 0 400.62933)"><path d="m291.969 8.504h-283.465v283.465h283.465z" fill="#332d2b" stroke="#332d2b" stroke-miterlimit="10" stroke-width="3"/><path d="m0 0-9.685-17.519 9.685-17.519-20.512 3.346-14.526-14.173-2.992 19.587-18.663 8.759 18.663 8.76 2.992 19.587 14.526-14.174z" fill="#fff" transform="translate(198.0049 220.0193)"/><path d="m0 0-9.685-17.519 9.685-17.519-20.512 3.346-14.526-14.173-2.992 19.587-18.663 8.759 18.663 8.76 2.992 19.587 14.526-14.174z" fill="none" stroke="#332d2b" stroke-miterlimit="10" stroke-width="3" transform="translate(198.0049 220.0193)"/><path d="m0 0-33.399-28.671v-213.274h283.464v27.283z" fill="#fff" transform="translate(41.9033 250.4485)"/><path d="m0 0-33.399-28.671v-213.274h283.464v27.283z" fill="none" stroke="#332d2b" stroke-miterlimit="10" stroke-width="3" transform="translate(41.9033 250.4485)"/><path d="m0 0-137.362-162.675h195.455v93.877z" fill="#fff" transform="translate(233.876 171.1784)"/><path d="m0 0-137.362-162.675h195.455v93.877z" fill="none" stroke="#332d2b" stroke-miterlimit="10" stroke-width="3" transform="translate(233.876 171.1784)"/><g clip-path="url(#a)" fill="#fff"><path d="m0 0c-34.126-7.521-65.688-57.205-65.688-57.205 32.125 42.435 54.439 54.118 65.688 57.205" transform="translate(253.2363 291.0149)"/><path d="m0 0c54.983 60.017 88.325 61.108 90.157 61.122h-2.456c-40.164-3.517-87.701-61.122-87.701-61.122" transform="translate(190.6748 230.8469)"/><path d="m0 0v1.121c-41.385-9.063-98.641-62.626-98.641-62.626 48.507 42.346 82.412 56.689 98.641 61.505" transform="translate(291.9687 289.57)"/></g></g></svg>