<svg enable-background="new 0 0 282.7 141.7" viewBox="0 0 282.7 141.7" xmlns="http://www.w3.org/2000/svg"><path d="m0 0h283.5v141.7h-283.5z" fill="#5f328f"/><path d="m24 34.6-.3-.8c.7-.5 1.4-1 2.2-1.5s1.4-.8 1.8-.9.9-.2 1.4-.2c2.1 0 3.2 1.5 3.2 4.4 0 .5-.1 1.6-.2 3.2-.2 2.8-.3 4.9-.3 6.3 0 2.8.5 4.8 1.4 5.8s2.2 1.6 3.7 1.6c2.2 0 4.1-1.1 5.8-3.3s2.5-4.8 2.5-7.7c0-1.1-.1-2.2-.4-3.1s-.6-1.8-1-2.5-.8-1.2-1.2-1.6-1-.7-1.7-1.1v-.5c1.4-.6 2.2-1 2.5-1.1s.6-.2.9-.2c1 0 1.8.7 2.6 2s1.1 2.9 1.1 4.7c0 2.5-.6 5.1-1.7 7.7s-2.7 4.7-4.8 6.2-4.2 2.3-6.6 2.3c-1.2 0-2.3-.2-3.3-.7s-1.7-1-2.3-1.8-1-1.6-1.3-2.5-.4-2.3-.4-4.3c0-.8.1-2.2.2-4.5.1-2.9.1-4.4.1-4.5 0-1-.2-1.7-.6-2s-.8-.5-1.3-.5c-.5.2-1.2.5-2 1.1zm14.3-15.4.2 1-.3.5c-2.8.5-4.2 1.8-4.2 3.8 0 .5.1 1 .3 1.5s.5.8.8 1.1.8.6 1.4 1l-.5.6c-2.5-1.3-3.8-2.9-3.8-5 0-1.2.4-2.1 1.2-2.9s2.3-1.4 4.3-1.9zm-.4 9.2 4.9-9.3h1.1l1.1 1.2-6.4 8.5z" fill="#ac8ec1"/><path d="m51 54.1-.8-.9c1-2 2-3.8 2.9-5.4s2-3.3 3.2-5 2.5-3.4 3.8-5.2l4.7-5.9-1.4-5.8c-.3-1.3-.7-2.3-1.2-2.8s-1.3-.8-2.4-.8c-.4 0-1 0-1.9.1v-.8c3.5-.8 5.8-1.2 6.7-1.2.6 0 1.1.2 1.4.6s.5 1 .7 1.8c.2.9.9 4 2.1 9.2s2.2 9.1 3 11.7 1.4 4.4 1.9 5.4.9 1.6 1.4 2 1.1.5 1.7.5c.5 0 1.1-.2 1.7-.5v.9c-1.4.9-2.4 1.5-3.2 1.9s-1.5.5-2.2.5c-1.4 0-2.5-.8-3.1-2.4s-1.8-5.9-3.4-13l-1.4-5.7c-2.3 3-4.5 6.2-6.4 9.7s-3.2 6.7-4 9.8c-1 .3-2.2.8-3.8 1.3z" fill="#ac8ec1"/><path d="m78.8 35.3-.3-1.1c2-1.2 3.4-2 4.3-2.4s1.7-.6 2.3-.6c.7 0 1.2.3 1.5.9s.6 1.7.6 3.3l.3.1c1.2-1.6 2.5-2.7 3.9-3.4s3-1 4.8-1c2.2 0 4 .6 5.2 1.8s1.9 3 1.9 5.5c0 .6 0 1.6-.1 2.8-.2 4.7-.3 9.5-.3 14.5 0 3.7.1 7.1.4 10.2l-3.8 1.4-.7-.6c.2-1.9.4-5.4.7-10.5s.4-8.8.4-11.2c0-2.7-.1-4.7-.2-5.9s-.5-2.3-.9-3.2-1.1-1.6-1.9-2.1-1.8-.7-2.9-.7c-1.4 0-2.7.4-3.7 1.1s-1.8 1.9-2.2 3.4-.7 4-.7 7.7c0 1.3.1 4 .4 8-1.6.2-2.7.4-3.4.7l-.7-.2c.1-3.3.2-6.3.2-8.8 0-2.2 0-4.4-.1-6.6s-.3-3.4-.5-3.8-.9-.6-1.4-.6c-.3 0-.6.1-1 .2s-1.1.5-2.1 1.1z" fill="#ac8ec1"/><path d="m147.7 106.5-.2 1.1c-1.9 1.1-3.7 1.6-5.2 1.6-.9 0-1.5-.2-2-.6s-.8-.9-1-1.5-.3-1.6-.3-2.8l-.4-.2c-1.3 1.8-2.6 3.1-4 4s-2.9 1.3-4.7 1.3c-2.3 0-4-.7-5.1-2.2l-.5.1c.1 6.2.5 10.8 1.2 13.9l-.4.5c-.9.1-1.8.2-2.9.3l-.4-.3c.2-6.5.3-13.1.4-19.6 0-7-.2-12.1-.5-15.3l4.1-.4.5.5c-.2 2.2-.4 4.7-.4 7.7 0 5.2.5 8.6 1.4 10s2.4 2.1 4.2 2.1c1.5 0 2.8-.4 3.9-1.2s2-1.9 2.5-3.2.8-3.3.8-5.9c0-3.9-.1-7-.2-9.6l4-.4.5.5c-.1 1-.2 2.9-.4 5.6s-.2 4.8-.2 6.1c0 2.3.1 4 .2 5.2s.4 1.9.9 2.4 1.1.8 1.9.8 1.5-.2 2.3-.5z" fill="#ac8ec1"/><path d="m150.2 98c0-3.7 1.1-6.6 3.3-8.6s5.1-3 8.9-3c2.2 0 4.1.4 5.8 1.1 1.6.7 2.9 1.9 3.8 3.4s1.4 3.5 1.4 5.9c0 2.3-.4 4.4-1.2 6.3s-2 3.4-3.8 4.6c-1.7 1.2-3.9 1.7-6.7 1.7-2.5 0-4.6-.5-6.3-1.4s-3-2.3-3.9-4-1.3-3.8-1.3-6zm4.3-.3c0 1.7.2 3.4.7 5.2s1.3 3.1 2.5 4 2.6 1.4 4.3 1.4c2.4 0 4.1-1 5.3-2.9s1.7-4.5 1.7-7.7c0-2.3-.3-4.2-.8-5.6s-1.4-2.5-2.4-3.3-2.4-1.2-3.9-1.2c-1.3 0-2.4.3-3.4.8s-1.8 1.3-2.4 2.2-1.1 2-1.3 3.1-.3 2.4-.3 4z" fill="#ac8ec1"/><path d="m193.6 121.9-.8.3c-.1-1.4-.3-2.2-.6-2.5s-1.1-.7-2.6-1.2c-2.8-1-4.7-1.8-5.8-2.3s-2.1-1.1-2.8-1.8-1.4-1.7-2.1-3.1-1.3-3.3-1.8-5.6-.8-4.7-.8-7c0-1.9.3-3.7.9-5.3s1.5-3 2.6-4.1 2.4-1.8 3.8-2.2 2.9-.6 4.4-.6c4 0 6.8 1.1 8.6 3.3s2.6 4.8 2.6 7.8c0 3.2-1 6-3 8.4-2 2.5-4.8 3.7-8.5 3.7-2.3 0-4.2-.5-5.6-1.5s-2.6-2.5-3.6-4.5h-.3c.3 2.2.6 3.9.9 5.1s.8 2.1 1.4 2.7 1.5 1.2 2.6 1.7 3 1.1 5.3 1.7c1.7.5 2.8.9 3.4 1.2s.9.6 1.1 1.1.3 1.3.3 2.7c.4.2.4.9.4 2zm-13.1-24c0 3.1.6 5.6 1.8 7.4s3.1 2.7 5.7 2.7c1.7 0 3-.4 4-1.2s1.8-1.9 2.3-3.4.8-3.4.8-5.7c0-3.2-.6-5.6-1.7-7.5s-3-2.7-5.4-2.7-4.3.9-5.6 2.6-1.9 4.4-1.9 7.8z" fill="#ac8ec1"/><path d="m219.4 121.2-2.4 1.3-.7-.4c.3-2.1.5-6.2.7-12.3-4.7 0-8.2-1.1-10.7-3.3s-3.7-5.1-3.7-8.9c0-3.9 1.3-6.8 3.9-8.8s6.1-3 10.5-3c-.1-3.7-.4-6.7-.7-9.1l2.2-.9.5.4c-.1 4.3-.2 7.5-.2 9.7 5.2 0 8.9 1 11.2 3.1s3.4 4.7 3.4 8c0 1.6-.3 3.1-.8 4.5s-1.4 2.8-2.7 4.1-2.8 2.3-4.4 3-3.9 1.1-6.6 1.2c0 1.8.2 5.6.5 11.4zm-2.4-34.1c-1.2.1-2.2.2-3.1.4s-1.7.6-2.6 1.1-1.7 1.3-2.4 2.2-1.3 2-1.6 3.2-.6 2.5-.6 3.9c0 3.1.9 5.6 2.7 7.6s4.3 3 7.7 3v-21.4zm1.9 21.5c1.2 0 2.2-.1 3.1-.3s1.8-.6 2.7-1.1 1.8-1.3 2.5-2.3 1.3-2 1.6-3.2.5-2.6.5-4.1c0-3.2-.9-5.7-2.7-7.5s-4.4-2.8-7.6-2.9v21.4z" fill="#ac8ec1"/><path d="m235.1 90.4-.3-1.1c2-1.2 3.4-2 4.3-2.4s1.7-.6 2.3-.6c.7 0 1.2.3 1.5.9s.6 1.7.6 3.3l.3.1c1.2-1.6 2.5-2.7 3.9-3.4s3-1 4.8-1c2.2 0 4 .6 5.2 1.8 1.3 1.2 1.9 3 1.9 5.5 0 .6 0 1.6-.1 2.8-.2 4.7-.3 9.5-.3 14.5 0 3.7.1 7.1.4 10.2l-3.8 1.4-.7-.6c.2-1.9.4-5.4.7-10.5s.4-8.8.4-11.2c0-2.7-.1-4.7-.2-5.9s-.5-2.3-.9-3.2-1.1-1.6-1.9-2.1-1.8-.7-2.9-.7c-1.4 0-2.7.4-3.7 1.1s-1.8 1.9-2.2 3.4-.7 4-.7 7.7c0 1.3.1 4 .4 8-1.6.2-2.7.4-3.4.7l-.7-.2c.1-3.3.2-6.3.2-8.8 0-2.2 0-4.4-.1-6.6s-.3-3.4-.5-3.8-.7-.6-1.2-.6c-.3 0-.6.1-1 .2s-1.3.5-2.3 1.1zm13.1-6.9 4.9-9.3h1.1l1 1.2-6.4 8.5z" fill="#ac8ec1"/><g fill="#fff"><path d="m159.2 28.3v1.5.1.2c0 .1 0 .2-.1.2s-.3.1-.6.1c-.2 0-.2 0-.2-.1 0-.5 0-.5 0-1.9h-1.8c-.2 1.3-.7 2.1-1.9 2.9l-.2-.1c.5-.6.8-1.1 1.1-1.9.1-.5.2-1.2.2-2.1 0-.3 0-.5 0-.9.5.3.6.4 1 .6.6-.2 1.3-.4 2-.7.4-.2.5-.3.8-.5.9.5 1.2.8 1.2.9s-.1.1-.2.1-.2 0-.5 0c-1 .3-2.1.5-3.4.7v.2.6h2.9c.3-.3.4-.4.7-.7.4.4.5.5.9.9v.1s-.1.1-.1.1h-1.8zm-4.3 9.8c1.9-.4 3.5-1.1 4.2-1.8 1.1.3 1.4.4 1.4.6 0 .1-.1.1-.3.1h-.2c-.1 0-.2 0-.3 0-1.6.7-2.9 1.1-4.8 1.3zm3.2-1.8c0 .1 0 .1-.1.2-.1 0-.4.1-.7.1-.2 0-.2 0-.2-.2.1-1.1.1-2.3.1-4.1 0-1 0-1.3-.1-2 .5.2.6.3 1.1.5h5.8c.2-.2.2-.3.4-.5.4.3.5.3.8.6.1.1.1.1.1.2s-.1.2-.4.4c0 2.2 0 3.8.1 4.8 0 .1 0 .2-.1.2s-.4.1-.7.1c-.1 0-.2 0-.2-.1v-.5h-5.9zm5.9-4v-1.2h-5.9v1.2zm-5.9.3v1.3h5.9v-1.3zm0 1.6v1.4h5.9v-1.4zm4.1-5.9c-.1.4-.2.6-.4.9-.4.6-.9 1-1.8 1.4l-.1-.1c.8-.6 1.1-1 1.3-1.6.2-.5.3-1.4.3-2.2 0-.2 0-.3 0-.5.5.3.6.3 1.1.6.5-.1 1.4-.4 2.3-.8.5-.2.6-.3.9-.5.8.5 1.2.8 1.2.9s-.1.1-.2.1-.1 0-.6-.1c-1.1.3-1.8.4-3.8.7v.2c0 .4 0 .4-.1.6h3.5c.3-.4.3-.4.7-.7.4.4.6.5 1 .9 0 0 .1.1.1.1s-.1.1-.1.1h-2.6v1.6c0 .1 0 .1-.1.1s-.4.1-.6.1c-.1 0-.2 0-.2-.2 0-.4 0-.4 0-1.1 0-.2 0-.4 0-.4s0-.1 0-.2h-1.8zm-.1 8.2c1.9.2 3.4.5 3.7.6.4.2.7.6.7 1 0 .2-.1.3-.3.3-.1 0-.1 0-.6-.3-.4-.2-1.3-.7-2-.9-.3-.1-.6-.2-1.5-.5z"/><path d="m172.1 31.7c.6.3.8.4 1.2.6.3.2.5.4.6.5s.1.2.1.4c0 .4-.2.8-.3.8s-.2-.1-.3-.3c-.4-.8-.8-1.3-1.3-1.8 0 .4 0 2.4.1 6.2 0 .1-.1.1-.2.2-.2 0-.4.1-.5.1-.2 0-.3-.1-.3-.2.1-1.2.1-1.2.1-3.7l.1-2.6c-.5 1.3-.8 1.9-1.4 2.8-.4.7-.7 1.1-1.3 1.7l-.1-.1c.8-1.3 1.1-1.9 1.7-3.4.4-1 .5-1.3.7-2.1h-1.5c-.2 0-.4 0-.6.1l-.1-.5c.2.1.5.1.7.1h1.8v-3.1c0-.5 0-1-.1-1.8 1.4.1 1.6.2 1.6.3s-.2.2-.6.3v4.3h.8c.3-.4.3-.5.6-.8.5.4.6.5 1 .9 0 0 .1.1.1.1 0 .1-.1.1-.2.1h-2.4zm-3-4.9c.4.4.6.6 1 1.3.3.4.4.7.4.9 0 .4-.3.9-.5.9-.1 0-.1 0-.2-.2 0-.1 0-.1-.1-.7s-.4-1.4-.6-2zm3.4 3c.3-.8.4-1.1.6-1.9s.2-.9.3-1.2c1.1.3 1.3.4 1.3.5s-.1.2-.5.2c-.2.5-.3.6-.7 1.3-.4.6-.5.8-.8 1.1zm7.4 3.8c.3-.5.4-.6.6-1.1.6.3.7.4 1.2.7.1.1.2.2.2.2 0 .1-.1.1-.2.1l-2.3.4v1.3 1.8 1c0 .1 0 .1-.1.2-.1 0-.4.1-.7.1-.2 0-.2-.1-.2-.2 0-.6 0-2.8 0-4l-3.9.7c-.2 0-.5.1-.7.2l-.2-.5h.1c.2 0 .5 0 .7-.1l4-.8v-3c0-2.9 0-4.5-.1-5.3 1.3.1 1.6.2 1.6.4 0 .1-.1.2-.6.3v2.7 4.6zm-5-3c1.1.4 1.8.7 2.2 1 .2.2.2.3.2.6 0 .4-.2.8-.3.8s-.2-.1-.4-.4c-.4-.6-.8-1.1-1.7-1.9zm.4-3.6c.9.4 1.3.6 1.7.9s.5.5.5 1-.1.7-.4.7c-.1 0-.2-.1-.4-.5-.4-.7-.7-1.1-1.6-2z"/><path d="m188.3 30.8h.6c.4-.4.4-.4.8-1 .5.5.6.6 1.1 1.1 0 0 .1.1.1.1s-.1.1-.1.1h-2.5v3.5 3.3c0 .1-.1.1-.2.2-.1 0-.4.1-.6.1s-.3 0-.3-.2c0-.6 0-.6 0-3.3v-3.5h-2c-.1 1.7-.2 2.7-.4 3.6-.3 1.3-.9 2.2-2.1 3.5l-.2-.1c.5-.7.7-1.1 1-1.8.6-1.4.7-2.3.8-5.2h-1.2c-.3 0-.4 0-.8.1l-.1-.5c.4.1.7.1.9.1h1.2c0-.8 0-1 0-2.7v-1h-.9c-.3 0-.4 0-.7.1l-.2-.5c.3.1.6.1.9.1h4.9c.3-.4.4-.5.8-1 .5.4.7.6 1.2 1 0 .1.1.1.1.1s0 .1-.1.1h-2.1v3.7zm-2.9-3.8c0 2.2 0 3.4-.1 3.8h2v-3.8zm3.5 10.9c2-1.2 2.8-1.8 3.9-3.1.8-.9 1.2-1.6 1.5-2.3 1.2.5 1.4.7 1.4.8s-.2.2-.4.2c-.1 0-.2 0-.3 0-1.1 1.4-1.7 2-2.7 2.8-1.1.8-1.9 1.3-3.3 1.8zm.6-4.2c1.3-.7 2.2-1.5 3.1-2.5.7-.8 1.2-1.5 1.5-2.1.3.2.6.3.8.4.5.2.7.4.7.5s-.1.2-.7.2c-1.5 1.5-1.7 1.8-2.5 2.3-.9.6-1.6 1-2.7 1.5zm.6-3.9c.9-.6 1.6-1.4 2.4-2.3.6-.8.9-1.3 1.1-1.8 1.2.6 1.5.7 1.5.8s-.1.1-.3.1h-.3c-.1 0-.1 0-.2 0-.6.8-1.2 1.3-2 2-.7.5-1.2.9-2.1 1.3z"/><path d="m200.6 28.8c.3-.4.4-.5.7-.9.5.4.6.6 1.1 1.1v.1s-.1.1-.1.1h-2.3v1.1.3c.5.3.7.4 1.1.7.7.5.9.7.9 1.1s-.2.9-.4.9c-.1 0-.2-.1-.4-.6-.3-.8-.7-1.3-1.2-1.9v7.3c0 .1 0 .1-.1.1s-.4.1-.7.1c-.1 0-.2 0-.2-.2.1-2.3.1-2.3.1-3.1 0-.4 0-.7 0-1 0-1 0-1.7 0-2l.1-1.6c-.4 1.1-.6 1.6-1.1 2.5s-.9 1.4-1.6 2.1l-.1-.1c.7-1.2 1.3-2.3 1.8-3.6.3-.9.5-1.4.7-2.4h-1.3c-.3 0-.6 0-.9.1l-.1-.5c.4.1.7.1 1 .1h1.4v-1.5c0-.8 0-1-.1-1.6 1.4.2 1.6.2 1.6.4 0 .1-.1.2-.6.4v2.4h.7zm6.9-2.2c.3-.3.3-.4.6-.6.4.3.5.4.9.6.1.1.2.2.2.2 0 .1-.1.2-.5.4v10.5c0 .1 0 .1-.1.2-.1 0-.4.1-.7.1-.2 0-.2 0-.2-.2v-.9h-4v.9c0 .2-.2.2-.8.2-.2 0-.2 0-.2-.2.1-1.9.1-1.9.1-6.4 0-2.8 0-3.8 0-5.6.5.3.6.4 1.1.7h3.6zm.1.4h-4v2.8h4zm-4 3.1v3h4v-3zm0 3.3v3.2h4v-3.2z"/><path d="m210.6 28.1c.4.1.7.1 1.1.1h2.3c.3-.4.4-.5.8-.8.5.4.6.5 1.1 1 0 0 .1.1.1.1 0 .1-.1.1-.2.1h-4c-.4 0-.6 0-.9.1zm.4 2c.3.1.7.1 1.1.1h1.1l.7-.8c.4.4.6.5 1 .9 0 .1.1.1.1.1s-.1.1-.2.1h-2.7c-.4 0-.6 0-.9.1zm0 1.8c.4.1.6.1 1.1.1h1.3c.3-.3.3-.3.7-.8.4.4.6.5 1 .8 0 .1.1.1.1.1 0 .1-.1.1-.2.1h-2.8c-.4 0-.6 0-1 .1zm.1-5.6c.3.1.7.1 1 .1h1.3c.3-.4.4-.5.7-.8.5.4.6.5 1.1.9 0 .1.1.1.1.1 0 .1-.1.1-.2.1h-3c-.4 0-.5 0-.9.1zm1 11.8c0 .2-.1.2-.7.2-.1 0-.2 0-.2-.1 0-1.1 0-1.1 0-3.7 0-.7 0-.8 0-1.3.5.3.6.4 1 .8h1.5c.2-.3.3-.4.5-.6.3.3.4.3.7.6.1.1.2.2.2.2 0 .1-.1.2-.5.4v3.3c0 .2-.1.3-.4.3-.1 0-.2 0-.2 0s0 0 0 0c-.1 0-.2-.1-.2-.2v-.5h-1.7zm0-.9h1.7v-2.9h-1.7zm2.5-6.1c.9-.8 1.7-1.6 2.5-2.8.6-1 1-1.7 1.4-2.8 1.4.4 1.4.4 1.4.5s-.1.2-.4.3c.5 1.1 1 1.7 1.9 2.3.8.6 1.5.9 2.5 1.1v.2c-.5.2-.8.4-1 .9-1-.6-1.8-1.2-2.4-2-.6-.7-.9-1.3-1.3-2.3-.7 1.3-1.3 2.1-2.3 3.1-.7.7-1.3 1.2-2.1 1.7zm3.8 3.5v.1 3c0 .1-.1.2-.4.2-.1 0-.2 0-.2 0-.2 0-.2-.1-.2-.2 0-.9 0-1.5 0-3v-.1h-1.2v1.4 2.2c0 .2-.2.2-.7.2-.1 0-.2 0-.2-.2 0-1.8 0-2 0-3.1 0-1.8 0-3 0-3.8.4.2.6.3 1 .5h5c.3-.3.3-.3.6-.5.4.3.4.3.7.6.2.1.2.1.2.2s-.1.2-.4.4v3.4 1.5c0 .3-.1.4-.3.6-.2.1-.4.1-.9.2-.1-.5-.3-.7-.9-.8v.3c0 .2-.1.2-.5.2-.3 0-.3 0-.3-.2 0-.2 0-.3 0-.4s0-.2 0-.3c0-.7 0-1.8 0-2.3v-.1zm-.8-2.4h-1.2v2.1h1.2zm-.7-2.2c.5.1.7.1 1.2.1h1.5c.3-.4.3-.4.6-.8.4.4.5.5.9.9 0 0 .1.1.1.1s-.1.1-.1.1h-3.1c-.4 0-.6 0-1.1.1zm2.8 2.2h-1.2v2.1h1.2zm2 2v-2.1h-1.2v2.1zm-1.2.5v.8 1.7c.4 0 .6.1 1 .1.2 0 .2-.1.2-.2v-2.5h-1.2z"/><path d="m230.4 37c1.5-.4 2.5-1 3.3-1.9s1.2-2.1 1.2-3.4c0-1.4-.5-2.4-1.6-3.1-.6-.4-1.5-.6-2.4-.6-.2 0-.3 0-.5 0 .3.5.4.8.4 1.2 0 1.1-.8 3.1-1.8 4.8-.9 1.4-1.6 2.1-2.1 2.1-.2 0-.5-.1-.6-.3s-.2-.2-.4-.9c-.1-.4-.2-.5-.6-1.3-.2-.4-.3-.8-.3-1.3 0-.9.5-1.9 1.3-2.8 1.1-1.2 3-2 4.8-2 1.4 0 2.7.5 3.6 1.3s1.3 1.9 1.3 3.3c0 1.8-1 3.3-2.8 4.2-.8.4-1.5.7-2.7.9zm-4.6-4.3c0 .7.2 1.4.6 1.8.2.3.4.4.5.4.3 0 1-.8 1.7-1.8 1-1.7 1.8-3.5 1.8-4.3 0-.2 0-.4-.2-.7-2.5.4-4.4 2.4-4.4 4.6z"/><path d="m144.2 51.6c.3-.3.3-.4.6-.7.4.3.6.4 1 .8.1.1.1.1.1.2s-.2.2-.8.3c-1.5 2.1-2.6 3.2-4.3 4.3-1.4.9-2.6 1.4-4.4 1.8l-.1-.2c1.8-.7 3.1-1.5 4.5-2.5 1.4-1.1 2.3-2.1 3.3-3.6h-3.1c-.4.5-.8.8-1.3 1.3.6.2 1 .4 1.3.7.2.2.3.3.3.6s-.2.7-.4.7c-.1 0-.1-.1-.2-.2s-.3-.6-.5-.8c-.2-.3-.4-.5-.7-.7-1 .8-1.8 1.3-3 1.8l-.1-.2c1.3-.8 2.3-1.7 3.2-2.7.8-.9 1.2-1.5 1.5-2.4.5.2 1.2.4 1.4.5.1 0 .1.1.1.1v.1s-.1 0-.2.1c-.2 0-.2 0-.4.1-.3.4-.4.5-.7.9h2.9zm-.6 4.9c-.5.5-.8.7-1.3 1.1.7.4 1.1.6 1.2.7.4.3.5.4.5.8 0 .3-.3.8-.4.8s-.1-.1-.2-.2c-.1-.2-.4-.8-.6-1.1s-.4-.6-.7-.9c-1.2.9-2.3 1.5-3.9 2.1l-.1-.2c2.8-1.5 4.9-3.4 5.8-5.2 1 .3 1.3.4 1.3.5s-.2.2-.6.3c-.4.4-.5.5-.8.9h3c.3-.3.4-.4.7-.6.5.3.6.4 1 .7.1 0 .1.1.1.1 0 .1 0 .1-.7.4-.7 1.2-1.3 1.9-2.2 2.7-1.5 1.3-3.1 2.2-5.2 2.7-.9.2-1.7.4-3.2.6l-.1-.2c2.3-.5 4.1-1.2 5.6-2 1.2-.7 2.3-1.7 3.2-2.7.3-.4.5-.7.9-1.4h-3.3z"/><path d="m157.4 51.5c.2-.3.3-.4.5-.6.4.3.5.4.9.7.2.1.2.2.2.3 0 0-.1.1-.1.1-.1 0-.2.1-.8.2-.7.7-.9 1-1.7 1.6h3.6c.2-.3.3-.3.5-.6.3.2.4.3.7.6.2.1.2.2.2.3 0 0 0 .1-.1.1s-.1.1-.2.1c0 0-.1.1-.2.1v3.9 3.1c0 .5-.1.7-.3.8-.2.2-.4.3-1.4.6 0-.4-.1-.5-.4-.7-.4-.2-.8-.3-1.8-.5v-.2c.8.1.8.1 2.5.2.3 0 .4-.1.4-.3v-2.5h-7.2c-.1.7-.3 1.2-.5 1.8-.5 1-1 1.5-1.9 2.2l-.1-.1c.8-1.1 1.1-1.6 1.4-2.6.2-.9.4-2.5.4-4.5 0-.5 0-.5 0-1.8-.7.5-1.1.8-2.1 1.3l-.1-.1c1.3-1 2.2-1.9 3.1-3.2.6-.8.8-1.2 1.1-1.9 1.2.3 1.2.3 1.4.4.1 0 .1.1.1.1 0 .1-.2.2-.7.3-.3.4-.3.4-.6.7h3.2zm-1.3 2.3c.6-.9.8-1.1 1.2-1.9h-3.3c-.7.8-1 1.2-1.5 1.6.2.1.3.2.5.4h3.1zm-.1 4.8v-2.2h-3c0 1.3 0 1.6-.1 2.2zm0-2.6v-1.9h-3v.8 1.1zm4.1-1.9h-3.2v1.9h3.2zm-3.2 2.3v2.2h3.2v-2.2z"/><path d="m167.4 52.9c.2-.3.3-.3.5-.6.3.2.4.3.7.6.1.1.1.1.1.2s-.1.1-.5.3v1.8 6.3.1c0 .1-.1.2-.5.2-.1 0-.2 0-.2 0-.1 0-.2 0-.2-.1v-.8h-2.3v1.1c0 .2-.1.2-.5.2 0 0-.1 0-.2 0-.2 0-.3 0-.3-.2.1-1.6.1-2 .1-4.5 0-3.1 0-3.9-.1-5.4.5.3.6.4 1.1.7h.4c.4-1.6.5-2 .6-2.7.6.2 1.3.4 1.4.4s.1.1.1.1c0 .1-.1.2-.7.3-.4.8-.6 1.2-1.2 1.8h1.7zm0 3.5v-3.2h-2.4v3.2zm-2.4.3v3.8h2.5v-3.8zm9.5-3.8c.3-.3.4-.4.6-.7.4.3.5.4.8.7.1.1.1.2.1.2 0 .1 0 .1-.5.4-.1 3.2-.1 3.6-.3 5.3-.2 1.6-.5 2.6-.9 3.1-.3.4-.5.4-1.6.6-.1-.5-.2-.6-.4-.8-.1-.1-.4-.2-.7-.2h-.4c-.1 0-.3 0-.4-.1v-.2h.6 1.4c.8 0 .8 0 1-.3.2-.4.4-1.5.6-2.6.2-1.6.3-3 .3-5.3h-3.8c-.9 1.7-1.3 2.3-2 3.1l-.2-.1c.7-1.1 1.1-2 1.5-3.3.4-1.1.6-1.9.6-2.7.6.1 1.3.3 1.5.4.1 0 .1.1.1.1 0 .1-.1.2-.6.3-.2.7-.4 1.1-.8 1.9h3.5zm-4.1 2.2c1 .7 1.5 1.1 2 1.6.4.4.5.6.5 1 0 .5-.2 1-.5 1-.1 0-.2-.1-.3-.3-.2-.5-.4-.9-.6-1.4-.4-.8-.6-1.1-1.2-1.7z"/><path d="m177.8 53c.7.6 1.1.8 1.8.8.4 0 .7-.1 1.3-.2.4-.9.5-1.5.5-2s-.2-.7-.9-1.1c.2-.1.2-.1.3-.1.3 0 .7.1 1.1.3.5.2.7.4.7.6 0 .1 0 .2-.1.4-.1.1-.4.7-.9 1.7 1-.4 1.2-.4 1.6-.8.1-.1.2-.1.3-.1.5 0 1 .2 1 .4 0 .4-.9.7-3.1 1.2-.1.3-.4.9-.7 1.7-.4 1-1.5 3.3-1.6 3.6-.2.4-.3.5-.5.5s-.4-.4-.4-1c0-.3 0-.4.2-.5.3-.3.5-.5.7-.8.7-1 1.2-2 1.8-3.3-.3 0-.4.1-.7.1-.5 0-.9-.1-1.2-.3-.4-.2-.7-.6-1-1zm7.4.8c1 .1 1.8.3 2.4.8.5.4.9.8.9 1.1 0 .2-.1.4-.4.4-.1 0-.2 0-.3-.1-.4-.2-.7-.3-1.4-.3-1.1 0-1.5.3-1.5 1.3 0 .4.1 1 .3 2.4.9.3 1.6.6 2 .9s.6.7.6 1.1c0 .3-.1.5-.3.5-.1 0-.2 0-.5-.4-.5-.5-1-.9-1.7-1.2v.3c0 .6-.1.9-.4 1.2-.4.4-1 .6-1.8.6-1.3 0-2.1-.6-2.1-1.5 0-1 1.1-1.7 2.6-1.7.3 0 .5 0 .8.1 0-1.1 0-1.2 0-1.4 0-1.1.1-1.6.5-2 .3-.3.7-.5 1.3-.7.2-.1.2-.1.8-.2-.4-.4-.8-.6-1.8-1zm-.7 6.1c-.4-.1-.8-.2-1.2-.2-1.2 0-1.9.4-1.9 1.1 0 .5.5.8 1.4.8 1.1 0 1.7-.5 1.7-1.3z"/><path d="m193.1 53.3c.3-.4.3-.4.6-.8.4.4.6.5 1 1 0 0 .1.1.1.1 0 .1-.1.1-.2.1h-2v1.3c.4.2.5.3.9.6.5.4.6.5.6.9s-.3.9-.5.9c-.1 0-.1-.1-.2-.3-.2-.9-.5-1.5-.8-1.9v7.5c0 .1-.1.1-.1.2 0 0-.5.1-.6.1s-.2-.1-.2-.2c0-1.1 0-1.1.1-2.7 0-.6 0-1.6.1-2.9v-1.7c-.6 2.2-1.1 3.1-2 4.3l-.1-.1c.6-1.2.9-1.9 1.4-3.8.3-1.1.4-1.5.5-2.3h-.7c-.4 0-.6 0-.8.1l-.1-.6c.4.1.5.1 1 .1h.9v-1.8c0-.7 0-.9-.1-1.4 1.4.1 1.6.2 1.6.3s-.1.2-.6.3v2.6h.2zm7.3 2.4c.3-.3.3-.3.6-.6.3.2.4.3.8.6.1.1.2.1.2.2s-.1.2-.4.3v1 1.7c0 .1 0 .1-.1.2-.1 0-.4.1-.6.1-.1 0-.2-.1-.2-.2v-.5h-2.2c.5.9.7 1.2 1.3 1.6.9.7 1.9 1.1 3.4 1.4v.2c-.5.2-.8.4-1 1-1.1-.5-1.7-.9-2.5-1.8-.7-.8-1.1-1.3-1.4-2.2-.4 1.3-.8 2-1.8 2.7-.7.5-1.5.9-2.9 1.4l-.1-.2c1.5-.7 2.5-1.4 3.2-2.4.4-.5.5-1 .7-1.7h-1.8v.5c0 .2-.1.2-.5.2-.1 0-.2 0-.3 0-.1 0-.2-.1-.2-.2 0-.6.1-1.8.1-2.1 0-.6 0-1.1-.1-1.9.5.3.6.3 1 .6h1.9c0-.1 0-.1 0-.2 0-.3 0-.7 0-1.3h-.9c-.4 0-.5 0-.8.1l-.1-.5c.4.1.6.1.9.1h2.2c.3-.3.4-.4.7-.8.4.4.5.5 1 .9.1.1.1.1.1.1s-.1.1-.1.1h-2v1 .5h1.9zm-7-.7c1.4-1.1 1.9-1.6 2.6-2.6.7-.9 1-1.5 1.3-2.3.3.1.5.1.6.1.8.2.9.2.9.3s-.1.1-.6.3c.7 1 1.3 1.4 2.4 1.9.8.4 1.5.6 2.6.8v.2c-.5.1-.7.4-.9 1-1.1-.5-1.7-.9-2.4-1.5s-1.2-1.2-1.8-2.1c-1.3 2-2.6 3.1-4.5 4.2zm2.1 1v2.1h1.8c.1-.7.1-1.1.2-2.1zm2.9 0c0 .9-.1 1.5-.2 2.1h2.4v-2.1z"/><path d="m204.1 52.7c.4.1.8.1 1.2.1h2.8c.3-.4.4-.5.7-.9.5.4.6.5 1.1 1v.1c0 .1-.1.1-.2.1h-4.5c-.4 0-.6 0-1.1.1zm.4-1.9c.5.1.8.1 1.2.1h1.7c.3-.4.4-.5.7-.9.5.4.7.6 1.2 1v.1c0 .1-.1.1-.2.1h-3.5c-.3 0-.6 0-1.1.1zm.1 3.8c.3.1.8.1 1.1.1h1.8c.3-.4.4-.5.7-.8.5.4.6.5 1.1 1 0 0 .1.1.1.1 0 .1-.1.1-.2.1h-3.5c-.4 0-.6 0-1.1.1zm0 1.9c.4.1.7.1 1.1.1h1.8c.3-.4.4-.5.7-.9.5.4.6.5 1 1v.1s-.1.1-.2.1h-3.4c-.2 0-.3 0-1.1.1zm1 6.1c0 .1 0 .2-.1.2-.1.1-.4.1-.6.1-.3 0-.3 0-.3-.2.1-1.9.1-2.1.1-2.9s0-1.1 0-1.9c.5.2.6.3 1.1.6h2c.2-.3.3-.3.5-.6.4.3.5.4.8.6.1.1.1.1.1.2s0 .1-.4.4v1 2.2c0 .1 0 .1-.1.2-.1 0-.4.1-.7.1-.1 0-.2 0-.2-.2v-.4h-2.2zm0-.8h2.2v-2.9h-2.2zm9.4-8.2c.3-.4.4-.5.7-1 .5.4.7.6 1.2 1.1v.1c0 .1-.1.1-.2.1h-2v4 3.7c0 .7-.4.9-1.7 1.2-.1-.5-.1-.6-.4-.7-.3-.2-.7-.3-1.8-.4v-.2c1.7.1 1.7.1 2.7.2.2 0 .2 0 .2-.3v-7.4h-2.7c-.5 0-1 0-1.3.1l-.1-.5c.4.1.9.1 1.4.1h2.8v-1.9c0-.7 0-1 0-1.5.3 0 .5.1.7.1.6.1.9.2.9.3s-.1.2-.6.4v2.7h.2zm-4.6 1.5c.9.8 1.4 1.4 1.9 2 .2.3.3.4.3.8 0 .5-.3 1.1-.5 1.1s-.3-.2-.4-.6c-.3-1.2-.7-2-1.4-3.1z"/><path d="m220.6 50.7c.4 0 1.1.1 1.4.3.3.1.4.3.4.4 0 .1 0 .1-.1.4-.2.5-.3 1.7-.3 2.8 0 .8.1 1 .5 1 .3 0 .6-.1 1.9-.7.3-.1.4-.2.6-.2.3 0 .7.3.7.6 0 .2-.1.3-.3.4-.1 0-.3.1-.9.3-1.7.5-2.6.9-3.5 1.6-.8.6-1.1 1.1-1.1 1.8 0 1 .8 1.5 2.4 1.5.9 0 2.2-.2 3.2-.4h.3c.4 0 .8.4.8.7s-.2.4-.6.5-1.8.2-2.7.2c-1 0-1.8-.1-2.4-.3-.9-.4-1.5-1.1-1.5-2.1 0-.8.4-1.6 1.4-2.4.4-.4.9-.7 1.7-1.1-.3 0-.4 0-.7-.2-.2-.2-.3-.5-.4-1.1 0-.3-.1-.6-.1-1.7 0-1.2-.1-1.4-.2-1.6-.2-.3-.4-.4-1-.5.1-.1.2-.2.5-.2z"/><path d="m239.2 52.2c.4-.5.5-.7.8-1.1.6.5.8.6 1.4 1.2.1.1.1.1.1.1 0 .1-.1.1-.2.1h-10.5v.9c0 1.6-.1 3.1-.2 4.3-.2 1.4-.5 2.6-1.3 3.9-.3.4-.4.7-.8 1.1l-.2-.1c.6-1 .9-1.9 1.1-3.1.2-1.1.3-2.5.3-5.6 0-1.4 0-1.7-.1-2.5.5.3.7.4 1.2.7h3.8v-1.1c0-.4 0-.5-.1-1 1.3.1 1.7.2 1.7.4 0 .1-.2.2-.6.3v1.5zm-6.8 4v1c0 1.3-.1 2.1-.4 2.9-.1.3-.3.5-.5.5s-.3-.1-.4-.3c-.2-.2-.2-.5-.2-.6s0-.2.3-.5c.5-.6.8-1.6.9-3zm1.4-.5c0-.7 0-.9-.1-1.5 1.4.1 1.7.2 1.7.4 0 .1-.2.2-.6.3v6.3c0 .2 0 .3.1.3.1.1.5.1 1.1.1h.5.9c.4 0 .5-.1.6-.3s.1-.3.3-1c.2-.8.4-1.4.4-1.8h.1v2.5c0 .4 0 .4.1.4 0 0 0 0 .3.1.2 0 .4.2.4.4s-.1.4-.4.4c-.3.1-1.2.2-2.7.2-1.3 0-2.1-.1-2.3-.2s-.3-.3-.4-.8c0-.3 0-.5 0-.7s0-.2 0-1.4zm1.6-2.5c.9.4 1.6.8 2.1 1.3.3.2.4.4.4.7s-.1.6-.2.8c-.1.1-.2.2-.3.2s-.2-.1-.4-.5c-.4-.8-1-1.6-1.8-2.3zm3.5 3c1.8 1.4 2.5 2.2 2.5 2.8 0 .5-.4 1.1-.6 1.1-.1 0-.1 0-.2-.1s-.1-.1-.3-.9c-.2-.7-.8-1.7-1.5-2.8z"/><path d="m245.2 57.5c-.1 1.1-.4 2-.9 2.9-.5 1.1-1.1 1.8-2 2.5l-.2-.1c.9-1.1 1.4-2.2 1.8-3.7.3-1.1.3-1.8.4-3.7 0-.7 0-2.6 0-3.1 0-.7 0-1.1-.1-1.8.5.3.7.4 1.1.7h7.5c.2-.3.3-.4.6-.7.4.3.5.4.9.7.1.1.2.1.2.2s-.1.2-.5.4v6.5 3.6c0 .4-.1.5-.4.6s-.6.2-1.2.4c-.2-.8-.3-.9-1.9-1.1v-.2c.5 0 .5 0 1.3.1h.9.1c.1 0 .2 0 .2-.2v-3.8h-3.5v1.3 1.7 1.2c0 .2-.1.3-.6.3-.1 0-.1 0-.2 0-.2 0-.3-.1-.3-.2 0-.9 0-2.4 0-3v-1.3h-3.2zm3.4-3.2h-3.3c0 1.3 0 2-.1 2.9h3.4zm0-2.9h-3.3v.7.9 1.1h3.3zm4.4 2.6v-2.6h-3.5v2.6zm0 3.2v-2.9h-3.5v2.9z"/><path d="m42.1 90.2c.3-.4.4-.5.8-.9.5.4.7.5 1.2 1v.1s0 .1-.1.1h-9.5c-.3 0-.8 0-1.1.1l-.2-.5c.4 0 1.1.1 1.3.1h4.5c.5-1.2.7-1.7 1.1-3 .5-1.5.7-2.4.9-3.4.3.1.5.2.7.2.6.2.8.3.8.4s-.1.1-.5.2c-1.2 3.1-1.5 3.7-2.6 5.6zm-.3-7.2c.3-.4.4-.5.7-.9.5.4.7.5 1.2.9v.1s0 .1-.1.1h-8.8c-.1 0-.5 0-.9.1l-.1-.5c.4.1.9.1 1.1.1h3.3v-1.5c0-.5 0-.6-.1-.9 1.4.1 1.5.2 1.5.3s-.2.2-.5.3v1.9zm-6.3.9c.6.8 1.3 2.2 1.8 3.3.2.4.3.8.3 1.1 0 .5-.4 1.2-.7 1.2 0 0-.1 0-.1-.1-.1-.1-.1-.2-.1-.5-.1-.5-.3-2-.5-2.6-.2-.7-.4-1.3-.8-2.3z"/><path d="m44.9 85.6c1.4-.9 2.4-1.7 3.4-2.8.8-.9 1.3-1.6 1.7-2.4.3.1.5.1.6.2.6.2.8.2.8.3s-.1.1-.5.2c.6.9 1.4 1.6 2.3 2.1.6.3 1.4.7 2.1.9.3.1.5.1 1 .2v.1c-.5.1-.7.4-.8.9-1-.4-1.8-.9-2.7-1.7-1-.8-1.5-1.5-2.1-2.5-.9 1.1-1.6 1.9-2.7 2.8-1 .8-1.8 1.2-3 1.8zm4.2.2c.2-.2.2-.3.4-.5.3.2.4.3.6.5.1.1.1.1.1.2s-.1.1-.3.3v3.6c0 .1-.1.2-.6.2-.2 0-.2 0-.2-.2v-.6h-2v1c0 .2-.1.2-.5.2-.2 0-.3 0-.3-.1 0-2.1 0-2.2 0-3 0-1.1 0-1.5 0-2.1.4.2.5.3.9.5zm-1.9 3.2h2v-2.9h-2zm.9-4.9c.3.1.5.1.8.1h2.4c.2-.2.4-.5.6-.7.4.3.6.4 1 .8 0 0 .1.1.1.1s0 .1-.1.1h-3.9c-.2 0-.4 0-.7.1zm3.8 5.6v1.5c0 .2-.1.2-.5.2-.2 0-.3 0-.3-.1 0-2.2 0-2.6 0-4 0-1.2 0-1.5 0-1.9.4.2.5.3.9.5h1.8c.2-.2.3-.3.5-.5.3.2.4.3.6.5.1 0 .1 0 .1.1s-.1.2-.4.3v2.1 1 .3c0 .3-.1.4-.3.5s-.4.2-.9.2c-.1-.6-.2-.6-1.2-.7v-.2h1.1.2.3c.1 0 .2 0 .2-.2v-3.3h-2v3.7z"/><path d="m59.6 83.2c0-.3 0-.4 0-.7.9.1 1 .1 1.1.2 0 0 .1.1.1.1 0 .1 0 .1-.4.2v1h.6l.5-.5c.2.2.3.3.6.4.1.1.2.1.2.2s-.1.1-.3.3v.5 1.3 1.7c0 .1 0 .1-.1.1s-.3.1-.5.1c-.1 0-.2 0-.2-.1v-.4h-2.2v2.4c1.1-.2 1.1-.2 2.2-.5-.3-.5-.5-.7-.9-1.1l.1-.1c1.1.7 1.4.8 1.7 1.2.2.2.3.3.3.5 0 .4-.2.8-.4.8-.1 0-.1 0-.3-.3-.1-.2-.2-.5-.4-.8-.6.3-2.2.9-3.4 1.3 0 .3-.1.4-.2.4s-.1 0-.2-.1c0 0-.1-.2-.1-.4-.1-.3-.1-.3-.2-.6.4 0 .5 0 1-.1v-6.3c-.5.6-.7.7-1.2 1.1l-.1-.2c.8-.9 1.1-1.3 1.6-2.2.6-1 .8-1.5 1-2.1 1 .3 1.3.4 1.3.5s-.1.1-.5.2l-.1.1c.6.1 1 .3 1.4.5s.5.4.5.7c0 .4-.1.6-.3.6-.1 0-.1 0-.2-.2-.5-.6-1.1-1.2-1.5-1.4-.5.8-1 1.5-1.7 2.3.2.1.3.2.6.4h.7v-1zm1.4 2.3v-1.2h-2.2v1.2zm-2.1.3v1.5h2.1v-1.5zm5.7-3.8v-.7c0-.3 0-.5-.1-.9.9.1 1.1.1 1.2.2 0 0 .1.1.1.1 0 .1-.1.2-.5.3v1h1.3c.2-.3.3-.4.5-.7.4.3.5.4.8.7.1.1.1.2.1.2 0 .1-.1.2-.6.2-.4.4-.6.5-1 .7l-.1-.1c.2-.3.2-.3.4-.8h-3.6c0 .4-.1.6-.2 1 .4.2.5.3.8.5h2.2c.2-.2.2-.3.4-.5.3.2.4.3.7.5.1.1.1.1.1.2s-.1.1-.3.3v.6 1.6c0 .2-.1.2-.6.2-.1 0-.1 0-.2-.1v-.3h-2.4v1.4h2.7l.4-.6c.3.2.4.3.7.5.1.1.2.2.2.2 0 .1-.1.1-.3.3v.8 2.2c0 .1 0 .1-.1.1s-.3.1-.6.1c-.1 0-.2 0-.2-.1v-.7h-2.8v.8c0 .1 0 .1-.1.1s-.3 0-.5 0c-.1 0-.2 0-.2-.1 0 0 0 0 0-.1 0-1.7 0-5.3 0-6.4 0-.2 0-.3 0-.7 0-.3 0-.6 0-.9-.1.2-.2.3-.3.4-.1 0-.2.1-.2.1-.2 0-.3-.3-.3-.7 0-.1 0-.2.2-.2.2-.1.3-.2.4-.5.2-.4.3-.7.3-1.3h.2v.4.5h1.5zm1.6 4v-2h-2.4v2zm.4 4.2v-2.3h-2.8v2.3z"/><path d="m74.9 84.1c.4 1.3.8 2.2 1.4 3.1.7.9 1.5 1.8 2.5 2.4.5.3.8.4 1.6.7v.2c-.7.1-.8.2-1.1.8-1-.6-1.4-1-2.1-1.7-.8-.9-1.5-2-1.9-3.1-.2-.6-.4-1.2-.6-2-.1 1.5-.7 2.9-1.7 4.1-.6.8-1.5 1.5-2.4 2-.5.3-.8.4-1.6.7v-.2c1.1-.6 1.6-1 2.2-1.5 1.6-1.4 2.5-3.3 2.7-5.5h-3.5c-.5 0-.7 0-1.1.1l-.1-.5c.5.1.7.1 1.2.1h3.4c.1-.7.1-1.6.1-2.4 0-.3 0-.5-.1-.8 1.4.1 1.5.1 1.5.3 0 .1-.2.2-.5.3 0 1.4-.1 1.9-.1 2.6h3.4c.3-.4.4-.6.7-.9.5.4.7.6 1.2 1 0 0 .1.1.1.1 0 .1-.1.1-.1.1z"/><path d="m90.2 87.2c.3-.4.4-.5.8-.9.5.4.6.6 1.1 1v.1s-.1.1-.1.1h-4.9v1.4 1.6c0 .4-.1.5-.4.7-.3.1-.5.2-1 .3-.1-.6-.2-.7-1.9-.9v-.2c.9.1 1 .1 2.3.1.2 0 .2 0 .2-.2v-2.8h-4c-.4 0-.6 0-1 0l-.1-.4c.4.1.6.1 1 .1h4v-.2c0-.2 0-.3 0-1 .2 0 .5.1.9.2.5-.4.7-.7 1.3-1.4h-4.2c-.4 0-.5 0-.9.1l-.1-.4c.3.1.6.1.9.1h4.3l.5-.5c.4.3.5.4.8.6.1.1.2.1.2.2s-.1.2-.6.2c-1 .8-1.4 1-2 1.3.1 0 .2.1.2.1 0 .1-.1.1-.5.2v.6h3.2zm.2-4.2c.3-.3.3-.4.6-.6.4.3.6.4 1 .7.1.1.2.1.2.2s-.2.2-.7.2c-.2.3-.2.3-.6.7-.2.3-.2.3-.5.5h-.1c.2-.4.2-.6.3-1.4h-7.8c-.1.8-.2 1.2-.5 1.6-.2.2-.4.4-.5.4s-.2-.1-.2-.2c-.1-.2-.1-.4-.1-.5 0-.2.1-.3.4-.5.5-.4.7-.9.8-1.8h.2v.7h5.4c.5-.7.9-1.5 1.3-2.4 1.1.4 1.3.5 1.3.6s-.1.2-.3.2c-.1 0-.2 0-.3 0-.8.9-1 1.1-1.7 1.6zm-7-2.3c.4.3.9.6 1.1.9.2.2.3.3.3.5s-.1.5-.3.7c0 .1-.1.1-.2.1s-.2-.1-.3-.4c-.2-.7-.4-1.1-.8-1.6zm2.4-.3c1 .8 1.5 1.2 1.5 1.5 0 .2-.1.5-.2.7-.1.1-.2.2-.3.2s-.2-.1-.3-.5c-.3-.9-.3-1.1-.8-1.7z"/><path d="m30.5 97.2c.4 1.6.6 2.4 1.2 3.3.8-.7 1.4-1.4 1.9-2.3 1.1.6 1.2.6 1.2.7s-.1.1-.3.1c-.1 0-.2 0-.3 0-.5.4-1.8 1.3-2.4 1.6.5.8 1 1.4 1.7 1.9.7.6 1.3.9 2.2 1.3v.1c-.5.1-.7.3-1 .7-1.4-.8-2.6-2.2-3.4-3.9-.6-1.2-.8-2.1-1.1-3.6-.5.8-1 1.4-1.8 2.2v3.9c1.3-.4 2-.6 3-1l.1.2c-.8.5-1.5.9-2.7 1.4l-2.3 1v.3c0 .2-.1.2-.1.2s-.1 0-.2-.1c0-.1-.2-.4-.4-1.2.7-.1.9-.1 1.9-.4v-3.4c-1 .8-1.7 1.2-2.8 1.8l-.1-.2c1.1-.7 2.1-1.5 3-2.6.7-.7 1-1.2 1.5-2h-3.4c-.1 0-.1 0-.5 0-.2 0-.2 0-.4 0l-.1-.5c.4.1.9.1 1 .1h3.8v-1.1c0-.3 0-.7-.1-1.2.2 0 .6.1 1.2.2.2 0 .2.1.2.1 0 .1-.1.2-.6.3v1.6h3.1c.3-.4.4-.5.7-.9.5.4.6.6 1.2 1v.1s0 .1-.1.1h-4.8z"/><path d="m40.6 96.3c.3-.3.3-.4.6-.7.3.3.6.6.9.8v.1s-.1.1-.1.1h-2.5c.5.4.8.7 1.1 1.1.1.2.1.3.1.4 0 .4-.3.9-.5.9-.1 0-.1 0-.2-.4-.2-1.1-.3-1.2-.7-2h-.6c-.6.8-1.1 1.3-2 2.2l-.1-.1c.9-1.1 1.3-1.8 1.7-2.7.3-.7.4-1.1.5-1.5 1.2.3 1.3.3 1.3.4s-.1.1-.6.2c-.3.6-.4.9-.7 1.3h1.8zm5 8.2c.4-.4.5-.5.8-.9.5.4.7.5 1.2 1 0 0 .1.1.1.1s0 .1-.1.1h-9.6c-.5 0-.9 0-1.3.1l-.1-.5c.6.1.8.2 1.4.2h4.6c.3-.6.4-.9.7-1.8.6-1.5.7-1.8.8-2.3 1.1.3 1.3.4 1.3.5s-.1.1-.5.2c-.7 1.2-1.6 2.7-2.1 3.3zm-.3-4.7c.3-.4.5-.5.8-.9.5.4.6.5 1.1.9 0 .1.1.1.1.1s-.1.1-.1.1h-8.4c-.3 0-.9.1-1.2.1l-.1-.6c.4.1.7.2 1.3.2h2.9v-.7c0-.3 0-.5 0-.9 1.1.1 1.3.2 1.3.3s-.1.2-.4.2v1.2zm-6 .7c.6.7 1.1 1.2 1.4 1.7.2.3.3.6.3.9 0 .6-.3 1.2-.6 1.2-.1 0-.1 0-.4-1.1-.1-.6-.6-1.8-.9-2.6zm6.5-4.2c.3-.4.4-.5.7-.8.5.4.6.5 1 .9 0 .1.1.1.1.1s0 .1-.1.1h-3.5c.9.7 1.3 1.2 1.3 1.5s-.3.8-.5.8c-.1 0-.1-.1-.2-.2-.3-1.1-.5-1.4-.9-2.1h-.8c-.4.6-.7.9-1.4 1.5l-.1-.1c.7-1 1-1.4 1.4-2.3.3-.7.4-.9.5-1.3 1.2.3 1.3.3 1.3.4s-.1.1-.5.2c-.3.6-.5.9-.8 1.3z"/><path d="m49.5 97.7c.4.3.8.4 1.2.4.5 0 1.3-.2 2.1-.5-.2-1-.4-1.6-.6-1.8s-.4-.4-1-.4c.2-.2.3-.2.7-.2.3 0 .7 0 1 .1s.5.2.5.4v.1.4c0 .3 0 .6.1 1.3 1.1-.4 1.5-.6 1.8-.8.2-.1.2-.1.3-.1.2 0 .4 0 .6.1s.3.2.3.3c0 .2-.2.3-.7.4-1.4.4-1.5.5-2.2.7.1.6.3 1.3.4 1.9.6-.2 1.5-.4 1.8-.6.3-.1.4-.1.8-.3.1-.1.2-.1.2-.1.5 0 1.1.3 1.1.5 0 .1 0 .2-.1.2s-.1 0-.8.1c-.6.1-1.7.3-2.8.6.4 1.6.7 2.7.9 3.4.1.4.1.5.1.7 0 .3-.1.4-.3.4-.3 0-.9-.7-.9-1 0 0 0 0 0-.2 0-.1 0-.2 0-.3 0-.4-.1-1.1-.5-2.8-.9.3-2 .7-2.5 1-.3.1-.4.2-.5.2-.4 0-1.3-.7-1.3-1.1v-.1c.3.3.6.4.9.4.4 0 .6 0 2.2-.6.1 0 .3-.1 1-.3-.1-.6-.3-1.5-.4-1.9-1.3.3-1.5.4-2 .4-.6 0-1.1-.3-1.5-.7z"/><path d="m64.8 101.2c.7-.7 1.6-1.9 1.6-2.1 0 0 0 0-.1 0-.3 0-1.8.4-3 .8.3 1.1.9 3.4 1.1 4.2.1.2.1.3.1.4 0 .2-.1.3-.2.3s-.3-.1-.5-.3c-.3-.2-.3-.4-.3-.6v-.1-.1c0-.5-.4-2.5-.7-3.7-.1.1-.1.1-.6.2-.3.1-.7.3-1 .4-.2.1-.3.1-.4.1-.2 0-.5-.2-.8-.6-.2-.2-.3-.5-.3-.6s0-.1.1-.2c.2.3.6.5.9.5.2 0 .6-.1 1.9-.5-.4-1.7-.6-1.9-1.3-2.1.1-.1.2-.2.5-.2s.8.1 1.1.3c.1.1.2.2.2.3v.2.2c0 .3 0 .6.2 1.2.2-.1.2-.1.8-.2.4-.1.4-.1 1.2-.4.6-.2.7-.2 1-.4.1 0 .2-.1.2-.1.1 0 .4.2.8.5.3.2.3.3.3.5 0 .1 0 .2-.4.3-.1 0-.1 0-1.3 1-.4.3-.6.5-1.1.8z"/><path d="m70.1 96.5c1.2.3 1.8.6 2.3.9.3.2.4.5.4.8 0 .4-.1.7-.3.7-.1 0-.2-.1-.5-.5-.6-.8-1-1.2-2-1.8zm8.5.6c-.6 1.1-1.3 2.1-2.5 3.2-1.1 1.1-1.8 1.7-3.4 2.7-.6.4-.6.4-.7.6-.2.2-.3.3-.4.3-.5 0-1.4-1.2-1.4-1.8 0-.1 0-.1.1-.2.2.4.3.4.4.5.2.2.3.3.5.3s.6-.2 1.2-.5c1.3-.8 1.8-1.1 2.9-2 1.5-1.2 2.2-1.9 3.2-3.2z"/><path d="m79.5 103c1.2-.9 2.2-2.1 3-3.3.4-.6.5-.9.5-1.2 0-.2-.2-.4-.6-.7h.3c.2 0 .6.2 1 .4.4.3.6.5.6.6s0 .2-.1.3c-.2.2-.2.2-.5.6-1 1.3-1.4 1.8-2.5 2.6-.6.4-.9.6-1.4.9zm6.4-5.2c1.3.8 2.4 1.8 3.2 2.8.4.5.5.8.5 1.3s-.2.9-.5.9c-.2 0-.2-.1-.4-.6-.6-1.6-1.6-3.1-2.9-4.2zm4-1.2c0 .7-.6 1.3-1.3 1.3s-1.3-.6-1.3-1.3.6-1.3 1.3-1.3 1.3.6 1.3 1.3zm-2.2 0c0 .5.4.9.9.9s.9-.4.9-.9-.4-.9-.9-.9-.9.4-.9.9z"/><path d="m91.2 104c1.2-.7 2.3-1.7 3.2-2.6.7-.8 1.6-1.9 2.3-3 .4-.6.6-1 .8-1.5-.6 0-1.2.2-2.5.5-.6.2-.6.2-1 .3-.1 0-.1 0-.2 0-.3 0-.5-.2-.8-.7-.2-.3-.3-.5-.3-.7 0-.1 0-.1.1-.2.3.6.6.8 1.1.8.4 0 1.6-.2 2.5-.3.7-.1.9-.2 1.1-.3.1-.1.2-.1.3-.1.3 0 .9.6.9.8 0 .1 0 .2-.2.2-.3.2-.3.2-.7.8-.6.9-.6.9-1.5 2.1 1.7.9 2.6 1.5 3.1 2 .3.3.5.7.5 1.2 0 .4-.1.6-.3.6-.1 0-.2-.1-.3-.2 0-.1 0-.1-.3-.5-.6-1-1.6-2.1-2.9-2.9-1 1.2-1.8 1.9-2.9 2.7-.8.5-1.3.8-2.1 1.2z"/><path d="m19.6 123.4c.1-.8.3-1.4.7-1.9.4-.6.8-1 2.1-2 .4-.3.6-.5.8-.8.1-.3.2-.5.2-.8 0-.8-.5-1.4-1.4-1.4-.6 0-1 .3-1.2.8-.1.2-.1.3-.1.7 0 .3-.1.4-.5.4s-.5-.1-.5-.4c0-1 1-1.8 2.3-1.8.8 0 1.5.3 1.9.7.2.3.3.6.3 1.1 0 .8-.4 1.3-1.5 2-1.2.8-1.5 1-2 1.4-.4.4-.6.7-.8 1.3h3.1c.7 0 1-.2 1.2-1.1l.3.1-.3 1.7z"/><path d="m26 117.2c.4-.7 1.1-1.1 1.9-1.1s1.6.4 1.9 1.1c.4.7.6 1.6.6 2.6s-.2 1.9-.6 2.6-1.1 1.1-1.9 1.1-1.6-.4-1.9-1.1c-.4-.7-.6-1.6-.6-2.6s.2-1.9.6-2.6zm1.9 6.1c1.1 0 1.5-1 1.5-3.4s-.5-3.4-1.5-3.4-1.5 1.1-1.5 3.4.4 3.4 1.5 3.4z"/><path d="m32.4 123.1c.4 0 .5 0 .7-.1s.3-.3.3-1v-4.2c0-.9 0-.9-.1-.9-.1-.1-.2-.1-.4-.1h-.4v-.3c.8-.1 1.4-.1 1.9-.3-.1.8-.1 1.6-.1 2.8v3c0 .7 0 .9.2 1 .1.1.2.1.7.1v.3h-2.7v-.3z"/><path d="m42.1 121.6c0 1.2-1 2-2.5 2s-2.4-.7-2.4-1.8c0-.5.3-1.1.8-1.4.2-.2.5-.3 1-.5-.4-.2-.7-.4-.9-.5-.4-.3-.5-.7-.5-1.2 0-.4.1-.9.4-1.2.4-.4 1.1-.7 1.8-.7.8 0 1.5.3 1.8.8.2.3.3.6.3 1 0 .5-.2.8-.6 1.2-.3.2-.5.3-.9.4 1.2.3 1.7 1 1.7 1.9zm-3.6-1.3c-.4.3-.6.8-.6 1.3 0 1 .7 1.6 1.7 1.6s1.6-.6 1.6-1.5c0-.5-.2-.8-.7-1.2-.2-.1-.5-.3-.9-.5-.1 0-.4-.2-.4-.2-.3.2-.4.3-.7.5zm2.6-2.4c0-1-.5-1.5-1.5-1.5-.8 0-1.4.5-1.4 1.3 0 .5.2.8.8 1.2.1.1.1.1.7.3.1 0 .2.1.3.1.8-.2 1.1-.7 1.1-1.4z"/><path d="m50.9 118.9h1.5c.3-.3.3-.4.6-.6.4.3.5.4.8.7 0 0 .1.1.1.1s-.1.1-.1.1h-2.9v2.2h2.1c.3-.3.4-.4.6-.7.4.3.5.4.9.8 0 0 .1.1.1.1s-.1.1-.1.1h-3.6v1.2 1.4c0 .2-.1.2-.5.2-.2 0-.3 0-.3-.2 0-.4.1-1.1.1-1.4v-1.2h-3.7c-.3 0-.7 0-.9 0l-.1-.4c.4.1.7.1 1 .1h.9v-1.9c0-.6 0-.7 0-1 .4.2.5.3.9.5h1.9v-1.8h-2.3c-.6.9-1.2 1.6-2 2.2l-.1-.1c.4-.4.5-.6.9-1.2.7-1.1 1.1-1.9 1.3-2.7 1.1.4 1.2.4 1.2.5 0 0 0 .1-.1.1s-.1 0-.4.1c-.2.2-.2.2-.6.9h4.7c.3-.3.3-.4.6-.7.4.3.5.4.9.7v.1s0 .1-.1.1h-3.3zm-2.8.2v2.2h2.1v-2.2z"/><path d="m59.2 123.1c.4 0 .5 0 .7-.1s.3-.3.3-1v-4.2c0-.9 0-.9-.1-.9-.1-.1-.2-.1-.4-.1h-.4v-.3c.8-.1 1.4-.1 1.9-.3-.1.8-.1 1.6-.1 2.8v3c0 .7 0 .9.2 1 .1.1.2.1.7.1v.3h-2.7v-.3z"/><path d="m64.5 117.2c.4-.7 1.1-1.1 1.9-1.1s1.6.4 1.9 1.1c.4.7.6 1.6.6 2.6s-.2 1.9-.6 2.6-1.1 1.1-1.9 1.1-1.6-.4-1.9-1.1c-.4-.7-.6-1.6-.6-2.6s.2-1.9.6-2.6zm1.9 6.1c1.1 0 1.5-1 1.5-3.4s-.5-3.4-1.5-3.4-1.5 1.1-1.5 3.4.5 3.4 1.5 3.4z"/><path d="m74.5 120.7c-.1.8-.3 1.4-.6 2-.4.7-.7 1.1-1.4 1.7l-.1-.1c.7-.8 1.1-1.7 1.3-2.6.2-.7.2-1.8.2-3.5 0-1.4 0-2.2-.1-2.8.4.2.5.3.9.5h3.7c.1-.2.3-.3.4-.4.3.2.4.2.6.4.1.1.1.1.1.1s0 .1-.4.3v4.1 3c0 .5-.2.6-1.2.9 0-.3-.1-.4-.4-.5-.2-.1-.5-.1-1.3-.2v-.2c.8 0 .9 0 1.9.1h.1s0 0 0-.1v-2.6h-3.7zm4-2.2h-3.9c0 1.1 0 1.4-.1 2h4zm0-2.3h-3.9v2h3.9z"/><path d="m84.8 123.1c.4 0 .5 0 .7-.1s.3-.3.3-1v-4.2c0-.9 0-.9-.1-.9-.1-.1-.2-.1-.5-.1h-.4v-.3c.8-.1 1.4-.1 1.9-.3-.1.8-.1 1.6-.1 2.8v3c0 .7 0 .9.2 1 .1.1.2.1.7.1v.3h-2.7z"/><path d="m93.6 122.1c0 .5.1.7.2.8s.2.1.6.1v.3h-2.4v-.3c.4 0 .5 0 .6-.1s.2-.3.2-.8v-.7h-3.4v-.5l3.6-4.8h.6v4.9h1v.4h-1zm-.9-5.1-2.9 3.9h2.9z"/><path d="m98.9 117.4c0-.7 0-1 0-1.6.4.2.5.3.8.5h4.2c.2-.2.2-.3.4-.4.3.2.4.2.6.4.1.1.1.1.1.1 0 .1-.1.1-.3.3v3.2c0 .8 0 2.1.1 4.1s0 .1-.1.1-.4.1-.5.1-.2 0-.2-.1v-.7h-4.3v.7.1c-.1 0-.3.1-.6.1-.1 0-.1 0-.1-.1 0-.9 0-1 0-3.2zm5.1-1h-4.3v3.1h4.3zm-4.3 3.4v3.3h4.3v-3.3z"/></g></svg>