<svg enable-background="new 0 0 282.68 141.73" viewBox="0 0 282.68 141.73" xmlns="http://www.w3.org/2000/svg"><path d="m0 0h282.68v141.73h-282.68z" fill="#893030"/><path d="m46.45 33.31h-5.6v17.84c0 .56 0 1.04-1.64 1.6-1.04.32-2.04.4-2.24.4-.72 0-1.12-.32-1.12-1.2v-18.64h-3.48v4.24c0 2.52-.88 5.76-2 8.08-1.64 3.44-4.32 6-7.76 7.68l-.24-.36c4.64-4.6 5.16-11.56 5.16-18.08v-1.56h-4.2l-.48-.88h4.68v-10.84h-3.96l-.48-.88h16.88l1.76-2.28c.12-.2.28-.36.64-.36.24 0 .4.08.72.32l2.64 1.96c.32.24.36.56.36.72 0 .4-.36.52-.68.52h-3.6c.04 1-.4 1.2-.96 1.48v9.24l1.52-2.32c.16-.2.36-.4.68-.4.2 0 .48.16.68.32l3 2.16c.36.24.4.56.4.72 0 .4-.36.52-.68.52zm-10.59-11.72h-2.08c-.12 1.04-.72 1.28-1.4 1.56v9.28h3.48zm22.55 21.44c-4.8 5.48-10.92 9.6-17.48 10.64l-.12-.4c4.68-2.12 9.6-6.88 13.08-14.4l5.44 2.56c.32.2.56.36.56.72 0 .48-.44.64-1.48.88zm-1.24-10.56c-2.16 2.56-6.76 7.4-14 9.6l-.24-.36c6.12-4.64 8.72-9.88 10.12-13.56l5.48 2.52c.28.12.56.32.56.64 0 .52-.2.6-1.92 1.16zm-.76-10.52c-1.96 2.6-5.48 6.56-11.12 8.48l-.24-.36c2.52-2.4 4.84-6.4 6.48-11.92l5.88 2.4c.04 0 .52.2.52.56 0 .8-1.12.8-1.52.84z" fill="#f4c6c6"/><path d="m97.73 47.95c-.12.64-.04 1.2.28 1.72.84 1.36 1.08 1.76 1.08 2.52 0 1.32-1 2.08-2 2.08-1.4 0-11.92-2.52-15-17.88-.16.04-.16.04-.28.04h-5.31c.08.16.16.24.16.48 0 .56-.36.76-1.08 1.2v7.32c1.24-.16 6.76-.92 7.88-1.08l.04.4c-5.28 3.12-10.92 5.6-16.6 7.96-.28.84-.4 1.2-.92 1.2-.4 0-.52-.4-.6-.68l-1.84-6.16c1.08-.12 5.96-.8 6.96-.96v-9.68h-7.04l-.48-.92h13l2.08-2.76c.12-.16.28-.36.64-.36.32 0 .52.16.72.36l2.44 2.16c-.52-3.84-.72-6.24-.8-7.28h-17.92l-.48-.92h18.32c-.32-5.28-.32-7.44-.32-9l6.48.76c.56.08.6.16.8.36 2.44-.12 5.92.6 5.92 3.48 0 1.4-1.04 2.72-2.56 2.72-1.56 0-1.92-1.44-2.28-2.76-.4-1.56-.8-2.12-1.4-2.44-.32.16-.48.24-1.12.44-.08 1.6-.2 3.48-.2 6.44h5.84l2.04-2.72c.12-.16.28-.4.64-.4.28 0 .44.12.72.36l3.2 2.4c.12.12.4.32.4.72s-.36.56-.68.56h-12.13c.08 6.56 1.52 12.96 5.68 17.72.32.4 1.48 1.72 2.72 1.72.84 0 1.16-.64 1.48-1.28 1.04-2.12 1.4-2.96 2.52-5.92l.4.08z" fill="#f4c6c6"/><path d="m118.74 25.79h-15.96l-.48-.88h11.12l1.92-2.08c.2-.24.32-.4.64-.4.16 0 .28.04.72.36l2.32 1.76c.12.08.4.32.4.72s-.36.52-.68.52zm19.67 6.72c-.08.68-.08.72-.32.72-.68 0-6.56-2.84-9.8-11.8-4 6.04-9.88 10.04-13.72 11.4l2.08 1.6c.2.16.4.36.4.72s-.4.52-.72.52h-11.83l-.48-.92h7.6l1.32-2.08c.16-.24.36-.36.64-.36.16 0 .28.04.44.12.96-.72 1.56-1.28 2.24-1.96h-12.12l-.48-.88h8.36l1.52-1.92c.16-.2.28-.4.64-.4.2 0 .44.12.68.32l1.88 1.64c.2.16.24.28.32.4 3.56-3.96 5.4-9.04 6.4-12.48l6.24 1.88c.32.08.84.32.84.88 0 .64-.68.76-1.12.84 3.88 5.2 9.72 6.92 11.4 7.4v.44c-1.69.76-2.33 2.84-2.41 3.92zm-21.47-11.56h-12.64l-.48-.88h8.16l1.76-2.08c.2-.24.32-.4.64-.4.16 0 .32.04.72.36l2.12 1.76c.16.12.4.4.4.72 0 .4-.36.52-.68.52zm-.84 21.24v8.8c0 1.72-2.2 2.32-3.04 2.32-1.24 0-1.24-.96-1.24-1.44v-1.24h-3.68v1.16c0 .52 0 1.2-.68 1.52-.8.4-2.32.56-2.48.56-1.16 0-1.16-.92-1.16-1.44v-14.4l4.64 2.2h3.16l1.12-1.6c.52-.72.72-.84 1.16-.84s.8.2 1.08.48l2.12 1.88c.32.28.4.44.4.6 0 .44-.76 1-1.4 1.44zm-4.28-1.04h-3.68v8.56h3.68zm25.79-3.04v13.28c0 2.68-2.6 2.68-3.24 2.68-1.12 0-1.2-.08-1.2-.6 0-2.12 0-2.24-1.32-2.88v.68c0 .56 0 .8-.68 1.24-.76.52-1.8.72-2.24.72-.88 0-.88-.52-.88-.88v-8.92h-1.32v8.04c0 1.6-2.16 1.92-2.84 1.92-.56 0-.92-.32-.92-.88v-9.08h-1.24v8.6c0 .72-.2 1.04-.64 1.28-.76.48-1.84.76-2.56.76-.08 0-.92-.04-.92-.96v-20.12l4.44 2.12h10.96l1.2-1c.32-.28.6-.44 1.08-.44.24 0 .76.08 1.08.32l2.24 1.84c.24.2.32.4.32.64 0 .68-.32.92-1.32 1.64zm-5-7.36h-11.48l-.48-.88h7.76l1.36-1.92c.12-.16.28-.4.64-.4.2 0 .32.08.68.4l2 1.92c.12.12.24.32.24.48 0 .36-.56.4-.72.4zm-9.64 5.28h-1.24v6.48h1.24zm5.08 0h-1.32v6.48h1.32zm5.12 0h-1.32v6.48h1.32zm0 7.4h-1.32v5.92c1.2.04 1.32.04 1.32-.68z" fill="#f4c6c6"/><path d="m179.05 52.47h-29.35l-.48-.92h15.84v-6.88h-9l-.48-.92h9.48v-5.8h-2.88c0 1 0 1.16-.56 1.56-.92.72-2.48.76-2.68.76-.68 0-.96-.16-1.08-.28-4.16 2.36-8.32 4.68-12.52 6.92-.32.64-.56 1.04-.92 1.04-.2 0-.4-.12-.52-.76l-1.08-5.24c1.68-.24 1.8-.28 4.48-.72v-8.68h-4l-.48-.92h4.48v-9.44h-4.08l-.48-.88h9.52l1.44-2c.12-.16.28-.4.64-.4.2 0 .28.04.76.4l2.4 1.68v-2.88l4.88 1.92h10.2l1.28-1.44c.16-.2.68-.64 1.2-.64.56 0 .92.24 1.28.52l1.88 1.56c.2.16.6.64.6.96 0 .24 0 .36-1 1.4v14.88c0 1.64-2.8 2.24-3.8 2.24-1.12 0-1.12-.24-1.12-1.56h-2.96v5.8h1.96l1.92-2.56c.12-.16.28-.36.64-.36.24 0 .28 0 .72.36l2.88 2.24c.12.08.36.44.36.68 0 .36-.32.56-.72.56h-7.76v6.88h3.24l2-2.84c.12-.2.28-.4.6-.4s.52.16.76.36l2.84 2.52c.12.12.36.44.36.72-.01.4-.33.56-.69.56zm-21.55-30.32c-.24.04-.28.04-.36.04h-4.16c.04.12.08.2.08.28 0 .48-.72.6-.96.68v8.48h.16l1.52-2.32c.08-.16.32-.4.64-.4.2 0 .44.16.72.4l2.36 2zm0 16.92v-6.6c-.16.04-.24.08-.36.08h-5.04v7.84c.76-.16 4.56-.8 5.4-.96zm7.55-18.12h-2.88v7.56h2.88zm0 8.44h-2.88v7.64h2.88zm7.84-8.44h-2.08c.12.08.16.16.16.32 0 .4-.84.68-1.04.72v6.52h2.96zm0 8.44h-2.96v7.64h2.96z" fill="#f4c6c6"/><path d="m217.21 51.35c-.2.76-.28 1-.76 1-.68 0-4.36-2.4-7.16-10.12v10.44c0 .8-1.44 1.68-3.2 1.68-1.68 0-1.84-.48-1.84-1.6v-8.8c-3.4 4.04-6.64 6.6-11.92 8.64l-.2-.36c5.68-4.68 7.68-9.36 8.96-14h-6.8l-.48-.92h10.44v-5.04l4.64.28c-1.08-.8-1.08-1.68-1.08-2.32v-5.68c-.2.12-.28.12-1 .32-1.68 3.88-3.68 7.8-10.48 9.16l-.16-.4c5.2-3.72 5.8-7.32 6.12-12.04l5.2 1.52c.12.04.2.08.32.12v-2.2h-6.52c.24.92.44 1.6.44 2.52 0 2.56-1.4 4.16-3.4 4.16-1.12 0-1.56-.52-1.76-.76h-4.32v6.08c.76-.16 4.12-.88 4.8-1.04l.2.4c-1.4 1.04-3.36 2.56-5 3.8v14.2c0 3.2-2.52 3.88-4.88 3.88-1.04 0-1.24-.08-1.24-.56 0-.2.04-1.12.04-1.28 0-1.8-1.04-2.16-4.04-2.84l.08-.4c.84.12 2.16.2 2.92.2 2.04 0 2.16-.52 2.16-1.16v-8.36c-.76.56-1.56 1.12-1.76 1.24-.04.56-.12 1.44-.76 1.44-.52 0-.72-.68-.76-.88l-1.76-6.2c.6-.12 4.04-.96 5.04-1.2v-7.32h-4.6l-.48-.92h5.08v-8.24l5.56.6c.52.04.84.2.84.56 0 .4-.24.6-1.44 1.24v5.84h.48l1.56-1.76c.2-.24.32-.4.64-.4.24 0 .44.16.72.32l.6.48c.24-.6.4-.72 1.56-1.56.32-.24 1.88-1.52 1.88-4.72h.44c.12.28.72 1.48.84 1.76h12.16l1.2-1.16c.36-.36.68-.44 1.08-.44.28 0 .72.2.92.36l2.96 2.4c.16.12.32.48.32.84 0 .72-.48 1.08-1.16 1.08-.24 0-.64-.08-.88-.12-.84.68-3.4 2.64-5.6 4.12l-.24-.12v1.04c0 .48.44.72.88.72h2.48c1.12 0 2.36-3.72 2.84-5.08l.4.08-.6 4c-.08.64.24.96.48 1.2.44.44.92.96.92 1.84 0 1.36-1.04 2.04-1.92 2.04h-6.8c.04.12.08.28.08.4 0 .56-.36.76-1.2 1.16v2.8h3.92l1.64-1.88c.24-.28.44-.4.68-.4s.48.16.72.32l2.48 1.64c.24.2.36.44.36.68 0 .4-.36.56-.68.56h-9.04c1.36 3.32 6.52 7.84 10.56 9.56v.4c-1.48.4-2.16.92-2.72 3.16zm-5.48-30.32v5.76c.72-1.2 1.36-3.4 1.6-5.76z" fill="#f4c6c6"/><path d="m259.17 26.55h-15.32v3c.88 3.84 2.56 6.32 3.6 7.76 1.12-1.68 2.88-4.72 3.4-9l6.32 3c.32.16.44.32.44.56 0 .4-.36.84-1.6.76-1.52 1.72-4.28 3.72-7.92 5.48 3.44 4.04 7.28 6.36 11.4 8.04l-.08.4c-1.68.28-3.56.68-4.44 2.8-.56 1.32-.64 1.44-.96 1.44-.8 0-7.72-4.96-10.16-15.56v15.56c0 2.6-2.36 3.24-4.76 3.24-.52 0-1.84 0-1.84-.64 0-.16.08-.92.08-1.08 0-1.52-.48-2.04-1.36-2.28-.52-.16-2.92-.68-3.4-.8v-.4c.92.04 1.96.08 2.76.08 1.96 0 3.6 0 3.6-1.52v-9.6c-3.96 4.48-7.4 7.56-11.2 10.52-.2 1.4-.28 1.64-.68 1.64-.24 0-.56-.08-.8-.56l-3.08-6.08c6.36-1.96 11.04-3.88 15.76-6.44v-10.32h-15.83l-.48-.88h16.32v-8.28l5.48.44c.4.04.76.12.76.52.48-.08.96-.12 1.68-.12 5.28 0 6.64 2.76 6.64 4.28 0 1.36-1 2.76-2.72 2.76-2.04 0-2.2-.88-2.88-3.8-.16-.64-.72-2-2.8-2.72-.44.52-.6.64-1.24.92v6h9.48l1.88-2.44c.16-.2.32-.4.68-.4.24 0 .36.16.72.4l2.84 2.08c.2.16.4.4.4.72-.01.4-.41.52-.69.52zm-26.55 11.08c-1.72 0-1.96-.92-2.64-3.52-.84-3.24-2.76-4.52-3.88-5.12v-.44c4.96-.32 9.36 2.44 9.36 5.92 0 1.84-1.24 3.16-2.84 3.16z" fill="#f4c6c6"/><path d="m.39 70.87h282.28v70.87h-282.28z" fill="#040000"/><g fill="#fff"><path d="m55.83 113.14h-8.95v5.81h3.12l1.15-1.27c.05-.05.26-.26.48-.26.17 0 .41.1.5.17l1.82 1.32c.07.05.24.22.24.48 0 .5-.67 1.15-.91 1.39v7.42c0 .91-2.16.94-2.23.94-.41 0-.89-.12-.89-.48v-1.08h-9.58v.79c0 .58-1.25.89-2.09.89-.31 0-.94-.05-.94-.55v-11.11l3.17 1.34h3.07v-5.81h-9.24l-.29-.53h9.53v-5.28l3.5.22c.24.02.46.07.46.38 0 .36-.36.58-.89.77v3.91h5.28l1.25-1.66c.07-.12.19-.22.38-.22.17 0 .26.07.43.19l1.82 1.46c.05.05.22.22.22.43.02.27-.2.34-.41.34zm-5.67 6.33h-9.58v7.54h9.58z"/><path d="m79.95 122.79h-14.69l2.9 1.63c.22.12.36.22.36.46 0 .53-.53.48-.96.43-2.83 1.8-6.17 3.58-9.34 3.79l-.07-.26c2.09-.96 3.89-2.45 5.28-4.3.19-.26.91-1.51 1.08-1.75h-5.88l-.29-.55h2.57v-11.57l3.19 1.27h1.27v-4.49l3.19.31c.38.05.7.07.7.43 0 .29-.1.34-.94.72v3.02h1.54v-4.44l3.24.31c.5.05.79.1.79.41 0 .36-.31.48-.96.72v3h1.34l.67-.77c.38-.46.46-.53.79-.53.17 0 .53.12.67.24l1.54 1.25c.14.12.19.26.19.43 0 .19-.05.34-.12.46-.1.12-.5.55-.58.65v7.85l.58-.84c.07-.12.19-.24.38-.24s.36.14.43.22l1.3 1.37c.14.14.24.29.24.46.02.21-.22.31-.41.31zm-14.57-10.3h-1.51v4.54h1.51zm0 5.06h-1.51v4.68h1.51zm4.49-5.06h-1.54v4.54h1.54zm0 5.06h-1.54v4.68h1.54zm6.84 11.55c-.86 0-1.51-.67-1.68-1.03-.7-1.34-1.25-2.45-2.93-3.62-.82-.58-1.63-.89-2.11-1.08v-.24c4.7.14 8.57 1.92 8.57 4.03 0 .84-.68 1.94-1.85 1.94zm-2.23-16.61h-1.54v4.54h1.54zm0 5.06h-1.54v4.68h1.54z"/><path d="m91.78 112.25h-9.58l-.29-.53h6.67l1.15-1.25c.12-.14.19-.24.38-.24.1 0 .17.02.43.22l1.39 1.06c.07.05.24.19.24.43.02.24-.2.31-.39.31zm11.81 4.03c-.05.41-.05.43-.19.43-.41 0-3.94-1.7-5.88-7.08-2.4 3.62-5.93 6.02-8.23 6.84l1.25.96c.12.1.24.22.24.43 0 .22-.24.31-.43.31h-7.1l-.29-.55h4.56l.79-1.25c.1-.14.22-.22.38-.22.1 0 .17.02.26.07.58-.43.94-.77 1.34-1.18h-7.27l-.29-.53h5.02l.91-1.15c.1-.12.17-.24.38-.24.12 0 .26.07.41.19l1.13.98c.12.1.14.17.19.24 2.14-2.38 3.24-5.42 3.84-7.49l3.74 1.13c.19.05.5.19.5.53 0 .38-.41.46-.67.5 2.33 3.12 5.83 4.15 6.84 4.44v.26c-1 .49-1.38 1.73-1.43 2.38zm-12.89-6.93h-7.58l-.29-.53h4.9l1.06-1.25c.12-.14.19-.24.38-.24.1 0 .19.02.43.22l1.27 1.06c.1.07.24.24.24.43 0 .23-.22.31-.41.31zm-.5 12.74v5.28c0 1.03-1.32 1.39-1.82 1.39-.74 0-.74-.58-.74-.86v-.74h-2.21v.7c0 .31 0 .72-.41.91-.48.24-1.39.34-1.49.34-.7 0-.7-.55-.7-.86v-8.64l2.78 1.32h1.9l.67-.96c.31-.43.43-.5.7-.5s.48.12.65.29l1.27 1.13c.19.17.24.26.24.36 0 .24-.46.58-.84.84zm-2.57-.62h-2.21v5.14h2.21zm15.48-1.83v7.97c0 1.61-1.56 1.61-1.94 1.61-.67 0-.72-.05-.72-.36 0-1.27 0-1.34-.79-1.73v.41c0 .34 0 .48-.41.74-.46.31-1.08.43-1.34.43-.53 0-.53-.31-.53-.53v-5.35h-.79v4.82c0 .96-1.3 1.15-1.7 1.15-.34 0-.55-.19-.55-.53v-5.45h-.74v5.18c0 .43-.12.62-.38.77-.46.29-1.1.46-1.54.46-.05 0-.55-.02-.55-.58v-12.07l2.66 1.27h6.58l.72-.6c.19-.17.36-.26.65-.26.14 0 .46.05.65.19l1.34 1.1c.14.12.19.24.19.38-.02.41-.21.55-.81.98zm-3-4.41h-6.89l-.29-.53h4.66l.82-1.15c.07-.1.17-.24.38-.24.12 0 .19.05.41.24l1.2 1.15c.07.07.14.19.14.29 0 .21-.34.24-.43.24zm-5.79 3.16h-.74v3.89h.74zm3.05 0h-.79v3.89h.79zm3.07 0h-.79v3.89h.79zm0 4.44h-.79v3.55c.72.02.79.02.79-.41z"/><path d="m127.97 128.26h-17.62l-.29-.55h9.5v-4.13h-5.4l-.29-.55h5.69v-3.48h-1.73c0 .6 0 .7-.34.94-.55.43-1.49.46-1.61.46-.41 0-.58-.1-.65-.17-2.5 1.42-4.99 2.81-7.51 4.15-.19.38-.34.62-.55.62-.12 0-.24-.07-.31-.46l-.65-3.14c1.01-.14 1.08-.17 2.69-.43v-5.21h-2.4l-.29-.55h2.69v-5.66h-2.45l-.29-.53h5.71l.86-1.2c.07-.1.17-.24.38-.24.12 0 .17.02.46.24l1.44 1.01v-1.73l2.93 1.15h6.12l.77-.86c.1-.12.41-.38.72-.38.34 0 .55.14.77.31l1.13.94c.12.1.36.38.36.58 0 .14 0 .22-.6.84v8.93c0 .98-1.68 1.34-2.28 1.34-.67 0-.67-.14-.67-.94h-1.78v3.48h1.18l1.15-1.54c.07-.1.17-.22.38-.22.14 0 .17 0 .43.22l1.73 1.34c.07.05.22.26.22.41 0 .22-.19.34-.43.34h-4.66v4.13h1.94l1.2-1.7c.07-.12.17-.24.36-.24s.31.1.46.22l1.7 1.51c.07.07.22.26.22.43.02.22-.17.32-.39.32zm-12.93-18.19c-.14.02-.17.02-.22.02h-2.5c.02.07.05.12.05.17 0 .29-.43.36-.58.41v5.09h.1l.91-1.39c.05-.1.19-.24.38-.24.12 0 .26.1.43.24l1.42 1.2v-5.5zm0 10.15v-3.96c-.1.02-.14.05-.22.05h-3.02v4.7c.46-.1 2.74-.48 3.24-.58zm4.53-10.87h-1.73v4.54h1.73zm0 5.06h-1.73v4.58h1.73zm4.71-5.06h-1.25c.07.05.1.1.1.19 0 .24-.5.41-.62.43v3.91h1.78v-4.53zm0 5.06h-1.78v4.58h1.78z"/><path d="m140.62 126.58c1.66-.29 7.73-1.92 7.73-9.02 0-5.62-4.92-6.38-6.55-6.38-.48 0-.82.05-1.01.07.77.82.77 1.46.77 1.78 0 1.25-.98 7.42-4.85 11.43-.67.7-1.37 1.42-2.11 1.42s-1.15-.55-1.22-1.22c-.12-.86-.17-1.18-.53-1.56-.91-.91-1.3-1.32-1.3-3.07 0-4.63 4.03-9.79 10.58-9.79 6.02 0 8.95 4.13 8.95 8.57 0 7.87-9.07 8.02-9.39 8.02-.5 0-.72-.02-1.08-.07v-.18zm-6.67-7.15c0 .17.05 2.83 1.03 2.83 1.78 0 5.14-6.55 5.14-9.72 0-.41-.07-.77-.14-1.13-4.02 1.06-6.03 4.97-6.03 8.02z"/><path d="m156.31 127.11c5.57-1.73 8.23-5.35 9.36-6.96-.91-1.44-2.57-2.66-3.22-3-1.51 1.54-3.48 2.52-5.52 3.22l-.1-.19c3.43-2.23 6.7-7.8 6.7-9.29 0-.14-.12-.48-.22-.65-.05-.1-.43-.55-.43-.65 0-.22.19-.24.34-.24 1.25 0 2.06.86 2.5 1.32.24.26.91 1.01.91 1.37 0 .1-.02.17-.29.31-.1.07-.48.26-.53.31.19.02 1.15.05 1.34.05.31 0 1.54-.19 1.8-.36.94-.65 1.03-.72 1.34-.72.48 0 1.06.6 1.42.96s1.03 1.03 1.03 1.37c0 .22-.1.31-.96.84-.43.29-.48.38-.82 1.25-.67 1.68-1.2 2.59-2.23 4.08.46.67.84 1.7.84 2.26 0 .24-.19 1.27-1.01 1.27-.91 0-1.2-.53-1.66-1.34-1.99 2.14-5.71 4.87-10.61 4.99v-.2zm12.58-12.92c0-.14-.07-.19-.19-.19-.34 0-1.85.26-2.21.26-.43 0-.84-.29-1.34-.65-.46.7-1.44 2.18-2.33 3.14 1.27.22 2.88.96 4.01 1.66 1.08-1.82 2.06-3.86 2.06-4.22z"/><path d="m181.92 127.61c4.1-1.58 7.46-4.32 9.46-9.65.36-.91 1.15-3.65 1.15-4.49 0-.14-.07-.24-.36-.24-.65 0-6.19.98-7.94 1.56-.14.05-.72.31-.84.31-.38 0-2.69-1.08-2.69-3.46 0-.31.02-.38.12-.38s.36.41.43.48c.7.7 1.18.82 1.75.82 1.25 0 9.55-.82 10.18-1.15.12-.07.55-.41.65-.46s.24-.1.36-.1c.77 0 2.54 1.94 2.54 2.33 0 .34-.1.38-.98.91-.46.26-.65.79-.79 1.3-2.28 7.37-5.9 11.78-13.03 12.41v-.19zm16.35-17.02c0 .53-.31.86-.67.86-.5 0-.79-.46-1.03-.89-.82-1.32-2.06-2.11-2.62-2.45 2.21-.08 4.32 1.21 4.32 2.48zm-1.87-4.03c1.22 0 3.94.74 3.94 2.21 0 .53-.26.79-.74.79-.36 0-.74-.43-.91-.67-.84-1.03-.98-1.22-3.05-2.26.25-.04.4-.07.76-.07z"/><path d="m220.4 123.05c0 .48-.41.67-1.37.7-4.61.12-5.14.17-9.91.5.12 1.22-.1 1.63-.65 1.63-1.18 0-2.23-2.33-2.23-2.98 0-.14.14-.79.14-.94 0-2.74-.17-6.72-.91-8.31-.34-.74-.55-1.01-.96-1.44-.1-.1-.67-.53-.67-.65 0-.22.41-.22.55-.22.94 0 2.47.58 3.22 1.1.17.02.48.1.65.1.36 0 9.36-.94 9.82-1.13.14-.07.19-.12.62-.48.19-.17.31-.26.53-.26.65 0 2.98 1.73 2.98 2.64 0 .19-.24.43-.5.7-.62.58-1.1 2.69-1.34 3.79-.31 1.44-.77 3-1.08 4.1.22.14 1.11.55 1.11 1.15zm-2.45-5.71c.05-.38.55-4.15.55-4.18 0-.17-.12-.22-.29-.22-1.2 0-8.5 1.1-8.81 1.1-.12 0-1.1-.62-1.32-.72.02.1.07.29.1.53.36 4.49.38 4.99.77 8.59.29.14.41.14.91.14.86 0 3.53-.34 4.44-.46.38-.05 2.38-.22 2.83-.26.12-.71.79-4.33.82-4.52z"/><path d="m231.96 117.58c1.51 0 8.9-.43 10.58-.5.22 0 1.22-.31 1.46-.31.72 0 2.45 1.15 2.45 2.06 0 .36-.41.65-.91.65-.29 0-.84-.07-1.25-.12-1.15-.17-2.9-.36-3.98-.36-.86 0-7.01.46-7.78.58-.26.02-1.49.43-1.8.43s-2.45-.72-2.62-3.94c.73.69 1.55 1.51 3.85 1.51z"/><path d="m128 84.92h-5.45c.94.55 2.04 1.34 2.04 2.33 0 .1-.02.19-.05.29l1.63 1.08c.22.14.34.36.34.58 0 .29-.17.43-.58.74v2.59c0 .26-.07.48-.19.62-.38.5-1.51.74-1.92.74-.79 0-.79-.26-.79-.58v-.53h-4.08v2.76h5.09l.98-1.08c.17-.19.36-.36.62-.36.19 0 .48.1.65.26l1.46 1.46c.12.12.22.31.22.5 0 .29-.22.43-.7.7-.5 2.16-.84 2.98-1.44 3.67-.62.74-1.82 1.46-3 1.46-.07 0-.77 0-.77-.58 0-.1.05-.6.05-.72 0-1.1-.86-1.42-2.69-1.82v-.26c1.39.12 2.78.19 3.07.19.43 0 .77 0 1.08-.58.19-.38.5-1.22.58-2.33h-5.21v6.41c0 .65-1.61 1.06-2.21 1.06-.22 0-.86 0-.86-.62v-4.34c-1.7 1.66-5.21 3.94-9.38 4.3l-.1-.22c4.7-2.16 6.22-4.75 7.01-6.58h-1.61l-.24 1.01c-.17.67-1.46.79-1.99.79-.26 0-1.2 0-1.2-.55 0-.05.02-.07.07-.31l1.56-6.48 2.76 1.7h3.12v-3.22h-6.41l-.29-.55h3.89c-.07-.12-.22-.34-.24-.7 0-.14.07-.82.07-.98 0-.5-.07-.86-.62-1.63-2.16 2.71-4.7 3.98-5.66 4.44l-.17-.17c2.52-2.81 3.24-5.69 3.55-7.87l3.98 1.03c.12.02.34.1.34.34 0 .43-.65.46-.96.46-.22.46-.34.7-.55 1.06h2.11l1.25-1.32c.12-.14.19-.24.38-.24.07 0 .17 0 .46.22l1.22.96c.34-.79.5-1.37.72-2.4l3.65.91c.34.1.34.36.34.38 0 .26-.14.31-.89.48-.29.38-.43.55-.82.98h3.31l1.3-1.44c.12-.12.19-.22.38-.22.07 0 .19.02.43.22l1.51 1.22c.17.12.26.24.26.43.02.24-.22.31-.41.31zm-12.12 7.87h-3.31l-.65 2.76h3.96zm-1.8-7.85c.91.65 1.99 1.42 1.92 2.62.74-.84 1.18-1.49 1.8-2.62zm7.41 1.97c0-1.01-.53-1.61-.84-1.92-1.06 1.06-2.86 2.54-4.54 3.46h5.62c-.24-.29-.24-.41-.24-1.54zm1.54 2.09h-3.5c.02.07.02.12.02.17 0 .26-.12.43-.6.84v2.23h4.08z"/><path d="m137.45 101.82v-.62c1.46 0 2.35-.22 2.35-1.87v-12.15c0-1.54-.48-1.75-1.66-1.75h-.5v-.63l5.23-.72v15.24c0 1.61.84 1.87 2.35 1.87v.62h-7.77z"/><path d="m176.09 93.54c-1.51.36-2.06.55-2.28 2.38-.02.24-.07.41-.34.41-.02 0-1.39-.22-3.6-2.14-.05.24-.26.41-.46.55v2.59c0 .43-.02.62-.29.79-.62.43-1.8.46-1.87.46-.74 0-.74-.36-.74-.65v-.41h-4.32v2.11c0 .82.82.82 1.03.82h7.1c.89 0 1.34-.26 2.42-4.06l.26.05-.34 3.14c-.02.14 0 .43.1.55.46.5.77.84.77 1.39 0 1.37-1.32 1.66-2.42 1.66h-9.67c-1.08 0-2.4-.26-2.4-2.38v-5.23l3.24 1.39h4.22v-3.29h-6.31c-2.33 1.85-4.58 2.52-5.86 2.86l-.1-.24c1.56-1.01 4.13-2.86 6.02-6h-5.52l-.29-.53h6.1c.53-.98.74-1.58 1.08-2.64h-5.62l-.29-.53h6.05c.43-1.61.65-2.98.84-4.8l3.98.62c.38.07.5.22.5.43 0 .26-.07.43-1.13.77-.19.67-.53 1.7-1.03 2.98h1.92c.41-1.03.96-2.83 1.13-4.32l3.31.6c.22.05.41.12.41.34 0 .5-.6.65-1.1.77-.22.19-.31.29-1.32 1.2-.79.74-1.3 1.13-1.68 1.42h2.93l1.25-1.49c.12-.14.19-.24.38-.24.17 0 .34.12.43.22l1.78 1.3c.1.07.24.26.24.41 0 .24-.17.34-.41.34h-7.75c.31.53 1.13 1.73 2.06 2.64h3.5l1.3-1.58c.12-.14.19-.24.38-.24.17 0 .26.07.43.22l1.75 1.39c.1.07.24.26.24.41 0 .24-.19.34-.43.34h-6.58c.79.7 3.02 2.06 7.01 3zm-16.39-7.2c-.96 0-1.08-.5-1.32-1.56-.31-1.3-.72-1.82-1.73-2.38v-.26c1.7-.1 4.78.5 4.78 2.54 0 .99-.87 1.66-1.73 1.66zm7.32 3.96h-3.91c-.6.98-1.27 1.92-2.28 2.86h5.59l.55-.72c.24-.29.58-.31.7-.31.14 0 .36.02.48.14-.6-.84-.84-1.35-1.13-1.97zm-1.3-3.17h-.98c-.36.86-.74 1.66-1.32 2.64h3.34c-.44-1.01-.87-2.19-1.04-2.64z"/></g></svg>