<svg enable-background="new 0 0 282.67 141.73" viewBox="0 0 282.67 141.73" xmlns="http://www.w3.org/2000/svg" xmlns:xlink="http://www.w3.org/1999/xlink"><linearGradient id="a" gradientUnits="userSpaceOnUse" x1="141.7323" x2="141.7323" y1="0" y2="141.7323"><stop offset="0" stop-color="#fff"/><stop offset=".0315" stop-color="#dddee8"/><stop offset=".0758" stop-color="#b4b5cc"/><stop offset=".1255" stop-color="#8e90b2"/><stop offset=".1796" stop-color="#6e719c"/><stop offset=".2394" stop-color="#525689"/><stop offset=".307" stop-color="#3c417a"/><stop offset=".3859" stop-color="#2b306f"/><stop offset=".4834" stop-color="#202467"/><stop offset=".6202" stop-color="#191e62"/><stop offset="1" stop-color="#171c61"/></linearGradient><path d="m0 0h283.46v141.73h-283.46z" fill="url(#a)"/><g fill="#ccc"><path d="m57.75 43.48c.91-1.01 1.2-1.34 2.21-2.35 1.34.96 1.78 1.25 3.12 2.26.62.43.82.67.82.96 0 .48-.58.96-1.63 1.44v16.03c0 1.1.05 4.22.1 8.59-.14 1.77-.43 2.59-1.15 3.26-.82.82-3.07 1.49-4.8 1.49-.58 0-.62-.1-.67-.86-.14-2.4-.77-2.88-5.9-4.37l.05-.53c2.78.14 2.83.14 4.13.19 1.82.1 1.82.1 2.78.14.91 0 1.1-.14 1.1-.77v-7.87h-9.07c-.38 3.12-.72 4.37-1.68 6.62-1.06 2.35-2.98 4.94-5.52 7.39l-.34-.29c3.02-5.86 3.55-9.79 3.55-27.79 0-.86 0-1.44-.05-2.35-1.15 1.01-1.58 1.34-3.07 2.35l-.34-.34c1.82-2.54 2.74-4.13 3.94-6.77 1.49-3.36 2.45-6.19 3.02-9.02 1.39.34 2.11.48 2.88.67 1.15.24 1.92.43 2.26.53 1.1.24 1.63.53 1.63.91s-.72.72-2.26 1.06c-.72 1.25-.86 1.49-1.44 2.4h3.46c.96-1.15 1.25-1.54 2.26-2.69 1.63 1.2 2.11 1.58 3.65 2.83.67.48 1.01.91 1.01 1.25 0 .19-.34.43-.82.58-.24.05-.24.05-1.06.14-.19.05-.24.05-.48.1-3.36 3.22-3.36 3.22-5.14 4.8h3.45zm-5.29 0c1.01-2.16 1.34-2.98 2.4-6h-4.08c-1.25 1.92-2.02 2.98-3.46 4.66.72.48 1.06.67 1.92 1.34zm-.76 16.61v-7.73h-2.35c-.05 3.5-.19 5.57-.38 7.73zm0-8.74v-6.86h-2.3v6.86zm3.74 0h2.45v-6.86h-2.45zm2.45 1.01h-2.45v7.73h2.45zm14.26 2.93c-.05-5.47-.05-5.47-.19-7.15 5.47.48 6.53.67 6.53 1.25 0 .34-.24.53-1.63 1.06v2.26 2.59h2.16c1.2-1.49 1.54-1.92 2.78-3.36 1.82 1.58 2.35 2.06 4.03 3.7.14.14.19.24.19.34 0 .24-.19.34-.62.34h-8.54l.05 7.01h2.74c1.3-1.63 1.68-2.16 2.98-3.7 1.92 1.63 2.5 2.16 4.32 3.89.19.14.24.29.24.43 0 .24-.24.38-.72.38h-9.57c.05 7.06.05 7.06.14 9.79 0 1.2-.38 1.39-3.17 1.39-1.68 0-1.97-.14-1.97-1.2.19-4.61.24-6.62.29-9.98h-3.94c-1.63 0-2.64.05-4.94.24l-.24-1.73c1.68.29 3.98.48 5.18.48h3.94c0-.77 0-3.12-.05-7.01h-4.46c-1.25 2.06-2.69 3.89-4.46 5.57l-.43-.24c1.92-4.22 3.02-8.54 3.31-13.1.86.29 1.54.48 1.97.62 1.15.38 1.92.62 2.11.67 1.25.38 1.87.72 1.87 1.15 0 .38-.14.43-1.92.82-.91 1.82-1.2 2.45-1.82 3.5h3.84zm2.4-19.97c-.72 4.42-1.63 6.58-3.6 8.93-1.1 1.3-2.88 2.78-4.42 3.7-.62.38-.91.53-3.46 1.78l-.24-.34c2.78-2.64 4.13-4.61 5.23-7.63.72-2.06.96-3.26 1.3-6.43h-1.3c-1.92 0-2.78.05-4.9.34l-.29-1.73c1.49.24 3.74.38 5.14.38h11.42c.91-1.15 1.2-1.49 2.26-2.54 1.63 1.06 2.11 1.34 3.55 2.4.72.62.91.86.91 1.2 0 .24-.19.48-.67.77-.05.05-.43.24-1.06.58-.53 6.82-.82 8.26-1.87 9.55-.62.72-1.34 1.25-2.26 1.54-.77.29-2.11.53-2.83.53-.48 0-.58-.05-.62-.48-.1-2.02-.67-2.54-3.89-3.89v-.48c.77 0 .77 0 2.4.14.53 0 1.25.05 1.63.05 2.26 0 2.35-.38 2.74-8.35h-5.17z"/><path d="m106.37 42.23c1.1-1.54 1.44-2.02 2.54-3.5 1.92 1.63 2.45 2.16 4.18 3.84.19.19.24.29.24.38 0 .14-.19.29-.43.29h-7.63v4.22c4.7 2.21 6.53 3.94 6.53 6.05 0 1.82-1.39 3.7-2.74 3.7-.34 0-.62-.19-.77-.53-.14-.29-.19-.43-.48-1.73-.91-3.94-1.34-5.09-2.59-6.58v13.15c0 5.66 0 5.66.1 12.67v.14c0 1.06-.67 1.34-3.22 1.34-1.78 0-1.97-.1-1.97-1.1.14-5.14.14-5.14.29-16.8l.05-3.65c-2.3 4.9-4.13 7.44-7.68 10.7l-.43-.38c3.74-6.58 6.1-13.2 7.58-21.22h-3.36c-1.15 0-1.82.1-2.78.29l-.34-1.73c1.06.29 2.02.43 3.12.43h3.7v-7.2c0-1.58-.05-2.21-.19-3.74 5.66.62 6.05.67 6.67.91.38.14.62.34.62.58 0 .43-.48.67-2.11 1.2v8.26h1.1zm12.24 6.43c0 .96-.05 1.82-.05 2.3-.14 3.94-.24 5.09-.67 7.49-.91 5.42-2.69 9.22-5.95 12.67-1.39 1.49-2.5 2.45-5.09 4.42l-.38-.34c2.78-3.89 4.27-7.06 5.42-11.42 1.15-4.42 1.54-9.17 1.54-19.73 0-5.23 0-5.86-.19-8.54 2.59 1.25 3.36 1.68 5.76 3.07 3.79-1.49 6.14-2.69 8.98-4.51 1.97-1.2 2.74-1.82 3.89-2.98 4.56 3.41 5.76 4.46 5.76 4.99 0 .29-.29.53-.67.53-.24 0-1.15-.19-2.02-.43-5.62 1.78-9.36 2.64-16.03 3.7-.05 2.06-.05 2.06-.24 7.78h11.38c1.54-1.73 2.02-2.26 3.5-3.94 2.26 1.73 2.93 2.26 5.04 4.08.29.24.38.38.38.53 0 .19-.29.34-.67.34h-7.15v12.38c0 3.79.1 8.83.24 13.15 0 1.25-.62 1.54-3.74 1.54-1.73 0-2.02-.14-2.02-1.1.14-6.86.19-9.12.19-13.34v-12.64z"/><path d="m161.67 43.28c.24-3.6.34-6.29.34-8.16 0-1.1-.05-1.63-.24-2.93 7.15.53 8.11.67 8.11 1.44 0 .53-.53.86-1.87 1.3-.14 3.94-.24 5.57-.53 8.35h11.95c1.1-1.39 1.44-1.82 2.69-3.22 1.92 1.49 2.59 1.97 4.46 3.41.48.43.62.67.62.91 0 .48-.62.91-1.87 1.44-.67 13.39-1.25 18.87-2.45 23.09-.67 2.4-2.11 4.27-3.89 5.04-1.44.62-3.74 1.06-5.47 1.06-.34 0-.48-.1-.48-.48-.19-1.54-.38-2.11-1.06-2.74-.96-.91-3.22-1.73-7.58-2.83l.05-.58c6.87.43 10.46.62 10.8.62 1.73 0 2.06-.34 2.64-2.59.91-3.84 1.68-11.95 1.97-22.13h-12.48c-.96 9.27-2.78 15.03-6.14 19.83-2.26 3.26-5.47 6.14-9.31 8.45-1.87 1.1-3.31 1.82-6.34 3.12l-.29-.53c10.66-7.2 15.12-15.7 16.32-30.87h-10.03c-1.68 0-2.4.05-4.08.29l-.34-1.78c1.92.34 3.5.48 4.66.48h9.84z"/><path d="m231.36 58.65c2.26-2.54 2.26-2.54 3.79-4.27 2.45 1.87 3.17 2.45 5.47 4.37.19.24.29.43.29.53 0 .24-.24.38-.67.38h-18.91v5.38l.05 6.14c-.05 1.92-.43 2.74-1.82 3.6-1.06.62-3.46 1.2-5.18 1.2-.62 0-.77-.14-.86-.91-.1-1.01-.58-1.87-1.34-2.5-.91-.77-1.63-1.01-6.58-2.16v-.62c6.67.43 6.67.43 9.46.53h.14c.48 0 .67-.19.67-.72v-9.94h-15.17c-1.44 0-2.54.1-3.79.29l-.29-1.68c1.44.29 2.54.38 4.08.38h15.17v-.77c0-2.5-.05-3.07-.24-4.8 2.45.29 2.45.29 5.09.72 1.73-1.68 2.64-2.78 4.42-5.23h-16.24c-1.3 0-2.3.1-3.46.29l-.29-1.63c1.44.24 2.4.34 3.7.34h16.42c1.1-1.15 1.44-1.49 2.54-2.59 1.92 1.3 2.54 1.73 3.65 2.59.67-1.82.96-2.74 1.39-4.8h-29.67v.43c0 1.87-.34 4.18-.72 5.28-.67 1.73-1.97 2.83-3.36 2.83s-2.54-1.68-2.54-3.65c0-.77.19-1.3.67-1.63.14-.14.14-.14 1.25-.77 2.3-1.3 3.26-3.12 3.65-6.77h.62c.24 1.63.34 2.21.38 3.26h20.69c2.26-3.94 3.36-6.48 4.37-10.03 3.41 1.06 6.14 1.97 6.91 2.35.43.19.62.43.62.67 0 .53-.67.77-1.97.77-.05 0-.24 0-.43 0-3.22 2.98-4.85 4.27-7.63 6.24h6.67c1.3-1.3 1.68-1.68 3.02-2.88 2.16 1.58 2.83 2.11 4.9 3.7.53.43.72.72.72 1.01 0 .62-.82.86-2.98.86-1.34 1.01-1.34 1.01-4.85 3.17-.19.1-.48.29-.91.58l.62.48c.48.43.72.72.72.96 0 .48-.58.72-1.82.72-.14 0-.43 0-.72 0-3.7 1.92-5.47 2.69-8.54 3.79.43.14.58.34.58.58 0 .48-.43.72-1.78 1.15v2.78zm-27.36-26.41c5.71 2.16 7.92 3.7 7.92 5.66 0 1.78-1.58 3.79-3.07 3.79-.77 0-1.2-.48-1.63-1.92-1.1-3.7-1.63-4.7-3.5-7.1zm9.94-.76c5.23 1.78 7.92 3.7 7.92 5.62 0 1.97-1.78 4.08-3.46 4.08-.82 0-1.1-.38-1.63-2.45-.82-3.17-1.44-4.51-3.22-6.82z"/><path d="m90.23 104.91c-.34.1-.58.14-.74.19-.79.19-.91.24-1.61.43-.1.58-.24.82-.43.82-.1 0-.19-.1-.26-.24-.02-.05-.24-.96-.65-2.69.6.02 1.03.02 1.18.02.26 0 .74 0 1.25-.02 2.33-3.36 3.41-5.23 4.18-7.27 2.5 1.06 2.76 1.2 2.9 1.42 0-.02-.02-1.34-.1-3.91 1.32.62 1.7.84 2.88 1.56h6.17c.6-.65.79-.86 1.39-1.51.89.65 1.15.84 1.97 1.51.19.14.26.26.26.38 0 .22-.14.34-.84.74v5.74c0 6.31.02 8.26.14 12.36 0 .22-.02.31-.1.38-.17.19-.74.31-1.63.31-.79 0-.94-.07-.94-.5v-1.13h-6.7v1.08c0 .24-.02.34-.07.43-.14.19-.62.29-1.56.29-.82 0-.98-.07-.98-.48 0-.02 0-.05 0-.1.12-2.86.12-3.86.12-11.47v-2.78l-.02-2.76c-.12.19-.31.24-.94.26-2.21 2.57-3.98 4.44-5.09 5.4 1.49-.1 2.52-.17 3.53-.26-.24-.89-.38-1.22-.86-2.11l.14-.17c2.21 1.51 2.95 2.35 2.95 3.31s-.65 1.87-1.3 1.87c-.36 0-.53-.34-.6-1.03-.02-.34-.05-.6-.14-1.1-.6.22-.84.31-1.3.43v5.06c.02 1.39.05 2.47.05 3.26.02 1.18.02 1.22.05 2.28 0 .29-.07.41-.29.48-.17.05-.86.12-1.34.12-.65 0-.77-.07-.77-.46.07-1.54.1-3.65.1-5.64v-1.46l-.41.07c-.91 3.1-1.66 4.66-3.17 6.72l-.26-.14c.82-2.69 1.34-5.74 1.39-8.11 1.25.31 1.66.43 2.45.7zm-3.29-8.42c.86.41 1.13.53 1.87.94.62-1.44.96-2.52 1.34-4.27 3.34 1.01 3.48 1.08 3.48 1.34s-.29.36-1.1.41c-1.18 1.3-1.82 1.92-3 2.93.98.65 1.3 1.06 1.3 1.7 0 .89-.72 1.85-1.39 1.85-.31 0-.41-.14-.7-1.08-.22-.67-.53-1.42-.96-2.21-.26-.5-.46-.77-1.03-1.39zm5.88 9.46c1.94 1.58 2.88 2.88 2.88 3.98 0 .96-.77 1.99-1.46 1.99-.36 0-.46-.19-.48-1.18-.07-2.18-.34-3.19-1.13-4.63zm7.8-10.23h-2.06v7.85h2.06zm0 8.35h-2.06v8.93h2.06zm4.63-.5v-7.85h-2.25v7.85zm-2.25 9.43h2.26v-8.93h-2.26z"/><path d="m135.21 105.58c-.96.5-1.39 1.06-1.78 2.18-.1.36-.17.43-.34.43-.29 0-1.1-.41-2.14-1.03-.14.12-.22.17-.41.31v1.51c0 1.85 0 2.3.12 5.64-.02.22-.07.34-.19.41-.22.19-.82.29-1.78.29-.72 0-.89-.07-.91-.5v-1.01h-8.3v.79c0 .24-.05.36-.12.46-.17.22-.77.34-1.75.34-.74 0-.91-.1-.91-.55.05-1.87.1-4.01.1-5.21v-2.11l-.02-.19.02-.48c-1.15.7-1.63.91-4.18 2.04l-.19-.31c2.71-1.92 4.63-3.67 6.58-6.02 1.06-1.3 2.11-2.81 2.74-3.94.19-.36.29-.62.5-1.22 3.05.91 3.5 1.1 3.5 1.39 0 .24-.31.38-1.01.48.96 1.39 1.58 2.04 2.78 2.95 2.18 1.63 4.13 2.4 7.73 3.1zm-22.5-4.05c2.02-1.82 3.07-3.02 4.22-4.75.86-1.32 1.3-2.11 1.68-3.19 1.51.53 2.88 1.06 3.29 1.3.19.1.29.19.29.31 0 .29-.36.41-1.2.43-1.68 1.97-2.74 2.98-4.3 4.06-.98.67-1.73 1.08-3.82 2.14zm15.03 5.01c.48-.5.62-.62 1.06-1.01-1.92-1.68-2.9-3.02-4.39-5.9-1.25 1.8-1.97 2.64-3.46 4.03-.86.82-1.63 1.44-2.54 2.11.55.34.67.38 1.3.77zm-8.26 6.77h8.3v-6.26h-8.3zm5.79-19.41c3.91 1.2 5.74 1.97 6.82 2.83.74.6 1.01 1.06 1.01 1.94 0 1.18-.48 2.11-1.06 2.11-.31 0-.5-.17-1.03-.89-1.75-2.38-3.58-4.18-5.86-5.71z"/><path d="m164.39 102.3v-.53c0-.94 0-1.15-.07-1.75 1.9.17 2.88.31 3.1.43.07.05.12.14.12.22 0 .22-.22.34-.84.5v1.13h.53l1.2-1.32c.82.62 1.06.84 1.82 1.51.05.07.07.12.07.17 0 .07-.1.14-.22.14h-3.41v2.95h.7c.48-.58.89-1.08 1.27-1.51.89.74 1.15.96 2.04 1.7.02.07.07.17.07.19 0 .07-.07.12-.19.12h-7.83c-.26 0-.74.05-1.08.1l-.14-.74c.55.12.82.14 1.22.14h1.63v-2.95h-4.56v2.18c1.01-.17 1.56-.29 2.98-.6l.14.24c-1.39.79-2.95 1.49-6.05 2.74-.1.26-.12.36-.22.58h10.22c.58-.7.74-.89 1.34-1.49.98.67 1.27.89 2.23 1.68.05.07.07.14.07.17 0 .07-.07.14-.17.14h-5.18v4.01c0 .46.14.53.94.53 1.27 0 1.7-.05 1.9-.19.22-.22.72-1.34 1.51-3.48l.24.02-.19 2.83v.26c0 .19.07.26.38.34.46.12.74.46.74.86 0 .55-.41 1.01-1.06 1.18-.67.17-1.66.24-3.65.24-1.51 0-2.04-.05-2.4-.17-.55-.22-.74-.55-.74-1.34-.02-.46-.02-.67-.02-.86l.02-1.42v-2.81h-1.82c-.1 1.75-.79 3.38-1.9 4.51-.91.91-2.21 1.63-3.86 2.09-.7.19-1.22.31-2.42.53l-.12-.29c2.74-1.2 4.13-2.23 4.99-3.72.53-.94.74-1.7.82-3.12h-3.53c0 .65 0 1.1.02 2.14 0 .29-.1.41-.34.48-.34.1-1.08.19-1.51.19-.31 0-.46-.1-.5-.38v-1.25h-1.68v1.99c-.02.22-.1.31-.29.38s-1.2.19-1.61.19-.58-.14-.6-.5c.1-2.64.1-2.64.1-11.14 0-4.3 0-4.3-.1-6.43 1.15.55 1.51.74 2.59 1.37h1.46c.53-.6.7-.79 1.18-1.37.79.53 1.01.72 1.75 1.32.19.14.26.24.26.34 0 .22-.19.38-.79.7.02 3.22.02 7.03.07 11.47h1.25c-.12-.22-.53-1.3-.94-2.52.24.02.43.02.55.02.41 0 1.01-.05 1.75-.12v-2.52h-1.06c-.17 0-.65.05-.96.1l-.12-.77c.41.12.79.17 1.13.17h1.01v-.65c0-.84 0-1.08-.07-1.66 3 .29 3.1.31 3.1.6 0 .22-.19.34-.84.53v1.18h.91c.48-.55.6-.72 1.06-1.22.65.55.79.7 1.37 1.22zm-11.69-6.32h-1.7v6.26h1.7zm-1.7 6.77v6.36h1.7v-6.36zm14.61-6.79c.65-.74.84-.96 1.49-1.63 1.03.77 1.32 1.01 2.3 1.85.05.07.07.12.07.17 0 .07-.1.12-.29.12h-5.76v2.45h3.07c.67-.74.86-.98 1.49-1.68 1.03.79 1.34 1.03 2.35 1.87.05.07.07.12.07.17 0 .07-.1.14-.22.14h-13.32c-.31 0-.79.05-1.3.12l-.12-.84c.65.17 1.03.22 1.42.22h4.06v-2.45h-3.17c-.24 0-.74.05-1.13.1l-.14-.79c.55.14.89.19 1.27.19h3.17v-.77c0-.94-.02-1.22-.1-1.92 3.07.26 3.48.34 3.48.65 0 .19-.19.31-.89.55v1.49h2.2z"/><path d="m185.87 104.6c.7 1.73 1.87 3.22 3.53 4.54 1.97 1.54 4.27 2.45 6.94 2.76v.29c-.89.38-1.37.79-1.78 1.56-.17.29-.19.38-.34.96-.05.19-.14.29-.31.29-.43 0-2.33-1.1-3.41-2.02-2.45-1.99-4.15-4.8-5.04-8.23-.34 1.94-1.18 3.89-2.3 5.35-1.34 1.7-3.19 3.1-5.45 4.08-1.06.46-1.85.72-3.58 1.2l-.12-.34c5.09-2.54 7.75-5.76 8.67-10.44h-6.31c-.86 0-1.3.02-2.02.14l-.19-.89c.89.19 1.42.24 2.21.24h6.41c.17-1.1.31-2.93.38-4.94h-5.3c-.62 0-1.03.02-1.8.14l-.19-.89c.82.17 1.34.24 2.02.24h5.28c.02-.79.02-1.2.02-1.85 0-1.34-.02-2.06-.14-3.17 3.17.26 3.46.31 3.79.46.19.07.29.17.29.29 0 .26-.29.41-1.06.62 0 1.03 0 1.03-.1 3.65h3.84c.79-.91 1.03-1.18 1.85-2.06 1.18.89 1.54 1.18 2.69 2.16.12.12.17.19.17.24 0 .1-.12.17-.29.17h-8.28c-.05 1.37-.24 3.94-.36 4.94h5.47l1.82-2.11c1.22.94 1.61 1.22 2.86 2.26.1.1.12.17.12.22 0 .1-.1.14-.26.14z"/></g></svg>