<svg enable-background="new 0 0 708.7 425.2" viewBox="0 0 708.7 425.2" xmlns="http://www.w3.org/2000/svg" xmlns:xlink="http://www.w3.org/1999/xlink"><defs><path id="a" d="m0 0h708.7v425.2h-708.7z"/><clipPath id="b"><use xlink:href="#a"/></clipPath></defs><use fill="#6e8b8d" xlink:href="#a"/><g fill="#fff"><g clip-path="url(#b)"><path d="m405.8 224c0-14.2 0-28.3 0-42.5 0-3.5-.5-6.6-3-9.2-2.3-2.2-2.1-4.7-.4-7.2 3.7-5.5 6.9-11.4 12.7-15.2 3.1-2 4.7-5 4.8-8.9.2-4.5.6-9 1-13.4.1-1.6.6-3.1 2.5-3.2 1.8-.1 2.6 1.2 3.2 2.7.1.2.1.3.1.5-.9 14.9 4.6 30.2-3 44.7-4.1 7.8-3.4 16.3-2.3 24.5 2.4 18.5 3.2 37.1 5.5 55.6 1.7 13.9 3.4 27.7 4 41.7.3 6.8-.6 7.3-7.2 7.7-16.7 1-31.6-5-46.7-10.9-19.6-7.5-39.3-14.7-58.9-22.1-2.6-1-5.2-1.1-7.9-1.1-16.5 0-33 0-49.5-.1-1.7 0-3.4.1-4.9-.5-2.4-.8-3.1-2.6-1-4.5 14.2-13 28.3-26.3 41.8-40 2.3-2.3 4.5-1.4 6.8-.2 17.9 9.2 35.9 18.3 53.8 27.5 14.5 7.5 29 15 43.5 22.4 3.7 1.9 5.1.8 5.1-4.1 0-14.5-.1-29.4 0-44.2z"/><path d="m291.8 163.8c.1-27.4 17.2-57.5 43.3-65.8 24.8-7.9 44.3 2 51.6 26 8.5 28.2-3 58.9-26 75.3-13.7 9.8-28.6 14.4-45 6.6-5.8-2.8-11-6.5-14.3-12-5.8-9.4-10.6-19.3-9.6-30.1m81-22.1c0-1.2 0-2.3 0-3.5 0-20.6-17.9-30.9-36.3-23.5-19.5 7.8-33.1 26.6-30.6 50.5.9 9.1 4.6 17 13.5 20.7 8.8 3.6 18.3 3.7 26.7-.9 16.9-9.2 27.1-23.1 26.7-43.3"/><path d="m367.6 44.9c-.6 3.2-1.3 6.6-1.9 10.1-1 6.6-2 13.1-1.9 19.8 0 1.6-.1 3.4-.6 4.9-1.2 3.6-4.5 3.8-7.4 3.6-3.3-.2-3.1-3.2-2.8-5.4 1.4-11.5 2.9-23 4.5-34.5.4-2.9 1.6-5.2 5-5 3.8.4 4.8 3.1 5.1 6.5"/><path d="m405.9 58.4c1.9.2 3.4 1.1 4.3 2.9 1 2.1.1 3.9-1.2 5.6-2.9 3.7-5.8 7.3-8.7 11-4 5.3-7.9 10.7-12 16-1.8 2.4-4.4 4.5-7.2 2.4-2.9-2.1-2.2-5.4-.3-8 6.6-9 13.3-17.9 20-26.8 1.3-1.7 2.8-3 5.1-3.1"/><path d="m399.2 121.4c-2.1.1-3.7-.7-3.8-2.6-.2-3.1.3-6.1 3.7-7.5 3.7-1.5 7.5-2.7 11.2-4.3 6.6-2.8 13.1-5.7 19.6-8.6 2.6-1.2 4.9-1.2 6.3 1.7 1.3 2.7.6 5.2-1.9 6.4-11 5-22.2 9.7-33.3 14.5-.6.3-1.3.3-1.8.4"/></g><path d="m37 351.7h1.9l11.3 28.6h-1.9l-3.6-9.2h-13.7l-3.6 9.2h-1.9zm7.1 17.9-6.1-16.2h-.1l-6.4 16.2z"/><path d="m52.7 373.4c.1 1 .3 1.8.6 2.5.4.7.9 1.4 1.5 1.9s1.3.9 2.1 1.2 1.7.4 2.6.4c.7 0 1.4-.1 2.1-.2.8-.1 1.5-.3 2.1-.7.7-.3 1.2-.8 1.6-1.3.4-.6.6-1.3.6-2.2 0-1.1-.3-2-1-2.6s-1.6-1-2.6-1.4c-1.1-.3-2.2-.6-3.4-.8s-2.3-.5-3.4-.9-1.9-1-2.6-1.7-1-1.8-1-3.2c0-1 .2-1.9.7-2.5.5-.7 1-1.2 1.7-1.6s1.5-.7 2.4-.9 1.8-.3 2.6-.3c1.1 0 2.1.1 3 .4.9.2 1.7.6 2.4 1.2s1.2 1.2 1.6 2 .6 1.8.6 3h-1.5c0-.9-.2-1.7-.5-2.4s-.7-1.2-1.3-1.6c-.5-.4-1.2-.7-1.9-.9s-1.5-.3-2.4-.3c-.7 0-1.4.1-2.1.2s-1.3.4-1.9.7-1 .7-1.4 1.2-.5 1.1-.5 1.8c0 .8.2 1.5.6 2s.9.9 1.6 1.2 1.4.6 2.2.7c.8.2 1.6.4 2.5.6 1 .2 2 .4 2.9.7s1.7.6 2.3 1c.7.4 1.2 1 1.5 1.7.4.7.6 1.6.6 2.6 0 1.1-.3 2-.8 2.8-.5.7-1.1 1.3-1.9 1.7s-1.6.7-2.6.9c-.9.2-1.9.3-2.8.3-1.2 0-2.3-.2-3.3-.5s-1.9-.8-2.6-1.4-1.3-1.4-1.8-2.3c-.4-.9-.7-2-.7-3.2h1.6z"/><path d="m71.9 373.4c.1 1 .3 1.8.6 2.5.4.7.9 1.4 1.5 1.9s1.3.9 2.1 1.2 1.7.4 2.6.4c.7 0 1.4-.1 2.1-.2.8-.1 1.5-.3 2.1-.7.7-.3 1.2-.8 1.6-1.3.4-.6.6-1.3.6-2.2 0-1.1-.3-2-1-2.6s-1.6-1-2.6-1.4c-1.1-.3-2.2-.6-3.4-.8s-2.3-.5-3.4-.9-1.9-1-2.6-1.7-1-1.8-1-3.2c0-1 .2-1.9.7-2.5.5-.7 1-1.2 1.7-1.6s1.5-.7 2.4-.9 1.8-.3 2.6-.3c1.1 0 2.1.1 3 .4.9.2 1.7.6 2.4 1.2s1.2 1.2 1.6 2 .6 1.8.6 3h-1.5c0-.9-.2-1.7-.5-2.4s-.7-1.2-1.3-1.6c-.5-.4-1.2-.7-1.9-.9s-1.5-.3-2.4-.3c-.7 0-1.4.1-2.1.2s-1.3.4-1.9.7-1 .7-1.4 1.2-.5 1.1-.5 1.8c0 .8.2 1.5.6 2s.9.9 1.6 1.2 1.4.6 2.2.7c.8.2 1.6.4 2.5.6 1 .2 2 .4 2.9.7s1.7.6 2.3 1c.7.4 1.2 1 1.5 1.7.4.7.6 1.6.6 2.6 0 1.1-.3 2-.8 2.8-.5.7-1.1 1.3-1.9 1.7s-1.6.7-2.6.9c-.9.2-1.9.3-2.8.3-1.2 0-2.3-.2-3.3-.5s-1.9-.8-2.6-1.4-1.3-1.4-1.8-2.3c-.4-.9-.7-2-.7-3.2h1.6z"/><path d="m89.5 370c0-1.5.2-2.8.6-4.1s1-2.4 1.8-3.4 1.8-1.8 3-2.3c1.2-.6 2.5-.9 4-.9s2.9.3 4 .9 2.2 1.4 3 2.3c.8 1 1.4 2.1 1.8 3.4s.6 2.7.6 4.1c0 1.5-.2 2.9-.6 4.2s-1 2.4-1.8 3.4-1.8 1.7-3 2.3-2.5.9-4 .9-2.9-.3-4-.9c-1.2-.6-2.2-1.3-3-2.3s-1.4-2.1-1.8-3.4c-.4-1.4-.6-2.8-.6-4.2zm1.5 0c0 1.2.2 2.4.5 3.5s.9 2.1 1.5 3 1.5 1.6 2.5 2.1 2.1.8 3.4.8 2.4-.3 3.4-.8 1.8-1.2 2.5-2.1 1.2-1.9 1.5-3 .5-2.3.5-3.5-.2-2.4-.5-3.5-.9-2.1-1.5-3c-.7-.9-1.5-1.6-2.5-2.1s-2.1-.8-3.4-.8-2.4.3-3.4.8-1.8 1.2-2.5 2.1-1.2 1.9-1.5 3c-.4 1.1-.5 2.2-.5 3.5z"/><path d="m127.4 366c-.1-.9-.3-1.7-.7-2.4s-.9-1.3-1.5-1.7c-.6-.5-1.3-.8-2.1-1s-1.7-.4-2.6-.4c-1.3 0-2.4.3-3.4.8s-1.8 1.2-2.5 2.1-1.2 1.9-1.5 3-.5 2.2-.5 3.4c0 1.4.2 2.7.5 3.8.3 1.2.8 2.2 1.5 3.1s1.5 1.5 2.5 2 2.1.7 3.5.7c1 0 1.8-.2 2.7-.5.8-.3 1.5-.8 2.2-1.3.6-.6 1.1-1.2 1.5-2s.7-1.6.8-2.6h1.5c-.2 1.2-.5 2.3-1 3.3s-1.1 1.8-1.9 2.4c-.8.7-1.7 1.2-2.6 1.5-1 .3-2 .5-3.1.5-1.7 0-3.1-.3-4.3-.9s-2.2-1.4-2.9-2.4c-.8-1-1.3-2.2-1.7-3.5s-.5-2.7-.5-4.1.2-2.8.6-4.1 1-2.4 1.8-3.4 1.8-1.7 3-2.3 2.5-.8 4-.8c1.1 0 2.2.1 3.1.4 1 .3 1.8.7 2.6 1.3s1.4 1.3 1.9 2.1c.5.9.8 1.9.9 3z"/><path d="m133 355.8v-4.1h1.5v4.1zm0 24.4v-20.6h1.5v20.6z"/><path d="m153 376.2c-.3.6-.7 1.2-1.1 1.7-.5.5-1 1-1.7 1.5-.7.4-1.4.8-2.2 1s-1.7.4-2.7.4c-2.2 0-3.9-.5-5.1-1.4s-1.8-2.4-1.8-4.4c0-1.2.2-2.2.7-2.9s1.1-1.4 1.8-1.8 1.5-.8 2.4-.9 1.8-.3 2.6-.4l2.4-.2c1.1-.1 2-.2 2.6-.4s1.1-.4 1.4-.7.5-.7.6-1.2.1-1.1.1-1.8c0-.6-.1-1.1-.3-1.6s-.5-.9-1-1.3-1-.7-1.8-.9c-.7-.2-1.6-.3-2.6-.3-1.8 0-3.3.5-4.5 1.4-1.1.9-1.8 2.3-1.9 4.1h-1.5c.1-2.3.8-4 2.2-5.1 1.3-1.1 3.3-1.7 5.7-1.7s4.3.5 5.4 1.5 1.7 2.2 1.7 3.8v12 .9c0 .3.1.6.1.8s.2.4.4.6c.2.1.5.2.8.2s.6 0 1.1-.1v1.3c-.4.1-.8.2-1.2.2-.6 0-1.1-.1-1.5-.2-.4-.2-.6-.4-.8-.6s-.3-.6-.4-.9c-.1-.4-.1-.8-.1-1.2v-1.4zm0-7.6c-.4.5-.9.8-1.7.9-.8.2-1.6.3-2.5.4l-2.6.2c-.7.1-1.5.2-2.2.3s-1.4.4-2 .7-1.1.8-1.5 1.4-.6 1.4-.6 2.3c0 1.5.5 2.6 1.4 3.4 1 .7 2.3 1.1 4 1.1s3.1-.3 4.1-.9 1.8-1.3 2.3-2.2c.5-.8.9-1.6 1-2.4s.2-1.3.2-1.5v-3.7z"/><path d="m166.9 361h-4.5v14.4c0 .8.1 1.5.3 2s.5.8.9 1.1.9.4 1.4.5 1.2.1 1.9 0v1.3c-.8.1-1.5 0-2.3 0-.7-.1-1.4-.3-1.9-.6-.6-.3-1-.8-1.3-1.5s-.5-1.6-.4-2.8v-14.4h-3.8v-1.3h3.8v-6.4h1.5v6.4h4.5v1.3z"/><path d="m170.1 355.8v-4.1h1.5v4.1zm0 24.4v-20.6h1.5v20.6z"/><path d="m175.5 370c0-1.5.2-2.8.6-4.1s1-2.4 1.8-3.4 1.8-1.8 3-2.3c1.2-.6 2.5-.9 4-.9s2.9.3 4 .9 2.2 1.4 3 2.3c.8 1 1.4 2.1 1.8 3.4s.6 2.7.6 4.1c0 1.5-.2 2.9-.6 4.2s-1 2.4-1.8 3.4-1.8 1.7-3 2.3-2.5.9-4 .9-2.9-.3-4-.9c-1.2-.6-2.2-1.3-3-2.3s-1.4-2.1-1.8-3.4c-.4-1.4-.6-2.8-.6-4.2zm1.5 0c0 1.2.2 2.4.5 3.5s.9 2.1 1.5 3 1.5 1.6 2.5 2.1 2.1.8 3.4.8 2.4-.3 3.4-.8 1.8-1.2 2.5-2.1 1.2-1.9 1.5-3 .5-2.3.5-3.5-.2-2.4-.5-3.5-.9-2.1-1.5-3c-.7-.9-1.5-1.6-2.5-2.1s-2.1-.8-3.4-.8-2.4.3-3.4.8-1.8 1.2-2.5 2.1-1.2 1.9-1.5 3-.5 2.2-.5 3.5z"/><path d="m197.9 359.7h1.5v4.4h.1c.3-.8.6-1.5 1.1-2.1s1.1-1.1 1.7-1.5c.7-.4 1.4-.7 2.1-1s1.6-.3 2.4-.3c1.2 0 2.2.1 3.1.4.8.3 1.5.7 2.1 1.2.5.5 1 1 1.3 1.6s.5 1.2.7 1.8c.1.6.2 1.2.2 1.8v1.5 12.7h-1.5v-13c0-.5 0-1.1-.1-1.9s-.3-1.5-.7-2.2-1-1.3-1.8-1.8-1.9-.8-3.3-.8c-1.2 0-2.2.2-3.1.6s-1.7 1-2.3 1.8-1.1 1.7-1.5 2.7c-.3 1.1-.5 2.2-.5 3.5v11.1h-1.5z"/><path d="m227.6 361v-1.3h3.7v-4.2c0-.7.1-1.3.4-1.9.2-.5.6-.9 1-1.3.4-.3.9-.6 1.4-.7.5-.2 1.1-.2 1.7-.2.5 0 1.1.1 1.8.2v1.3c-.7-.1-1.3-.2-1.8-.2-.9 0-1.6.2-2.1.6-.6.4-.9 1.2-.9 2.3v4.1h4.3v1.3h-4.3v19.2h-1.5v-19.2z"/><path d="m238.5 370c0-1.5.2-2.8.6-4.1s1-2.4 1.8-3.4 1.8-1.8 3-2.3c1.2-.6 2.5-.9 4-.9s2.9.3 4 .9 2.2 1.4 3 2.3c.8 1 1.4 2.1 1.8 3.4s.6 2.7.6 4.1c0 1.5-.2 2.9-.6 4.2s-1 2.4-1.8 3.4-1.8 1.7-3 2.3-2.5.9-4 .9-2.9-.3-4-.9c-1.2-.6-2.2-1.3-3-2.3s-1.4-2.1-1.8-3.4c-.4-1.4-.6-2.8-.6-4.2zm1.5 0c0 1.2.2 2.4.5 3.5s.9 2.1 1.5 3 1.5 1.6 2.5 2.1 2.1.8 3.4.8 2.4-.3 3.4-.8 1.8-1.2 2.5-2.1 1.2-1.9 1.5-3 .5-2.3.5-3.5-.2-2.4-.5-3.5-.9-2.1-1.5-3c-.7-.9-1.5-1.6-2.5-2.1s-2.1-.8-3.4-.8-2.4.3-3.4.8-1.8 1.2-2.5 2.1-1.2 1.9-1.5 3-.5 2.2-.5 3.5z"/><path d="m262.4 364.2h.1c.2-.7.5-1.3 1-1.9s1.1-1.1 1.8-1.5 1.5-.8 2.4-1 1.8-.3 2.7-.3v1.5c-.8-.1-1.7 0-2.7.2-1 .3-2 .9-2.9 1.8-.4.4-.7.8-1 1.2s-.5.8-.7 1.2c-.2.5-.3 1-.4 1.5-.1.6-.2 1.2-.2 2v11.2h-1.5v-20.6h1.5v4.7z"/><path d="m302.1 359.8c-.1-1.2-.3-2.3-.8-3.2s-1.1-1.7-1.9-2.3-1.8-1.1-2.9-1.4-2.3-.5-3.6-.5c-.8 0-1.7.1-2.6.3s-1.8.5-2.6 1-1.4 1.1-1.9 1.9-.8 1.8-.8 2.9.3 2.1.8 2.8 1.3 1.3 2.2 1.7 1.9.8 3.1 1.1 2.4.5 3.6.8c1.2.2 2.4.5 3.6.9 1.2.3 2.2.8 3.1 1.4s1.7 1.3 2.2 2.2c.6.9.8 2.1.8 3.5 0 1.5-.3 2.7-1 3.8-.6 1-1.4 1.8-2.4 2.5-1 .6-2.1 1.1-3.2 1.4-1.2.3-2.3.4-3.4.4-1.7 0-3.3-.2-4.7-.5-1.5-.4-2.7-.9-3.8-1.8-1.1-.8-2-1.9-2.6-3.1-.6-1.3-.9-2.8-.9-4.7h1.8c-.1 1.6.1 2.9.7 4 .5 1.1 1.3 2 2.2 2.7s2.1 1.2 3.3 1.5c1.3.3 2.6.5 4 .5.9 0 1.8-.1 2.7-.3 1-.2 1.9-.6 2.7-1.1s1.5-1.2 2-2 .8-1.9.8-3.1-.3-2.2-.8-2.9-1.3-1.4-2.2-1.8c-.9-.5-2-.8-3.1-1.1-1.2-.3-2.4-.5-3.6-.8-1.2-.2-2.4-.5-3.6-.8s-2.2-.8-3.1-1.3-1.6-1.3-2.2-2.1c-.6-.9-.8-2-.8-3.3 0-1.4.3-2.5.9-3.5s1.3-1.8 2.2-2.4 2-1 3.1-1.3 2.3-.4 3.4-.4c1.5 0 2.9.2 4.2.5s2.4.9 3.4 1.6 1.8 1.6 2.3 2.7c.6 1.1.9 2.5 1 4h-1.6z"/><path d="m323.8 366c-.1-.9-.3-1.7-.7-2.4s-.9-1.3-1.5-1.7c-.6-.5-1.3-.8-2.1-1s-1.7-.4-2.6-.4c-1.3 0-2.4.3-3.4.8s-1.8 1.2-2.5 2.1-1.2 1.9-1.5 3-.5 2.2-.5 3.4c0 1.4.2 2.7.5 3.8.3 1.2.8 2.2 1.5 3.1s1.5 1.5 2.5 2 2.1.7 3.5.7c1 0 1.8-.2 2.7-.5.8-.3 1.5-.8 2.2-1.3.6-.6 1.1-1.2 1.5-2s.7-1.6.8-2.6h1.5c-.2 1.2-.5 2.3-1 3.3s-1.1 1.8-1.9 2.4c-.8.7-1.7 1.2-2.6 1.5-1 .3-2 .5-3.1.5-1.7 0-3.1-.3-4.3-.9s-2.2-1.4-2.9-2.4c-.8-1-1.3-2.2-1.7-3.5s-.5-2.7-.5-4.1.2-2.8.6-4.1 1-2.4 1.8-3.4 1.8-1.7 3-2.3 2.5-.8 4-.8c1.1 0 2.2.1 3.1.4 1 .3 1.8.7 2.6 1.3s1.4 1.3 1.9 2.1.8 1.9.9 3z"/><path d="m329.5 355.8v-4.1h1.5v4.1zm0 24.4v-20.6h1.5v20.6z"/><path d="m336.4 370.2v.2c0 1.2.2 2.3.5 3.4s.8 2.1 1.4 2.9 1.4 1.5 2.4 2c.9.5 2.1.7 3.3.7 2.1 0 3.7-.5 4.9-1.6s2-2.6 2.5-4.5h1.5c-.5 2.4-1.4 4.2-2.9 5.5s-3.5 1.9-6 1.9c-1.5 0-2.8-.3-4-.8-1.1-.5-2.1-1.3-2.8-2.2-.8-.9-1.3-2.1-1.7-3.4s-.6-2.7-.6-4.2c0-1.4.2-2.8.6-4.1s1-2.5 1.7-3.5c.8-1 1.7-1.8 2.9-2.4s2.5-.9 4.1-.9c1.4 0 2.7.3 3.8.8s2 1.3 2.8 2.2c.7.9 1.3 2 1.7 3.2s.6 2.5.6 3.9v.5.4zm15.1-1.4c-.1-1.1-.2-2.2-.6-3.2-.3-1-.8-1.9-1.4-2.6-.6-.8-1.4-1.4-2.3-1.8-.9-.5-1.9-.7-3.1-.7s-2.3.2-3.2.7-1.7 1.1-2.4 1.8c-.6.8-1.1 1.6-1.5 2.7s-.6 2.1-.6 3.1z"/><path d="m356.6 359.7h1.5v4.4h.1c.3-.8.6-1.5 1.1-2.1s1.1-1.1 1.7-1.5c.7-.4 1.4-.7 2.1-1s1.6-.3 2.4-.3c1.2 0 2.2.1 3.1.4.8.3 1.5.7 2.1 1.2.5.5 1 1 1.3 1.6s.5 1.2.7 1.8c.1.6.2 1.2.2 1.8v1.5 12.7h-1.5v-13c0-.5 0-1.1-.1-1.9s-.3-1.5-.7-2.2-1-1.3-1.8-1.8-1.9-.8-3.3-.8c-1.2 0-2.2.2-3.1.6s-1.7 1-2.3 1.8-1.1 1.7-1.5 2.7c-.3 1.1-.5 2.2-.5 3.5v11.1h-1.5z"/><path d="m392.8 366c-.1-.9-.3-1.7-.7-2.4s-.9-1.3-1.5-1.7c-.6-.5-1.3-.8-2.1-1s-1.7-.4-2.6-.4c-1.3 0-2.4.3-3.4.8s-1.8 1.2-2.5 2.1-1.2 1.9-1.5 3-.5 2.2-.5 3.4c0 1.4.2 2.7.5 3.8.3 1.2.8 2.2 1.5 3.1s1.5 1.5 2.5 2 2.1.7 3.5.7c1 0 1.8-.2 2.7-.5.8-.3 1.5-.8 2.2-1.3.6-.6 1.1-1.2 1.5-2s.7-1.6.8-2.6h1.5c-.2 1.2-.5 2.3-1 3.3s-1.1 1.8-1.9 2.4-1.7 1.2-2.6 1.5-2 .5-3.1.5c-1.7 0-3.1-.3-4.3-.9s-2.2-1.4-2.9-2.4-1.3-2.2-1.7-3.5-.5-2.7-.5-4.1.2-2.8.6-4.1 1-2.4 1.8-3.4 1.8-1.7 3-2.3 2.5-.8 4-.8c1.1 0 2.2.1 3.1.4 1 .3 1.8.7 2.6 1.3s1.4 1.3 1.9 2.1c.5.9.8 1.9.9 3z"/><path d="m398.7 370.2v.2c0 1.2.2 2.3.5 3.4s.8 2.1 1.4 2.9 1.4 1.5 2.4 2c.9.5 2.1.7 3.3.7 2.1 0 3.7-.5 4.9-1.6s2-2.6 2.5-4.5h1.5c-.5 2.4-1.4 4.2-2.9 5.5s-3.5 1.9-6 1.9c-1.5 0-2.8-.3-4-.8-1.1-.5-2.1-1.3-2.8-2.2-.8-.9-1.3-2.1-1.7-3.4s-.6-2.7-.6-4.2c0-1.4.2-2.8.6-4.1s1-2.5 1.7-3.5 1.7-1.8 2.9-2.4 2.5-.9 4.1-.9c1.4 0 2.7.3 3.8.8s2 1.3 2.8 2.2c.7.9 1.3 2 1.7 3.2s.6 2.5.6 3.9v.5.4zm15.1-1.4c-.1-1.1-.2-2.2-.6-3.2s-.8-1.9-1.4-2.6c-.6-.8-1.4-1.4-2.3-1.8-.9-.5-1.9-.7-3.1-.7s-2.3.2-3.2.7-1.7 1.1-2.4 1.8c-.6.8-1.1 1.6-1.5 2.7-.3 1-.6 2.1-.6 3.1z"/><path d="m443.6 376.2c-.3.6-.7 1.2-1.1 1.7s-1 1-1.7 1.5-1.4.8-2.2 1-1.7.4-2.7.4c-2.2 0-3.9-.5-5.1-1.4s-1.8-2.4-1.8-4.4c0-1.2.2-2.2.7-2.9s1.1-1.4 1.8-1.8 1.5-.8 2.4-.9 1.8-.3 2.6-.4l2.4-.2c1.1-.1 2-.2 2.6-.4s1.1-.4 1.4-.7.5-.7.6-1.2.1-1.1.1-1.8c0-.6-.1-1.1-.3-1.6s-.5-.9-1-1.3-1-.7-1.8-.9c-.7-.2-1.6-.3-2.6-.3-1.8 0-3.3.5-4.5 1.4-1.1.9-1.8 2.3-1.9 4.1h-1.5c.1-2.3.8-4 2.2-5.1 1.3-1.1 3.3-1.7 5.7-1.7 2.5 0 4.3.5 5.4 1.5s1.7 2.2 1.7 3.8v12 .9c0 .3.1.6.1.8.1.2.2.4.4.6s.5.2.8.2.6 0 1.1-.1v1.3c-.4.1-.8.2-1.2.2-.6 0-1.1-.1-1.5-.2-.4-.2-.6-.4-.8-.6-.2-.3-.3-.6-.4-.9-.1-.4-.1-.8-.1-1.2v-1.4zm0-7.6c-.4.5-.9.8-1.7.9-.8.2-1.6.3-2.5.4l-2.6.2c-.7.1-1.5.2-2.2.3s-1.4.4-2 .7-1.1.8-1.5 1.4-.6 1.4-.6 2.3c0 1.5.5 2.6 1.4 3.4 1 .7 2.3 1.1 4 1.1s3.1-.3 4.1-.9 1.8-1.3 2.3-2.2c.5-.8.9-1.6 1-2.4s.2-1.3.2-1.5v-3.7z"/><path d="m450 359.7h1.5v4.4h.1c.3-.8.6-1.5 1.1-2.1s1.1-1.1 1.7-1.5c.7-.4 1.4-.7 2.1-1s1.6-.3 2.4-.3c1.2 0 2.2.1 3.1.4.8.3 1.5.7 2.1 1.2.5.5 1 1 1.3 1.6s.5 1.2.7 1.8c.1.6.2 1.2.2 1.8v1.5 12.7h-1.5v-13c0-.5 0-1.1-.1-1.9s-.3-1.5-.7-2.2-1-1.3-1.8-1.8-1.9-.8-3.3-.8c-1.2 0-2.2.2-3.1.6s-1.7 1-2.3 1.8-1.1 1.7-1.5 2.7c-.3 1.1-.5 2.2-.5 3.5v11.1h-1.5z"/><path d="m486.6 375.8c-.9 1.6-2 2.8-3.3 3.7-1.3.8-2.8 1.2-4.7 1.2-1.5 0-2.9-.3-4-.9s-2-1.4-2.8-2.4c-.7-1-1.3-2.1-1.6-3.4s-.5-2.6-.5-4.1.2-2.9.6-4.3c.4-1.3.9-2.5 1.7-3.4s1.7-1.7 2.9-2.3c1.1-.6 2.5-.8 4-.8.8 0 1.6.1 2.4.3s1.5.6 2.2 1 1.3 1 1.8 1.6.9 1.4 1.2 2.2h.1v-12.6h1.5v28.6h-1.5zm-7.6 3.6c1.3 0 2.4-.3 3.4-.8.9-.5 1.7-1.2 2.4-2.1s1.1-1.9 1.4-3 .5-2.3.5-3.5-.2-2.4-.5-3.5-.8-2.1-1.4-3-1.4-1.6-2.4-2.1-2.1-.8-3.4-.8c-1.4 0-2.5.3-3.5.8s-1.8 1.2-2.4 2.1-1.1 1.9-1.4 3-.4 2.3-.4 3.6c0 1.2.2 2.4.5 3.5s.8 2.1 1.4 3 1.4 1.6 2.4 2.1c.9.5 2.1.7 3.4.7z"/><path d="m504.4 351.7h12.2c.8 0 1.7.1 2.7.3s1.9.6 2.7 1.1c.8.6 1.5 1.4 2.1 2.4.6 1.1.8 2.4.8 4.1 0 2.5-.8 4.4-2.3 5.8s-3.8 2-6.6 2h-9.8v12.7h-1.8zm1.8 14.3h10c1.3 0 2.4-.2 3.3-.6s1.6-.9 2.1-1.5.9-1.3 1.2-2c.2-.7.4-1.5.4-2.2 0-.5-.1-1.2-.2-1.9s-.5-1.4-1-2.1-1.2-1.3-2-1.7c-.9-.5-2-.7-3.5-.7h-10.3z"/><path d="m529.3 351.7v12.4h.1c.3-.8.6-1.5 1.1-2.1s1.1-1.1 1.7-1.5c.7-.4 1.4-.7 2.1-1s1.6-.3 2.4-.3c1.2 0 2.2.1 3.1.4.8.3 1.5.7 2.1 1.2.5.5 1 1 1.3 1.6s.5 1.2.7 1.8c.1.6.2 1.2.2 1.8v1.5 12.7h-1.5v-13c0-.5 0-1.1-.1-1.9s-.3-1.5-.7-2.2-1-1.3-1.8-1.8-1.9-.8-3.3-.8c-1.2 0-2.2.2-3.1.6s-1.7 1-2.3 1.8-1.1 1.7-1.5 2.7c-.3 1.1-.5 2.2-.5 3.5v11.1h-1.5v-28.6h1.5z"/><path d="m548.9 355.8v-4.1h1.5v4.1zm0 24.4v-20.6h1.5v20.6z"/><path d="m557.1 351.7v28.6h-1.5v-28.6z"/><path d="m561 370c0-1.5.2-2.8.6-4.1s1-2.4 1.8-3.4 1.8-1.8 3-2.3 2.5-.9 4-.9 2.9.3 4 .9 2.2 1.4 3 2.3 1.4 2.1 1.8 3.4.6 2.7.6 4.1c0 1.5-.2 2.9-.6 4.2s-1 2.4-1.8 3.4-1.8 1.7-3 2.3-2.5.9-4 .9-2.9-.3-4-.9-2.2-1.3-3-2.3-1.4-2.1-1.8-3.4c-.4-1.4-.6-2.8-.6-4.2zm1.5 0c0 1.2.2 2.4.5 3.5s.9 2.1 1.5 3c.7.9 1.5 1.6 2.5 2.1s2.1.8 3.4.8 2.4-.3 3.4-.8 1.8-1.2 2.5-2.1 1.2-1.9 1.5-3 .5-2.3.5-3.5-.2-2.4-.5-3.5-.9-2.1-1.5-3c-.7-.9-1.5-1.6-2.5-2.1s-2.1-.8-3.4-.8-2.4.3-3.4.8-1.8 1.2-2.5 2.1-1.2 1.9-1.5 3-.5 2.2-.5 3.5z"/><path d="m584.2 373.4c.1 1 .3 1.8.6 2.5s.9 1.4 1.5 1.9 1.3.9 2.1 1.2 1.7.4 2.6.4c.7 0 1.4-.1 2.1-.2.8-.1 1.5-.3 2.1-.7.7-.3 1.2-.8 1.6-1.3s.6-1.3.6-2.2c0-1.1-.3-2-1-2.6s-1.6-1-2.6-1.4c-1.1-.3-2.2-.6-3.4-.8s-2.3-.5-3.4-.9-1.9-1-2.6-1.7-1-1.8-1-3.2c0-1 .2-1.9.7-2.5.5-.7 1-1.2 1.7-1.6s1.5-.7 2.4-.9 1.8-.3 2.6-.3c1.1 0 2.1.1 3 .4.9.2 1.7.6 2.4 1.2.7.5 1.2 1.2 1.6 2s.6 1.8.6 3h-1.5c0-.9-.2-1.7-.5-2.4s-.7-1.2-1.3-1.6c-.5-.4-1.2-.7-1.9-.9s-1.5-.3-2.4-.3c-.7 0-1.4.1-2.1.2s-1.3.4-1.9.7-1 .7-1.4 1.2-.5 1.1-.5 1.8c0 .8.2 1.5.6 2s.9.9 1.6 1.2 1.4.6 2.2.7 1.6.4 2.5.6c1 .2 2 .4 2.9.7s1.7.6 2.3 1c.7.4 1.2 1 1.5 1.7.4.7.6 1.6.6 2.6 0 1.1-.3 2-.8 2.8-.5.7-1.1 1.3-1.9 1.7s-1.6.7-2.6.9c-.9.2-1.9.3-2.8.3-1.2 0-2.3-.2-3.3-.5s-1.9-.8-2.6-1.4-1.3-1.4-1.8-2.3c-.4-.9-.7-2-.7-3.2h1.6z"/><path d="m601.7 370c0-1.5.2-2.8.6-4.1s1-2.4 1.8-3.4 1.8-1.8 3-2.3 2.5-.9 4-.9 2.9.3 4 .9 2.2 1.4 3 2.3 1.4 2.1 1.8 3.4.6 2.7.6 4.1c0 1.5-.2 2.9-.6 4.2s-1 2.4-1.8 3.4-1.8 1.7-3 2.3-2.5.9-4 .9-2.9-.3-4-.9-2.2-1.3-3-2.3-1.4-2.1-1.8-3.4c-.4-1.4-.6-2.8-.6-4.2zm1.5 0c0 1.2.2 2.4.5 3.5s.9 2.1 1.5 3c.7.9 1.5 1.6 2.5 2.1s2.1.8 3.4.8 2.4-.3 3.4-.8 1.8-1.2 2.5-2.1 1.2-1.9 1.5-3 .5-2.3.5-3.5-.2-2.4-.5-3.5-.9-2.1-1.5-3c-.7-.9-1.5-1.6-2.5-2.1s-2.1-.8-3.4-.8-2.4.3-3.4.8-1.8 1.2-2.5 2.1-1.2 1.9-1.5 3-.5 2.2-.5 3.5z"/><path d="m626 364.4h.1c.2-.5.4-1.1.8-1.7s.9-1.2 1.5-1.7 1.4-1 2.2-1.3c.9-.3 1.9-.5 3-.5 1.6 0 2.9.3 4.1.9s2.1 1.4 2.9 2.4 1.3 2.1 1.7 3.4.6 2.7.6 4.1c0 1.6-.2 3-.6 4.3s-.9 2.4-1.7 3.4c-.8.9-1.7 1.7-2.9 2.2s-2.5.8-4.1.8c-1.7 0-3.2-.4-4.6-1.1-1.3-.7-2.3-2-2.9-3.6h-.1v11.6h-1.5v-27.9h1.5zm7.6 15c1.3 0 2.5-.3 3.5-.8s1.8-1.2 2.4-2c.6-.9 1.1-1.8 1.4-3 .3-1.1.5-2.3.5-3.6 0-1.2-.1-2.3-.4-3.5-.3-1.1-.7-2.1-1.4-3-.6-.9-1.4-1.6-2.4-2.2-1-.5-2.2-.8-3.5-.8-1.4 0-2.5.3-3.5.8s-1.7 1.2-2.3 2.1-1 1.9-1.3 3-.4 2.3-.4 3.5.1 2.4.4 3.5c.2 1.1.6 2.1 1.2 3s1.3 1.6 2.3 2.1c.8.7 2 .9 3.5.9z"/><path d="m647.9 351.7v12.4h.1c.3-.8.6-1.5 1.1-2.1s1.1-1.1 1.7-1.5c.7-.4 1.4-.7 2.1-1s1.6-.3 2.4-.3c1.2 0 2.2.1 3.1.4.8.3 1.5.7 2.1 1.2.5.5 1 1 1.3 1.6s.5 1.2.7 1.8c.1.6.2 1.2.2 1.8v1.5 12.7h-1.5v-13c0-.5 0-1.1-.1-1.9s-.3-1.5-.7-2.2-1-1.3-1.8-1.8-1.9-.8-3.3-.8c-1.2 0-2.2.2-3.1.6s-1.7 1-2.3 1.8-1.1 1.7-1.5 2.7c-.3 1.1-.5 2.2-.5 3.5v11.1h-1.5v-28.6h1.5z"/><path d="m664.7 359.7h1.8l7.6 18.8 7-18.8h1.7l-8.8 22.8c-.4 1-.8 1.9-1.2 2.6s-.8 1.3-1.2 1.6c-.5.4-1.2.7-1.9.8s-1.7.1-2.9.1v-1.3c1.1 0 1.9-.1 2.6-.3.6-.2 1.2-.5 1.7-1.1.3-.3.6-.8.9-1.6s.7-1.9 1.2-3.2z"/></g></svg>