<svg enable-background="new 0 0 283.46 141.73" viewBox="0 0 283.46 141.73" xmlns="http://www.w3.org/2000/svg"><path d="m62.04 117.67c0-12.49-1.48-21.58-4.44-27.26s-8.37-8.53-16.21-8.53c-4.32 0-7.89 1.16-10.69 3.48s-5.01 6.09-6.61 11.29c-1.6 5.21-2.72 12.01-3.36 20.42-.53 6.93-.84 15.17-.93 24.66h73.94v-24.06z" fill="none"/><path d="m142.74 85.25h-14.41v52.12h15.37c6.88 0 12.45-2.08 16.69-6.24s6.36-10.65 6.36-19.46c0-8.65-1.84-15.21-5.52-19.7-3.68-4.48-9.84-6.72-18.49-6.72z" fill="none"/><path d="m0 73.66c3.45-4.25 7.63-7.79 12.56-10.62 7.69-4.4 18.01-6.61 30.98-6.61 12.33 0 22.06 2 29.18 6s12.45 9.09 15.97 15.25c2.19 3.84 3.87 7.86 5.04 12.07v-29.96h60.53c8.8 0 16.21 1.48 22.22 4.44 6 2.96 10.85 6.85 14.53 11.65 1.42 1.85 2.68 3.81 3.79 5.86 2.3-5.04 5.44-9.32 9.42-12.83 9.45-8.32 22.42-12.49 38.91-12.49 7.69 0 14.77.84 21.26 2.52s12.09 4.41 16.81 8.17c.78.63 1.53 1.29 2.25 1.98v-48.64h-283.45zm273.05-31.32h8.65v1.38h-8.65zm-8.86-1.91c.02-.48.08-.96.17-1.42s.22-.9.4-1.31c.17-.42.41-.78.71-1.09s.68-.56 1.13-.74c.46-.18 1-.28 1.63-.28s1.18.09 1.63.28c.46.18.83.43 1.13.74s.54.67.71 1.09c.17.41.31.85.4 1.31s.15.93.17 1.42c.02.48.03.95.03 1.4s-.01.92-.03 1.4-.08.96-.17 1.42-.23.9-.4 1.31-.41.77-.71 1.08-.67.56-1.12.73c-.45.18-1 .27-1.64.27-.63 0-1.18-.09-1.63-.27-.46-.18-.83-.42-1.13-.73s-.54-.67-.71-1.08-.31-.84-.4-1.31c-.09-.46-.15-.93-.17-1.42-.02-.48-.03-.95-.03-1.4s.01-.92.03-1.4zm-9.61 0c.02-.48.08-.96.17-1.42s.22-.9.4-1.31c.17-.42.41-.78.71-1.09s.68-.56 1.13-.74c.46-.18 1-.28 1.63-.28s1.18.09 1.63.28c.46.18.83.43 1.13.74s.54.67.71 1.09c.17.41.31.85.4 1.31s.15.93.17 1.42c.02.48.03.95.03 1.4s-.01.92-.03 1.4-.08.96-.17 1.42-.23.9-.4 1.31-.41.77-.71 1.08-.67.56-1.12.73c-.45.18-1 .27-1.64.27-.63 0-1.18-.09-1.63-.27-.46-.18-.83-.42-1.13-.73s-.54-.67-.71-1.08-.31-.84-.4-1.31c-.09-.46-.15-.93-.17-1.42-.02-.48-.03-.95-.03-1.4s0-.92.03-1.4zm-4.14-1.53h1.92v1.92h-1.92zm0 7.02h1.92v1.92h-1.92zm-9.54-8.04c.42 0 .82-.03 1.21-.1.39-.06.75-.18 1.06-.35.32-.17.58-.41.8-.71s.37-.68.45-1.14h1.12v12.26h-1.47v-8.79h-3.18v-1.17zm-9.62 0c.42 0 .82-.03 1.21-.1.39-.06.75-.18 1.06-.35.32-.17.59-.41.8-.71.22-.3.37-.68.45-1.14h1.12v12.26h-1.47v-8.79h-3.18v-1.17zm-9.13.31c-.13-.27-.3-.5-.51-.7s-.46-.35-.75-.45-.59-.16-.92-.16c-.43 0-.79.09-1.1.27s-.56.41-.75.7c-.2.29-.34.61-.42.98-.09.36-.12.73-.11 1.1h-1.47c-.03-.62.03-1.2.19-1.73s.41-.99.75-1.38.76-.69 1.27-.91 1.08-.33 1.73-.33c.53 0 1.03.08 1.5.23.47.16.87.38 1.22.67s.62.66.82 1.1.3.95.3 1.52c0 .54-.08 1.02-.25 1.44-.17.41-.39.79-.67 1.12s-.59.63-.95.89c-.36.27-.73.52-1.11.76-.38.23-.76.46-1.14.68s-.73.46-1.05.72c-.32.25-.59.53-.81.82-.23.29-.37.63-.44 1.01h6.29v1.3h-8.01c.06-.73.19-1.35.39-1.86s.46-.96.77-1.34.66-.71 1.06-1c.39-.29.8-.56 1.23-.81.52-.32.97-.62 1.37-.89.39-.27.72-.54.98-.82s.46-.58.59-.9.2-.7.2-1.12c-.01-.34-.07-.64-.2-.91zm-9.61 0c-.13-.27-.3-.5-.51-.7s-.46-.35-.75-.45-.59-.16-.92-.16c-.43 0-.79.09-1.1.27s-.56.41-.75.7c-.2.29-.34.61-.42.98s-.12.73-.11 1.1h-1.47c-.03-.62.03-1.2.19-1.73s.41-.99.75-1.38.76-.69 1.27-.91 1.08-.33 1.73-.33c.53 0 1.03.08 1.5.23.47.16.87.38 1.22.67s.62.66.82 1.1.3.95.3 1.52c0 .54-.08 1.02-.25 1.44-.17.41-.39.79-.67 1.12s-.59.63-.95.89c-.36.27-.73.52-1.11.76-.38.23-.76.46-1.14.68s-.73.46-1.05.72c-.32.25-.59.53-.81.82s-.37.63-.44 1.01h6.3v1.3h-8.01c.06-.73.19-1.35.39-1.86s.46-.96.77-1.34.66-.71 1.06-1c.39-.29.8-.56 1.23-.81.52-.32.97-.62 1.37-.89.39-.27.72-.54.98-.82s.46-.58.59-.9.2-.7.2-1.12c-.02-.34-.09-.64-.21-.91zm-10.17 7.73h1.92v1.92h-1.92zm-4-2.55c-.14-.29-.32-.54-.55-.74s-.5-.35-.82-.45-.66-.15-1.03-.15c-.31 0-.61.02-.88.05v-1.25c.06.01.11.02.16.02h.17.31c.31 0 .61-.04.89-.13s.53-.21.74-.38.38-.38.51-.63.19-.54.19-.86c0-.66-.21-1.15-.62-1.48s-.93-.49-1.56-.49c-.39 0-.73.07-1.03.22-.29.14-.54.34-.73.58s-.33.52-.42.85-.14.66-.14 1.02h-1.47c.02-.59.12-1.12.29-1.61.17-.48.41-.9.72-1.25s.7-.62 1.17-.81c.47-.2 1.01-.29 1.62-.29.53 0 1.02.07 1.48.2s.85.33 1.18.6.6.61.79 1.02c.19.42.29.91.29 1.47 0 .55-.16 1.04-.48 1.47s-.73.75-1.21.97v.03c.75.16 1.31.51 1.67 1.06.36.54.54 1.18.54 1.92 0 .61-.11 1.15-.34 1.62-.22.47-.53.86-.91 1.17s-.83.54-1.34.7-1.06.23-1.63.23c-.62 0-1.19-.09-1.69-.26-.51-.17-.94-.43-1.3-.77s-.63-.76-.82-1.25c-.19-.5-.28-1.06-.27-1.69h1.47c.02.8.25 1.44.69 1.95.44.5 1.08.75 1.92.75.36 0 .7-.05 1.02-.16s.61-.27.85-.47.44-.45.58-.74.22-.63.22-.99c-.02-.41-.09-.75-.23-1.05zm-10.43 2.55h1.92v1.92h-1.92zm-9.46-5.68c-.31-.47-.47-.98-.47-1.53 0-.51.1-.95.29-1.34.2-.39.46-.71.8-.98.33-.27.72-.47 1.15-.61s.88-.21 1.36-.21c.67 0 1.24.09 1.71.27s.86.41 1.15.71c.29.29.51.63.65 1s.21.76.21 1.15c0 .55-.15 1.06-.46 1.51-.31.46-.72.8-1.24 1.03.74.23 1.29.61 1.64 1.13.36.52.54 1.17.54 1.93 0 .6-.11 1.13-.32 1.59s-.5.85-.87 1.17c-.36.32-.79.56-1.29.72s-1.03.24-1.59.24c-.59 0-1.14-.08-1.64-.22-.51-.15-.95-.38-1.32-.69s-.67-.7-.88-1.17-.32-1.01-.32-1.63c0-.73.18-1.36.55-1.89.37-.54.9-.93 1.59-1.17-.51-.2-.92-.54-1.24-1.01zm-9.7-2.36c.42 0 .82-.03 1.21-.1.39-.06.75-.18 1.06-.35.32-.17.58-.41.8-.71s.37-.68.45-1.14h1.12v12.26h-1.47v-8.79h-3.18v-1.17zm-10.36 2.55c.02-.48.08-.96.17-1.42s.23-.9.4-1.31c.17-.42.41-.78.71-1.09s.68-.56 1.13-.74c.46-.18 1-.28 1.63-.28s1.18.09 1.63.28c.46.18.83.43 1.13.74s.54.67.71 1.09c.17.41.3.85.4 1.31.09.46.15.93.17 1.42.02.48.03.95.03 1.4s-.01.92-.03 1.4-.08.96-.17 1.42-.22.9-.4 1.31c-.17.41-.41.77-.71 1.08s-.67.56-1.12.73c-.45.18-1 .27-1.64.27-.63 0-1.18-.09-1.63-.27-.46-.18-.83-.42-1.13-.73s-.54-.67-.71-1.08-.31-.84-.4-1.31c-.09-.46-.15-.93-.17-1.42-.02-.48-.03-.95-.03-1.4s.01-.92.03-1.4zm-3.58-2.24c-.13-.27-.3-.5-.51-.7s-.46-.35-.75-.45-.59-.16-.92-.16c-.43 0-.79.09-1.1.27s-.56.41-.75.7c-.2.29-.34.61-.42.98-.09.36-.12.73-.11 1.1h-1.47c-.03-.62.03-1.2.19-1.73s.41-.99.75-1.38.76-.69 1.27-.91 1.08-.33 1.73-.33c.53 0 1.03.08 1.5.23.47.16.87.38 1.22.67s.62.66.82 1.1.3.95.3 1.52c0 .54-.08 1.02-.25 1.44-.17.41-.39.79-.67 1.12s-.59.63-.95.89c-.36.27-.73.52-1.11.76-.38.23-.76.46-1.14.68s-.73.46-1.05.72c-.32.25-.59.53-.81.82-.23.29-.37.63-.44 1.01h6.29v1.3h-8.01c.06-.73.19-1.35.39-1.86s.46-.96.77-1.34.66-.71 1.06-1c.39-.29.8-.56 1.23-.81.52-.32.97-.62 1.37-.89.39-.27.72-.54.98-.82s.46-.58.59-.9.2-.7.2-1.12c-.01-.34-.07-.64-.2-.91zm-77.94-2.73h1.61v-3.55h3.18v3.55h1.84v2.17h-1.84v6.71c0 .49.07.84.22 1.05s.45.31.91.31c.12 0 .25 0 .37-.01s.24-.02.35-.03v2.21c-.35 0-.7.01-1.03.03s-.68.03-1.05.03c-.62 0-1.12-.04-1.51-.13-.39-.08-.69-.25-.9-.51-.21-.25-.35-.59-.43-1s-.12-.94-.12-1.57v-7.1h-1.6zm-9.85 8.35h2.86v.42c0 .54.14.97.43 1.3.28.33.7.5 1.23.5.49 0 .88-.12 1.18-.37.29-.25.44-.61.44-1.11 0-.4-.12-.7-.35-.91s-.5-.37-.81-.5l-2.24-.81c-.88-.31-1.54-.74-1.98-1.3-.45-.56-.67-1.28-.67-2.16 0-.51.08-.99.25-1.44s.44-.85.81-1.19.84-.61 1.42-.81 1.27-.3 2.09-.3c1.44 0 2.51.31 3.21.92.69.62 1.04 1.48 1.04 2.61v.51h-2.86c0-.65-.1-1.12-.31-1.42s-.57-.45-1.1-.45c-.4 0-.75.11-1.05.33s-.45.56-.45 1c0 .31.1.58.29.83s.56.45 1.1.62l1.91.65c1 .34 1.71.78 2.12 1.33s.62 1.29.62 2.23c0 .66-.12 1.23-.35 1.72-.23.48-.55.89-.96 1.21s-.89.55-1.45.69-1.18.21-1.86.21c-.89 0-1.63-.08-2.23-.25-.59-.17-1.06-.42-1.41-.76s-.59-.75-.73-1.23-.21-1.03-.21-1.63v-.44zm-7.15-8.35h3.04v1.66h.05c.32-.6.71-1.08 1.18-1.44.46-.36 1.02-.54 1.68-.54.09 0 .19 0 .29.01s.2.02.29.03v3.04c-.17-.02-.33-.03-.5-.03-.16-.01-.33-.01-.5-.01-.28 0-.55.04-.83.12s-.53.2-.76.38-.42.41-.55.69c-.14.28-.21.63-.21 1.05v7.45h-3.18zm-5.42-4.24h3.18v2.72h-3.18zm0 4.24h3.18v12.41h-3.18zm-10.69-4.05h9.2v2.72h-5.88v3.87h5.53v2.72h-5.53v7.15h-3.32zm-16.59 7.74c.12-.77.35-1.45.69-2.05.35-.6.84-1.08 1.49-1.43s1.51-.53 2.58-.53c.92 0 1.68.15 2.27.45s1.06.72 1.39 1.27c.34.55.57 1.21.69 1.98.12.78.18 1.64.18 2.59v.71h-6.29v.99c0 .37.03.73.08 1.07.05.35.14.65.27.92.12.27.28.48.48.65.2.16.45.24.74.24.54 0 .93-.19 1.18-.58.25-.38.42-.97.51-1.75h2.86c-.06 1.45-.45 2.54-1.15 3.3-.71.75-1.82 1.13-3.34 1.13-1.15 0-2.05-.19-2.7-.58-.65-.38-1.12-.89-1.43-1.52s-.5-1.34-.57-2.12-.1-1.57-.1-2.35c-.01-.82.05-1.62.17-2.39zm-11.25-7.74h3.18v5.33h.05c.61-1.06 1.62-1.59 3.02-1.59 1.01 0 1.79.28 2.34.83s.82 1.45.82 2.7v9.2h-3.18v-8.55c0-.65-.11-1.1-.32-1.35-.22-.25-.56-.38-1.04-.38-1.12 0-1.68.68-1.68 2.05v8.23h-3.18v-16.47zm-11.85 0h10.51v2.72h-3.6v13.74h-3.31v-13.74h-3.6z" fill="none"/><path d="m0 0h283.46v.36h-283.46z" fill="none"/><path d="m180.21 40.25c.2.16.43.28.69.36.27.08.55.12.85.12.59 0 1.07-.17 1.45-.52s.57-.83.57-1.45-.19-1.09-.58-1.41-.88-.48-1.48-.48c-.29 0-.57.04-.83.12s-.49.2-.68.36-.34.36-.46.59-.17.5-.17.81c0 .33.06.63.17.87.12.27.28.47.47.63z" fill="none"/><path d="m33.36 39c-.05-.36-.13-.67-.24-.92-.12-.25-.28-.45-.48-.58-.21-.13-.47-.2-.8-.2-.32 0-.59.07-.8.22s-.37.34-.5.58c-.12.24-.21.5-.27.8-.05.29-.08.58-.08.88v.48h3.25c0-.48-.03-.89-.08-1.26z" fill="none"/><path d="m256.42 44.96c.16.5.41.93.75 1.27.35.35.83.52 1.45.52s1.11-.17 1.45-.52c.35-.35.6-.77.75-1.27.16-.5.25-1.04.28-1.61s.04-1.09.04-1.55c0-.3 0-.63-.01-.99s-.03-.73-.09-1.09c-.05-.36-.13-.72-.23-1.06-.1-.35-.24-.65-.43-.91s-.43-.47-.72-.63-.64-.24-1.06-.24-.77.08-1.06.24-.53.37-.72.63-.33.56-.43.91-.17.7-.22 1.06-.08.73-.09 1.09-.01.69-.01.99c0 .46.01.98.04 1.55.06.58.15 1.11.31 1.61z" fill="none"/><path d="m181.75 46.75c.37 0 .71-.06 1.01-.18s.57-.29.8-.5c.22-.21.4-.46.52-.75s.18-.61.18-.95c0-.33-.07-.64-.2-.93-.13-.28-.31-.53-.54-.73-.23-.21-.5-.37-.8-.49-.31-.12-.63-.18-.98-.18-.36 0-.69.05-1.01.16s-.59.27-.83.48-.42.46-.55.74c-.13.29-.2.61-.2.97 0 .74.24 1.32.74 1.74.48.41 1.1.62 1.86.62z" fill="none"/><path d="m160.27 44.96c.16.5.41.93.75 1.27.35.35.83.52 1.45.52s1.11-.17 1.45-.52c.35-.35.6-.77.75-1.27.16-.5.25-1.04.28-1.61s.04-1.09.04-1.55c0-.3 0-.63-.01-.99s-.03-.73-.09-1.09c-.05-.36-.13-.72-.22-1.06-.1-.35-.24-.65-.43-.91s-.43-.47-.72-.63-.64-.24-1.06-.24-.77.08-1.06.24-.53.37-.72.63-.33.56-.43.91-.17.7-.22 1.06-.08.73-.09 1.09-.01.69-.01.99c0 .46.01.98.04 1.55.05.58.14 1.11.3 1.61z" fill="none"/><path d="m266.03 44.96c.16.5.41.93.75 1.27.35.35.83.52 1.45.52s1.11-.17 1.45-.52c.35-.35.6-.77.75-1.27.16-.5.25-1.04.28-1.61s.04-1.09.04-1.55c0-.3 0-.63-.01-.99s-.03-.73-.09-1.09c-.05-.36-.13-.72-.23-1.06-.1-.35-.24-.65-.43-.91s-.43-.47-.72-.63-.64-.24-1.06-.24-.77.08-1.06.24-.53.37-.72.63-.33.56-.43.91-.17.7-.22 1.06-.08.73-.09 1.09-.01.69-.01.99c0 .46.01.98.04 1.55.07.58.16 1.11.31 1.61z" fill="none"/><path d="m200.99 139.65c-1.42-1.54-2.69-3.16-3.82-4.88-1.04 2.5-2.23 4.81-3.58 6.96h9.46c-.71-.68-1.41-1.37-2.06-2.08z" fill="none"/><path d="m258.75 88.49c-2.88-4.4-7.69-6.61-14.41-6.61-3.84 0-7.05.56-9.61 1.68s-4.6 2.6-6.12 4.44-2.56 3.96-3.12 6.36-.84 4.89-.84 7.45c0 5.28 1.12 9.73 3.36 13.33s7.04 6.93 14.41 9.97l26.66 11.53c3.77 1.65 7.13 3.35 10.1 5.08h4.28v-34.39h-20.39c.01-8.15-1.43-14.43-4.32-18.84z" fill="none"/><path d="m24.09 96.66c1.6-5.2 3.8-8.97 6.61-11.29 2.8-2.32 6.36-3.48 10.69-3.48 7.84 0 13.25 2.84 16.21 8.53s4.44 14.77 4.44 27.26h31.7v-27.93c-1.17-4.21-2.85-8.23-5.04-12.07-3.52-6.16-8.85-11.25-15.97-15.25-7.13-4-16.85-6-29.18-6-12.97 0-23.3 2.2-30.98 6.61-4.94 2.82-9.12 6.37-12.57 10.62v68.08h19.8c.09-9.49.4-17.73.93-24.66.64-8.41 1.76-15.22 3.36-20.42z" fill="#00a0e9"/><path d="m192.7 125.48c-1.76-5.36-2.64-11.57-2.64-18.61 0-9.82 1.59-18.2 4.75-25.12-1.11-2.05-2.37-4.01-3.79-5.86-3.69-4.8-8.53-8.68-14.53-11.65-6-2.96-13.41-4.44-22.22-4.44h-60.53v29.97 27.92 24.06h99.84c1.34-2.14 2.54-4.46 3.58-6.96-1.87-2.86-3.36-5.96-4.46-9.31zm-32.3 5.65c-4.24 4.17-9.81 6.24-16.69 6.24h-15.37v-52.12h14.41c8.65 0 14.81 2.24 18.49 6.73 3.68 4.48 5.52 11.05 5.52 19.7 0 8.8-2.12 15.28-6.36 19.45z" fill="#e4007f"/><path d="m264.4 58.95c-6.49-1.68-13.57-2.52-21.26-2.52-16.49 0-29.46 4.17-38.91 12.49-3.98 3.51-7.12 7.78-9.42 12.83-3.17 6.93-4.75 15.3-4.75 25.12 0 7.05.88 13.25 2.64 18.61 1.1 3.35 2.59 6.45 4.46 9.29 1.13 1.72 2.41 3.34 3.82 4.88.65.71 1.35 1.4 2.06 2.08h76.14c-2.98-1.73-6.33-3.43-10.1-5.08l-26.66-11.53c-7.37-3.04-12.17-6.36-14.41-9.97-2.24-3.6-3.36-8.05-3.36-13.33 0-2.56.28-5.04.84-7.45.56-2.4 1.6-4.52 3.12-6.36s3.56-3.32 6.12-4.44 5.76-1.68 9.61-1.68c6.73 0 11.53 2.2 14.41 6.61s4.32 10.69 4.32 18.85h20.39v-38.26c-.72-.69-1.47-1.35-2.25-1.98-4.72-3.76-10.33-6.48-16.81-8.16z" fill="#fff100"/><path d="m7.7 47.87h3.32v-13.74h3.6v-2.72h-10.52v2.72h3.6z"/><path d="m19.14 39.64c0-1.37.56-2.05 1.68-2.05.48 0 .82.13 1.04.38s.32.7.32 1.35v8.55h3.18v-9.2c0-1.25-.27-2.14-.82-2.7-.55-.55-1.33-.83-2.34-.83-1.4 0-2.41.53-3.02 1.59h-.05v-5.33h-3.18v16.46h3.18v-8.22z"/><path d="m27.69 46.03c.31.63.78 1.14 1.43 1.52s1.54.58 2.7.58c1.52 0 2.64-.38 3.34-1.13.71-.75 1.09-1.85 1.15-3.3h-2.86c-.09.78-.26 1.37-.51 1.75s-.64.58-1.18.58c-.29 0-.54-.08-.74-.24s-.36-.38-.48-.65-.21-.58-.27-.92c-.05-.35-.08-.7-.08-1.07v-.99h6.29v-.71c0-.95-.06-1.82-.18-2.59-.12-.78-.35-1.44-.69-1.98-.34-.55-.8-.97-1.39-1.27s-1.35-.45-2.27-.45c-1.08 0-1.94.18-2.58.53-.65.35-1.14.83-1.49 1.43s-.58 1.28-.69 2.05c-.12.77-.17 1.57-.17 2.4 0 .78.03 1.57.1 2.35.08.77.26 1.47.57 2.11zm2.51-6.25c0-.29.03-.58.08-.88.05-.29.14-.56.27-.8.12-.24.29-.43.5-.58s.47-.22.8-.22c.32 0 .59.07.8.2s.37.32.48.58c.12.25.2.56.24.92.05.36.08.78.09 1.26h-3.26z"/><path d="m47.11 40.72h5.53v-2.72h-5.53v-3.87h5.88v-2.72h-9.2v16.46h3.32z"/><path d="m54.48 31.22h3.18v2.72h-3.18z"/><path d="m54.48 35.46h3.18v12.41h-3.18z"/><path d="m63.08 40.42c0-.42.07-.76.21-1.05.14-.28.32-.51.55-.69s.48-.3.76-.38.55-.12.83-.12c.17 0 .33 0 .5.01.16.01.33.02.5.03v-3.04c-.09-.02-.19-.03-.29-.03-.1-.01-.2-.01-.29-.01-.66 0-1.22.18-1.68.54s-.85.84-1.18 1.44h-.05v-1.66h-3.04v12.41h3.18z"/><path d="m67.98 47.11c.35.34.81.59 1.41.76.59.17 1.33.25 2.23.25.68 0 1.29-.07 1.86-.21.56-.14 1.05-.37 1.45-.69.41-.32.73-.73.96-1.21s.35-1.06.35-1.72c0-.94-.21-1.68-.62-2.23-.42-.55-1.12-.99-2.12-1.33l-1.91-.65c-.54-.17-.9-.38-1.1-.62-.19-.25-.29-.52-.29-.83 0-.45.15-.78.45-1s.65-.33 1.05-.33c.52 0 .89.15 1.1.45s.31.77.31 1.42h2.86v-.51c0-1.12-.35-1.99-1.04-2.61-.69-.61-1.76-.92-3.21-.92-.81 0-1.51.1-2.09.3s-1.05.47-1.42.81-.64.73-.81 1.19c-.17.45-.25.93-.25 1.44 0 .88.22 1.59.67 2.16.45.56 1.11 1 1.98 1.3l2.24.81c.31.12.58.29.81.5s.35.51.35.91c0 .49-.15.86-.44 1.11s-.68.37-1.18.37c-.54 0-.95-.17-1.23-.5s-.43-.76-.43-1.3v-.42h-2.86v.44c0 .6.07 1.14.21 1.63.13.48.37.89.71 1.23z"/><path d="m78.51 44.73c0 .63.04 1.15.12 1.57s.22.75.43 1 .51.42.9.51c.39.08.9.13 1.51.13.37 0 .72-.01 1.05-.03s.67-.03 1.03-.03v-2.21c-.11.02-.22.03-.35.03-.12.01-.25.01-.37.01-.46 0-.76-.1-.91-.31s-.22-.56-.22-1.05v-6.71h1.84v-2.17h-1.84v-3.55h-3.18v3.55h-1.62v2.17h1.61z"/><path d="m154.25 41.12c-.26.28-.59.55-.98.82s-.85.57-1.37.89c-.43.25-.84.52-1.23.81s-.74.62-1.06 1c-.31.38-.57.83-.77 1.34s-.33 1.13-.39 1.86h8.01v-1.3h-6.29c.07-.38.22-.72.44-1.01s.5-.57.81-.82c.32-.25.67-.49 1.05-.72.38-.22.76-.45 1.14-.68.38-.24.75-.5 1.11-.76.36-.27.67-.56.95-.89s.5-.7.67-1.12.25-.89.25-1.44c0-.58-.1-1.08-.3-1.52s-.48-.8-.82-1.1c-.35-.29-.75-.52-1.22-.67-.47-.16-.97-.23-1.5-.23-.65 0-1.22.11-1.73.33s-.93.52-1.27.91-.59.84-.75 1.38c-.16.53-.22 1.11-.19 1.73h1.47c-.01-.37.03-.74.11-1.1.09-.36.23-.69.42-.98.2-.29.45-.52.75-.7.31-.18.67-.27 1.1-.27.32 0 .63.05.92.16.29.1.54.25.75.45s.38.43.51.7.19.57.19.91c0 .43-.07.8-.2 1.12s-.32.62-.58.9z"/><path d="m158.6 44.64c.09.46.23.9.4 1.31s.41.77.71 1.08.68.56 1.13.73c.46.18 1 .27 1.63.27.65 0 1.19-.09 1.64-.27s.82-.42 1.12-.73.54-.67.71-1.08.3-.84.4-1.31c.09-.46.15-.93.17-1.42.02-.48.03-.95.03-1.4s-.01-.92-.03-1.4-.08-.96-.17-1.42-.22-.9-.4-1.31c-.17-.42-.41-.78-.71-1.09s-.68-.56-1.13-.74c-.46-.18-1-.28-1.63-.28s-1.18.09-1.63.28c-.46.18-.83.43-1.13.74s-.54.67-.71 1.09c-.17.41-.31.85-.4 1.31s-.15.93-.17 1.42c-.02.48-.03.95-.03 1.4s.01.92.03 1.4c.02.49.07.96.17 1.42zm1.35-3.83c.01-.36.03-.73.09-1.09.05-.36.13-.72.22-1.06.1-.35.24-.65.43-.91s.43-.47.72-.63.64-.24 1.06-.24.77.08 1.06.24.53.37.72.63.33.56.43.91.17.7.22 1.06.08.73.09 1.09.01.69.01.99c0 .46-.01.98-.04 1.55s-.12 1.11-.28 1.61-.41.93-.75 1.27c-.35.35-.83.52-1.45.52s-1.11-.17-1.45-.52c-.35-.35-.6-.77-.75-1.27-.16-.5-.25-1.04-.28-1.61s-.04-1.09-.04-1.55c-.01-.29-.01-.62-.01-.99z"/><path d="m171.97 47.84h1.47v-12.26h-1.12c-.08.46-.23.84-.45 1.14s-.49.54-.8.71c-.32.17-.67.29-1.06.35s-.8.1-1.21.1v1.18h3.18v8.78z"/><path d="m178.14 42.42c-.37.54-.55 1.17-.55 1.89 0 .62.11 1.17.32 1.63.21.47.51.86.88 1.17s.82.54 1.32.69c.51.15 1.06.22 1.64.22.56 0 1.09-.08 1.59-.24s.93-.4 1.29-.72.65-.71.87-1.17c.21-.46.32-.99.32-1.59 0-.76-.18-1.4-.54-1.93-.36-.52-.91-.9-1.64-1.13.52-.23.93-.57 1.24-1.03s.46-.96.46-1.51c0-.39-.07-.78-.21-1.15s-.35-.71-.65-1c-.29-.29-.68-.53-1.15-.71s-1.04-.27-1.71-.27c-.47 0-.93.07-1.36.21s-.82.34-1.15.61-.6.59-.8.98-.29.83-.29 1.34c0 .55.16 1.06.47 1.53s.73.8 1.24 1.01c-.69.25-1.22.64-1.59 1.17zm1.43-3.65c0-.31.06-.58.17-.81.12-.23.27-.43.46-.59s.42-.28.68-.36.54-.12.83-.12c.6 0 1.09.16 1.48.48s.58.79.58 1.41-.19 1.11-.57 1.45c-.38.35-.86.52-1.45.52-.3 0-.58-.04-.85-.12s-.5-.2-.69-.36c-.2-.16-.35-.37-.47-.61-.11-.27-.17-.56-.17-.89zm-.23 4.65c.13-.29.32-.54.55-.74.24-.21.51-.37.83-.48s.65-.16 1.01-.16c.35 0 .67.06.98.18s.57.29.8.49c.23.21.41.45.54.73s.2.59.2.93c0 .35-.06.66-.18.95s-.29.54-.52.75c-.22.21-.49.38-.8.5s-.64.18-1.01.18c-.76 0-1.39-.21-1.88-.63s-.74-1-.74-1.74c.02-.35.09-.67.22-.96z"/><path d="m187.94 45.92h1.92v1.92h-1.92z"/><path d="m197.78 46.12c-.24.2-.52.36-.85.47s-.66.16-1.02.16c-.84 0-1.48-.25-1.92-.75s-.67-1.15-.69-1.95h-1.47c-.01.63.08 1.2.27 1.69.19.5.46.91.82 1.25s.79.6 1.3.77 1.07.26 1.69.26c.58 0 1.12-.08 1.63-.23.51-.16.96-.39 1.34-.7s.68-.7.91-1.17c.22-.47.34-1.01.34-1.62 0-.74-.18-1.38-.54-1.92s-.92-.89-1.67-1.06v-.03c.48-.22.89-.54 1.21-.97s.48-.92.48-1.47c0-.56-.1-1.05-.29-1.47-.19-.41-.45-.75-.79-1.02-.33-.27-.73-.46-1.18-.6-.46-.13-.95-.2-1.48-.2-.61 0-1.15.1-1.62.29-.47.2-.86.47-1.17.81-.31.35-.55.76-.72 1.25-.17.48-.26 1.02-.29 1.61h1.47c0-.36.05-.7.14-1.02s.23-.61.42-.85.43-.44.73-.58c.29-.14.64-.22 1.03-.22.62 0 1.14.16 1.56.49s.62.82.62 1.48c0 .32-.06.61-.19.86s-.3.46-.51.63-.46.29-.74.38-.58.13-.89.13h-.31c-.06 0-.12 0-.17 0s-.1-.01-.16-.02v1.25c.28-.03.57-.05.88-.05.37 0 .71.05 1.03.15s.59.25.82.45.42.45.55.74c.14.29.21.63.21 1.01 0 .37-.07.7-.22.99-.12.33-.31.58-.56.78z"/><path d="m202.37 45.92h1.92v1.92h-1.92z"/><path d="m211.94 41.12c-.26.28-.58.55-.98.82-.39.27-.85.57-1.37.89-.43.25-.84.52-1.23.81s-.74.62-1.06 1c-.31.38-.57.83-.77 1.34s-.33 1.13-.39 1.86h8.01v-1.3h-6.3c.07-.38.22-.72.44-1.01s.5-.57.81-.82c.32-.25.67-.49 1.05-.72.38-.22.76-.45 1.14-.68.38-.24.75-.5 1.11-.76.36-.27.67-.56.95-.89s.5-.7.67-1.12.25-.89.25-1.44c0-.58-.1-1.08-.3-1.52s-.48-.8-.82-1.1c-.35-.29-.75-.52-1.22-.67-.47-.16-.97-.23-1.5-.23-.65 0-1.22.11-1.73.33s-.93.52-1.27.91-.59.84-.75 1.38c-.16.53-.22 1.11-.19 1.73h1.47c-.01-.37.03-.74.11-1.1s.23-.69.42-.98c.2-.29.45-.52.75-.7s.67-.27 1.1-.27c.32 0 .63.05.92.16.29.1.54.25.75.45s.38.43.51.7.19.57.19.91c0 .43-.07.8-.2 1.12-.12.32-.31.62-.57.9z"/><path d="m221.55 41.12c-.26.28-.59.55-.98.82s-.85.57-1.37.89c-.43.25-.84.52-1.23.81s-.74.62-1.06 1c-.31.38-.57.83-.77 1.34s-.33 1.13-.39 1.86h8.01v-1.3h-6.29c.07-.38.22-.72.44-1.01s.5-.57.81-.82c.32-.25.67-.49 1.05-.72.38-.22.76-.45 1.14-.68.38-.24.75-.5 1.11-.76.36-.27.67-.56.95-.89s.5-.7.67-1.12.25-.89.25-1.44c0-.58-.1-1.08-.3-1.52s-.48-.8-.82-1.1c-.35-.29-.75-.52-1.22-.67-.47-.16-.97-.23-1.5-.23-.65 0-1.22.11-1.73.33s-.93.52-1.27.91-.59.84-.75 1.38c-.16.53-.22 1.11-.19 1.73h1.47c-.01-.37.03-.74.11-1.1.09-.36.23-.69.42-.98.2-.29.45-.52.75-.7.31-.18.67-.27 1.1-.27.32 0 .63.05.92.16.29.1.54.25.75.45s.38.43.51.7.19.57.19.91c0 .43-.07.8-.2 1.12-.12.32-.32.62-.58.9z"/><path d="m234.46 47.84h1.47v-12.26h-1.12c-.08.46-.23.84-.45 1.14s-.49.54-.8.71c-.32.17-.67.29-1.06.35s-.8.1-1.21.1v1.18h3.18v8.78z"/><path d="m244.08 47.84h1.47v-12.26h-1.12c-.08.46-.23.84-.45 1.14s-.49.54-.8.71c-.32.17-.67.29-1.06.35s-.8.1-1.21.1v1.18h3.18v8.78z"/><path d="m250.44 45.92h1.92v1.92h-1.92z"/><path d="m250.44 38.9h1.92v1.92h-1.92z"/><path d="m254.75 44.64c.09.46.22.9.4 1.31.17.41.41.77.71 1.08s.68.56 1.13.73c.46.18 1 .27 1.63.27.65 0 1.19-.09 1.64-.27s.82-.42 1.12-.73.54-.67.71-1.08.31-.84.4-1.31c.09-.46.15-.93.17-1.42.02-.48.03-.95.03-1.4s-.01-.92-.03-1.4-.08-.96-.17-1.42-.23-.9-.4-1.31c-.17-.42-.41-.78-.71-1.09s-.68-.56-1.13-.74c-.46-.18-1-.28-1.63-.28s-1.18.09-1.63.28c-.46.18-.83.43-1.13.74s-.54.67-.71 1.09c-.17.41-.31.85-.4 1.31s-.15.93-.17 1.42c-.02.48-.03.95-.03 1.4s.01.92.03 1.4c.02.49.08.96.17 1.42zm1.36-3.83c.01-.36.03-.73.09-1.09.05-.36.13-.72.22-1.06.1-.35.24-.65.43-.91s.43-.47.72-.63.64-.24 1.06-.24.77.08 1.06.24.53.37.72.63.33.56.43.91.17.7.23 1.06c.05.36.08.73.09 1.09s.01.69.01.99c0 .46-.01.98-.04 1.55s-.12 1.11-.28 1.61-.41.93-.75 1.27c-.35.35-.83.52-1.45.52s-1.11-.17-1.45-.52c-.35-.35-.6-.77-.75-1.27-.16-.5-.25-1.04-.28-1.61s-.04-1.09-.04-1.55c-.03-.29-.03-.62-.02-.99z"/><path d="m264.36 44.64c.09.46.22.9.4 1.31.17.41.41.77.71 1.08s.68.56 1.13.73c.46.18 1 .27 1.63.27.65 0 1.19-.09 1.64-.27s.82-.42 1.12-.73.54-.67.71-1.08.31-.84.4-1.31c.09-.46.15-.93.17-1.42.02-.48.03-.95.03-1.4s-.01-.92-.03-1.4-.08-.96-.17-1.42-.23-.9-.4-1.31c-.17-.42-.41-.78-.71-1.09s-.68-.56-1.13-.74c-.46-.18-1-.28-1.63-.28s-1.18.09-1.63.28c-.46.18-.83.43-1.13.74s-.54.67-.71 1.09c-.17.41-.31.85-.4 1.31s-.15.93-.17 1.42c-.02.48-.03.95-.03 1.4s.01.92.03 1.4c.02.49.08.96.17 1.42zm1.36-3.83c.01-.36.03-.73.09-1.09.05-.36.13-.72.22-1.06.1-.35.24-.65.43-.91s.43-.47.72-.63.64-.24 1.06-.24.77.08 1.06.24.53.37.72.63.33.56.43.91.17.7.23 1.06c.05.36.08.73.09 1.09s.01.69.01.99c0 .46-.01.98-.04 1.55s-.12 1.11-.28 1.61-.41.93-.75 1.27c-.35.35-.83.52-1.45.52s-1.11-.17-1.45-.52c-.35-.35-.6-.77-.75-1.27-.16-.5-.25-1.04-.28-1.61s-.04-1.09-.04-1.55c-.03-.29-.02-.62-.02-.99z"/><path d="m273.05 42.34h8.65v1.38h-8.65z"/><path d="m200.76 9.61h1.55v.51h-1.55z"/><path d="m228.74 11.26h5.37v.49h-5.37z"/><path d="m219.92 11.85c.42.09.42.09 1.7.4.46-.33.77-.65.96-.99h-2.15c-.19.23-.27.33-.51.59z"/><path d="m200.76 6.96h1.55v.5h-1.55z"/><path d="m229.15 6.17h4.55v.55h-4.55z"/><path d="m79.42 8.09c0-.4-.11-.74-.33-.97-.23-.25-.56-.36-1.1-.36h-1.93v2.71h1.93c.92 0 1.43-.5 1.43-1.38z"/><path d="m228.74 10.04h5.37v.46h-5.37z"/><path d="m228.74 8.82h5.37v.46h-5.37z"/><path d="m200.76 8.29h1.55v.49h-1.55z"/><path d="m62.23 12.75c1.05 0 1.69-.76 1.69-1.99 0-1.3-.62-2.05-1.68-2.05s-1.7.77-1.7 2.03c-.01 1.24.64 2.01 1.69 2.01z"/><path d="m109.48 12.75c1.05 0 1.69-.76 1.69-1.99 0-1.3-.62-2.05-1.68-2.05s-1.7.77-1.7 2.03c0 1.24.64 2.01 1.69 2.01z"/><path d="m116.67 12.63c.99 0 1.6-.75 1.6-1.94s-.63-1.93-1.64-1.93c-1 0-1.75.83-1.75 1.91 0 1.16.74 1.96 1.79 1.96z"/><path d="m96.74 12.75c1.05 0 1.69-.76 1.69-1.99 0-1.3-.62-2.05-1.68-2.05s-1.7.77-1.7 2.03c-.01 1.24.64 2.01 1.69 2.01z"/><path d="m139.86 12.75c1.05 0 1.69-.76 1.69-1.99 0-1.3-.61-2.05-1.68-2.05-1.06 0-1.7.77-1.7 2.03 0 1.24.65 2.01 1.69 2.01z"/><path d="m191.48 9.09c-.27-.27-.61-.4-1.09-.4-.79 0-1.36.52-1.51 1.37h3.05c-.07-.44-.19-.71-.45-.97z"/><path d="m171.96 9.09c-.27-.27-.61-.4-1.09-.4-.79 0-1.36.52-1.51 1.37h3.05c-.07-.44-.19-.71-.45-.97z"/><path d="m43.59 9.09c-.27-.27-.62-.4-1.09-.4-.79 0-1.36.52-1.51 1.37h3.05c-.08-.44-.2-.71-.45-.97z"/><path d="m0 20.45h283.46v-20.09h-283.46zm215.52-10.46v3.44c0 .67-.21.82-1.16.82-.08 0-.08 0-.44-.01-.04-.4-.08-.56-.2-.88.23.03.43.05.61.05s.22-.04.22-.23v-.58h-1.11v.46c0 .59.01.86.05 1.11h-1.03c.05-.3.06-.59.06-1.11v-.46h-1.08v.61c0 .66.01.86.05 1.09h-1.06c.05-.27.06-.56.06-1.09v-3.19c0-.54-.01-.76-.04-1.1.3.02.5.03 1.07.03h3.07c.48 0 .7-.01.98-.04-.04.23-.05.54-.05 1.08zm30.37 1c-.33-.04-.68-.06-1.18-.06h-3.47c-.31.74-.62 1.33-1.05 1.96 1.79-.1 1.79-.1 3.2-.25-.32-.35-.49-.53-1.06-1.12l1-.44c1.08 1.09 1.51 1.59 2.33 2.69l-.97.64c-.33-.49-.43-.64-.61-.88-.84.11-1.44.18-1.82.22-1 .09-3 .27-3.4.3-.56.04-1.07.09-1.3.14l-.16-1.23c.27.02.44.03.59.03.07 0 .37-.01.89-.04.49-.75.81-1.33 1.08-2.02h-1.53c-.51 0-.86.02-1.19.06v-1.17c.33.04.72.06 1.19.06h6.28c.49 0 .85-.02 1.18-.06zm18.48-5.56c-.02.22-.03.43-.03.7v.45h1.39v-.74c0-.34-.02-.58-.06-.78h1.14c-.04.21-.05.43-.05.79v.74h1.48v-.47c0-.29-.01-.47-.03-.69h1.11c-.03.22-.04.44-.04.77v.68c0 .38 0 .46.03.66-.32-.01-.39-.01-.72-.01h-4.59c-.35 0-.49 0-.71.02.02-.22.02-.34.02-.69v-.77c0-.24-.01-.43-.04-.66zm-2.6.73c.15-.46.25-.9.28-1.21l1.11.36c-.07.18-.07.19-.16.48-.14.43-.33.94-.58 1.48v2.76c.8-.72 1.33-1.48 1.73-2.46l1.05.26c-.12.24-.17.33-.38.69h1.43c.24-.33.42-.66.51-.95l1.05.2c-.16.28-.34.59-.45.75h1.27c.4 0 .67-.01.94-.05v1.03c-.26-.03-.49-.04-.83-.04h-1.59v.55h1.18c.48 0 .63-.01.86-.04v.96c-.29-.03-.47-.04-.85-.04h-1.19v.56h1.19c.46 0 .63-.01.86-.04v.96c-.28-.03-.47-.04-.85-.04h-1.2v.65h1.62c.47 0 .61-.01.85-.04v1.03c-.4-.04-.76-.06-1.12-.06h-4.01v.44h-1.09c.04-.31.06-.63.06-1.15v-2.28c0-.17 0-.17.01-.63-.18.3-.33.49-.64.81-.16-.38-.23-.51-.41-.76v2.75c0 .53.01.85.05 1.23h-1.21c.05-.39.06-.68.06-1.2v-2.68c0-.32.01-.75.03-1.29-.39.63-.45.72-.72 1.01-.1-.46-.25-.89-.42-1.26.7-.77 1.18-1.63 1.56-2.74zm-7.87-1.24c1.04.34 1.37.48 2.61 1.07l-.76.91c-1.02-.57-1.78-.91-2.67-1.17zm-3.47 7.9c.35.04.76.06 1.33.06h2.56v-2.09h-1.81c-.51 0-.81.01-1.14.05v-1.14c.29.04.54.05 1.06.05h1.89v-1.76h-2.28c-.69 0-.96.01-1.23.05v-1.15c.35.05.66.06 1.22.06h5.83c.51 0 .86-.02 1.22-.06v1.16c-.34-.04-.63-.05-1.22-.05h-2.36v1.75h1.95c.43 0 .79-.02 1.09-.05v1.14c-.32-.04-.56-.05-1.06-.05h-1.98v2.09h2.69c.53 0 .91-.02 1.33-.06v1.19c-.45-.05-.78-.07-1.3-.07h-6.43c-.59 0-.93.02-1.37.07v-1.19zm-11.12-6.06c.67-.51 1.18-1.05 1.59-1.69h1.2c.53.75.94 1.14 1.7 1.67.86.61 1.67 1.03 2.59 1.36-.28.43-.41.72-.55 1.13-.64-.27-1.02-.47-1.72-.92v.79c-.26-.03-.52-.04-.91-.04h-3.37c-.29 0-.6.01-.87.04v-.77c-.62.4-.91.55-1.61.87-.17-.4-.33-.69-.58-1.03 1.09-.44 1.76-.81 2.53-1.41zm-10.17-1.45h4.58c.54 0 .79-.01 1.14-.05-.03.27-.04.45-.04.78v.78c0 .3.01.52.03.76-.3-.02-.65-.03-1.09-.03h-4.65c-.45 0-.81.01-1.11.03.02-.25.04-.48.04-.76v-.78c0-.3-.01-.47-.05-.78.36.04.61.05 1.15.05zm-.4 7.28c-.5 0-.8.01-1.12.04.02-.25.04-.55.04-1.06v-2.55c0-.51-.01-.78-.04-1.08.3.03.65.04 1.12.04h5.37c.49 0 .78-.01 1.13-.04-.03.27-.04.51-.04 1.08v2.55c0 .39.01.62.01.66 0 .19 0 .22.03.4-.31-.03-.63-.04-1.13-.04h-.81c.86.45 1.71.71 2.9.86-.36.45-.48.64-.63.99-1.56-.31-2.2-.56-3.37-1.35l.54-.49h-2.74l.64.53c-.71.43-1.16.66-1.84.9-.4.14-.72.22-1.54.4-.17-.41-.33-.68-.62-1 1.44-.22 2.14-.42 2.86-.84zm-10.62-4.63c-.51 0-.9.02-1.21.06v-1.04c.33.04.76.06 1.23.06h2.62v-.64c-.87.05-1.3.06-2.85.06-.15-.44-.22-.6-.41-.93l.99.01c2.24 0 4.68-.23 5.86-.55l.73.98c-.18.02-.18.02-.55.08-.76.1-.87.11-2.68.27v.72h2.77c.5 0 .89-.02 1.2-.06v1.05c-.33-.04-.66-.06-1.18-.06h-1.86c.35.25.9.54 1.36.72.56.22 1.36.43 1.95.52-.24.32-.37.56-.53.99-.87-.22-1.44-.43-2.17-.82-.74-.38-1.05-.6-1.57-1.06.02.16.02.22.02.42v.28c0 .34.01.51.05.74h-.34c-.1.13-.17.22-.41.57h3.87c.36 0 .59-.02.84-.06v1.05c-.3-.04-.66-.06-1.1-.06h-.89c-.28.51-.56.88-1.02 1.31 1.22.36 1.91.61 2.84.99l-.8.82c-1.21-.53-1.89-.8-2.99-1.14-1.06.6-2.41.93-4.44 1.11-.13-.39-.24-.63-.5-1.03h.27c1.04 0 2.31-.19 3.21-.49-.83-.2-1.25-.3-2.22-.48.44-.42.56-.55.99-1.08h-1.17c-.44 0-.8.02-1.11.06v-1.05c.23.04.47.06.84.06h2.15c.25-.37.35-.54.42-.76l.41.05c.03-.19.03-.29.03-.6v-.27c0-.16.01-.27.02-.42-.79.78-1.89 1.36-3.53 1.88-.13-.34-.31-.65-.55-.94 1.27-.28 2.38-.73 3.21-1.31h-1.8zm-7.45-2.96h1.12c-.03.16-.04.33-.04.61v.23h1.38v-.24c0-.3-.01-.44-.04-.61h1.12c-.03.17-.04.33-.04.61v.23h.64c.41 0 .82-.02 1.02-.06v1.02c-.29-.03-.53-.04-1.02-.04h-.64v.1c0 .24.01.35.03.48h-1.1c.02-.15.03-.3.03-.49v-.09h-1.38v.09c0 .25.01.35.03.49h-1.1c.02-.16.03-.3.03-.48v-.1h-.42c-.53 0-.72.01-1.01.04v-1c.28.03.63.05 1.01.05h.42v-.24c0-.3-.01-.44-.04-.6zm-2.91 1.61c.26-.64.43-1.2.5-1.66l1.09.26c-.05.15-.1.31-.17.52-.19.66-.34 1.03-.65 1.63v5.88c.26-.44.37-.76.49-1.35.15-.78.22-1.78.22-3.37 0-.38-.01-.7-.04-1.02.32.04.56.05 1.06.05h4.52c.55 0 .8-.01 1.1-.05v1.01c-.29-.03-.6-.04-.98-.04h-4.64c-.02 1.31-.08 2.47-.19 3.31-.14 1.08-.36 1.73-.82 2.49-.2-.27-.45-.55-.73-.8.01.37.02.52.05.86h-1.16c.05-.42.06-.69.06-1.2v-2.81c0-.38.01-.73.03-1.32-.2.41-.4.74-.69 1.08-.19-.66-.19-.66-.45-1.21.58-.62 1.02-1.36 1.4-2.26zm-10.07-1.62c.73.36 1.05.57 1.62 1.05l-.67.9c-.6-.55-.96-.8-1.66-1.12zm-.49 1.95c.55.27.85.44 1.29.74 1.01-.8 1.65-1.66 2.07-2.76l1.12.29c-.04.07-.08.14-.1.17-.17.29-.17.29-.43.7h1.28c.29-.44.43-.72.56-1.12l1.04.27c-.05.08-.09.15-.11.19-.19.32-.22.36-.42.66h1.04c.36 0 .74-.02 1.02-.06v.98c-.25-.03-.53-.04-.88-.04h-1.34v.5h1.05c.5 0 .71-.01.9-.03v.89c-.25-.02-.44-.03-.9-.03h-1.05v.49h1.05c.48 0 .65-.01.9-.03v.89c-.27-.02-.46-.03-.9-.03h-1.05v.51h1.39c.41 0 .68-.01.96-.04v.98c-.25-.03-.53-.04-1.02-.04h-3v.63h2.9c.54 0 .81-.01 1.14-.05v1.12c-.36-.04-.69-.06-1.24-.06h-2.8v.56c0 .5.02.82.06 1.18h-1.28c.04-.4.06-.69.06-1.17v-.57h-2.67c-.55 0-.89.02-1.24.06v-1.13c.3.04.6.06 1.09.06h2.82v-.63c-.33 0-.57.01-.83.03.02-.31.03-.49.03-.96v-1.33c0-.3.01-.63.02-.85-.21.29-.32.41-.61.67-.15-.26-.2-.35-.38-.57l-.59.81c-.56-.45-1-.74-1.66-1.06zm-.67 3.48c.15-.06.3-.14.5-.26.73-.42 1.1-.72 1.83-1.42l.52.92c-.7.71-1.16 1.08-2.2 1.77zm-6.12-2.77c1.18 0 2.11.59 2.51 1.59.19.48.26.85.29 1.53 0 .02 0 .05.02.28h-4.39c.05.55.14.84.37 1.13.29.36.75.56 1.26.56.49 0 .92-.18 1.21-.5.12-.14.19-.25.29-.52l1.19.38c-.23.48-.36.68-.61.93-.52.51-1.23.78-2.08.78-1.79 0-2.91-1.19-2.91-3.08.01-1.86 1.13-3.08 2.85-3.08zm-8.29.77c.49-.5 1.2-.77 2.03-.77.99 0 1.78.38 2.26 1.09.13.2.21.36.35.74l-1.23.29c-.11-.31-.18-.45-.31-.62-.24-.3-.6-.46-1.04-.46-.99 0-1.6.78-1.6 2.03 0 1.26.63 2.04 1.64 2.04.5 0 .91-.2 1.16-.56.09-.14.14-.25.2-.5l1.25.25c-.14.4-.24.62-.42.86-.48.67-1.26 1.02-2.22 1.02-1.78 0-2.92-1.2-2.92-3.07-.01-.96.3-1.78.85-2.34zm-7.4-.59h1.37v.53c0 .15 0 .18-.02.43.62-.79 1.15-1.07 2.06-1.07.78 0 1.35.25 1.71.75.24.33.34.74.34 1.41v2.42c0 .55.02.94.08 1.31h-1.46c.05-.45.07-.8.07-1.31v-2.24c0-.42-.05-.7-.17-.89-.16-.26-.46-.41-.85-.41-.73 0-1.32.5-1.77 1.5v2.04c0 .49.02.88.08 1.31h-1.45c.06-.43.08-.75.08-1.31v-3.16c.01-.55-.01-.89-.07-1.31zm-3.83-.18c1.18 0 2.11.59 2.51 1.59.19.48.26.85.29 1.53 0 .02 0 .05.02.28h-4.39c.05.55.14.84.37 1.13.29.36.75.56 1.26.56.49 0 .92-.18 1.21-.5.12-.14.19-.25.29-.52l1.19.38c-.23.48-.36.68-.61.93-.52.51-1.23.78-2.08.78-1.79 0-2.91-1.19-2.91-3.08.01-1.86 1.13-3.08 2.85-3.08zm-5.33-2.06h1.48v1.28h-1.48zm0 2.24h1.47c-.05.37-.07.71-.07 1.32v3.15c0 .55.02.9.07 1.32h-1.47c.06-.45.08-.81.08-1.31v-3.17c0-.55-.02-.89-.08-1.31zm-5.69.59c.49-.5 1.2-.77 2.03-.77.99 0 1.78.38 2.26 1.09.13.2.21.36.35.74l-1.23.29c-.11-.31-.18-.45-.31-.62-.24-.3-.59-.46-1.04-.46-.99 0-1.6.78-1.6 2.03 0 1.26.63 2.04 1.64 2.04.5 0 .91-.2 1.16-.56.09-.14.14-.25.2-.5l1.25.25c-.14.4-.24.62-.42.86-.48.67-1.26 1.02-2.22 1.02-1.78 0-2.92-1.2-2.92-3.07-.01-.96.29-1.78.85-2.34zm-3.68 2.05c-.3-.16-.36-.17-1.76-.49-.76-.17-1.16-.33-1.52-.62-.51-.4-.78-.96-.78-1.63 0-1.4 1.13-2.31 2.86-2.31 1.15 0 2.02.35 2.51 1.02.25.33.37.64.49 1.17l-1.44.17c-.06-.34-.13-.51-.3-.72-.26-.31-.71-.48-1.26-.48-.88 0-1.47.44-1.47 1.1 0 .42.22.72.69.92.22.09.3.11 1.42.36.8.17 1.28.36 1.64.62.57.42.84.98.84 1.73 0 .72-.22 1.3-.64 1.71-.53.51-1.33.77-2.41.77-.83 0-1.63-.2-2.12-.52-.4-.27-.7-.66-.89-1.15-.09-.23-.13-.42-.19-.84l1.45-.15c.04.45.1.66.28.89.29.38.82.6 1.47.6 1.01 0 1.61-.45 1.61-1.21.02-.43-.17-.77-.48-.94zm-12.84-2.7c.28.04.59.06.95.06h.41v-.53c0-1.25.64-1.84 2.01-1.84.45 0 .79.05 1.25.2l-.27 1.06c-.3-.17-.55-.24-.9-.24-.59 0-.79.24-.79.94v.41h.47c.4 0 .72-.02 1.14-.06v1.18c-.35-.04-.63-.06-1.12-.06h-.49v3.42c0 .57.02.87.07 1.31h-1.44c.05-.47.07-.79.07-1.31v-3.42h-.4c-.38 0-.65.02-.96.06zm-3.48-.11c1.83 0 2.99 1.19 2.99 3.06s-1.18 3.1-2.97 3.1c-1.85 0-3.02-1.19-3.02-3.08 0-1.88 1.17-3.08 3-3.08zm-11.46.17c.05.29.2.77.38 1.18l1.23 2.86 1.12-2.85c.24-.62.32-.87.38-1.19h1.5c-.06.13-.24.54-.54 1.25l-2.3 5.4c-.32.77-.92 1.12-1.86 1.12-.3 0-.6-.03-1.06-.12l.23-1.15c.28.12.47.17.71.17.35 0 .65-.19.79-.5l.34-.78-1.89-4.14c-.44-1-.45-1.03-.57-1.25zm-7.77-2.24h1.43c-.05.39-.07.76-.07 1.34v1.44c0 .13 0 .18-.02.43.63-.79 1.17-1.07 2.09-1.07 1.29 0 2.03.74 2.03 2.04v2.54c0 .55.02.94.08 1.31h-1.46c.05-.45.07-.8.07-1.31v-2.24c0-.46-.1-.8-.29-1-.18-.19-.42-.29-.7-.29-.76 0-1.34.48-1.8 1.49v2.04c0 .49.02.88.08 1.31h-1.45c.06-.43.08-.74.08-1.31v-5.4c0-.6-.02-.91-.07-1.32zm-7.15 2.24h1.34v.49c0 .11 0 .22-.01.35.55-.71 1.15-.99 2.06-.99.81 0 1.45.24 1.92.71.53.54.8 1.3.8 2.32 0 1.86-1.02 2.98-2.73 2.98-.89 0-1.55-.31-2.04-.97 0 .12 0 .12.01.32.01.07.01.25.01.43v.77c0 .6.02.92.07 1.34h-1.42c.05-.47.07-.82.07-1.33v-5.07c-.01-.58-.03-.91-.08-1.35zm-4-.17c1.83 0 2.99 1.19 2.99 3.06s-1.18 3.1-2.98 3.1c-1.85 0-3.02-1.19-3.02-3.08 0-1.88 1.17-3.08 3.01-3.08zm-5.34 3.83c-.19-.13-.25-.14-1.06-.32-.8-.17-1.11-.27-1.45-.43-.57-.27-.89-.76-.89-1.34 0-.35.11-.69.31-.94.41-.52 1.1-.79 2.02-.79.83 0 1.48.2 1.9.58.26.25.4.5.54 1l-1.33.17c-.11-.55-.45-.8-1.11-.8-.63 0-1.05.28-1.05.71 0 .19.11.36.31.47.22.11.43.17 1.01.3 1.03.22 1.44.36 1.78.62.39.28.58.7.58 1.25 0 .41-.19.86-.49 1.14-.46.43-1.17.66-2.09.66-1.04 0-1.82-.31-2.25-.9-.18-.24-.27-.44-.39-.9l1.38-.17c.17.69.54.96 1.33.96.75 0 1.21-.29 1.21-.77.01-.19-.1-.38-.26-.5zm-7.4-3.83c1.83 0 2.99 1.19 2.99 3.06s-1.18 3.1-2.98 3.1c-1.85 0-3.02-1.19-3.02-3.08 0-1.88 1.17-3.08 3.01-3.08zm-5.5-2.07h1.46c-.05.39-.07.72-.07 1.32v5.4c0 .53.02.87.07 1.31h-1.46c.05-.43.07-.73.07-1.31v-5.4c0-.61-.02-.93-.07-1.32zm-2.73 0h1.48v1.28h-1.48zm0 2.24h1.47c-.05.37-.07.71-.07 1.32v3.15c0 .55.02.9.07 1.32h-1.47c.06-.45.08-.81.08-1.31v-3.17c0-.55-.02-.89-.08-1.31zm-6.78-2.24h1.43c-.05.38-.07.76-.07 1.33v1.44c0 .13 0 .18-.02.43.63-.79 1.17-1.07 2.09-1.07 1.29 0 2.03.74 2.03 2.04v2.54c0 .55.02.94.08 1.31h-1.46c.05-.45.07-.8.07-1.31v-2.24c0-.46-.1-.8-.29-1-.18-.19-.42-.29-.7-.29-.76 0-1.34.48-1.8 1.49v2.04c0 .49.02.88.08 1.31h-1.45c.06-.43.08-.74.08-1.31v-5.4c0-.59-.02-.9-.07-1.31zm-7.09-.03c.43.02.75.03 1.28.03h2.11c.98 0 1.66.23 2.15.72.41.4.63 1.01.63 1.73 0 .77-.23 1.39-.68 1.86-.49.49-1.18.73-2.15.73h-1.93v1.68c0 .54.02.93.08 1.31h-1.49c.06-.4.08-.76.08-1.3v-5.45c0-.49-.02-.85-.08-1.31zm-8.4 2.27h1.37v.95c.36-.72.99-1.06 1.9-1.06.24 0 .48.03.94.11l-.35 1.27c-.42-.12-.64-.16-.9-.16-.5 0-.89.16-1.17.49-.25.29-.35.52-.41 1.01v1.87c0 .54.02.84.07 1.31h-1.44c.05-.49.07-.79.07-1.31v-3.17c-.01-.61-.02-.89-.08-1.31zm-4.01-.17c1.83 0 2.99 1.19 2.99 3.06s-1.18 3.1-2.98 3.1c-1.85 0-3.02-1.19-3.02-3.08 0-1.88 1.17-3.08 3.01-3.08zm-8.1.11c.28.04.59.06.95.06h.41v-.53c0-1.25.64-1.84 2.01-1.84.45 0 .79.05 1.25.2l-.27 1.06c-.3-.17-.55-.24-.9-.24-.59 0-.79.24-.79.94v.41h.47c.4 0 .72-.02 1.14-.06v1.18c-.35-.04-.63-.06-1.12-.06h-.49v3.42c0 .57.02.87.07 1.31h-1.44c.05-.47.07-.79.07-1.31v-3.42h-.4c-.38 0-.65.02-.96.06zm-7.78.06h1.37v.95c.36-.72.99-1.06 1.9-1.06.24 0 .48.03.94.11l-.36 1.27c-.42-.12-.64-.16-.9-.16-.5 0-.89.16-1.17.49-.25.29-.35.52-.41 1.01v1.87c0 .54.02.84.07 1.31h-1.44c.05-.49.07-.79.07-1.31v-3.17c0-.61-.01-.89-.07-1.31zm-3.84-.18c1.18 0 2.11.59 2.51 1.59.19.48.26.85.29 1.53 0 .02 0 .05.02.28h-4.39c.05.55.14.84.37 1.13.29.36.75.56 1.26.56.49 0 .92-.18 1.21-.5.12-.14.19-.25.29-.52l1.19.38c-.23.48-.36.68-.62.93-.52.51-1.23.78-2.08.78-1.79 0-2.91-1.19-2.91-3.08.01-1.86 1.13-3.08 2.86-3.08zm-7.52.12c.29.05.48.06.91.06h.37v-.31c0-.43-.03-.88-.07-1.24h1.44c-.04.35-.07.79-.07 1.24v.31h.42c.47 0 .7-.01 1.02-.06v1.19c-.33-.05-.52-.06-.98-.06h-.45v3.13c0 .49.18.68.67.68.26 0 .42-.05.74-.22l.18 1.07c-.43.16-.74.21-1.26.21-1.16 0-1.62-.41-1.62-1.47v-3.4h-.4c-.37 0-.56.01-.9.06zm-6.25.06h1.37v.53c0 .15 0 .18-.02.43.62-.79 1.15-1.07 2.06-1.07.78 0 1.35.25 1.71.75.24.33.34.74.34 1.41v2.42c0 .55.02.94.08 1.31h-1.46c.05-.45.07-.8.07-1.31v-2.24c0-.42-.05-.7-.17-.89-.16-.26-.46-.41-.85-.41-.73 0-1.32.5-1.77 1.5v2.04c0 .49.02.88.08 1.31h-1.45c.06-.43.08-.75.08-1.31v-3.16c.01-.55-.01-.89-.07-1.31zm-3.83-.18c1.18 0 2.11.59 2.51 1.59.19.48.26.85.29 1.53 0 .02 0 .05.02.28h-4.39c.05.55.14.84.37 1.13.29.36.75.56 1.26.56.49 0 .92-.18 1.21-.5.12-.14.19-.25.29-.52l1.19.38c-.23.48-.36.68-.62.93-.52.51-1.23.78-2.08.78-1.79 0-2.91-1.19-2.91-3.08.02-1.86 1.14-3.08 2.86-3.08zm-7.07-2.22c.79 0 1.38.15 1.94.48.45.28.82.66 1.07 1.1.12.21.19.39.31.78l-1.4.32c-.14-.44-.23-.64-.43-.87-.34-.41-.85-.63-1.47-.63-1.43 0-2.3 1.12-2.3 2.98 0 1.85.89 3 2.3 3 .71 0 1.31-.27 1.63-.75.17-.25.25-.46.33-.93l1.44.25c-.19.73-.37 1.12-.68 1.51-.57.71-1.54 1.1-2.75 1.1-1.1 0-1.98-.33-2.59-.97-.71-.74-1.1-1.88-1.1-3.17 0-1.33.42-2.5 1.18-3.26.61-.59 1.51-.94 2.52-.94z"/><path d="m264.49 9.46h1.66v.55h-1.66z"/><path d="m211.44 11.18h1.08v.56h-1.08z"/><path d="m213.43 11.18h1.11v.56h-1.11z"/><path d="m211.44 9.81h1.08v.56h-1.08z"/><path d="m264.49 12.33h1.66v.65h-1.66z"/><path d="m213.43 9.81h1.11v.56h-1.11z"/><path d="m264.49 10.89h1.66v.56h-1.66z"/><path d="m243.2 8.02c.16 0 .25 0 .44-.01-.93-.64-1.5-1.16-2.11-1.96-.53.72-1.16 1.3-2.1 1.96.17.01.23.01.41.01z"/><path d="m25.99 9.09c-.27-.27-.62-.4-1.09-.4-.79 0-1.36.52-1.51 1.37h3.05c-.07-.44-.19-.71-.45-.97z"/><g fill="#fff"><path d="m15.25 12.82c.62.64 1.49.97 2.59.97 1.21 0 2.18-.39 2.75-1.1.3-.39.48-.79.68-1.51l-1.44-.25c-.08.46-.16.68-.33.93-.32.47-.93.75-1.63.75-1.41 0-2.3-1.15-2.3-3 0-1.86.87-2.98 2.3-2.98.63 0 1.13.21 1.47.63.2.23.29.42.43.87l1.4-.32c-.12-.38-.19-.56-.31-.78-.25-.44-.62-.82-1.07-1.1-.55-.33-1.15-.48-1.94-.48-1.01 0-1.92.34-2.52.96-.76.76-1.18 1.93-1.18 3.26 0 1.27.39 2.41 1.1 3.15z"/><path d="m24.99 13.81c.85 0 1.55-.26 2.08-.78.25-.25.38-.44.62-.93l-1.19-.38c-.1.27-.17.38-.29.52-.29.32-.72.5-1.21.5-.51 0-.97-.2-1.26-.56-.23-.29-.32-.57-.37-1.13h4.39c-.02-.23-.02-.26-.02-.28-.03-.69-.1-1.05-.29-1.53-.4-1.01-1.33-1.59-2.51-1.59-1.72 0-2.84 1.22-2.84 3.09-.02 1.88 1.11 3.07 2.89 3.07zm-.09-5.12c.47 0 .82.13 1.09.4.25.25.37.52.44.97h-3.05c.16-.84.74-1.37 1.52-1.37z"/><path d="m28.75 13.62h1.45c-.06-.43-.08-.82-.08-1.31v-2.04c.44-1 1.04-1.5 1.77-1.5.38 0 .69.15.85.41.12.19.17.46.17.89v2.24c0 .51-.02.86-.07 1.31h1.46c-.06-.37-.08-.76-.08-1.31v-2.42c0-.68-.1-1.08-.34-1.41-.36-.49-.94-.75-1.71-.75-.91 0-1.44.28-2.06 1.07.02-.25.02-.28.02-.43v-.54h-1.37c.06.41.08.76.08 1.31v3.17c-.01.57-.03.88-.09 1.31z"/><path d="m36.28 8.9v3.39c0 1.06.46 1.47 1.62 1.47.52 0 .83-.05 1.26-.21l-.18-1.07c-.31.17-.47.22-.74.22-.48 0-.67-.18-.67-.68v-3.12h.45c.46 0 .66.01.99.06v-1.19c-.32.05-.54.06-1.02.06h-.42v-.31c0-.45.03-.89.07-1.24h-1.44c.04.36.07.81.07 1.24v.31h-.37c-.42 0-.62-.01-.91-.06v1.19c.33-.05.52-.06.9-.06z"/><path d="m42.59 13.81c.85 0 1.55-.26 2.08-.78.25-.25.38-.44.62-.93l-1.19-.38c-.1.27-.17.38-.29.52-.29.32-.72.5-1.21.5-.51 0-.97-.2-1.26-.56-.23-.29-.32-.57-.37-1.13h4.39c-.02-.23-.02-.26-.02-.28-.03-.69-.1-1.05-.29-1.53-.4-1.01-1.33-1.59-2.51-1.59-1.72 0-2.84 1.22-2.84 3.09-.03 1.88 1.1 3.07 2.89 3.07zm-.09-5.12c.47 0 .82.13 1.09.4.25.25.37.52.44.97h-3.05c.16-.84.73-1.37 1.52-1.37z"/><path d="m46.36 13.62h1.44c-.05-.47-.07-.77-.07-1.31v-1.87c.06-.48.16-.72.41-1.01.28-.33.67-.49 1.17-.49.26 0 .47.04.9.16l.35-1.27c-.45-.08-.7-.11-.94-.11-.91 0-1.53.34-1.9 1.06v-.95h-1.37c.06.41.07.7.07 1.31v3.17c.01.53-.01.82-.06 1.31z"/><path d="m55.5 8.89v3.42c0 .52-.02.84-.07 1.31h1.44c-.05-.44-.07-.74-.07-1.31v-3.42h.49c.49 0 .77.02 1.12.06v-1.18c-.42.04-.74.06-1.14.06h-.47v-.41c0-.7.2-.94.79-.94.34 0 .6.07.9.24l.27-1.06c-.46-.15-.8-.2-1.25-.2-1.37 0-2.01.58-2.01 1.84v.53h-.41c-.36 0-.67-.02-.95-.06v1.18c.31-.04.57-.06.96-.06z"/><path d="m62.25 13.81c1.8 0 2.98-1.23 2.98-3.1s-1.16-3.06-2.99-3.06c-1.84 0-3.01 1.2-3.01 3.08 0 1.89 1.17 3.08 3.02 3.08zm-.01-5.1c1.07 0 1.68.75 1.68 2.05 0 1.23-.65 1.99-1.69 1.99s-1.69-.77-1.69-2.01c-.01-1.26.64-2.03 1.7-2.03z"/><path d="m66.25 13.62h1.44c-.05-.47-.07-.77-.07-1.31v-1.87c.06-.48.16-.72.41-1.01.28-.33.67-.49 1.17-.49.26 0 .47.04.9.16l.35-1.27c-.45-.08-.7-.11-.94-.11-.91 0-1.53.34-1.9 1.06v-.95h-1.37c.06.41.07.7.07 1.31v3.17c.01.53-.01.82-.06 1.31z"/><path d="m74.65 13.62h1.49c-.06-.38-.08-.77-.08-1.31v-1.68h1.93c.97 0 1.65-.23 2.15-.73.44-.46.68-1.09.68-1.86 0-.73-.21-1.33-.63-1.73-.48-.48-1.17-.72-2.15-.72h-2.11c-.53 0-.85-.01-1.28-.03.06.45.08.82.08 1.3v5.46c0 .55-.02.9-.08 1.3zm1.41-6.87h1.93c.53 0 .87.11 1.1.36.22.23.33.56.33.97 0 .89-.5 1.38-1.43 1.38h-1.93z"/><path d="m81.73 13.62h1.45c-.06-.43-.08-.82-.08-1.31v-2.04c.45-1.01 1.04-1.49 1.8-1.49.27 0 .51.1.7.29.19.2.29.53.29 1v2.24c0 .51-.02.86-.07 1.31h1.46c-.06-.37-.08-.76-.08-1.31v-2.54c0-1.3-.74-2.04-2.03-2.04-.92 0-1.46.28-2.09 1.07.02-.25.02-.3.02-.43v-1.44c0-.57.02-.95.07-1.33h-1.43c.05.4.07.72.07 1.32v5.4c0 .57-.02.87-.08 1.3z"/><path d="m88.52 5.59h1.48v1.28h-1.48z"/><path d="m88.52 13.62h1.47c-.05-.42-.07-.77-.07-1.32v-3.15c0-.62.02-.95.07-1.32h-1.47c.06.41.08.76.08 1.31v3.17c0 .51-.02.86-.08 1.31z"/><path d="m91.25 13.62h1.46c-.05-.44-.07-.78-.07-1.31v-5.4c0-.61.02-.93.07-1.32h-1.46c.05.38.07.71.07 1.31v5.41c0 .59-.02.88-.07 1.31z"/><path d="m96.76 13.81c1.8 0 2.98-1.23 2.98-3.1s-1.16-3.06-2.99-3.06c-1.84 0-3.01 1.2-3.01 3.08 0 1.89 1.17 3.08 3.02 3.08zm-.01-5.1c1.07 0 1.68.75 1.68 2.05 0 1.23-.65 1.99-1.69 1.99s-1.69-.77-1.69-2.01c-.01-1.26.64-2.03 1.7-2.03z"/><path d="m103.21 12.77c-.79 0-1.16-.27-1.33-.96l-1.38.17c.12.45.21.66.39.9.43.58 1.21.9 2.25.9.92 0 1.62-.22 2.09-.66.3-.28.49-.73.49-1.14 0-.55-.19-.97-.58-1.25-.33-.25-.75-.39-1.78-.62-.57-.13-.79-.19-1.01-.3-.2-.11-.31-.28-.31-.47 0-.42.42-.71 1.05-.71.66 0 1 .24 1.11.8l1.33-.17c-.14-.49-.28-.75-.54-1-.41-.38-1.07-.58-1.9-.58-.92 0-1.6.26-2.02.79-.2.25-.31.59-.31.94 0 .59.31 1.07.89 1.34.34.16.66.26 1.45.43.81.18.87.19 1.06.32.16.11.26.3.26.5 0 .47-.47.77-1.21.77z"/><path d="m109.5 13.81c1.8 0 2.98-1.23 2.98-3.1s-1.16-3.06-2.99-3.06c-1.84 0-3.01 1.2-3.01 3.08 0 1.89 1.17 3.08 3.02 3.08zm-.01-5.1c1.07 0 1.68.75 1.68 2.05 0 1.23-.65 1.99-1.69 1.99s-1.69-.77-1.69-2.01c0-1.26.64-2.03 1.7-2.03z"/><path d="m113.49 15.59h1.42c-.05-.42-.07-.75-.07-1.34v-.77c0-.18 0-.36-.01-.43-.01-.2-.01-.2-.01-.32.48.66 1.15.97 2.04.97 1.71 0 2.73-1.12 2.73-2.98 0-1.02-.26-1.78-.8-2.32-.46-.46-1.11-.71-1.92-.71-.91 0-1.5.28-2.06.99.01-.13.01-.24.01-.35v-.5h-1.34c.05.43.07.77.07 1.35v5.07c.01.52-.01.87-.06 1.34zm3.14-6.82c1.02 0 1.64.74 1.64 1.93s-.62 1.94-1.6 1.94c-1.05 0-1.8-.81-1.8-1.96.01-1.08.76-1.91 1.76-1.91z"/><path d="m120.63 13.62h1.45c-.06-.43-.08-.82-.08-1.31v-2.04c.45-1.01 1.04-1.49 1.8-1.49.27 0 .51.1.7.29.19.2.29.53.29 1v2.24c0 .51-.02.86-.07 1.31h1.46c-.06-.37-.08-.76-.08-1.31v-2.54c0-1.3-.74-2.04-2.03-2.04-.92 0-1.46.28-2.09 1.07.02-.25.02-.3.02-.43v-1.44c0-.57.02-.95.07-1.33h-1.43c.05.4.07.72.07 1.32v5.4c0 .57-.02.87-.08 1.3z"/><path d="m129.34 13.22-.34.78c-.14.31-.43.5-.79.5-.23 0-.42-.05-.71-.17l-.23 1.15c.46.09.76.12 1.06.12.94 0 1.53-.35 1.86-1.12l2.3-5.4c.3-.71.48-1.12.54-1.25h-1.5c-.06.32-.14.57-.38 1.19l-1.12 2.85-1.23-2.86c-.18-.41-.33-.89-.38-1.18h-1.53c.12.22.13.25.57 1.25z"/><path d="m139.88 13.81c1.79 0 2.97-1.23 2.97-3.1s-1.16-3.06-2.99-3.06c-1.84 0-3.01 1.2-3.01 3.08.02 1.89 1.19 3.08 3.03 3.08zm-.01-5.1c1.07 0 1.68.75 1.68 2.05 0 1.23-.65 1.99-1.69 1.99s-1.69-.77-1.69-2.01c0-1.26.65-2.03 1.7-2.03z"/><path d="m144.71 8.89v3.42c0 .52-.02.84-.07 1.31h1.44c-.05-.44-.07-.74-.07-1.31v-3.42h.49c.49 0 .77.02 1.12.06v-1.18c-.42.04-.74.06-1.14.06h-.47v-.41c0-.7.2-.94.79-.94.34 0 .59.07.9.24l.27-1.06c-.46-.15-.8-.2-1.25-.2-1.37 0-2.01.58-2.01 1.84v.53h-.41c-.36 0-.67-.02-.95-.06v1.18c.31-.04.57-.06.96-.06z"/><path d="m155.08 12.6c-.66 0-1.18-.21-1.47-.6-.18-.23-.24-.43-.28-.89l-1.45.15c.06.41.1.61.19.84.19.49.48.88.89 1.15.48.32 1.29.52 2.12.52 1.08 0 1.88-.25 2.41-.77.41-.41.64-1 .64-1.71 0-.76-.26-1.31-.84-1.73-.36-.25-.85-.44-1.64-.62-1.12-.25-1.2-.27-1.42-.36-.46-.2-.69-.49-.69-.92 0-.66.59-1.1 1.47-1.1.55 0 1 .17 1.26.48.17.2.24.37.3.72l1.43-.16c-.12-.53-.24-.84-.49-1.17-.49-.67-1.36-1.02-2.51-1.02-1.73 0-2.86.91-2.86 2.31 0 .68.26 1.23.78 1.63.36.28.77.44 1.52.62 1.39.32 1.45.33 1.76.49.31.17.5.51.5.93-.01.76-.61 1.21-1.62 1.21z"/><path d="m161.94 13.81c.96 0 1.73-.35 2.22-1.02.18-.24.28-.45.42-.86l-1.25-.25c-.06.25-.11.36-.2.5-.25.36-.66.56-1.16.56-1.02 0-1.64-.78-1.64-2.04 0-1.25.61-2.03 1.6-2.03.44 0 .8.16 1.04.46.13.16.2.3.31.62l1.23-.29c-.14-.37-.22-.53-.35-.74-.48-.71-1.27-1.09-2.26-1.09-.83 0-1.53.26-2.03.77-.55.56-.86 1.38-.86 2.33 0 1.88 1.15 3.08 2.93 3.08z"/><path d="m165.56 5.59h1.48v1.28h-1.48z"/><path d="m165.56 13.62h1.47c-.05-.42-.07-.77-.07-1.32v-3.15c0-.62.02-.95.07-1.32h-1.47c.06.41.08.76.08 1.31v3.17c0 .51-.02.86-.08 1.31z"/><path d="m170.96 13.81c.85 0 1.55-.26 2.08-.78.25-.25.38-.44.61-.93l-1.19-.38c-.1.27-.17.38-.29.52-.29.32-.72.5-1.21.5-.51 0-.97-.2-1.26-.56-.23-.29-.32-.57-.37-1.13h4.39c-.02-.23-.02-.26-.02-.28-.03-.69-.1-1.05-.29-1.53-.4-1.01-1.33-1.59-2.51-1.59-1.72 0-2.84 1.22-2.84 3.09-.01 1.88 1.12 3.07 2.9 3.07zm-.09-5.12c.47 0 .82.13 1.09.4.25.25.37.52.44.97h-3.05c.16-.84.74-1.37 1.52-1.37z"/><path d="m174.72 13.62h1.45c-.06-.43-.08-.82-.08-1.31v-2.04c.44-1 1.04-1.5 1.77-1.5.38 0 .69.15.85.41.12.19.17.46.17.89v2.24c0 .51-.02.86-.07 1.31h1.46c-.06-.37-.08-.76-.08-1.31v-2.42c0-.68-.1-1.08-.34-1.41-.36-.49-.94-.75-1.71-.75-.91 0-1.44.28-2.06 1.07.02-.25.02-.28.02-.43v-.54h-1.37c.06.41.08.76.08 1.31v3.17c-.01.57-.03.88-.09 1.31z"/><path d="m184.19 13.81c.96 0 1.73-.35 2.22-1.02.18-.24.28-.45.42-.86l-1.25-.25c-.06.25-.11.36-.2.5-.25.36-.66.56-1.16.56-1.02 0-1.64-.78-1.64-2.04 0-1.25.62-2.03 1.6-2.03.44 0 .8.16 1.04.46.13.16.2.3.31.62l1.23-.29c-.14-.37-.22-.53-.35-.74-.48-.71-1.27-1.09-2.26-1.09-.83 0-1.53.26-2.03.77-.55.56-.86 1.38-.86 2.33 0 1.88 1.15 3.08 2.93 3.08z"/><path d="m190.48 13.81c.85 0 1.55-.26 2.08-.78.25-.25.38-.44.61-.93l-1.19-.38c-.1.27-.17.38-.29.52-.29.32-.72.5-1.21.5-.51 0-.97-.2-1.26-.56-.23-.29-.32-.57-.37-1.13h4.39c-.02-.23-.02-.26-.02-.28-.03-.69-.1-1.05-.29-1.53-.4-1.01-1.33-1.59-2.51-1.59-1.72 0-2.84 1.22-2.84 3.09-.01 1.88 1.12 3.07 2.9 3.07zm-.09-5.12c.47 0 .82.13 1.09.4.25.25.37.52.44.97h-3.05c.16-.84.74-1.37 1.52-1.37z"/><path d="m199.31 6.04c-.57-.47-.9-.69-1.62-1.05l-.71.83c.71.32 1.07.56 1.66 1.12z"/><path d="m198.75 8c.18.22.23.31.38.57.28-.25.39-.37.61-.67-.01.22-.02.54-.02.85v1.33c0 .46-.01.65-.03.96.25-.02.49-.03.83-.03v.63h-2.82c-.49 0-.79-.02-1.09-.06v1.13c.35-.04.69-.06 1.24-.06h2.67v.57c0 .48-.02.77-.06 1.17h1.28c-.04-.36-.06-.68-.06-1.18v-.56h2.8c.55 0 .88.02 1.24.06v-1.11c-.33.04-.6.05-1.14.05h-2.9v-.63h3c.48 0 .77.01 1.02.04v-.98c-.28.03-.54.04-.96.04h-1.39v-.51h1.05c.43 0 .63.01.9.03v-.89c-.25.02-.41.03-.9.03h-1.05v-.49h1.05c.45 0 .65.01.9.03v-.89c-.19.02-.39.03-.9.03h-1.05v-.5h1.34c.34 0 .63.01.88.04v-.99c-.28.04-.66.06-1.02.06h-1.04c.2-.29.23-.33.42-.66.02-.04.06-.11.11-.19l-1.04-.27c-.13.4-.27.68-.56 1.12h-1.28c.26-.4.26-.4.43-.7.02-.03.06-.1.1-.17l-1.12-.29c-.41 1.1-1.06 1.97-2.07 2.76-.44-.29-.74-.46-1.29-.74l-.72.82c.67.32 1.1.61 1.66 1.06zm2.01-1.04h1.55v.5h-1.55zm0 1.33h1.55v.49h-1.55zm0 1.32h1.55v.51h-1.55z"/><path d="m199.38 9.65-.52-.92c-.73.71-1.1 1-1.83 1.42-.2.12-.35.2-.5.26l.66 1c1.03-.68 1.5-1.06 2.19-1.76z"/><path d="m207.51 9c-.02.6-.03.94-.03 1.32v2.81c0 .51-.01.78-.06 1.2h1.16c-.03-.33-.04-.48-.05-.86.27.24.52.52.73.8.45-.76.68-1.41.82-2.49.11-.84.17-2 .19-3.31h4.64c.38 0 .69.01.98.04v-1c-.3.04-.54.05-1.1.05h-4.52c-.49 0-.74-.01-1.06-.05.03.32.04.64.04 1.02 0 1.59-.07 2.59-.22 3.37-.12.6-.23.91-.49 1.35v-5.88c.3-.61.45-.98.65-1.63.07-.21.12-.37.17-.52l-1.09-.26c-.07.46-.24 1.03-.5 1.66-.37.9-.82 1.63-1.38 2.26.26.55.26.55.45 1.21.27-.35.47-.67.67-1.09z"/><path d="m211.52 8.95c-.56 0-.77-.01-1.07-.03.03.34.04.55.04 1.1v3.19c0 .52-.01.82-.06 1.09h1.06c-.04-.23-.05-.43-.05-1.09v-.61h1.08v.46c0 .52-.01.81-.06 1.11h1.03c-.04-.25-.05-.52-.05-1.11v-.46h1.11v.57c0 .19-.04.23-.22.23-.17 0-.37-.02-.61-.05.12.31.16.47.2.88.36.01.36.01.44.01.95 0 1.16-.15 1.16-.82v-3.43c0-.54.01-.85.04-1.08-.28.03-.49.04-.98.04zm1 2.8h-1.08v-.56h1.08zm0-1.37h-1.08v-.57h1.08zm2.02 1.37h-1.11v-.56h1.11zm0-1.37h-1.11v-.57h1.11z"/><path d="m210.29 5.84c-.38 0-.73-.02-1.01-.05v1.01c.29-.03.47-.04 1.01-.04h.42v.1c0 .18-.01.32-.03.48h1.1c-.02-.14-.03-.24-.03-.49v-.1h1.38v.09c0 .19-.01.34-.03.49h1.1c-.02-.13-.03-.24-.03-.48v-.1h.64c.48 0 .73.01 1.02.04v-1.01c-.2.04-.61.06-1.02.06h-.64v-.24c0-.27.01-.43.04-.61h-1.12c.03.16.04.3.04.61v.23h-1.38v-.23c0-.27.01-.44.04-.61h-1.12c.03.16.04.3.04.61v.23h-.42z"/><path d="m217.25 10.21c1.64-.51 2.74-1.1 3.53-1.88-.01.15-.02.26-.02.42v.27c0 .3 0 .4-.03.6l-.41-.05c-.07.21-.17.38-.42.76h-2.15c-.36 0-.61-.02-.84-.06v1.05c.31-.04.67-.06 1.11-.06h1.17c-.42.52-.55.66-.99 1.08.97.18 1.39.28 2.22.48-.9.3-2.17.49-3.21.49-.07 0-.15 0-.27 0 .26.4.37.64.5 1.03 2.03-.18 3.38-.51 4.44-1.11 1.1.34 1.78.61 2.99 1.14l.8-.82c-.94-.38-1.62-.63-2.84-.99.45-.43.74-.8 1.02-1.31h.89c.44 0 .8.02 1.1.06v-1.05c-.24.04-.47.06-.84.06h-3.87c.24-.35.31-.44.41-.57h.34c-.04-.22-.05-.39-.05-.74v-.27c0-.2 0-.26-.02-.42.52.46.84.68 1.57 1.06s1.3.6 2.17.82c.16-.42.29-.67.53-.99-.58-.09-1.38-.3-1.95-.52-.46-.17-1.01-.46-1.36-.72h1.86c.52 0 .85.02 1.18.06v-1.05c-.31.04-.7.06-1.2.06h-2.77v-.72c1.82-.16 1.93-.17 2.68-.27.37-.06.37-.06.55-.08l-.73-.98c-1.18.32-3.62.55-5.86.55l-.99-.01c.19.33.26.48.41.93 1.55 0 1.99-.01 2.85-.06v.64h-2.62c-.47 0-.9-.02-1.23-.06v1.05c.31-.04.7-.06 1.21-.06h1.79c-.83.58-1.94 1.03-3.21 1.31.25.29.43.59.56.93zm5.33 1.05c-.19.34-.49.66-.96.99-1.28-.31-1.28-.31-1.7-.4.24-.26.32-.35.51-.58h2.15z"/><path d="m227.27 14.43c.83-.18 1.14-.26 1.54-.4.68-.24 1.13-.46 1.84-.9l-.64-.53h2.74l-.54.49c1.17.79 1.81 1.04 3.37 1.35.14-.35.26-.53.63-.99-1.19-.15-2.05-.4-2.9-.86h.81c.5 0 .82.01 1.13.04-.03-.18-.03-.21-.03-.4 0-.04-.01-.26-.01-.66v-2.55c0-.56.01-.81.04-1.08-.35.03-.64.04-1.13.04h-5.37c-.47 0-.82-.01-1.12-.04.03.3.04.56.04 1.08v2.55c0 .5-.02.81-.04 1.06.32-.03.62-.04 1.12-.04h.78c-.73.41-1.42.62-2.86.84.26.32.42.59.6 1zm1.47-5.61h5.37v.46h-5.37zm0 1.22h5.37v.46h-5.37zm0 1.72v-.49h5.37v.49z"/><path d="m228.04 6.81c0 .27-.02.5-.04.76.3-.02.66-.03 1.11-.03h4.65c.44 0 .79.01 1.09.03-.02-.23-.03-.45-.03-.76v-.77c0-.32.01-.5.04-.78-.35.04-.59.05-1.14.05h-4.58c-.54 0-.8-.01-1.15-.05.04.3.05.47.05.78zm1.11-.64h4.55v.55h-4.55z"/><path d="m238.42 9.88c-.47 0-.86-.02-1.19-.06v1.17c.33-.04.68-.06 1.19-.06h1.53c-.27.69-.59 1.27-1.08 2.02-.51.03-.82.04-.89.04-.14 0-.31-.01-.59-.03l.16 1.23c.23-.05.74-.1 1.3-.14.4-.03 2.4-.21 3.4-.3.37-.04.98-.11 1.82-.22.17.24.27.38.61.88l.97-.64c-.82-1.1-1.25-1.6-2.33-2.69l-1 .44c.56.58.74.77 1.06 1.12-1.41.15-1.41.15-3.2.25.42-.63.74-1.22 1.05-1.96h3.47c.5 0 .85.02 1.18.06v-1.17c-.33.04-.69.06-1.18.06z"/><path d="m238.98 8.33v.77c.27-.03.58-.04.87-.04h3.37c.38 0 .65.01.91.04v-.78c.71.44 1.09.65 1.72.92.14-.41.27-.7.55-1.13-.92-.33-1.73-.76-2.59-1.36-.77-.53-1.17-.93-1.7-1.67h-1.2c-.41.65-.93 1.18-1.59 1.69-.77.6-1.44.97-2.53 1.4.25.34.41.63.58 1.03.7-.32.98-.47 1.61-.87zm2.56-2.28c.61.8 1.18 1.32 2.11 1.96-.19.01-.28.01-.44.01h-3.35c-.18 0-.24 0-.41-.01.93-.66 1.55-1.25 2.09-1.96z"/><path d="m258.22 13.94c.52 0 .85.02 1.3.07v-1.19c-.42.04-.8.06-1.33.06h-2.69v-2.09h1.98c.49 0 .74.01 1.06.05v-1.14c-.3.03-.66.05-1.09.05h-1.95v-1.76h2.36c.59 0 .88.01 1.22.05v-1.15c-.36.04-.71.06-1.22.06h-5.83c-.56 0-.87-.01-1.22-.06v1.16c.27-.04.54-.05 1.23-.05h2.28v1.75h-1.89c-.51 0-.77-.01-1.06-.05v1.14c.33-.04.62-.05 1.14-.05h1.81v2.09h-2.56c-.57 0-.98-.02-1.33-.06v1.19c.44-.05.78-.07 1.37-.07z"/><path d="m256.51 5.99c-1.24-.59-1.57-.73-2.61-1.07l-.82.81c.9.26 1.65.6 2.67 1.17z"/><path d="m261.35 9.15c-.02.54-.03.97-.03 1.29v2.68c0 .52-.01.81-.06 1.2h1.21c-.04-.38-.05-.7-.05-1.23v-2.75c.18.24.25.37.41.76.3-.31.45-.5.64-.81-.01.45-.01.45-.01.63v2.28c0 .52-.02.84-.06 1.15h1.09v-.44h4.01c.36 0 .72.02 1.12.06v-1.03c-.23.03-.37.04-.85.04h-1.62v-.65h1.2c.37 0 .56.01.85.04v-.96c-.23.03-.39.04-.86.04h-1.19v-.56h1.19c.37 0 .55.01.85.04v-.96c-.23.03-.37.04-.86.04h-1.18v-.55h1.59c.33 0 .56.01.83.04v-1.02c-.27.04-.53.05-.94.05h-1.27c.11-.16.29-.46.45-.75l-1.05-.2c-.09.29-.27.62-.51.95h-1.43c.21-.35.26-.44.38-.69l-1.05-.26c-.4.98-.94 1.74-1.73 2.46v-2.76c.24-.54.43-1.05.58-1.48.09-.29.09-.3.16-.48l-1.11-.36c-.03.31-.13.75-.28 1.21-.37 1.11-.86 1.97-1.55 2.74.17.37.32.8.42 1.26.26-.3.32-.39.71-1.02zm3.14.31h1.66v.55h-1.66zm0 1.43h1.66v.56h-1.66zm0 1.44h1.66v.65h-1.66z"/><path d="m263.32 6.86c0 .34 0 .46-.02.69.21-.02.35-.02.71-.02h4.59c.32 0 .39 0 .72.01-.03-.19-.03-.27-.03-.66v-.68c0-.32.01-.54.04-.77h-1.11c.02.21.03.39.03.69v.46h-1.48v-.73c0-.35.01-.57.05-.79h-1.14c.04.19.06.43.06.78v.75h-1.39v-.46c0-.26.01-.47.03-.7h-1.09c.03.22.04.41.04.66v.77z"/></g><path d="m7.4 71.41c-.2-.39-.57-.58-1.1-.58-.29 0-.54.08-.73.24s-.34.41-.45.77c-.11.35-.19.82-.23 1.39s-.07 1.27-.07 2.1c0 .88.03 1.6.09 2.14s.15.97.28 1.27.28.5.47.6.41.16.66.16c.21 0 .4-.04.58-.11s.33-.21.47-.42.23-.51.31-.9.11-.9.11-1.53h2.35c0 .63-.05 1.23-.15 1.8s-.28 1.06-.55 1.49c-.27.42-.64.76-1.13 1-.48.24-1.11.36-1.89.36-.88 0-1.58-.14-2.11-.42-.52-.28-.92-.69-1.2-1.23-.28-.53-.46-1.17-.54-1.91s-.12-1.56-.12-2.45c0-.88.04-1.7.12-2.44.08-.75.26-1.39.54-1.92s.68-.95 1.2-1.25 1.23-.45 2.11-.45c.84 0 1.5.14 1.98.41s.85.62 1.09 1.04.39.87.45 1.36c.06.48.09.94.09 1.36h-2.32c0-.87-.1-1.49-.31-1.88z"/><path d="m10.5 74.61c.12-.58.32-1.06.59-1.45s.63-.68 1.07-.88.98-.3 1.63-.3c.67-.01 1.24.08 1.68.27.45.19.8.48 1.06.87s.45.88.56 1.45c.11.58.16 1.25.16 2.03 0 .75-.06 1.42-.18 1.99-.12.58-.32 1.06-.59 1.45s-.63.67-1.07.86-.98.28-1.63.28c-.68.01-1.24-.07-1.68-.25-.45-.18-.8-.46-1.06-.85s-.45-.87-.56-1.45-.16-1.25-.16-2.02c0-.76.06-1.43.18-2zm2.11 3.23c.02.38.07.71.16.98.08.27.2.48.37.64.16.15.38.23.65.23.46 0 .77-.24.95-.72.17-.48.26-1.27.26-2.37s-.09-1.89-.26-2.37-.49-.72-.95-.72c-.27 0-.49.08-.65.23s-.29.36-.37.64c-.08.27-.13.6-.16.98-.02.38-.03.79-.03 1.24-.01.45 0 .86.03 1.24z"/><path d="m19.79 72.21v1.03h.03c.24-.44.55-.75.93-.96.38-.2.82-.3 1.31-.3.72 0 1.27.2 1.66.59s.58 1.03.58 1.91v6.52h-2.25v-6.06c0-.46-.08-.78-.23-.96s-.4-.27-.74-.27c-.79 0-1.19.48-1.19 1.45v5.83h-2.25v-8.79h2.15z"/><path d="m24.33 73.74v-1.54h1.14v-1c0-.39.05-.72.16-1 .11-.27.26-.49.47-.65.2-.16.45-.28.74-.35s.62-.11.98-.11c.4 0 .81.02 1.21.05v1.6c-.05-.01-.13-.02-.23-.02h-.2c-.32 0-.54.05-.67.16s-.2.29-.2.54v.77h1.31v1.54h-1.31v7.25h-2.25v-7.25h-1.15z"/><path d="m30.93 77.64c0 .26.02.51.06.76s.1.46.19.65.2.34.34.46c.14.11.32.17.52.17.38 0 .66-.14.83-.41s.29-.69.36-1.24h2.03c-.04 1.02-.32 1.8-.82 2.34-.5.53-1.29.8-2.37.8-.82 0-1.45-.14-1.91-.41s-.79-.63-1.01-1.08-.35-.95-.4-1.5c-.05-.56-.07-1.11-.07-1.67 0-.59.04-1.15.12-1.7.08-.54.24-1.03.49-1.45.24-.42.6-.76 1.05-1.01.46-.25 1.07-.38 1.83-.38.65 0 1.19.11 1.61.32s.75.51.99.9.4.85.49 1.4.13 1.16.13 1.84v.51h-4.46zm2.24-2.93c-.03-.26-.09-.47-.17-.65s-.2-.32-.34-.41c-.15-.09-.33-.14-.56-.14s-.42.05-.56.16c-.15.1-.26.24-.35.41s-.15.36-.19.56c-.04.21-.06.41-.06.62v.34h2.3c-.02-.33-.04-.63-.07-.89z"/><path d="m37.91 72.21v1.18h.03c.23-.42.51-.76.83-1.02.33-.26.72-.38 1.19-.38.07 0 .13 0 .2.01s.14.01.2.02v2.16c-.12-.01-.24-.02-.35-.02-.11-.01-.23-.01-.35-.01-.2 0-.39.03-.59.08s-.38.14-.54.27-.29.29-.39.49-.14.43-.14.73v5.28h-2.25v-8.79z"/><path d="m42.3 77.64c0 .26.02.51.06.76s.1.46.19.65.2.34.34.46c.14.11.32.17.52.17.38 0 .66-.14.83-.41s.29-.69.36-1.24h2.03c-.04 1.02-.32 1.8-.82 2.34-.5.53-1.29.8-2.37.8-.82 0-1.45-.14-1.91-.41s-.79-.63-1.01-1.08-.35-.95-.4-1.5c-.05-.56-.07-1.11-.07-1.67 0-.59.04-1.15.12-1.7.08-.54.24-1.03.49-1.45.24-.42.6-.76 1.05-1.01s1.07-.38 1.83-.38c.65 0 1.19.11 1.61.32s.75.51.99.9.4.85.49 1.4.13 1.16.13 1.84v.51h-4.46zm2.24-2.93c-.03-.26-.09-.47-.17-.65s-.2-.32-.34-.41c-.15-.09-.33-.14-.56-.14s-.42.05-.56.16c-.15.1-.26.24-.35.41s-.15.36-.19.56c-.04.21-.06.41-.06.62v.34h2.3c-.02-.33-.04-.63-.07-.89z"/><path d="m49.27 72.21v1.03h.03c.24-.44.55-.75.93-.96.38-.2.82-.3 1.31-.3.72 0 1.27.2 1.66.59s.58 1.03.58 1.91v6.52h-2.25v-6.06c0-.46-.08-.78-.23-.96s-.4-.27-.74-.27c-.79 0-1.19.48-1.19 1.45v5.83h-2.25v-8.79h2.15z"/><path d="m58.66 74.74c-.03-.21-.08-.39-.15-.56s-.17-.3-.3-.41c-.13-.1-.3-.16-.52-.16-.27 0-.5.06-.67.19s-.3.31-.39.56c-.09.24-.15.56-.18.93-.03.38-.05.82-.05 1.33 0 .54.02 1.01.05 1.4s.09.71.18.96.21.43.37.55c.16.11.36.17.61.17.38 0 .66-.16.83-.49s.26-.85.26-1.57h2.16c0 1.15-.26 2.03-.78 2.64-.52.6-1.37.91-2.57.91-.57 0-1.06-.07-1.48-.2-.42-.14-.77-.38-1.05-.74-.28-.35-.49-.83-.63-1.42s-.21-1.33-.21-2.21c0-.9.09-1.65.26-2.25.17-.59.42-1.07.73-1.42.32-.35.69-.6 1.13-.74s.91-.21 1.44-.21c1.05 0 1.83.3 2.36.91s.79 1.44.79 2.48h-2.15c0-.23-.02-.45-.04-.65z"/><path d="m63.14 77.64c0 .26.02.51.06.76s.1.46.19.65.2.34.34.46c.14.11.32.17.52.17.38 0 .66-.14.83-.41s.29-.69.36-1.24h2.03c-.04 1.02-.32 1.8-.82 2.34-.5.53-1.29.8-2.37.8-.82 0-1.45-.14-1.91-.41s-.79-.63-1.01-1.08-.35-.95-.4-1.5c-.05-.56-.07-1.11-.07-1.67 0-.59.04-1.15.12-1.7.08-.54.24-1.03.49-1.45.24-.42.6-.76 1.05-1.01.46-.25 1.07-.38 1.83-.38.65 0 1.19.11 1.61.32s.75.51.99.9.4.85.49 1.4.13 1.16.13 1.84v.51h-4.46zm2.24-2.93c-.03-.26-.09-.47-.17-.65s-.2-.32-.34-.41c-.15-.09-.33-.14-.56-.14s-.42.05-.56.16c-.15.1-.26.24-.35.41s-.15.36-.19.56c-.04.21-.06.41-.06.62v.34h2.3c-.02-.33-.04-.63-.07-.89z"/><path d="m70.95 74.61c.12-.58.32-1.06.59-1.45s.63-.68 1.07-.88.98-.3 1.63-.3c.67-.01 1.24.08 1.68.27.45.19.8.48 1.06.87s.45.88.56 1.45c.11.58.16 1.25.16 2.03 0 .75-.06 1.42-.18 1.99-.12.58-.32 1.06-.59 1.45s-.63.67-1.07.86-.98.28-1.63.28c-.68.01-1.24-.07-1.68-.25-.45-.18-.8-.46-1.06-.85s-.45-.87-.56-1.45-.16-1.25-.16-2.02c0-.76.06-1.43.18-2zm2.1 3.23c.02.38.07.71.16.98.08.27.2.48.37.64.16.15.38.23.65.23.46 0 .77-.24.95-.72.17-.48.26-1.27.26-2.37s-.09-1.89-.26-2.37-.49-.72-.95-.72c-.27 0-.49.08-.65.23s-.29.36-.37.64c-.08.27-.13.6-.16.98-.02.38-.03.79-.03 1.24s.01.86.03 1.24z"/><path d="m80.24 72.21v1.03h.03c.24-.44.55-.75.93-.96.38-.2.82-.3 1.31-.3.72 0 1.27.2 1.66.59s.58 1.03.58 1.91v6.52h-2.25v-6.06c0-.46-.08-.78-.23-.96s-.4-.27-.74-.27c-.79 0-1.19.48-1.19 1.45v5.83h-2.25v-8.79h2.15z"/><path d="m7.4 71.41c-.2-.39-.57-.58-1.1-.58-.29 0-.54.08-.73.24s-.34.41-.45.77c-.11.35-.19.82-.23 1.39s-.07 1.27-.07 2.1c0 .88.03 1.6.09 2.14s.15.97.28 1.27.28.5.47.6.41.16.66.16c.21 0 .4-.04.58-.11s.33-.21.47-.42.23-.51.31-.9.11-.9.11-1.53h2.35c0 .63-.05 1.23-.15 1.8s-.28 1.06-.55 1.49c-.27.42-.64.76-1.13 1-.48.24-1.11.36-1.89.36-.88 0-1.58-.14-2.11-.42-.52-.28-.92-.69-1.2-1.23-.28-.53-.46-1.17-.54-1.91s-.12-1.56-.12-2.45c0-.88.04-1.7.12-2.44.08-.75.26-1.39.54-1.92s.68-.95 1.2-1.25 1.23-.45 2.11-.45c.84 0 1.5.14 1.98.41s.85.62 1.09 1.04.39.87.45 1.36c.06.48.09.94.09 1.36h-2.32c0-.87-.1-1.49-.31-1.88z" fill="#fff"/><path d="m10.5 74.61c.12-.58.32-1.06.59-1.45s.63-.68 1.07-.88.98-.3 1.63-.3c.67-.01 1.24.08 1.68.27.45.19.8.48 1.06.87s.45.88.56 1.45c.11.58.16 1.25.16 2.03 0 .75-.06 1.42-.18 1.99-.12.58-.32 1.06-.59 1.45s-.63.67-1.07.86-.98.28-1.63.28c-.68.01-1.24-.07-1.68-.25-.45-.18-.8-.46-1.06-.85s-.45-.87-.56-1.45-.16-1.25-.16-2.02c0-.76.06-1.43.18-2zm2.11 3.23c.02.38.07.71.16.98.08.27.2.48.37.64.16.15.38.23.65.23.46 0 .77-.24.95-.72.17-.48.26-1.27.26-2.37s-.09-1.89-.26-2.37-.49-.72-.95-.72c-.27 0-.49.08-.65.23s-.29.36-.37.64c-.08.27-.13.6-.16.98-.02.38-.03.79-.03 1.24-.01.45 0 .86.03 1.24z" fill="#fff"/><path d="m19.79 72.21v1.03h.03c.24-.44.55-.75.93-.96.38-.2.82-.3 1.31-.3.72 0 1.27.2 1.66.59s.58 1.03.58 1.91v6.52h-2.25v-6.06c0-.46-.08-.78-.23-.96s-.4-.27-.74-.27c-.79 0-1.19.48-1.19 1.45v5.83h-2.25v-8.79h2.15z" fill="#fff"/><path d="m24.33 73.74v-1.54h1.14v-1c0-.39.05-.72.16-1 .11-.27.26-.49.47-.65.2-.16.45-.28.74-.35s.62-.11.98-.11c.4 0 .81.02 1.21.05v1.6c-.05-.01-.13-.02-.23-.02h-.2c-.32 0-.54.05-.67.16s-.2.29-.2.54v.77h1.31v1.54h-1.31v7.25h-2.25v-7.25h-1.15z" fill="#fff"/><path d="m30.93 77.64c0 .26.02.51.06.76s.1.46.19.65.2.34.34.46c.14.11.32.17.52.17.38 0 .66-.14.83-.41s.29-.69.36-1.24h2.03c-.04 1.02-.32 1.8-.82 2.34-.5.53-1.29.8-2.37.8-.82 0-1.45-.14-1.91-.41s-.79-.63-1.01-1.08-.35-.95-.4-1.5c-.05-.56-.07-1.11-.07-1.67 0-.59.04-1.15.12-1.7.08-.54.24-1.03.49-1.45.24-.42.6-.76 1.05-1.01.46-.25 1.07-.38 1.83-.38.65 0 1.19.11 1.61.32s.75.51.99.9.4.85.49 1.4.13 1.16.13 1.84v.51h-4.46zm2.24-2.93c-.03-.26-.09-.47-.17-.65s-.2-.32-.34-.41c-.15-.09-.33-.14-.56-.14s-.42.05-.56.16c-.15.1-.26.24-.35.41s-.15.36-.19.56c-.04.21-.06.41-.06.62v.34h2.3c-.02-.33-.04-.63-.07-.89z" fill="#fff"/><path d="m37.91 72.21v1.18h.03c.23-.42.51-.76.83-1.02.33-.26.72-.38 1.19-.38.07 0 .13 0 .2.01s.14.01.2.02v2.16c-.12-.01-.24-.02-.35-.02-.11-.01-.23-.01-.35-.01-.2 0-.39.03-.59.08s-.38.14-.54.27-.29.29-.39.49-.14.43-.14.73v5.28h-2.25v-8.79z" fill="#fff"/><path d="m42.3 77.64c0 .26.02.51.06.76s.1.46.19.65.2.34.34.46c.14.11.32.17.52.17.38 0 .66-.14.83-.41s.29-.69.36-1.24h2.03c-.04 1.02-.32 1.8-.82 2.34-.5.53-1.29.8-2.37.8-.82 0-1.45-.14-1.91-.41s-.79-.63-1.01-1.08-.35-.95-.4-1.5c-.05-.56-.07-1.11-.07-1.67 0-.59.04-1.15.12-1.7.08-.54.24-1.03.49-1.45.24-.42.6-.76 1.05-1.01s1.07-.38 1.83-.38c.65 0 1.19.11 1.61.32s.75.51.99.9.4.85.49 1.4.13 1.16.13 1.84v.51h-4.46zm2.24-2.93c-.03-.26-.09-.47-.17-.65s-.2-.32-.34-.41c-.15-.09-.33-.14-.56-.14s-.42.05-.56.16c-.15.1-.26.24-.35.41s-.15.36-.19.56c-.04.21-.06.41-.06.62v.34h2.3c-.02-.33-.04-.63-.07-.89z" fill="#fff"/><path d="m49.27 72.21v1.03h.03c.24-.44.55-.75.93-.96.38-.2.82-.3 1.31-.3.72 0 1.27.2 1.66.59s.58 1.03.58 1.91v6.52h-2.25v-6.06c0-.46-.08-.78-.23-.96s-.4-.27-.74-.27c-.79 0-1.19.48-1.19 1.45v5.83h-2.25v-8.79h2.15z" fill="#fff"/><path d="m58.66 74.74c-.03-.21-.08-.39-.15-.56s-.17-.3-.3-.41c-.13-.1-.3-.16-.52-.16-.27 0-.5.06-.67.19s-.3.31-.39.56c-.09.24-.15.56-.18.93-.03.38-.05.82-.05 1.33 0 .54.02 1.01.05 1.4s.09.71.18.96.21.43.37.55c.16.11.36.17.61.17.38 0 .66-.16.83-.49s.26-.85.26-1.57h2.16c0 1.15-.26 2.03-.78 2.64-.52.6-1.37.91-2.57.91-.57 0-1.06-.07-1.48-.2-.42-.14-.77-.38-1.05-.74-.28-.35-.49-.83-.63-1.42s-.21-1.33-.21-2.21c0-.9.09-1.65.26-2.25.17-.59.42-1.07.73-1.42.32-.35.69-.6 1.13-.74s.91-.21 1.44-.21c1.05 0 1.83.3 2.36.91s.79 1.44.79 2.48h-2.15c0-.23-.02-.45-.04-.65z" fill="#fff"/><path d="m63.14 77.64c0 .26.02.51.06.76s.1.46.19.65.2.34.34.46c.14.11.32.17.52.17.38 0 .66-.14.83-.41s.29-.69.36-1.24h2.03c-.04 1.02-.32 1.8-.82 2.34-.5.53-1.29.8-2.37.8-.82 0-1.45-.14-1.91-.41s-.79-.63-1.01-1.08-.35-.95-.4-1.5c-.05-.56-.07-1.11-.07-1.67 0-.59.04-1.15.12-1.7.08-.54.24-1.03.49-1.45.24-.42.6-.76 1.05-1.01.46-.25 1.07-.38 1.83-.38.65 0 1.19.11 1.61.32s.75.51.99.9.4.85.49 1.4.13 1.16.13 1.84v.51h-4.46zm2.24-2.93c-.03-.26-.09-.47-.17-.65s-.2-.32-.34-.41c-.15-.09-.33-.14-.56-.14s-.42.05-.56.16c-.15.1-.26.24-.35.41s-.15.36-.19.56c-.04.21-.06.41-.06.62v.34h2.3c-.02-.33-.04-.63-.07-.89z" fill="#fff"/><path d="m70.95 74.61c.12-.58.32-1.06.59-1.45s.63-.68 1.07-.88.98-.3 1.63-.3c.67-.01 1.24.08 1.68.27.45.19.8.48 1.06.87s.45.88.56 1.45c.11.58.16 1.25.16 2.03 0 .75-.06 1.42-.18 1.99-.12.58-.32 1.06-.59 1.45s-.63.67-1.07.86-.98.28-1.63.28c-.68.01-1.24-.07-1.68-.25-.45-.18-.8-.46-1.06-.85s-.45-.87-.56-1.45-.16-1.25-.16-2.02c0-.76.06-1.43.18-2zm2.1 3.23c.02.38.07.71.16.98.08.27.2.48.37.64.16.15.38.23.65.23.46 0 .77-.24.95-.72.17-.48.26-1.27.26-2.37s-.09-1.89-.26-2.37-.49-.72-.95-.72c-.27 0-.49.08-.65.23s-.29.36-.37.64c-.08.27-.13.6-.16.98-.02.38-.03.79-.03 1.24s.01.86.03 1.24z" fill="#fff"/><path d="m80.24 72.21v1.03h.03c.24-.44.55-.75.93-.96.38-.2.82-.3 1.31-.3.72 0 1.27.2 1.66.59s.58 1.03.58 1.91v6.52h-2.25v-6.06c0-.46-.08-.78-.23-.96s-.4-.27-.74-.27c-.79 0-1.19.48-1.19 1.45v5.83h-2.25v-8.79h2.15z" fill="#fff"/><path d="m7.4 71.41c-.2-.39-.57-.58-1.1-.58-.29 0-.54.08-.73.24s-.34.41-.45.77c-.11.35-.19.82-.23 1.39s-.07 1.27-.07 2.1c0 .88.03 1.6.09 2.14s.15.97.28 1.27.28.5.47.6.41.16.66.16c.21 0 .4-.04.58-.11s.33-.21.47-.42.23-.51.31-.9.11-.9.11-1.53h2.35c0 .63-.05 1.23-.15 1.8s-.28 1.06-.55 1.49c-.27.42-.64.76-1.13 1-.48.24-1.11.36-1.89.36-.88 0-1.58-.14-2.11-.42-.52-.28-.92-.69-1.2-1.23-.28-.53-.46-1.17-.54-1.91s-.12-1.56-.12-2.45c0-.88.04-1.7.12-2.44.08-.75.26-1.39.54-1.92s.68-.95 1.2-1.25 1.23-.45 2.11-.45c.84 0 1.5.14 1.98.41s.85.62 1.09 1.04.39.87.45 1.36c.06.48.09.94.09 1.36h-2.32c0-.87-.1-1.49-.31-1.88z" fill="none" stroke="#000"/><path d="m10.5 74.61c.12-.58.32-1.06.59-1.45s.63-.68 1.07-.88.98-.3 1.63-.3c.67-.01 1.24.08 1.68.27.45.19.8.48 1.06.87s.45.88.56 1.45c.11.58.16 1.25.16 2.03 0 .75-.06 1.42-.18 1.99-.12.58-.32 1.06-.59 1.45s-.63.67-1.07.86-.98.28-1.63.28c-.68.01-1.24-.07-1.68-.25-.45-.18-.8-.46-1.06-.85s-.45-.87-.56-1.45-.16-1.25-.16-2.02c0-.76.06-1.43.18-2zm2.11 3.23c.02.38.07.71.16.98.08.27.2.48.37.64.16.15.38.23.65.23.46 0 .77-.24.95-.72.17-.48.26-1.27.26-2.37s-.09-1.89-.26-2.37-.49-.72-.95-.72c-.27 0-.49.08-.65.23s-.29.36-.37.64c-.08.27-.13.6-.16.98-.02.38-.03.79-.03 1.24-.01.45 0 .86.03 1.24z" fill="none" stroke="#000"/><path d="m19.79 72.21v1.03h.03c.24-.44.55-.75.93-.96.38-.2.82-.3 1.31-.3.72 0 1.27.2 1.66.59s.58 1.03.58 1.91v6.52h-2.25v-6.06c0-.46-.08-.78-.23-.96s-.4-.27-.74-.27c-.79 0-1.19.48-1.19 1.45v5.83h-2.25v-8.79h2.15z" fill="none" stroke="#000"/><path d="m24.33 73.74v-1.54h1.14v-1c0-.39.05-.72.16-1 .11-.27.26-.49.47-.65.2-.16.45-.28.74-.35s.62-.11.98-.11c.4 0 .81.02 1.21.05v1.6c-.05-.01-.13-.02-.23-.02h-.2c-.32 0-.54.05-.67.16s-.2.29-.2.54v.77h1.31v1.54h-1.31v7.25h-2.25v-7.25h-1.15z" fill="none" stroke="#000"/><path d="m30.93 77.64c0 .26.02.51.06.76s.1.46.19.65.2.34.34.46c.14.11.32.17.52.17.38 0 .66-.14.83-.41s.29-.69.36-1.24h2.03c-.04 1.02-.32 1.8-.82 2.34-.5.53-1.29.8-2.37.8-.82 0-1.45-.14-1.91-.41s-.79-.63-1.01-1.08-.35-.95-.4-1.5c-.05-.56-.07-1.11-.07-1.67 0-.59.04-1.15.12-1.7.08-.54.24-1.03.49-1.45.24-.42.6-.76 1.05-1.01.46-.25 1.07-.38 1.83-.38.65 0 1.19.11 1.61.32s.75.51.99.9.4.85.49 1.4.13 1.16.13 1.84v.51h-4.46zm2.24-2.93c-.03-.26-.09-.47-.17-.65s-.2-.32-.34-.41c-.15-.09-.33-.14-.56-.14s-.42.05-.56.16c-.15.1-.26.24-.35.41s-.15.36-.19.56c-.04.21-.06.41-.06.62v.34h2.3c-.02-.33-.04-.63-.07-.89z" fill="none" stroke="#000"/><path d="m37.91 72.21v1.18h.03c.23-.42.51-.76.83-1.02.33-.26.72-.38 1.19-.38.07 0 .13 0 .2.01s.14.01.2.02v2.16c-.12-.01-.24-.02-.35-.02-.11-.01-.23-.01-.35-.01-.2 0-.39.03-.59.08s-.38.14-.54.27-.29.29-.39.49-.14.43-.14.73v5.28h-2.25v-8.79z" fill="none" stroke="#000"/><path d="m42.3 77.64c0 .26.02.51.06.76s.1.46.19.65.2.34.34.46c.14.11.32.17.52.17.38 0 .66-.14.83-.41s.29-.69.36-1.24h2.03c-.04 1.02-.32 1.8-.82 2.34-.5.53-1.29.8-2.37.8-.82 0-1.45-.14-1.91-.41s-.79-.63-1.01-1.08-.35-.95-.4-1.5c-.05-.56-.07-1.11-.07-1.67 0-.59.04-1.15.12-1.7.08-.54.24-1.03.49-1.45.24-.42.6-.76 1.05-1.01s1.07-.38 1.83-.38c.65 0 1.19.11 1.61.32s.75.51.99.9.4.85.49 1.4.13 1.16.13 1.84v.51h-4.46zm2.24-2.93c-.03-.26-.09-.47-.17-.65s-.2-.32-.34-.41c-.15-.09-.33-.14-.56-.14s-.42.05-.56.16c-.15.1-.26.24-.35.41s-.15.36-.19.56c-.04.21-.06.41-.06.62v.34h2.3c-.02-.33-.04-.63-.07-.89z" fill="none" stroke="#000"/><path d="m49.27 72.21v1.03h.03c.24-.44.55-.75.93-.96.38-.2.82-.3 1.31-.3.72 0 1.27.2 1.66.59s.58 1.03.58 1.91v6.52h-2.25v-6.06c0-.46-.08-.78-.23-.96s-.4-.27-.74-.27c-.79 0-1.19.48-1.19 1.45v5.83h-2.25v-8.79h2.15z" fill="none" stroke="#000"/><path d="m58.66 74.74c-.03-.21-.08-.39-.15-.56s-.17-.3-.3-.41c-.13-.1-.3-.16-.52-.16-.27 0-.5.06-.67.19s-.3.31-.39.56c-.09.24-.15.56-.18.93-.03.38-.05.82-.05 1.33 0 .54.02 1.01.05 1.4s.09.71.18.96.21.43.37.55c.16.11.36.17.61.17.38 0 .66-.16.83-.49s.26-.85.26-1.57h2.16c0 1.15-.26 2.03-.78 2.64-.52.6-1.37.91-2.57.91-.57 0-1.06-.07-1.48-.2-.42-.14-.77-.38-1.05-.74-.28-.35-.49-.83-.63-1.42s-.21-1.33-.21-2.21c0-.9.09-1.65.26-2.25.17-.59.42-1.07.73-1.42.32-.35.69-.6 1.13-.74s.91-.21 1.44-.21c1.05 0 1.83.3 2.36.91s.79 1.44.79 2.48h-2.15c0-.23-.02-.45-.04-.65z" fill="none" stroke="#000"/><path d="m63.14 77.64c0 .26.02.51.06.76s.1.46.19.65.2.34.34.46c.14.11.32.17.52.17.38 0 .66-.14.83-.41s.29-.69.36-1.24h2.03c-.04 1.02-.32 1.8-.82 2.34-.5.53-1.29.8-2.37.8-.82 0-1.45-.14-1.91-.41s-.79-.63-1.01-1.08-.35-.95-.4-1.5c-.05-.56-.07-1.11-.07-1.67 0-.59.04-1.15.12-1.7.08-.54.24-1.03.49-1.45.24-.42.6-.76 1.05-1.01.46-.25 1.07-.38 1.83-.38.65 0 1.19.11 1.61.32s.75.51.99.9.4.85.49 1.4.13 1.16.13 1.84v.51h-4.46zm2.24-2.93c-.03-.26-.09-.47-.17-.65s-.2-.32-.34-.41c-.15-.09-.33-.14-.56-.14s-.42.05-.56.16c-.15.1-.26.24-.35.41s-.15.36-.19.56c-.04.21-.06.41-.06.62v.34h2.3c-.02-.33-.04-.63-.07-.89z" fill="none" stroke="#000"/><path d="m70.95 74.61c.12-.58.32-1.06.59-1.45s.63-.68 1.07-.88.98-.3 1.63-.3c.67-.01 1.24.08 1.68.27.45.19.8.48 1.06.87s.45.88.56 1.45c.11.58.16 1.25.16 2.03 0 .75-.06 1.42-.18 1.99-.12.58-.32 1.06-.59 1.45s-.63.67-1.07.86-.98.28-1.63.28c-.68.01-1.24-.07-1.68-.25-.45-.18-.8-.46-1.06-.85s-.45-.87-.56-1.45-.16-1.25-.16-2.02c0-.76.06-1.43.18-2zm2.1 3.23c.02.38.07.71.16.98.08.27.2.48.37.64.16.15.38.23.65.23.46 0 .77-.24.95-.72.17-.48.26-1.27.26-2.37s-.09-1.89-.26-2.37-.49-.72-.95-.72c-.27 0-.49.08-.65.23s-.29.36-.37.64c-.08.27-.13.6-.16.98-.02.38-.03.79-.03 1.24s.01.86.03 1.24z" fill="none" stroke="#000"/><path d="m80.24 72.21v1.03h.03c.24-.44.55-.75.93-.96.38-.2.82-.3 1.31-.3.72 0 1.27.2 1.66.59s.58 1.03.58 1.91v6.52h-2.25v-6.06c0-.46-.08-.78-.23-.96s-.4-.27-.74-.27c-.79 0-1.19.48-1.19 1.45v5.83h-2.25v-8.79h2.15z" fill="none" stroke="#000"/><path d="m107.94 69.33c.6 0 1.1.1 1.51.3s.74.47.99.79c.25.33.43.7.54 1.12s.16.85.16 1.28c0 .6-.09 1.12-.27 1.57s-.43.81-.75 1.09-.71.5-1.17.64-.96.21-1.52.21h-1.26v4.65h-2.35v-11.65zm-.72 5.28c.47 0 .85-.14 1.14-.42s.43-.72.43-1.32c0-.59-.13-1.03-.38-1.34-.25-.3-.67-.46-1.26-.46h-.98v3.54z"/><path d="m113.67 69.33v3.77h.03c.44-.75 1.15-1.13 2.14-1.13.72 0 1.27.2 1.66.59s.58 1.03.58 1.91v6.52h-2.25v-6.06c0-.46-.08-.78-.23-.96s-.4-.27-.74-.27c-.79 0-1.19.48-1.19 1.45v5.83h-2.25v-11.65z"/><path d="m121.1 69.2v1.93h-2.25v-1.93zm0 3.01v8.79h-2.25v-8.79z"/><path d="m124.21 69.33v11.66h-2.25v-11.66z"/><path d="m124.86 74.61c.12-.58.32-1.06.59-1.45s.63-.68 1.07-.88.98-.3 1.63-.3c.67-.01 1.24.08 1.68.27.45.19.8.48 1.06.87s.45.88.56 1.45c.11.58.16 1.25.16 2.03 0 .75-.06 1.42-.18 1.99-.12.58-.32 1.06-.59 1.45s-.63.67-1.07.86-.98.28-1.63.28c-.68.01-1.24-.07-1.68-.25-.45-.18-.8-.46-1.06-.85s-.45-.87-.56-1.45-.16-1.25-.16-2.02c0-.76.06-1.43.18-2zm2.11 3.23c.02.38.07.71.16.98.08.27.2.48.37.64.16.15.38.23.65.23.46 0 .77-.24.95-.72.17-.48.26-1.27.26-2.37s-.09-1.89-.26-2.37-.49-.72-.95-.72c-.27 0-.49.08-.65.23s-.29.36-.37.64c-.08.27-.13.6-.16.98-.02.38-.03.79-.03 1.24-.01.45.01.86.03 1.24z"/><path d="m133.65 78.41c0 .38.1.69.3.92s.49.35.87.35c.35 0 .63-.09.83-.26.21-.17.31-.44.31-.78 0-.28-.08-.5-.25-.65-.16-.15-.35-.26-.57-.35l-1.58-.57c-.62-.22-1.09-.53-1.4-.92-.32-.4-.47-.91-.47-1.53 0-.36.06-.7.18-1.02s.31-.6.57-.84.6-.43 1-.57c.41-.14.9-.21 1.48-.21 1.02 0 1.78.22 2.27.65.49.44.73 1.05.73 1.85v.36h-2.03c0-.46-.07-.79-.22-1s-.41-.32-.78-.32c-.28 0-.53.08-.74.24s-.32.39-.32.71c0 .22.07.41.2.59.14.17.39.32.78.44l1.36.46c.71.24 1.21.55 1.5.94s.44.91.44 1.58c0 .47-.08.87-.24 1.22-.16.34-.39.63-.68.86s-.63.39-1.03.49-.84.15-1.31.15c-.63 0-1.16-.06-1.58-.18s-.75-.3-1-.54-.42-.53-.51-.87c-.1-.34-.15-.73-.15-1.15v-.31h2.03v.26z"/><path d="m138.32 74.61c.12-.58.32-1.06.59-1.45s.63-.68 1.07-.88.98-.3 1.63-.3c.67-.01 1.24.08 1.68.27.45.19.8.48 1.06.87s.45.88.55 1.45c.11.58.16 1.25.16 2.03 0 .75-.06 1.42-.18 1.99-.12.58-.32 1.06-.59 1.45s-.63.67-1.07.86-.98.28-1.63.28c-.68.01-1.24-.07-1.68-.25-.45-.18-.8-.46-1.06-.85s-.45-.87-.56-1.45-.16-1.25-.16-2.02c.01-.76.07-1.43.19-2zm2.11 3.23c.02.38.07.71.16.98.08.27.2.48.37.64.16.15.38.23.65.23.46 0 .77-.24.95-.72.17-.48.26-1.27.26-2.37s-.09-1.89-.26-2.37-.49-.72-.95-.72c-.27 0-.49.08-.65.23s-.29.36-.37.64c-.08.27-.13.6-.16.98-.02.38-.03.79-.03 1.24-.01.45 0 .86.03 1.24z"/><path d="m147.61 72.21v.93h.03c.25-.41.53-.71.84-.89s.69-.27 1.15-.27c.93 0 1.61.36 2.04 1.09s.65 1.9.65 3.54c0 1.63-.22 2.8-.65 3.51-.44.71-1.12 1.06-2.04 1.06-.42 0-.79-.08-1.09-.24s-.57-.41-.81-.76h-.03v3.64h-2.25v-11.61zm.32 6.55c.15.48.47.73.97.73.49 0 .81-.24.96-.73.15-.48.22-1.21.22-2.16 0-.96-.07-1.68-.22-2.16s-.47-.73-.96-.73c-.5 0-.82.24-.97.73-.15.48-.22 1.21-.22 2.16 0 .96.07 1.68.22 2.16z"/><path d="m155.06 69.33v3.77h.03c.44-.75 1.15-1.13 2.14-1.13.72 0 1.27.2 1.66.59s.58 1.03.58 1.91v6.52h-2.25v-6.06c0-.46-.08-.78-.23-.96s-.4-.27-.74-.27c-.79 0-1.19.48-1.19 1.45v5.83h-2.25v-11.65z"/><path d="m160.74 82.19c.41 0 .71-.11.89-.33s.29-.51.32-.87l-2.47-8.79h2.35l1.31 6.08h.03l1.14-6.08h2.25l-2.12 8.2c-.2.73-.38 1.32-.56 1.77s-.39.8-.64 1.05c-.24.24-.54.41-.88.48-.34.08-.78.11-1.3.11h-.91v-1.68c.2.04.4.06.59.06z"/><path d="m169.58 74.61c.12-.58.32-1.06.59-1.45s.63-.68 1.07-.88.98-.3 1.63-.3c.67-.01 1.24.08 1.68.27.45.19.8.48 1.06.87s.45.88.55 1.45c.11.58.16 1.25.16 2.03 0 .75-.06 1.42-.18 1.99-.12.58-.32 1.06-.59 1.45s-.63.67-1.07.86-.98.28-1.63.28c-.68.01-1.24-.07-1.68-.25-.45-.18-.8-.46-1.06-.85s-.45-.87-.56-1.45-.16-1.25-.16-2.02c.01-.76.07-1.43.19-2zm2.11 3.23c.02.38.07.71.16.98.08.27.2.48.37.64.16.15.38.23.65.23.46 0 .77-.24.95-.72.17-.48.26-1.27.26-2.37s-.09-1.89-.26-2.37-.49-.72-.95-.72c-.27 0-.49.08-.65.23s-.29.36-.37.64c-.08.27-.13.6-.16.98-.02.38-.03.79-.03 1.24-.01.45 0 .86.03 1.24z"/><path d="m176.06 73.74v-1.54h1.14v-1c0-.39.05-.72.16-1 .11-.27.26-.49.47-.65.2-.16.45-.28.74-.35s.62-.11.98-.11c.4 0 .81.02 1.21.05v1.6c-.05-.01-.13-.02-.23-.02h-.21c-.32 0-.54.05-.67.16s-.2.29-.2.54v.77h1.31v1.54h-1.31v7.25h-2.25v-7.25h-1.14z"/><path d="m107.94 69.33c.6 0 1.1.1 1.51.3s.74.47.99.79c.25.33.43.7.54 1.12s.16.85.16 1.28c0 .6-.09 1.12-.27 1.57s-.43.81-.75 1.09-.71.5-1.17.64-.96.21-1.52.21h-1.26v4.65h-2.35v-11.65zm-.72 5.28c.47 0 .85-.14 1.14-.42s.43-.72.43-1.32c0-.59-.13-1.03-.38-1.34-.25-.3-.67-.46-1.26-.46h-.98v3.54z" fill="#fff"/><path d="m113.67 69.33v3.77h.03c.44-.75 1.15-1.13 2.14-1.13.72 0 1.27.2 1.66.59s.58 1.03.58 1.91v6.52h-2.25v-6.06c0-.46-.08-.78-.23-.96s-.4-.27-.74-.27c-.79 0-1.19.48-1.19 1.45v5.83h-2.25v-11.65z" fill="#fff"/><path d="m121.1 69.2v1.93h-2.25v-1.93zm0 3.01v8.79h-2.25v-8.79z" fill="#fff"/><path d="m124.21 69.33v11.66h-2.25v-11.66z" fill="#fff"/><path d="m124.86 74.61c.12-.58.32-1.06.59-1.45s.63-.68 1.07-.88.98-.3 1.63-.3c.67-.01 1.24.08 1.68.27.45.19.8.48 1.06.87s.45.88.56 1.45c.11.58.16 1.25.16 2.03 0 .75-.06 1.42-.18 1.99-.12.58-.32 1.06-.59 1.45s-.63.67-1.07.86-.98.28-1.63.28c-.68.01-1.24-.07-1.68-.25-.45-.18-.8-.46-1.06-.85s-.45-.87-.56-1.45-.16-1.25-.16-2.02c0-.76.06-1.43.18-2zm2.11 3.23c.02.38.07.71.16.98.08.27.2.48.37.64.16.15.38.23.65.23.46 0 .77-.24.95-.72.17-.48.26-1.27.26-2.37s-.09-1.89-.26-2.37-.49-.72-.95-.72c-.27 0-.49.08-.65.23s-.29.36-.37.64c-.08.27-.13.6-.16.98-.02.38-.03.79-.03 1.24-.01.45.01.86.03 1.24z" fill="#fff"/><path d="m133.65 78.41c0 .38.1.69.3.92s.49.35.87.35c.35 0 .63-.09.83-.26.21-.17.31-.44.31-.78 0-.28-.08-.5-.25-.65-.16-.15-.35-.26-.57-.35l-1.58-.57c-.62-.22-1.09-.53-1.4-.92-.32-.4-.47-.91-.47-1.53 0-.36.06-.7.18-1.02s.31-.6.57-.84.6-.43 1-.57c.41-.14.9-.21 1.48-.21 1.02 0 1.78.22 2.27.65.49.44.73 1.05.73 1.85v.36h-2.03c0-.46-.07-.79-.22-1s-.41-.32-.78-.32c-.28 0-.53.08-.74.24s-.32.39-.32.71c0 .22.07.41.2.59.14.17.39.32.78.44l1.36.46c.71.24 1.21.55 1.5.94s.44.91.44 1.58c0 .47-.08.87-.24 1.22-.16.34-.39.63-.68.86s-.63.39-1.03.49-.84.15-1.31.15c-.63 0-1.16-.06-1.58-.18s-.75-.3-1-.54-.42-.53-.51-.87c-.1-.34-.15-.73-.15-1.15v-.31h2.03v.26z" fill="#fff"/><path d="m138.32 74.61c.12-.58.32-1.06.59-1.45s.63-.68 1.07-.88.98-.3 1.63-.3c.67-.01 1.24.08 1.68.27.45.19.8.48 1.06.87s.45.88.55 1.45c.11.58.16 1.25.16 2.03 0 .75-.06 1.42-.18 1.99-.12.58-.32 1.06-.59 1.45s-.63.67-1.07.86-.98.28-1.63.28c-.68.01-1.24-.07-1.68-.25-.45-.18-.8-.46-1.06-.85s-.45-.87-.56-1.45-.16-1.25-.16-2.02c.01-.76.07-1.43.19-2zm2.11 3.23c.02.38.07.71.16.98.08.27.2.48.37.64.16.15.38.23.65.23.46 0 .77-.24.95-.72.17-.48.26-1.27.26-2.37s-.09-1.89-.26-2.37-.49-.72-.95-.72c-.27 0-.49.08-.65.23s-.29.36-.37.64c-.08.27-.13.6-.16.98-.02.38-.03.79-.03 1.24-.01.45 0 .86.03 1.24z" fill="#fff"/><path d="m147.61 72.21v.93h.03c.25-.41.53-.71.84-.89s.69-.27 1.15-.27c.93 0 1.61.36 2.04 1.09s.65 1.9.65 3.54c0 1.63-.22 2.8-.65 3.51-.44.71-1.12 1.06-2.04 1.06-.42 0-.79-.08-1.09-.24s-.57-.41-.81-.76h-.03v3.64h-2.25v-11.61zm.32 6.55c.15.48.47.73.97.73.49 0 .81-.24.96-.73.15-.48.22-1.21.22-2.16 0-.96-.07-1.68-.22-2.16s-.47-.73-.96-.73c-.5 0-.82.24-.97.73-.15.48-.22 1.21-.22 2.16 0 .96.07 1.68.22 2.16z" fill="#fff"/><path d="m155.06 69.33v3.77h.03c.44-.75 1.15-1.13 2.14-1.13.72 0 1.27.2 1.66.59s.58 1.03.58 1.91v6.52h-2.25v-6.06c0-.46-.08-.78-.23-.96s-.4-.27-.74-.27c-.79 0-1.19.48-1.19 1.45v5.83h-2.25v-11.65z" fill="#fff"/><path d="m160.74 82.19c.41 0 .71-.11.89-.33s.29-.51.32-.87l-2.47-8.79h2.35l1.31 6.08h.03l1.14-6.08h2.25l-2.12 8.2c-.2.73-.38 1.32-.56 1.77s-.39.8-.64 1.05c-.24.24-.54.41-.88.48-.34.08-.78.11-1.3.11h-.91v-1.68c.2.04.4.06.59.06z" fill="#fff"/><path d="m169.58 74.61c.12-.58.32-1.06.59-1.45s.63-.68 1.07-.88.98-.3 1.63-.3c.67-.01 1.24.08 1.68.27.45.19.8.48 1.06.87s.45.88.55 1.45c.11.58.16 1.25.16 2.03 0 .75-.06 1.42-.18 1.99-.12.58-.32 1.06-.59 1.45s-.63.67-1.07.86-.98.28-1.63.28c-.68.01-1.24-.07-1.68-.25-.45-.18-.8-.46-1.06-.85s-.45-.87-.56-1.45-.16-1.25-.16-2.02c.01-.76.07-1.43.19-2zm2.11 3.23c.02.38.07.71.16.98.08.27.2.48.37.64.16.15.38.23.65.23.46 0 .77-.24.95-.72.17-.48.26-1.27.26-2.37s-.09-1.89-.26-2.37-.49-.72-.95-.72c-.27 0-.49.08-.65.23s-.29.36-.37.64c-.08.27-.13.6-.16.98-.02.38-.03.79-.03 1.24-.01.45 0 .86.03 1.24z" fill="#fff"/><path d="m176.06 73.74v-1.54h1.14v-1c0-.39.05-.72.16-1 .11-.27.26-.49.47-.65.2-.16.45-.28.74-.35s.62-.11.98-.11c.4 0 .81.02 1.21.05v1.6c-.05-.01-.13-.02-.23-.02h-.21c-.32 0-.54.05-.67.16s-.2.29-.2.54v.77h1.31v1.54h-1.31v7.25h-2.25v-7.25h-1.14z" fill="#fff"/><path d="m107.94 69.33c.6 0 1.1.1 1.51.3s.74.47.99.79c.25.33.43.7.54 1.12s.16.85.16 1.28c0 .6-.09 1.12-.27 1.57s-.43.81-.75 1.09-.71.5-1.17.64-.96.21-1.52.21h-1.26v4.65h-2.35v-11.65zm-.72 5.28c.47 0 .85-.14 1.14-.42s.43-.72.43-1.32c0-.59-.13-1.03-.38-1.34-.25-.3-.67-.46-1.26-.46h-.98v3.54z" fill="none" stroke="#000"/><path d="m113.67 69.33v3.77h.03c.44-.75 1.15-1.13 2.14-1.13.72 0 1.27.2 1.66.59s.58 1.03.58 1.91v6.52h-2.25v-6.06c0-.46-.08-.78-.23-.96s-.4-.27-.74-.27c-.79 0-1.19.48-1.19 1.45v5.83h-2.25v-11.65z" fill="none" stroke="#000"/><path d="m121.1 69.2v1.93h-2.25v-1.93zm0 3.01v8.79h-2.25v-8.79z" fill="none" stroke="#000"/><path d="m124.21 69.33v11.66h-2.25v-11.66z" fill="none" stroke="#000"/><path d="m124.86 74.61c.12-.58.32-1.06.59-1.45s.63-.68 1.07-.88.98-.3 1.63-.3c.67-.01 1.24.08 1.68.27.45.19.8.48 1.06.87s.45.88.56 1.45c.11.58.16 1.25.16 2.03 0 .75-.06 1.42-.18 1.99-.12.58-.32 1.06-.59 1.45s-.63.67-1.07.86-.98.28-1.63.28c-.68.01-1.24-.07-1.68-.25-.45-.18-.8-.46-1.06-.85s-.45-.87-.56-1.45-.16-1.25-.16-2.02c0-.76.06-1.43.18-2zm2.11 3.23c.02.38.07.71.16.98.08.27.2.48.37.64.16.15.38.23.65.23.46 0 .77-.24.95-.72.17-.48.26-1.27.26-2.37s-.09-1.89-.26-2.37-.49-.72-.95-.72c-.27 0-.49.08-.65.23s-.29.36-.37.64c-.08.27-.13.6-.16.98-.02.38-.03.79-.03 1.24-.01.45.01.86.03 1.24z" fill="none" stroke="#000"/><path d="m133.65 78.41c0 .38.1.69.3.92s.49.35.87.35c.35 0 .63-.09.83-.26.21-.17.31-.44.31-.78 0-.28-.08-.5-.25-.65-.16-.15-.35-.26-.57-.35l-1.58-.57c-.62-.22-1.09-.53-1.4-.92-.32-.4-.47-.91-.47-1.53 0-.36.06-.7.18-1.02s.31-.6.57-.84.6-.43 1-.57c.41-.14.9-.21 1.48-.21 1.02 0 1.78.22 2.27.65.49.44.73 1.05.73 1.85v.36h-2.03c0-.46-.07-.79-.22-1s-.41-.32-.78-.32c-.28 0-.53.08-.74.24s-.32.39-.32.71c0 .22.07.41.2.59.14.17.39.32.78.44l1.36.46c.71.24 1.21.55 1.5.94s.44.91.44 1.58c0 .47-.08.87-.24 1.22-.16.34-.39.63-.68.86s-.63.39-1.03.49-.84.15-1.31.15c-.63 0-1.16-.06-1.58-.18s-.75-.3-1-.54-.42-.53-.51-.87c-.1-.34-.15-.73-.15-1.15v-.31h2.03v.26z" fill="none" stroke="#000"/><path d="m138.32 74.61c.12-.58.32-1.06.59-1.45s.63-.68 1.07-.88.98-.3 1.63-.3c.67-.01 1.24.08 1.68.27.45.19.8.48 1.06.87s.45.88.55 1.45c.11.58.16 1.25.16 2.03 0 .75-.06 1.42-.18 1.99-.12.58-.32 1.06-.59 1.45s-.63.67-1.07.86-.98.28-1.63.28c-.68.01-1.24-.07-1.68-.25-.45-.18-.8-.46-1.06-.85s-.45-.87-.56-1.45-.16-1.25-.16-2.02c.01-.76.07-1.43.19-2zm2.11 3.23c.02.38.07.71.16.98.08.27.2.48.37.64.16.15.38.23.65.23.46 0 .77-.24.95-.72.17-.48.26-1.27.26-2.37s-.09-1.89-.26-2.37-.49-.72-.95-.72c-.27 0-.49.08-.65.23s-.29.36-.37.64c-.08.27-.13.6-.16.98-.02.38-.03.79-.03 1.24-.01.45 0 .86.03 1.24z" fill="none" stroke="#000"/><path d="m147.61 72.21v.93h.03c.25-.41.53-.71.84-.89s.69-.27 1.15-.27c.93 0 1.61.36 2.04 1.09s.65 1.9.65 3.54c0 1.63-.22 2.8-.65 3.51-.44.71-1.12 1.06-2.04 1.06-.42 0-.79-.08-1.09-.24s-.57-.41-.81-.76h-.03v3.64h-2.25v-11.61zm.32 6.55c.15.48.47.73.97.73.49 0 .81-.24.96-.73.15-.48.22-1.21.22-2.16 0-.96-.07-1.68-.22-2.16s-.47-.73-.96-.73c-.5 0-.82.24-.97.73-.15.48-.22 1.21-.22 2.16 0 .96.07 1.68.22 2.16z" fill="none" stroke="#000"/><path d="m155.06 69.33v3.77h.03c.44-.75 1.15-1.13 2.14-1.13.72 0 1.27.2 1.66.59s.58 1.03.58 1.91v6.52h-2.25v-6.06c0-.46-.08-.78-.23-.96s-.4-.27-.74-.27c-.79 0-1.19.48-1.19 1.45v5.83h-2.25v-11.65z" fill="none" stroke="#000"/><path d="m160.74 82.19c.41 0 .71-.11.89-.33s.29-.51.32-.87l-2.47-8.79h2.35l1.31 6.08h.03l1.14-6.08h2.25l-2.12 8.2c-.2.73-.38 1.32-.56 1.77s-.39.8-.64 1.05c-.24.24-.54.41-.88.48-.34.08-.78.11-1.3.11h-.91v-1.68c.2.04.4.06.59.06z" fill="none" stroke="#000"/><path d="m169.58 74.61c.12-.58.32-1.06.59-1.45s.63-.68 1.07-.88.98-.3 1.63-.3c.67-.01 1.24.08 1.68.27.45.19.8.48 1.06.87s.45.88.55 1.45c.11.58.16 1.25.16 2.03 0 .75-.06 1.42-.18 1.99-.12.58-.32 1.06-.59 1.45s-.63.67-1.07.86-.98.28-1.63.28c-.68.01-1.24-.07-1.68-.25-.45-.18-.8-.46-1.06-.85s-.45-.87-.56-1.45-.16-1.25-.16-2.02c.01-.76.07-1.43.19-2zm2.11 3.23c.02.38.07.71.16.98.08.27.2.48.37.64.16.15.38.23.65.23.46 0 .77-.24.95-.72.17-.48.26-1.27.26-2.37s-.09-1.89-.26-2.37-.49-.72-.95-.72c-.27 0-.49.08-.65.23s-.29.36-.37.64c-.08.27-.13.6-.16.98-.02.38-.03.79-.03 1.24-.01.45 0 .86.03 1.24z" fill="none" stroke="#000"/><path d="m176.06 73.74v-1.54h1.14v-1c0-.39.05-.72.16-1 .11-.27.26-.49.47-.65.2-.16.45-.28.74-.35s.62-.11.98-.11c.4 0 .81.02 1.21.05v1.6c-.05-.01-.13-.02-.23-.02h-.21c-.32 0-.54.05-.67.16s-.2.29-.2.54v.77h1.31v1.54h-1.31v7.25h-2.25v-7.25h-1.14z" fill="none" stroke="#000"/><path d="m222.76 77.69c0 .27.02.52.07.74.04.22.13.41.24.56.12.15.28.27.48.36s.45.13.76.13c.36 0 .68-.12.97-.35s.43-.6.43-1.09c0-.26-.04-.49-.11-.68s-.19-.36-.35-.51-.38-.29-.65-.42-.6-.25-.99-.38c-.52-.17-.97-.36-1.36-.57-.38-.21-.7-.45-.96-.73s-.44-.6-.56-.96-.18-.79-.18-1.27c0-1.15.32-2.01.96-2.58s1.52-.85 2.65-.85c.52 0 1 .06 1.45.17.44.11.82.3 1.14.56s.57.58.75.98.27.87.27 1.43v.33h-2.25c0-.56-.1-.98-.29-1.28-.2-.3-.52-.45-.98-.45-.26 0-.48.04-.65.11-.17.08-.31.18-.42.3-.1.13-.17.27-.21.43s-.06.33-.06.51c0 .36.08.66.23.91.15.24.48.47.98.68l1.81.78c.45.2.81.4 1.09.61s.51.44.68.69c.17.24.29.51.35.81.07.29.1.62.1.98 0 1.23-.36 2.13-1.07 2.69s-1.71.84-2.98.84c-1.33 0-2.28-.29-2.85-.87s-.86-1.4-.86-2.48v-.47h2.35v.34z"/><path d="m232.65 74.74c-.03-.21-.08-.39-.15-.56s-.17-.3-.3-.41c-.13-.1-.3-.16-.52-.16-.27 0-.5.06-.67.19s-.3.31-.39.56c-.09.24-.15.56-.18.93-.03.38-.05.82-.05 1.33 0 .54.02 1.01.05 1.4s.09.71.18.96.21.43.37.55c.16.11.36.17.61.17.38 0 .66-.16.83-.49s.26-.85.26-1.57h2.16c0 1.15-.26 2.03-.78 2.64-.52.6-1.37.91-2.57.91-.57 0-1.06-.07-1.48-.2-.42-.14-.77-.38-1.05-.74-.28-.35-.49-.83-.63-1.42s-.21-1.33-.21-2.21c0-.9.09-1.65.26-2.25.17-.59.42-1.07.74-1.42s.69-.6 1.13-.74.91-.21 1.44-.21c1.05 0 1.83.3 2.36.91s.79 1.44.79 2.48h-2.16c0-.23-.01-.45-.04-.65z"/><path d="m237.54 69.2v1.93h-2.25v-1.93zm0 3.01v8.79h-2.25v-8.79z"/><path d="m240.24 77.64c0 .26.02.51.06.76s.1.46.19.65.2.34.34.46c.14.11.32.17.52.17.38 0 .66-.14.83-.41s.29-.69.36-1.24h2.03c-.04 1.02-.32 1.8-.82 2.34-.5.53-1.29.8-2.37.8-.82 0-1.45-.14-1.91-.41s-.8-.63-1.01-1.08c-.22-.45-.35-.95-.4-1.5-.05-.56-.07-1.11-.07-1.67 0-.59.04-1.15.12-1.7.08-.54.24-1.03.49-1.45.24-.42.6-.76 1.05-1.01.46-.25 1.07-.38 1.83-.38.65 0 1.19.11 1.61.32s.75.51.99.9.4.85.49 1.4.13 1.16.13 1.84v.51h-4.46zm2.24-2.93c-.03-.26-.09-.47-.17-.65s-.2-.32-.34-.41c-.15-.09-.33-.14-.56-.14s-.42.05-.56.16c-.15.1-.26.24-.35.41s-.15.36-.19.56c-.04.21-.06.41-.06.62v.34h2.3c-.02-.33-.04-.63-.07-.89z"/><path d="m247.21 72.21v1.03h.03c.24-.44.55-.75.93-.96.38-.2.82-.3 1.31-.3.72 0 1.27.2 1.66.59s.58 1.03.58 1.91v6.52h-2.25v-6.06c0-.46-.08-.78-.23-.96s-.4-.27-.74-.27c-.8 0-1.19.48-1.19 1.45v5.83h-2.25v-8.79h2.15z"/><path d="m256.6 74.74c-.03-.21-.08-.39-.15-.56s-.17-.3-.3-.41c-.13-.1-.3-.16-.52-.16-.27 0-.5.06-.67.19s-.3.31-.39.56c-.09.24-.15.56-.18.93-.03.38-.05.82-.05 1.33 0 .54.02 1.01.05 1.4s.09.71.18.96.21.43.37.55c.16.11.36.17.61.17.38 0 .66-.16.83-.49s.26-.85.26-1.57h2.16c0 1.15-.26 2.03-.78 2.64-.52.6-1.37.91-2.57.91-.57 0-1.06-.07-1.48-.2-.42-.14-.77-.38-1.05-.74-.28-.35-.49-.83-.63-1.42s-.21-1.33-.21-2.21c0-.9.09-1.65.26-2.25.17-.59.42-1.07.73-1.42.32-.35.69-.6 1.13-.74s.91-.21 1.44-.21c1.05 0 1.83.3 2.36.91s.79 1.44.79 2.48h-2.16c.01-.23-.01-.45-.03-.65z"/><path d="m261.08 77.64c0 .26.02.51.06.76s.1.46.19.65.2.34.34.46c.14.11.32.17.52.17.38 0 .66-.14.83-.41s.29-.69.36-1.24h2.03c-.04 1.02-.32 1.8-.82 2.34-.5.53-1.29.8-2.37.8-.82 0-1.45-.14-1.91-.41s-.79-.63-1.01-1.08-.35-.95-.4-1.5c-.05-.56-.07-1.11-.07-1.67 0-.59.04-1.15.12-1.7.08-.54.24-1.03.49-1.45.24-.42.6-.76 1.05-1.01s1.07-.38 1.83-.38c.65 0 1.19.11 1.61.32s.75.51.99.9.4.85.49 1.4.13 1.16.13 1.84v.51h-4.46zm2.24-2.93c-.03-.26-.09-.47-.17-.65s-.2-.32-.34-.41c-.15-.09-.33-.14-.56-.14s-.42.05-.56.16c-.15.1-.26.24-.35.41s-.15.36-.19.56c-.04.21-.06.41-.06.62v.34h2.3c-.02-.33-.04-.63-.07-.89z"/><path d="m222.76 77.69c0 .27.02.52.07.74.04.22.13.41.24.56.12.15.28.27.48.36s.45.13.76.13c.36 0 .68-.12.97-.35s.43-.6.43-1.09c0-.26-.04-.49-.11-.68s-.19-.36-.35-.51-.38-.29-.65-.42-.6-.25-.99-.38c-.52-.17-.97-.36-1.36-.57-.38-.21-.7-.45-.96-.73s-.44-.6-.56-.96-.18-.79-.18-1.27c0-1.15.32-2.01.96-2.58s1.52-.85 2.65-.85c.52 0 1 .06 1.45.17.44.11.82.3 1.14.56s.57.58.75.98.27.87.27 1.43v.33h-2.25c0-.56-.1-.98-.29-1.28-.2-.3-.52-.45-.98-.45-.26 0-.48.04-.65.11-.17.08-.31.18-.42.3-.1.13-.17.27-.21.43s-.06.33-.06.51c0 .36.08.66.23.91.15.24.48.47.98.68l1.81.78c.45.2.81.4 1.09.61s.51.44.68.69c.17.24.29.51.35.81.07.29.1.62.1.98 0 1.23-.36 2.13-1.07 2.69s-1.71.84-2.98.84c-1.33 0-2.28-.29-2.85-.87s-.86-1.4-.86-2.48v-.47h2.35v.34z" fill="#fff"/><path d="m232.65 74.74c-.03-.21-.08-.39-.15-.56s-.17-.3-.3-.41c-.13-.1-.3-.16-.52-.16-.27 0-.5.06-.67.19s-.3.31-.39.56c-.09.24-.15.56-.18.93-.03.38-.05.82-.05 1.33 0 .54.02 1.01.05 1.4s.09.71.18.96.21.43.37.55c.16.11.36.17.61.17.38 0 .66-.16.83-.49s.26-.85.26-1.57h2.16c0 1.15-.26 2.03-.78 2.64-.52.6-1.37.91-2.57.91-.57 0-1.06-.07-1.48-.2-.42-.14-.77-.38-1.05-.74-.28-.35-.49-.83-.63-1.42s-.21-1.33-.21-2.21c0-.9.09-1.65.26-2.25.17-.59.42-1.07.74-1.42s.69-.6 1.13-.74.91-.21 1.44-.21c1.05 0 1.83.3 2.36.91s.79 1.44.79 2.48h-2.16c0-.23-.01-.45-.04-.65z" fill="#fff"/><path d="m237.54 69.2v1.93h-2.25v-1.93zm0 3.01v8.79h-2.25v-8.79z" fill="#fff"/><path d="m240.24 77.64c0 .26.02.51.06.76s.1.46.19.65.2.34.34.46c.14.11.32.17.52.17.38 0 .66-.14.83-.41s.29-.69.36-1.24h2.03c-.04 1.02-.32 1.8-.82 2.34-.5.53-1.29.8-2.37.8-.82 0-1.45-.14-1.91-.41s-.8-.63-1.01-1.08c-.22-.45-.35-.95-.4-1.5-.05-.56-.07-1.11-.07-1.67 0-.59.04-1.15.12-1.7.08-.54.24-1.03.49-1.45.24-.42.6-.76 1.05-1.01.46-.25 1.07-.38 1.83-.38.65 0 1.19.11 1.61.32s.75.51.99.9.4.85.49 1.4.13 1.16.13 1.84v.51h-4.46zm2.24-2.93c-.03-.26-.09-.47-.17-.65s-.2-.32-.34-.41c-.15-.09-.33-.14-.56-.14s-.42.05-.56.16c-.15.1-.26.24-.35.41s-.15.36-.19.56c-.04.21-.06.41-.06.62v.34h2.3c-.02-.33-.04-.63-.07-.89z" fill="#fff"/><path d="m247.21 72.21v1.03h.03c.24-.44.55-.75.93-.96.38-.2.82-.3 1.31-.3.72 0 1.27.2 1.66.59s.58 1.03.58 1.91v6.52h-2.25v-6.06c0-.46-.08-.78-.23-.96s-.4-.27-.74-.27c-.8 0-1.19.48-1.19 1.45v5.83h-2.25v-8.79h2.15z" fill="#fff"/><path d="m256.6 74.74c-.03-.21-.08-.39-.15-.56s-.17-.3-.3-.41c-.13-.1-.3-.16-.52-.16-.27 0-.5.06-.67.19s-.3.31-.39.56c-.09.24-.15.56-.18.93-.03.38-.05.82-.05 1.33 0 .54.02 1.01.05 1.4s.09.71.18.96.21.43.37.55c.16.11.36.17.61.17.38 0 .66-.16.83-.49s.26-.85.26-1.57h2.16c0 1.15-.26 2.03-.78 2.64-.52.6-1.37.91-2.57.91-.57 0-1.06-.07-1.48-.2-.42-.14-.77-.38-1.05-.74-.28-.35-.49-.83-.63-1.42s-.21-1.33-.21-2.21c0-.9.09-1.65.26-2.25.17-.59.42-1.07.73-1.42.32-.35.69-.6 1.13-.74s.91-.21 1.44-.21c1.05 0 1.83.3 2.36.91s.79 1.44.79 2.48h-2.16c.01-.23-.01-.45-.03-.65z" fill="#fff"/><path d="m261.08 77.64c0 .26.02.51.06.76s.1.46.19.65.2.34.34.46c.14.11.32.17.52.17.38 0 .66-.14.83-.41s.29-.69.36-1.24h2.03c-.04 1.02-.32 1.8-.82 2.34-.5.53-1.29.8-2.37.8-.82 0-1.45-.14-1.91-.41s-.79-.63-1.01-1.08-.35-.95-.4-1.5c-.05-.56-.07-1.11-.07-1.67 0-.59.04-1.15.12-1.7.08-.54.24-1.03.49-1.45.24-.42.6-.76 1.05-1.01s1.07-.38 1.83-.38c.65 0 1.19.11 1.61.32s.75.51.99.9.4.85.49 1.4.13 1.16.13 1.84v.51h-4.46zm2.24-2.93c-.03-.26-.09-.47-.17-.65s-.2-.32-.34-.41c-.15-.09-.33-.14-.56-.14s-.42.05-.56.16c-.15.1-.26.24-.35.41s-.15.36-.19.56c-.04.21-.06.41-.06.62v.34h2.3c-.02-.33-.04-.63-.07-.89z" fill="#fff"/><path d="m222.76 77.69c0 .27.02.52.07.74.04.22.13.41.24.56.12.15.28.27.48.36s.45.13.76.13c.36 0 .68-.12.97-.35s.43-.6.43-1.09c0-.26-.04-.49-.11-.68s-.19-.36-.35-.51-.38-.29-.65-.42-.6-.25-.99-.38c-.52-.17-.97-.36-1.36-.57-.38-.21-.7-.45-.96-.73s-.44-.6-.56-.96-.18-.79-.18-1.27c0-1.15.32-2.01.96-2.58s1.52-.85 2.65-.85c.52 0 1 .06 1.45.17.44.11.82.3 1.14.56s.57.58.75.98.27.87.27 1.43v.33h-2.25c0-.56-.1-.98-.29-1.28-.2-.3-.52-.45-.98-.45-.26 0-.48.04-.65.11-.17.08-.31.18-.42.3-.1.13-.17.27-.21.43s-.06.33-.06.51c0 .36.08.66.23.91.15.24.48.47.98.68l1.81.78c.45.2.81.4 1.09.61s.51.44.68.69c.17.24.29.51.35.81.07.29.1.62.1.98 0 1.23-.36 2.13-1.07 2.69s-1.71.84-2.98.84c-1.33 0-2.28-.29-2.85-.87s-.86-1.4-.86-2.48v-.47h2.35v.34z" fill="none" stroke="#000"/><path d="m232.65 74.74c-.03-.21-.08-.39-.15-.56s-.17-.3-.3-.41c-.13-.1-.3-.16-.52-.16-.27 0-.5.06-.67.19s-.3.31-.39.56c-.09.24-.15.56-.18.93-.03.38-.05.82-.05 1.33 0 .54.02 1.01.05 1.4s.09.71.18.96.21.43.37.55c.16.11.36.17.61.17.38 0 .66-.16.83-.49s.26-.85.26-1.57h2.16c0 1.15-.26 2.03-.78 2.64-.52.6-1.37.91-2.57.91-.57 0-1.06-.07-1.48-.2-.42-.14-.77-.38-1.05-.74-.28-.35-.49-.83-.63-1.42s-.21-1.33-.21-2.21c0-.9.09-1.65.26-2.25.17-.59.42-1.07.74-1.42s.69-.6 1.13-.74.91-.21 1.44-.21c1.05 0 1.83.3 2.36.91s.79 1.44.79 2.48h-2.16c0-.23-.01-.45-.04-.65z" fill="none" stroke="#000"/><path d="m237.54 69.2v1.93h-2.25v-1.93zm0 3.01v8.79h-2.25v-8.79z" fill="none" stroke="#000"/><path d="m240.24 77.64c0 .26.02.51.06.76s.1.46.19.65.2.34.34.46c.14.11.32.17.52.17.38 0 .66-.14.83-.41s.29-.69.36-1.24h2.03c-.04 1.02-.32 1.8-.82 2.34-.5.53-1.29.8-2.37.8-.82 0-1.45-.14-1.91-.41s-.8-.63-1.01-1.08c-.22-.45-.35-.95-.4-1.5-.05-.56-.07-1.11-.07-1.67 0-.59.04-1.15.12-1.7.08-.54.24-1.03.49-1.45.24-.42.6-.76 1.05-1.01.46-.25 1.07-.38 1.83-.38.65 0 1.19.11 1.61.32s.75.51.99.9.4.85.49 1.4.13 1.16.13 1.84v.51h-4.46zm2.24-2.93c-.03-.26-.09-.47-.17-.65s-.2-.32-.34-.41c-.15-.09-.33-.14-.56-.14s-.42.05-.56.16c-.15.1-.26.24-.35.41s-.15.36-.19.56c-.04.21-.06.41-.06.62v.34h2.3c-.02-.33-.04-.63-.07-.89z" fill="none" stroke="#000"/><path d="m247.21 72.21v1.03h.03c.24-.44.55-.75.93-.96.38-.2.82-.3 1.31-.3.72 0 1.27.2 1.66.59s.58 1.03.58 1.91v6.52h-2.25v-6.06c0-.46-.08-.78-.23-.96s-.4-.27-.74-.27c-.8 0-1.19.48-1.19 1.45v5.83h-2.25v-8.79h2.15z" fill="none" stroke="#000"/><path d="m256.6 74.74c-.03-.21-.08-.39-.15-.56s-.17-.3-.3-.41c-.13-.1-.3-.16-.52-.16-.27 0-.5.06-.67.19s-.3.31-.39.56c-.09.24-.15.56-.18.93-.03.38-.05.82-.05 1.33 0 .54.02 1.01.05 1.4s.09.71.18.96.21.43.37.55c.16.11.36.17.61.17.38 0 .66-.16.83-.49s.26-.85.26-1.57h2.16c0 1.15-.26 2.03-.78 2.64-.52.6-1.37.91-2.57.91-.57 0-1.06-.07-1.48-.2-.42-.14-.77-.38-1.05-.74-.28-.35-.49-.83-.63-1.42s-.21-1.33-.21-2.21c0-.9.09-1.65.26-2.25.17-.59.42-1.07.73-1.42.32-.35.69-.6 1.13-.74s.91-.21 1.44-.21c1.05 0 1.83.3 2.36.91s.79 1.44.79 2.48h-2.16c.01-.23-.01-.45-.03-.65z" fill="none" stroke="#000"/><path d="m261.08 77.64c0 .26.02.51.06.76s.1.46.19.65.2.34.34.46c.14.11.32.17.52.17.38 0 .66-.14.83-.41s.29-.69.36-1.24h2.03c-.04 1.02-.32 1.8-.82 2.34-.5.53-1.29.8-2.37.8-.82 0-1.45-.14-1.91-.41s-.79-.63-1.01-1.08-.35-.95-.4-1.5c-.05-.56-.07-1.11-.07-1.67 0-.59.04-1.15.12-1.7.08-.54.24-1.03.49-1.45.24-.42.6-.76 1.05-1.01s1.07-.38 1.83-.38c.65 0 1.19.11 1.61.32s.75.51.99.9.4.85.49 1.4.13 1.16.13 1.84v.51h-4.46zm2.24-2.93c-.03-.26-.09-.47-.17-.65s-.2-.32-.34-.41c-.15-.09-.33-.14-.56-.14s-.42.05-.56.16c-.15.1-.26.24-.35.41s-.15.36-.19.56c-.04.21-.06.41-.06.62v.34h2.3c-.02-.33-.04-.63-.07-.89z" fill="none" stroke="#000"/></svg>