<svg enable-background="new 0 0 282.7 141.7" viewBox="0 0 282.7 141.7" xmlns="http://www.w3.org/2000/svg"><path d="m0 0h283.5v141.7h-283.5z" fill="#040000"/><path d="m1 1.4h280.6v138.9h-280.6z" fill="#fff"/><g fill="#efeb51"><path d="m94.7 112.1-26.2-2.6-17 20.1-5.6-25.7-24.5-10 22.8-13.3 1.9-26.3 19.7 17.5 25.6-6.3-10.6 24.2z"/><path d="m101 61.7 75-57.2"/><path d="m100.9 61.6 18.4-14.8 18.5-14.7c6.2-4.9 12.2-9.9 18.6-14.5s12.8-9.1 19.6-13.2l.2.2c-5.7 5.4-11.8 10.4-17.9 15.4-6.1 4.9-12.6 9.4-18.9 14.1l-19 13.9-19.1 13.8z"/><path d="m106.8 75.5 129.2-71.9"/><path d="m106.7 75.4 32-18.5 32.1-18.4c10.7-6.1 21.3-12.4 32.1-18.2 10.9-5.8 21.8-11.5 32.9-16.8l.1.3c-10.4 6.7-21 13-31.6 19.1-10.7 6.2-21.6 11.8-32.4 17.7l-32.5 17.6-32.6 17.4z"/><path d="m113.6 87.7 163.7-74.6"/><path d="m113.6 87.6 40.7-19.2 40.7-19.1c13.6-6.4 27.1-12.9 40.8-18.9 6.9-3 13.7-6 20.7-8.9l10.4-4.3c3.5-1.4 6.9-2.8 10.5-4.2l.1.3c-3.3 1.8-6.7 3.4-10 5.2l-10.1 5c-6.7 3.3-13.5 6.5-20.3 9.7-13.6 6.4-27.3 12.3-41 18.4l-41.1 18.3-41.2 18.1z"/></g></svg>