<svg enable-background="new 0 0 282.68 141.73" viewBox="0 0 282.68 141.73" xmlns="http://www.w3.org/2000/svg"><path d="m0 0h283.46v141.73h-283.46z" fill="#00512c"/><g fill="#fff"><path d="m91.09 47.58.03-.71v-.14c0-.16-.01-.4-.03-.73l.2-.13c.2.14.39.24.56.3s.36.09.57.09c.38 0 .67-.07.87-.22s.35-.38.44-.69.14-1.13.14-2.46v-8.91c0-.93-.01-1.84-.04-2.73-.01-.65-.06-1.03-.14-1.15s-.21-.21-.39-.27-.69-.09-1.52-.11v-.66c1.11.04 2.15.06 3.12.06 1.02 0 2.07-.02 3.13-.06v.66c-.83.01-1.33.05-1.52.11-.18.06-.31.14-.37.24-.09.14-.15.47-.17.99 0 .14-.01 1.11-.04 2.91v7.36c0 1.12-.1 2.01-.29 2.66-.2.65-.53 1.27-.99 1.85-.47.58-.97 1.03-1.52 1.33s-1.08.45-1.59.45c-.15.01-.3-.01-.45-.04z"/><path d="m98.88 38.61c0-.76.12-1.45.35-2.1s.62-1.22 1.16-1.73 1.15-.9 1.83-1.16 1.46-.39 2.34-.39c.81 0 1.55.11 2.21.33s1.21.52 1.63.88c.42.37.76.77 1.01 1.2.19.33.33.71.45 1.15.11.44.17.91.17 1.41 0 1.61-.56 2.95-1.67 4.03-1.11 1.07-2.52 1.61-4.21 1.61-.77 0-1.49-.12-2.16-.37-.67-.24-1.23-.61-1.69-1.09s-.81-1.06-1.05-1.75-.37-1.35-.37-2.02zm1.53-.6c0 .45.05.92.14 1.39s.21.87.35 1.21c.24.57.54 1.06.92 1.45s.81.68 1.27.86c.47.18.99.28 1.56.28.79 0 1.48-.19 2.06-.56.58-.38 1.02-.9 1.31-1.59.29-.68.43-1.47.43-2.36 0-.76-.1-1.46-.31-2.1-.13-.39-.3-.75-.51-1.07s-.46-.6-.76-.83c-.29-.24-.67-.44-1.14-.6s-.97-.24-1.51-.24c-.78 0-1.47.17-2.06.51s-1.03.83-1.33 1.48-.42 1.36-.42 2.17z"/><path d="m110.6 33.9v-.46c.8.04 1.54.06 2.23.06.7 0 1.39-.02 2.08-.06v.46c-.58.01-.93.03-1.06.08-.13.04-.21.1-.26.17-.06.1-.1.33-.12.7 0 .1-.01.77-.03 2.04v2.66c0 1.03.07 1.71.2 2.03.13.33.35.6.64.81.23.16.53.29.91.39s.81.15 1.28.15c.55 0 1.04-.07 1.47-.2s.75-.29.96-.48.37-.4.48-.64.18-.56.23-.97.07-.93.07-1.55v-2.21c0-.65-.01-1.29-.03-1.91-.01-.45-.04-.72-.1-.81-.06-.08-.15-.15-.28-.19s-.48-.07-1.06-.08v-.46c.81.04 1.4.06 1.78.06.34 0 .95-.02 1.83-.06v.46c-.58.01-.94.03-1.06.08-.13.04-.21.1-.26.17-.06.1-.1.33-.11.7 0 .1-.01.77-.03 2.04v2.4c0 1.18-.08 2.01-.25 2.48s-.48.88-.93 1.24c-.34.27-.77.48-1.31.62-.53.15-1.12.22-1.77.22-.76 0-1.41-.09-1.97-.26s-.98-.4-1.27-.69c-.29-.28-.49-.58-.6-.87-.14-.39-.21-1.05-.21-1.97v-3.17c0-.65-.01-1.29-.02-1.91-.01-.45-.05-.72-.11-.81-.06-.08-.15-.15-.27-.19-.11-.04-.46-.06-1.05-.07z"/><path d="m122.45 33.9v-.46c.19 0 .48.01.88.02l1.41.04c.28 0 .71-.01 1.3-.03.77-.03 1.21-.04 1.33-.04.94 0 1.62.08 2.05.24s.76.43 1 .79.35.76.35 1.2c0 .4-.11.8-.33 1.2s-.54.73-.96.99-.97.47-1.64.61c.12.17.41.54.87 1.12l1.86 2.38c.53.67.84 1.04.93 1.11.04.03.09.06.13.07.07.02.24.04.49.04v.46c-.37-.03-.7-.04-.98-.04-.29 0-.65.01-1.07.04-.32-.36-.85-1.06-1.61-2.1-.42-.58-.79-1.06-1.11-1.45-.52-.64-1.01-1.22-1.47-1.74l.07-.22c.26.01.45.02.58.02.89 0 1.57-.21 2.03-.62s.69-.95.69-1.63c0-.59-.2-1.06-.6-1.4-.4-.35-1-.52-1.81-.52-.51 0-1 .07-1.49.22-.02.26-.03.5-.04.72-.01.07-.02.76-.05 2.09v3.19c0 .65.01 1.28.03 1.9.01.45.04.73.1.81.06.09.15.15.28.19s.48.07 1.06.08v.46c-.7-.04-1.34-.06-1.92-.06-.47 0-1.26.02-2.38.06v-.46c.58-.01.93-.03 1.06-.08s.22-.1.27-.17c.06-.1.1-.33.11-.7 0-.1.01-.78.03-2.04v-3.32c0-.65-.01-1.29-.02-1.91-.01-.45-.05-.72-.11-.81-.06-.08-.15-.15-.27-.19-.11-.03-.47-.05-1.05-.06z"/><path d="m132.62 43.64v-.45c.52 0 .85-.04 1.02-.11.07-.03.12-.07.15-.14.05-.1.08-.35.1-.75.03-.63.04-1.18.04-1.64v-5.85c0-.16-.01-.26-.03-.31-.04-.09-.13-.19-.27-.31-.09-.08-.19-.13-.31-.15s-.37-.03-.77-.04v-.45c.82.02 1.34.03 1.55.03.36 0 .71-.01 1.07-.03.42.53.72.92.92 1.18l1.53 1.83 2.23 2.61c.71.83 1.28 1.49 1.72 1.97.27.32.51.56.69.75v-5.25c0-.47-.02-1.02-.05-1.65-.02-.4-.05-.64-.1-.74-.03-.06-.09-.11-.15-.14-.16-.07-.5-.1-1.01-.11v-.45c.58.02 1.17.03 1.76.03.56 0 1.07-.01 1.53-.03v.45c-.51 0-.85.04-1.01.11-.07.03-.12.08-.15.14-.05.09-.08.34-.1.75-.03.63-.04 1.17-.04 1.63v3.45c0 .7.01 2 .04 3.91l-.76-.21-.18-.04c-.03-.01-.06-.02-.08-.04-.03-.02-.13-.12-.28-.29-.41-.45-.71-.79-.9-1.02l-.95-1.17-5.22-6.08v5.51c0 .47.02 1.02.05 1.66.02.4.05.64.1.73.03.07.09.12.15.14.16.07.5.1 1.01.11v.45c-.43-.03-.91-.05-1.43-.05-.58.01-1.2.03-1.87.06z"/><path d="m145 43.64v-.49c.39 0 .63-.02.73-.05s.18-.08.27-.15.2-.27.35-.58c.09-.18.41-.85.96-2.02l1.84-4.05c.2-.44.63-1.44 1.29-2.97h.48l3.15 7.2c.51 1.17.85 1.9 1.02 2.2.09.17.2.28.31.33s.36.08.75.09v.49c-.77-.05-1.3-.07-1.61-.07l-2.37.07v-.49c.55-.01.88-.03 1-.05s.2-.06.24-.1c.04-.05.06-.1.06-.17 0-.11-.03-.24-.1-.41l-.91-2.2h-4.27l-.8 1.84c-.14.33-.21.57-.21.72 0 .07.02.12.06.17.05.06.14.1.25.13.18.04.5.06.96.06v.49c-.83-.04-1.45-.06-1.86-.06-.51 0-1.03.03-1.59.07zm3.42-4.03h3.72l-1.84-4.33z"/><path d="m157.41 43.64v-.37c.3-.14.5-.25.58-.33.05-.04.08-.1.1-.17.04-.13.07-.42.09-.86.02-.66.03-1.05.03-1.17v-3.86c0-.65-.01-1.29-.02-1.91-.01-.45-.05-.72-.11-.81-.06-.08-.15-.15-.27-.19-.13-.04-.48-.07-1.06-.08v-.46c1.2.04 1.94.06 2.23.06.31 0 1.02-.02 2.11-.06v.46c-.58.01-.94.03-1.06.08-.13.04-.21.1-.26.17-.06.1-.1.33-.11.7 0 .1-.01.77-.03 2.04v4.82c0 .5.01.91.03 1.23.56.03 1.12.05 1.67.05 1.39 0 2.36-.09 2.91-.26.06-.14.12-.31.17-.5l.29-1.19h.49c-.11.71-.21 1.55-.32 2.51-.2.04-.36.06-.48.07-.26.01-.65.02-1.18.02l-4.36-.06c-.47.01-.95.03-1.44.07z"/><path d="m171.44 38.61c0-.76.12-1.45.35-2.1s.62-1.22 1.16-1.73 1.15-.9 1.83-1.16 1.46-.39 2.34-.39c.81 0 1.55.11 2.21.33s1.21.52 1.63.88c.42.37.76.77 1.01 1.2.19.33.33.71.45 1.15.11.44.17.91.17 1.41 0 1.61-.56 2.95-1.67 4.03-1.11 1.07-2.52 1.61-4.21 1.61-.77 0-1.49-.12-2.16-.37-.67-.24-1.23-.61-1.69-1.09s-.81-1.06-1.05-1.75-.37-1.35-.37-2.02zm1.54-.6c0 .45.05.92.14 1.39s.21.87.35 1.21c.24.57.54 1.06.92 1.45s.81.68 1.27.86c.47.18.99.28 1.56.28.79 0 1.48-.19 2.06-.56.58-.38 1.02-.9 1.31-1.59.29-.68.43-1.47.43-2.36 0-.76-.1-1.46-.31-2.1-.13-.39-.3-.75-.51-1.07s-.46-.6-.76-.83c-.29-.24-.67-.44-1.14-.6s-.97-.24-1.51-.24c-.78 0-1.47.17-2.06.51s-1.03.83-1.33 1.48-.42 1.36-.42 2.17z"/><path d="m183.27 33.9v-.46c.75.03 1.38.04 1.9.04.37 0 1.03-.01 1.98-.03s1.6-.03 1.93-.03c.36 0 .69 0 .98.01.3.01.57.02.81.04-.12.41-.2 1.13-.24 2.17h-.46c-.04-.58-.11-1.02-.18-1.33-.26-.09-.57-.15-.95-.19s-.81-.06-1.31-.06-1.01.03-1.54.09c-.03.26-.05.5-.06.72 0 .13-.02.68-.04 1.64v1.59c.55.01 1.04.02 1.46.02.62 0 1.12-.03 1.5-.09.14-.02.23-.06.28-.12.04-.05.09-.26.14-.61l.06-.44h.46l-.05 1.64.05 1.76h-.46l-.05-.46c-.05-.52-.09-.8-.12-.84-.04-.07-.13-.12-.28-.15-.28-.06-.91-.09-1.9-.09-.35 0-.71.01-1.08.03v1.45c0 .65.01 1.28.03 1.9.01.45.04.73.1.81.06.09.15.15.28.19s.48.07 1.06.08v.46c-.62-.04-1.25-.06-1.86-.06-.56 0-1.37.02-2.43.06v-.46c.58-.01.93-.03 1.06-.08.13-.04.22-.1.27-.17.06-.1.1-.33.11-.7 0-.1.01-.78.03-2.04v-3.32c0-.65-.01-1.29-.02-1.91-.01-.45-.05-.72-.11-.81-.06-.08-.15-.15-.27-.19-.14-.03-.5-.05-1.08-.06z"/><path d="m32.64 73.14c.11-.66.18-1.72.2-3.19h.72c.03 1 .09 1.59.17 1.77s.28.37.58.58c.31.21.72.39 1.24.55s1.02.24 1.5.24c.71 0 1.36-.16 1.96-.48s1.03-.73 1.31-1.25c.27-.52.41-1.07.41-1.66 0-.45-.07-.84-.21-1.17s-.35-.59-.63-.79-.63-.34-1.04-.43c-.26-.04-.78-.11-1.56-.21s-1.44-.2-1.99-.32c-.73-.22-1.27-.48-1.61-.77s-.62-.68-.84-1.16c-.21-.48-.32-.99-.32-1.55 0-.81.22-1.57.65-2.28s1.07-1.27 1.92-1.67 1.76-.59 2.75-.59c.6 0 1.25.08 1.95.23.71.16 1.36.38 1.97.68-.1.43-.17.83-.21 1.2s-.07.92-.09 1.65h-.72c-.02-1.05-.05-1.63-.09-1.72-.18-.25-.41-.47-.72-.67-.72-.4-1.48-.59-2.26-.59-1.02 0-1.83.3-2.44.91-.61.6-.91 1.39-.91 2.35 0 .58.11 1.03.33 1.35s.61.57 1.17.76c.39.13 1.02.25 1.89.36.88.11 1.67.23 2.37.36.66.19 1.15.42 1.46.68.32.26.58.61.78 1.03s.31.93.31 1.5c0 1.36-.58 2.54-1.74 3.56-1.16 1.01-2.66 1.52-4.49 1.52-1.38.02-2.64-.25-3.77-.78z"/><path d="m53.55 72.37-.29.67c-.57.28-1.14.49-1.69.61-.55.13-1.15.19-1.8.19-.76 0-1.47-.09-2.12-.28s-1.22-.45-1.71-.8-.89-.74-1.2-1.17-.55-.9-.71-1.4-.24-1.06-.24-1.66c0-1.53.55-2.79 1.64-3.79s2.58-1.5 4.48-1.5c.45 0 .86.02 1.24.08s.84.15 1.39.29.88.22 1.01.25c-.11.26-.19.52-.24.78-.08.41-.13.88-.16 1.41h-.46l-.01-.85c-.05-.47-.32-.82-.8-1.05s-1.19-.34-2.13-.34c-.7.01-1.29.1-1.78.26s-.92.43-1.29.78c-.37.36-.67.81-.91 1.36s-.36 1.24-.36 2.06c0 1.45.45 2.62 1.36 3.5s2.11 1.32 3.6 1.32c.67 0 1.3-.09 1.87-.27.39-.12.78-.32 1.17-.59z"/><path d="m58.65 73.18v.46c-1.05-.04-1.73-.06-2.06-.06l-2.28.06v-.46c.58-.01.93-.03 1.06-.08.13-.04.22-.1.27-.17.06-.1.1-.33.11-.7 0-.1.01-.78.03-2.04v-3.32c0-.65-.01-1.29-.02-1.91-.01-.45-.05-.72-.11-.81-.06-.08-.15-.15-.27-.19-.13-.04-.48-.07-1.06-.08v-.46c.94.03 1.66.05 2.17.05.49 0 1.21-.02 2.17-.05v.46c-.58.01-.94.03-1.06.08-.13.04-.21.1-.26.17-.06.1-.1.33-.11.7 0 .1-.01.77-.03 2.04v3.32c0 .65.01 1.28.02 1.9.01.45.05.73.11.81.06.09.15.15.27.19.11.05.47.08 1.05.09z"/><path d="m59.57 73.64v-.45c.52 0 .85-.04 1.02-.11.07-.03.12-.07.15-.14.05-.1.08-.35.1-.75.03-.63.04-1.18.04-1.64v-3.67c0-.65-.01-1.29-.02-1.91-.01-.45-.05-.72-.11-.81-.06-.08-.15-.15-.27-.19s-.48-.07-1.06-.08v-.46l2.1.04 2.23-.04c1.07-.01 1.84-.02 2.32-.02.49 0 .95.03 1.38.08-.08.27-.13.51-.16.71-.01.04-.05.54-.13 1.49h-.46c0-.49-.03-.93-.1-1.33-.27-.11-.57-.18-.89-.22-.55-.07-1.1-.1-1.65-.1-.12 0-.38.01-.79.03s-.7.04-.88.05c-.02.53-.03 1.03-.04 1.49l-.03 2.43c.57.03 1.1.04 1.58.04.58 0 1.08-.03 1.5-.08.16-.02.26-.06.3-.11.04-.06.08-.25.12-.59l.04-.5h.44v.14l-.04 1.49.04 1.67h-.52l-.02-.49c-.01-.35-.04-.57-.1-.66s-.16-.15-.32-.18c-.28-.06-.82-.09-1.63-.09-.33 0-.8.01-1.4.04-.02.48-.04 1.19-.04 2.13 0 .89.01 1.56.04 2.02.71.05 1.5.08 2.38.08.62 0 1.07-.02 1.33-.06.27-.04.51-.1.74-.19.06-.15.12-.35.18-.6.11-.43.18-.75.21-.96h.49c-.13.97-.19 1.77-.19 2.4-.42.06-.94.09-1.54.09l-4.4-.06c-.07.01-.71.03-1.94.07z"/><path d="m68.69 73.64v-.45c.52 0 .85-.04 1.02-.11.07-.03.12-.07.15-.14.05-.1.08-.35.1-.75.03-.64.04-1.19.04-1.65v-5.84c0-.16-.01-.26-.03-.31-.04-.09-.13-.19-.27-.31-.09-.08-.19-.13-.31-.15s-.37-.03-.77-.04v-.45c.82.02 1.34.03 1.55.03.36 0 .71-.01 1.07-.03.42.53.72.92.92 1.18l1.53 1.83 2.23 2.61c.71.83 1.28 1.49 1.72 1.97.27.32.51.56.69.75v-5.25c0-.47-.02-1.02-.05-1.65-.02-.4-.05-.64-.1-.74-.03-.06-.09-.11-.15-.14-.16-.07-.5-.1-1.01-.11v-.45c.58.02 1.17.03 1.76.03.56 0 1.07-.01 1.53-.03v.45c-.51 0-.85.04-1.01.11-.07.03-.12.08-.15.14-.05.09-.08.34-.1.75-.04.64-.05 1.18-.05 1.64v3.45c0 .7.01 2 .04 3.91l-.76-.21-.18-.04c-.03-.01-.06-.02-.08-.04-.03-.02-.13-.12-.28-.29-.41-.45-.71-.79-.9-1.02l-.95-1.17-5.22-6.08v5.51c0 .47.02 1.02.05 1.66.02.4.05.64.1.73.03.07.09.12.15.14.16.07.5.1 1.01.11v.45c-.43-.03-.91-.05-1.43-.05-.57 0-1.19.02-1.86.05z"/><path d="m91.09 72.37-.29.67c-.57.28-1.14.49-1.69.61-.55.13-1.15.19-1.8.19-.76 0-1.47-.09-2.12-.28s-1.22-.45-1.71-.8-.89-.74-1.2-1.17-.55-.9-.71-1.4-.24-1.06-.24-1.66c0-1.53.55-2.79 1.64-3.79s2.58-1.5 4.48-1.5c.45 0 .86.02 1.24.08s.84.15 1.39.29.88.22 1.01.25c-.11.26-.19.52-.24.78-.08.41-.13.88-.16 1.41h-.46l-.01-.85c-.05-.47-.32-.82-.8-1.05s-1.19-.34-2.13-.34c-.7.01-1.29.1-1.78.26s-.92.43-1.29.78c-.37.36-.67.81-.91 1.36s-.36 1.24-.36 2.06c0 1.45.45 2.62 1.36 3.5s2.11 1.32 3.6 1.32c.67 0 1.3-.09 1.87-.27.39-.12.78-.32 1.17-.59z"/><path d="m92.03 73.64v-.45c.52 0 .85-.04 1.02-.11.07-.03.12-.07.15-.14.05-.1.08-.35.1-.75.03-.63.04-1.18.04-1.64v-3.67c0-.65-.01-1.29-.02-1.91-.01-.45-.05-.72-.11-.81-.06-.08-.15-.15-.27-.19s-.48-.07-1.06-.08v-.46l2.1.04 2.23-.04c1.07-.01 1.84-.02 2.32-.02.49 0 .95.03 1.38.08-.08.27-.13.51-.16.71-.01.04-.05.54-.13 1.49h-.46c0-.49-.03-.93-.1-1.33-.27-.11-.57-.18-.89-.22-.55-.07-1.1-.1-1.65-.1-.12 0-.38.01-.79.03s-.7.04-.88.05c-.02.53-.03 1.03-.04 1.49l-.03 2.43c.57.03 1.1.04 1.58.04.58 0 1.08-.03 1.5-.08.16-.02.26-.06.3-.11.04-.06.08-.25.12-.59l.04-.5h.44v.14l-.04 1.49.04 1.67h-.52l-.02-.49c-.01-.35-.04-.57-.1-.66s-.16-.15-.32-.18c-.28-.06-.82-.09-1.63-.09-.33 0-.8.01-1.4.04-.02.48-.04 1.19-.04 2.13 0 .89.01 1.56.04 2.02.71.05 1.5.08 2.38.08.62 0 1.07-.02 1.33-.06.27-.04.51-.1.74-.19.06-.15.12-.35.18-.6.11-.43.18-.75.21-.96h.49c-.13.97-.19 1.77-.19 2.4-.42.06-.94.09-1.54.09l-4.4-.06c-.07.01-.71.03-1.94.07z"/><path d="m106.37 73.64v-.49c.39 0 .63-.02.73-.05s.18-.08.27-.15.2-.27.35-.58c.09-.18.41-.85.96-2.02l1.84-4.05c.2-.44.63-1.44 1.29-2.97h.48l3.15 7.2c.51 1.17.85 1.9 1.02 2.2.09.17.2.28.31.33s.36.08.75.09v.49c-.77-.05-1.3-.07-1.61-.07l-2.37.07v-.49c.55-.01.88-.03 1-.05s.2-.06.24-.1c.04-.05.06-.1.06-.17 0-.11-.03-.24-.1-.41l-.91-2.2h-4.27l-.8 1.84c-.14.33-.21.57-.21.72 0 .07.02.12.06.17.05.06.14.1.25.13.18.04.5.06.96.06v.49c-.83-.04-1.45-.06-1.86-.06-.5 0-1.02.03-1.59.07zm3.43-4.03h3.72l-1.84-4.33z"/><path d="m118.27 73.64v-.45c.52 0 .85-.04 1.02-.11.07-.03.12-.07.15-.14.05-.1.08-.35.1-.75.03-.63.04-1.18.04-1.64v-5.85c0-.16-.01-.26-.03-.31-.04-.09-.13-.19-.27-.31-.09-.08-.19-.13-.31-.15s-.37-.03-.77-.04v-.45c.82.02 1.34.03 1.55.03.36 0 .71-.01 1.07-.03.42.53.72.92.92 1.18l1.53 1.83 2.23 2.61c.71.83 1.28 1.49 1.72 1.97.27.32.51.56.69.75v-5.25c0-.47-.02-1.02-.05-1.65-.02-.4-.05-.64-.1-.74-.03-.06-.09-.11-.15-.14-.16-.07-.5-.1-1.01-.11v-.45c.58.02 1.17.03 1.76.03.56 0 1.07-.01 1.53-.03v.45c-.51 0-.85.04-1.01.11-.07.03-.12.08-.15.14-.05.09-.08.34-.1.75-.03.63-.04 1.17-.04 1.63v3.45c0 .7.01 2 .04 3.91l-.76-.21-.18-.04c-.03-.01-.06-.02-.08-.04-.03-.02-.13-.12-.28-.29-.41-.45-.71-.79-.9-1.02l-.95-1.17-5.22-6.08v5.51c0 .47.02 1.02.05 1.66.02.4.05.64.1.73.03.07.09.12.15.14.16.07.5.1 1.01.11v.45c-.43-.03-.91-.05-1.43-.05-.58.01-1.2.03-1.87.06z"/><path d="m131.06 73.64v-.34c.28-.16.52-.3.71-.43.03-.33.05-.78.07-1.36.03-.99.05-1.67.05-2.05v-2.93c0-.47-.01-1.02-.04-1.65-.02-.4-.05-.64-.1-.74-.03-.06-.09-.11-.15-.14-.16-.07-.5-.1-1.01-.11v-.45c.72.03 1.35.04 1.9.04.42 0 1-.01 1.73-.03s1.3-.03 1.7-.03c1.2 0 2.17.15 2.9.45s1.35.8 1.86 1.5.77 1.56.77 2.58c0 .73-.12 1.41-.36 2.05s-.57 1.19-.98 1.67-.85.85-1.33 1.13c-.47.28-.97.49-1.48.63-.52.14-1.23.21-2.13.21-.3 0-.7-.01-1.22-.03-.67-.02-1.11-.03-1.31-.03-.3 0-.83.02-1.58.06zm2.28-.78c.54.09 1.11.14 1.71.14.62 0 1.17-.05 1.64-.16s.88-.25 1.22-.45c.34-.19.66-.47.98-.85.31-.37.56-.85.73-1.43s.25-1.18.25-1.81c0-.89-.16-1.65-.49-2.29s-.82-1.13-1.48-1.47-1.56-.51-2.71-.51c-.6 0-1.22.05-1.84.14-.01.23-.03.65-.04 1.25l-.03 1.04v2.86l.02 2.23c0 .34.02.78.04 1.31z"/><path d="m148.03 59.72v-.66c1.41.04 2.53.06 3.35.06.55 0 1.13-.01 1.75-.02l1.65-.05c.18-.01.35-.01.51-.01 1.12 0 1.99.12 2.63.36s1.14.62 1.49 1.14c.36.52.54 1.12.54 1.79 0 .6-.15 1.2-.45 1.79s-.73 1.1-1.3 1.51-1.16.71-1.78.89c-.42.12-.9.18-1.43.18-.45 0-.93-.05-1.45-.14l-.22-.77c.62.14 1.12.21 1.47.21.53 0 1.03-.12 1.5-.37s.84-.62 1.11-1.13c.26-.5.39-1.06.39-1.66 0-.59-.13-1.12-.38-1.59-.26-.47-.65-.83-1.17-1.08s-1.16-.37-1.9-.37c-.67 0-1.38.12-2.15.35-.06.72-.09 1.86-.09 3.4v5.17c0 .93.01 1.84.03 2.72.02.65.07 1.04.15 1.16s.21.21.39.27.69.09 1.52.11v.66c-1.3-.05-2.25-.08-2.86-.08-.24 0-1.34.03-3.29.08v-.66c.83-.01 1.33-.05 1.52-.11.18-.06.31-.14.38-.24.08-.14.14-.47.16-.99.01-.14.02-1.11.04-2.91v-4.75c0-.93-.01-1.84-.03-2.73-.02-.65-.07-1.03-.15-1.15s-.21-.21-.39-.27c-.2-.06-.7-.09-1.54-.11z"/><path d="m160.84 63.9v-.46l2.25.04 2.08-.04v.46c-.58.01-.94.03-1.06.08-.13.04-.21.1-.26.17-.06.1-.1.33-.11.7 0 .1-.01.77-.03 2.04v1c.97.03 2.15.05 3.54.05 1.07 0 1.92-.02 2.56-.05v-1c0-.65-.01-1.29-.03-1.91-.01-.45-.05-.72-.11-.81-.06-.08-.15-.15-.27-.19-.13-.04-.48-.07-1.06-.08v-.46c1.06.03 1.78.04 2.17.04.15 0 .86-.01 2.15-.04v.46c-.58.01-.93.03-1.06.08-.13.04-.21.1-.26.17-.06.1-.1.33-.12.7 0 .1-.01.77-.03 2.04v3.32c0 .65.01 1.28.03 1.9.01.45.04.72.1.81s.15.15.28.19.48.07 1.06.08v.47c-.95-.04-1.72-.06-2.33-.06-.64 0-1.31.02-2 .06v-.47c.58-.01.94-.03 1.06-.08.12-.04.21-.1.26-.17.06-.1.1-.33.11-.69 0-.1.02-.78.04-2.04v-1.63c-1.38-.03-2.42-.04-3.13-.04-.78 0-1.76.01-2.96.04v1.63c0 .65.01 1.28.02 1.9.01.45.05.72.11.81s.15.15.27.19c.13.04.48.07 1.06.08v.47c-.66-.04-1.35-.06-2.05-.06-.77 0-1.53.02-2.28.06v-.47c.58-.01.93-.03 1.06-.08.13-.04.22-.1.27-.17.06-.1.1-.33.11-.7 0-.1.01-.78.03-2.04v-3.32c0-.65-.01-1.29-.02-1.91-.01-.45-.05-.72-.11-.81-.06-.08-.15-.15-.27-.19-.13-.04-.48-.06-1.07-.07z"/><path d="m177.73 73.18v.46c-1.05-.04-1.73-.06-2.06-.06l-2.28.06v-.46c.58-.01.93-.03 1.06-.08.13-.04.22-.1.27-.17.06-.1.1-.33.11-.7 0-.1.01-.78.03-2.04v-3.32c0-.65-.01-1.29-.02-1.91-.01-.45-.05-.72-.11-.81-.06-.08-.15-.15-.27-.19-.13-.04-.48-.07-1.06-.08v-.46c.94.03 1.66.05 2.17.05.49 0 1.21-.02 2.17-.05v.46c-.58.01-.94.03-1.06.08-.13.04-.21.1-.26.17-.06.1-.1.33-.11.7 0 .1-.01.77-.03 2.04v3.32c0 .65.01 1.28.02 1.9.01.45.05.73.11.81.06.09.15.15.27.19.11.05.46.08 1.05.09z"/><path d="m179.06 73.64v-.37c.3-.14.5-.25.58-.33.05-.04.08-.1.1-.17.04-.13.07-.42.09-.86.02-.66.03-1.05.03-1.17v-3.86c0-.65-.01-1.29-.02-1.91-.01-.45-.05-.72-.11-.81-.06-.08-.15-.15-.27-.19-.13-.04-.48-.07-1.06-.08v-.46c1.2.04 1.94.06 2.23.06.31 0 1.02-.02 2.11-.06v.46c-.58.01-.94.03-1.06.08-.13.04-.21.1-.26.17-.06.1-.1.33-.11.7 0 .1-.01.77-.03 2.04v4.82c0 .5.01.91.03 1.23.56.03 1.12.05 1.67.05 1.39 0 2.36-.09 2.91-.26.06-.14.12-.31.17-.5l.29-1.19h.49c-.11.71-.21 1.55-.32 2.51-.2.04-.36.06-.48.07-.26.01-.65.02-1.18.02l-4.36-.06c-.48.01-.95.03-1.44.07z"/><path d="m187.7 68.61c0-.76.12-1.45.35-2.1s.62-1.22 1.16-1.73 1.15-.9 1.83-1.16 1.46-.39 2.34-.39c.81 0 1.55.11 2.21.33s1.21.52 1.63.88c.42.37.76.77 1.01 1.2.19.33.33.71.45 1.15.11.44.17.91.17 1.41 0 1.61-.56 2.95-1.67 4.03-1.11 1.07-2.52 1.61-4.21 1.61-.77 0-1.49-.12-2.16-.37-.67-.24-1.23-.61-1.69-1.09s-.81-1.06-1.05-1.75-.37-1.35-.37-2.02zm1.53-.6c0 .45.05.92.14 1.39s.21.87.35 1.21c.24.57.54 1.06.92 1.45s.81.68 1.27.86c.47.18.99.28 1.56.28.79 0 1.48-.19 2.06-.56.58-.38 1.02-.9 1.31-1.59.29-.68.43-1.47.43-2.36 0-.76-.1-1.46-.31-2.1-.13-.39-.3-.75-.51-1.07s-.46-.6-.76-.83c-.29-.24-.67-.44-1.14-.6s-.97-.24-1.51-.24c-.78 0-1.47.17-2.06.51s-1.03.83-1.33 1.48-.42 1.36-.42 2.17z"/><path d="m199.68 73.29c.08-.46.12-1.2.14-2.23h.5c.02.7.06 1.11.12 1.24s.19.26.41.41.51.27.87.38.71.17 1.05.17c.5 0 .95-.11 1.37-.33s.72-.51.91-.88.29-.75.29-1.16c0-.32-.05-.59-.14-.82-.1-.23-.24-.42-.44-.56s-.44-.24-.73-.3c-.18-.03-.54-.08-1.09-.14s-1.01-.14-1.39-.22c-.51-.15-.89-.33-1.13-.54s-.44-.48-.59-.81-.22-.7-.22-1.08c0-.56.15-1.1.45-1.6s.75-.89 1.34-1.17 1.23-.42 1.93-.42c.42 0 .87.05 1.37.16.49.11.95.27 1.38.48-.07.3-.12.58-.15.84s-.05.64-.07 1.15h-.5c-.02-.74-.04-1.14-.07-1.21-.12-.17-.29-.33-.5-.47-.51-.28-1.03-.42-1.58-.42-.71 0-1.28.21-1.71.63-.42.42-.64.97-.64 1.65 0 .41.08.72.23.94s.42.4.82.53c.27.09.71.18 1.33.25.61.08 1.17.16 1.66.25.46.13.8.29 1.02.48.22.18.4.43.54.72s.21.65.21 1.05c0 .95-.41 1.78-1.22 2.49s-1.86 1.06-3.15 1.06c-.94.04-1.83-.15-2.62-.52z"/><path d="m207.49 68.61c0-.76.12-1.45.35-2.1s.62-1.22 1.16-1.73 1.15-.9 1.83-1.16 1.46-.39 2.34-.39c.81 0 1.55.11 2.21.33s1.21.52 1.63.88c.42.37.76.77 1.01 1.2.19.33.33.71.45 1.15.11.44.17.91.17 1.41 0 1.61-.56 2.95-1.67 4.03-1.11 1.07-2.52 1.61-4.21 1.61-.77 0-1.49-.12-2.16-.37-.67-.24-1.23-.61-1.69-1.09s-.81-1.06-1.05-1.75-.37-1.35-.37-2.02zm1.53-.6c0 .45.05.92.14 1.39s.21.87.35 1.21c.24.57.54 1.06.92 1.45s.81.68 1.27.86c.47.18.99.28 1.56.28.79 0 1.48-.19 2.06-.56.58-.38 1.02-.9 1.31-1.59.29-.68.43-1.47.43-2.36 0-.76-.1-1.46-.31-2.1-.13-.39-.3-.75-.51-1.07s-.46-.6-.76-.83c-.29-.24-.67-.44-1.14-.6s-.97-.24-1.51-.24c-.78 0-1.47.17-2.06.51s-1.03.83-1.33 1.48-.42 1.36-.42 2.17z"/><path d="m219.39 63.9v-.46c.99.03 1.77.04 2.34.04.38 0 .79 0 1.22-.01l1.16-.04c.13 0 .25-.01.35-.01.78 0 1.4.08 1.84.25.45.17.8.43 1.05.8s.38.78.38 1.25c0 .42-.1.84-.31 1.26s-.51.77-.91 1.06-.81.5-1.25.62c-.29.09-.63.13-1 .13-.31 0-.65-.03-1.02-.1l-.15-.54c.44.1.78.14 1.03.14.37 0 .72-.09 1.05-.26s.59-.44.77-.79.28-.74.28-1.16c0-.41-.09-.78-.27-1.11s-.45-.58-.82-.76c-.37-.17-.81-.26-1.33-.26-.47 0-.97.08-1.5.24-.04.51-.07 1.3-.07 2.38v3.62c0 .65.01 1.28.02 1.9.01.45.05.73.11.81.06.09.15.15.27.19.13.04.48.07 1.06.08v.46c-.91-.04-1.58-.06-2-.06-.17 0-.94.02-2.31.06v-.46c.58-.01.93-.03 1.06-.08.13-.04.22-.1.27-.17.06-.1.1-.33.11-.7 0-.1.01-.78.03-2.04v-3.32c0-.65-.01-1.29-.02-1.91-.02-.45-.05-.72-.11-.81-.06-.08-.15-.15-.27-.19-.12-.02-.48-.04-1.06-.05z"/><path d="m228.46 63.9v-.46l2.25.04 2.08-.04v.46c-.58.01-.94.03-1.06.08-.13.04-.21.1-.26.17-.06.1-.1.33-.11.7 0 .1-.01.77-.03 2.04v1c.97.03 2.15.05 3.54.05 1.07 0 1.92-.02 2.56-.05v-1c0-.65-.01-1.29-.03-1.91-.01-.45-.05-.72-.11-.81-.06-.08-.15-.15-.27-.19-.13-.04-.48-.07-1.06-.08v-.46c1.06.03 1.78.04 2.17.04.15 0 .86-.01 2.15-.04v.46c-.58.01-.93.03-1.06.08-.13.04-.21.1-.26.17-.06.1-.1.33-.12.7 0 .1-.01.77-.03 2.04v3.32c0 .65.01 1.28.03 1.9.01.45.04.72.1.81s.15.15.28.19.48.07 1.06.08v.47c-.95-.04-1.72-.06-2.33-.06-.64 0-1.31.02-2 .06v-.47c.58-.01.94-.03 1.06-.08.12-.04.21-.1.26-.17.06-.1.1-.33.11-.69 0-.1.02-.78.04-2.04v-1.63c-1.38-.03-2.42-.04-3.13-.04-.78 0-1.76.01-2.96.04v1.63c0 .65.01 1.28.02 1.9.01.45.05.72.11.81s.15.15.27.19c.13.04.48.07 1.06.08v.47c-.66-.04-1.35-.06-2.05-.06-.77 0-1.53.02-2.28.06v-.47c.58-.01.93-.03 1.06-.08.13-.04.22-.1.27-.17.06-.1.1-.33.11-.7 0-.1.01-.78.03-2.04v-3.32c0-.65-.01-1.29-.02-1.91-.01-.45-.05-.72-.11-.81-.06-.08-.15-.15-.27-.19-.13-.04-.48-.06-1.07-.07z"/><path d="m240.83 64.07v-.44l1.78-.34c.2.07.33.13.41.19s.23.24.46.55c.35.46.75 1.07 1.21 1.86.46.78.94 1.68 1.46 2.69.52-.78 1.05-1.63 1.6-2.54l1.57-2.61h1.13v.19c-.27.29-.77.93-1.49 1.9-.42.56-.96 1.39-1.63 2.46-.42.67-.65 1.07-.71 1.22s-.08.29-.08.43v.55c0 .65.01 1.28.02 1.9.01.45.05.73.11.81.06.09.15.15.27.19.13.04.48.07 1.06.08v.46c-.8-.04-1.49-.06-2.08-.06-.56 0-1.3.02-2.22.06v-.46c.58-.01.93-.03 1.06-.08.13-.04.21-.1.26-.17.06-.1.1-.33.12-.7 0-.1.01-.78.03-2.04v-.84c-.1-.22-.2-.41-.3-.58-.07-.12-.32-.53-.75-1.23l-.49-.78c-.38-.61-.67-1.05-.85-1.31-.36-.5-.66-.85-.89-1.07-.13-.12-.26-.2-.4-.25-.15-.02-.37-.04-.66-.04z"/><path d="m60.53 108.72c-.34-.82-.66-1.6-.97-2.34l-.84-1.99c-.66-1.56-1.06-2.49-1.22-2.79-.15-.3-.27-.47-.35-.51-.12-.06-.36-.1-.73-.11v-.51c.95.03 1.52.04 1.73.04l2.13-.04v.51c-.33 0-.57.02-.72.06-.09.02-.15.05-.18.08-.03.04-.05.08-.05.14 0 .12.13.49.39 1.11.15.36.23.55.24.58s.02.07.04.11l1.5 3.62 1.31-3.22c.03-.07.17-.44.42-1.11.18-.47.29-.78.33-.94.01-.05.01-.09.01-.14 0-.07-.01-.12-.03-.15s-.05-.06-.09-.07c-.03-.01-.1-.02-.21-.03-.26-.02-.47-.04-.65-.04v-.51l1.5.04 1.28-.04v.51c-.38.04-.61.08-.67.12-.11.08-.33.53-.67 1.33l-.42.97-.8 1.89c-.68 1.61-1.14 2.75-1.38 3.42h-.9z"/><path d="m64.72 105.91c0-.66.11-1.21.34-1.65s.57-.76 1.03-.98.99-.33 1.6-.33c.91 0 1.61.24 2.08.71s.71 1.17.71 2.08c0 .53-.07.98-.21 1.37s-.32.7-.56.93-.48.42-.73.54c-.44.2-.93.3-1.48.3-.89 0-1.58-.25-2.06-.75-.47-.5-.72-1.24-.72-2.22zm1.64-.28c0 1.04.15 1.78.46 2.22.21.29.5.44.88.44.32 0 .58-.11.77-.33.25-.3.38-.87.38-1.72 0-.6-.05-1.11-.15-1.54s-.25-.73-.44-.89c-.2-.17-.43-.25-.71-.25-.24 0-.44.06-.62.18s-.32.33-.41.62-.16.71-.16 1.27z"/><path d="m74.64 108.21v.47c-.49-.03-1.01-.05-1.55-.05s-1.14.02-1.81.05v-.46c.38-.01.6-.03.68-.05.06-.02.1-.04.13-.07s.05-.08.06-.14c.03-.12.05-.49.06-1.11s.02-1.17.02-1.65v-1.93c0-.61-.01-1.17-.04-1.68-.02-.27-.04-.44-.06-.49-.02-.03-.04-.05-.06-.06-.05-.03-.12-.05-.23-.07-.06-.01-.24-.02-.53-.03v-.43c.49-.05.88-.11 1.17-.17s.68-.17 1.18-.32l.12.07-.05 1.18c-.02.66-.03 1.48-.04 2.44v1.5c0 .57 0 .99.01 1.27.02.7.03 1.12.04 1.27s.02.24.04.28c.01.03.03.05.06.07.04.03.1.05.18.06.05.02.25.03.62.05z"/><path d="m75.31 103.98v-.45c.34-.02.68-.06 1.02-.13s.78-.2 1.32-.38l.08.06c-.06.77-.08 1.49-.08 2.14v.66c0 .56.01.93.04 1.12.04.25.13.43.28.56s.35.19.6.19c.28 0 .52-.07.72-.22s.33-.3.4-.45c.05-.1.07-.31.07-.63v-1l-.01-.83c0-.27-.02-.43-.05-.49-.02-.04-.06-.06-.12-.08s-.3-.04-.72-.06v-.45c.61-.08 1.03-.14 1.25-.19s.6-.15 1.13-.32l.11.06-.06 1.08c-.03.77-.05 1.19-.05 1.28v1.2c0 .71.02 1.16.05 1.32.02.07.05.12.09.15.07.04.32.07.73.09v.47l-1.22-.03-1.12.03-.04-.05.04-.45c0-.07.01-.22.01-.45-.15.12-.29.23-.4.33l-.67.63c-.27.1-.55.15-.82.15-.53 0-.95-.14-1.26-.43-.3-.29-.46-.67-.46-1.15 0-.06.01-.28.02-.65 0-.2.01-.46.01-.77l-.01-1.24c0-.23-.01-.37-.04-.42s-.08-.1-.15-.12c-.08-.04-.31-.06-.69-.08z"/><path d="m82.77 108.68v-.45c.31 0 .52-.02.64-.06.06-.02.1-.05.12-.1.04-.07.06-.21.07-.42l.02-.52c0-.11.01-.29.01-.53v-.77c0-.35-.01-.77-.04-1.27-.01-.25-.03-.39-.05-.42s-.06-.06-.1-.07c-.07-.03-.3-.05-.67-.06v-.45c.72-.12 1.19-.21 1.42-.27s.48-.15.76-.28l.16.07v.94l1.08-.86c.13-.05.23-.08.32-.1s.21-.03.36-.03c.47 0 .83.08 1.07.23s.44.4.6.76l1.08-.86c.13-.05.23-.08.32-.1s.21-.03.36-.03c.39 0 .69.05.91.14.22.1.39.23.54.39s.24.34.3.53.09.48.09.87c0 .43 0 .71-.01.86 0 .05-.01.1-.01.17v.61c0 .62.01 1.02.03 1.2.02.17.06.28.11.33s.17.07.35.08c.06 0 .17.01.33.03v.45c-.54-.03-.99-.05-1.34-.05-.4 0-.74.02-1.02.05l-.08-.11.07-1.06c.02-.43.02-.8.02-1.11v-.45c0-.7-.03-1.13-.1-1.32-.06-.18-.17-.32-.32-.43s-.33-.16-.56-.16c-.25 0-.47.06-.65.19s-.29.24-.33.35-.06.31-.06.62v1.42l.01.59.01.47c0 .14.02.24.04.3.02.05.06.1.1.12s.11.04.23.05c.23.03.39.05.49.06v.45c-.35-.02-.86-.02-1.52-.02-.73 0-1.28.01-1.63.02v-.45c.08-.01.17-.02.29-.04.17-.01.28-.03.33-.06s.08-.09.11-.18.04-.29.04-.61l.01-1.04v-.83c0-.4-.02-.68-.07-.85s-.15-.3-.3-.42-.35-.17-.59-.17c-.26 0-.49.07-.67.2s-.3.27-.34.4c-.02.07-.03.38-.03.92v1.03c0 .53.01.93.04 1.21.01.15.03.24.06.28s.08.07.16.09c.06.02.24.04.55.06v.45c-.43-.02-.94-.02-1.54-.02-.65.02-1.18.02-1.58.04z"/><path d="m98.68 107.78-.26.57c-.32.2-.66.34-1 .43-.26.07-.55.1-.88.1-.39 0-.74-.04-1.03-.13-.3-.09-.55-.21-.76-.37s-.4-.35-.56-.57c-.16-.23-.27-.49-.35-.79-.07-.3-.11-.62-.11-.97 0-.51.07-.97.21-1.37.09-.28.21-.48.33-.61.08-.08.28-.22.62-.44.33-.21.57-.36.72-.42.28-.12.6-.18.98-.18.53 0 .96.11 1.3.33s.58.5.72.84.21.75.21 1.24c0 .11 0 .21-.01.32-.1.03-.25.07-.45.11-.27.05-.45.08-.54.08-.3.02-.69.04-1.17.04s-.75.01-.81.01-.11.01-.17.01h-.39c.03.62.23 1.1.58 1.46.36.36.79.54 1.31.54.23 0 .43-.02.62-.07s.44-.15.75-.3zm-1.41-2.43c.02-.62-.07-1.06-.25-1.31-.19-.25-.43-.37-.73-.37-.31 0-.56.13-.76.39-.21.26-.3.69-.28 1.29.23.04.62.05 1.17.05.33 0 .62-.01.85-.05z"/><path d="m102.87 108.57c-.02-.16-.07-.45-.14-.88s-.13-.73-.16-.89l.4-.12c.15.36.31.64.49.87s.39.39.64.49c.24.11.5.16.76.16.44 0 .8-.14 1.07-.42s.41-.66.41-1.14c0-.51-.15-.89-.45-1.14s-.67-.38-1.13-.38c-.22 0-.45.03-.7.1l-.07-.07.01-.08.1-.35.11-.46.05-.01.43.01c.21 0 .42-.06.63-.17s.37-.26.49-.46c.11-.2.17-.4.17-.62 0-.3-.11-.56-.33-.77s-.51-.31-.87-.31c-.23 0-.45.04-.64.11s-.33.16-.42.27-.18.3-.28.57c-.04.11-.07.19-.09.25l-.43-.03.26-1.19c.04-.17.07-.37.09-.6.26-.19.55-.33.87-.43s.68-.14 1.06-.14c.69 0 1.22.16 1.59.48s.55.72.55 1.2c0 .36-.11.69-.33.97s-.55.54-1 .78c.09 0 .21.02.36.05.2.04.39.11.57.21s.34.22.47.37.23.31.29.5c.06.18.09.41.09.67 0 .75-.3 1.4-.91 1.94-.73.64-1.59.97-2.59.97-.28 0-.53-.02-.74-.07-.19-.04-.42-.12-.68-.24z"/><path d="m108.35 110.53c.28-.53.5-1.04.65-1.53s.27-1.02.34-1.58c.6-.12.92-.19.97-.2.17-.05.38-.12.63-.22l.21.2c-.16.37-.42.88-.78 1.52s-.7 1.18-1 1.59l-.85.36z"/><path d="m118.74 100.48v.52c-.4.01-.64.03-.71.04-.08.02-.13.04-.16.06s-.05.06-.06.1c-.03.07-.05.19-.06.38-.01.1-.01.29-.02.57-.02.96-.02 1.48-.02 1.55v2.36l.02 1.07c0 .4.02.66.06.79.02.05.04.1.08.13s.1.05.18.07.31.03.7.04v.52c-.64-.02-1.33-.04-2.06-.04-.64 0-1.2.01-1.7.04v-.52c.41-.02.65-.03.71-.04.08-.02.14-.04.17-.06s.05-.06.06-.09c.01-.05.03-.23.05-.55.03-.47.05-.9.05-1.3v-2.45c0-.78 0-1.28-.01-1.5-.02-.5-.04-.81-.07-.93-.01-.05-.03-.09-.06-.12s-.07-.05-.14-.07-.32-.03-.75-.05v-.52c.5.02 1.07.04 1.71.04.71 0 1.39-.01 2.03-.04z"/><path d="m119.76 106.83h.47c.02.44.04.71.06.83.18.21.37.37.59.48.21.1.46.16.73.16.37 0 .66-.09.85-.26.2-.18.3-.39.3-.64 0-.16-.03-.3-.1-.41s-.2-.21-.39-.3c-.15-.05-.45-.13-.89-.22s-.77-.2-.99-.31-.4-.28-.53-.51c-.13-.22-.19-.49-.19-.79 0-.54.21-.99.62-1.34s1-.54 1.77-.54c.32 0 .61.03.88.08s.51.14.73.25l.02.06c-.02.14-.04.28-.05.42s-.03.47-.05 1l-.46-.01c0-.04-.01-.12-.02-.22-.01-.18-.04-.35-.07-.51-.12-.16-.27-.27-.45-.35s-.39-.12-.63-.12c-.34 0-.6.07-.78.22s-.28.33-.28.53c0 .21.04.37.12.47s.21.18.37.23.46.12.9.2.73.15.88.2c.22.08.39.19.52.31s.23.28.3.47.1.39.1.61c0 .58-.23 1.07-.68 1.47-.46.4-1.1.6-1.92.6-.28 0-.54-.02-.81-.07-.26-.05-.58-.14-.95-.27l-.06-.09c.03-.3.05-.51.06-.64z"/><path d="m125.14 106.83h.47c.02.44.04.71.06.83.18.21.37.37.59.48.21.1.46.16.73.16.37 0 .66-.09.85-.26.2-.18.3-.39.3-.64 0-.16-.03-.3-.1-.41s-.2-.21-.39-.3c-.15-.05-.45-.13-.89-.22s-.77-.2-.99-.31-.4-.28-.53-.51c-.13-.22-.19-.49-.19-.79 0-.54.21-.99.62-1.34s1-.54 1.77-.54c.32 0 .61.03.88.08s.51.14.73.25l.02.06c-.02.14-.04.28-.05.42s-.03.47-.05 1l-.46-.01c0-.04-.01-.12-.02-.22-.01-.18-.04-.35-.07-.51-.12-.16-.27-.27-.45-.35s-.39-.12-.63-.12c-.34 0-.6.07-.78.22s-.28.33-.28.53c0 .21.04.37.12.47s.21.18.37.23.46.12.9.2.73.15.88.2c.22.08.39.19.52.31s.23.28.3.47.1.39.1.61c0 .58-.23 1.07-.68 1.47-.46.4-1.1.6-1.92.6-.28 0-.54-.02-.81-.07-.26-.05-.58-.14-.95-.27l-.06-.09c.03-.3.05-.51.06-.64z"/><path d="m130.21 103.98v-.45c.34-.02.68-.06 1.02-.13s.78-.2 1.32-.38l.08.06c-.06.77-.08 1.49-.08 2.14v.66c0 .56.01.93.04 1.12.04.25.13.43.28.56s.35.19.6.19c.28 0 .52-.07.72-.22s.33-.3.4-.45c.05-.1.07-.31.07-.63v-1l-.01-.83c0-.27-.02-.43-.05-.49-.02-.04-.06-.06-.12-.08s-.3-.04-.72-.06v-.45c.61-.08 1.03-.14 1.25-.19s.6-.15 1.13-.32l.11.06-.06 1.08c-.03.77-.05 1.19-.05 1.28v1.2c0 .71.02 1.16.05 1.32.02.07.05.12.09.15.07.04.32.07.73.09v.47l-1.22-.03-1.12.03-.04-.05.04-.45c0-.07.01-.22.01-.45-.15.12-.29.23-.4.33l-.67.63c-.27.1-.55.15-.82.15-.53 0-.95-.14-1.26-.43-.3-.29-.46-.67-.46-1.15 0-.06.01-.28.02-.65 0-.2.01-.46.01-.77l-.01-1.24c0-.23-.01-.37-.04-.42s-.08-.1-.15-.12c-.09-.04-.31-.06-.69-.08z"/><path d="m142.8 107.78-.26.57c-.32.2-.66.34-1 .43-.26.07-.55.1-.88.1-.39 0-.74-.04-1.03-.13-.3-.09-.55-.21-.76-.37s-.4-.35-.56-.57c-.16-.23-.27-.49-.35-.79-.07-.3-.11-.62-.11-.97 0-.51.07-.97.21-1.37.09-.28.21-.48.33-.61.08-.08.28-.22.62-.44.33-.21.57-.36.72-.42.28-.12.6-.18.98-.18.53 0 .96.11 1.3.33s.58.5.72.84.21.75.21 1.24c0 .11 0 .21-.01.32-.1.03-.25.07-.45.11-.27.05-.45.08-.54.08-.3.02-.69.04-1.17.04s-.75.01-.81.01-.11.01-.17.01h-.39c.03.62.23 1.1.58 1.46.36.36.79.54 1.31.54.23 0 .43-.02.62-.07s.44-.15.75-.3zm-1.41-2.43c.02-.62-.07-1.06-.25-1.31-.19-.25-.43-.37-.73-.37-.31 0-.56.13-.76.39-.21.26-.3.69-.28 1.29.23.04.62.05 1.17.05.32 0 .61-.01.85-.05z"/><path d="m147.31 108.68v-.47l1.12-.12c.12-.02.21-.05.26-.1s.1-.16.12-.32c.05-.3.08-.98.08-2.03v-1.41c0-.48-.01-1.01-.02-1.57l-.02-.5c0-.12-.01-.21-.04-.24-.02-.04-.05-.05-.09-.05-.02 0-.11.03-.26.1-.77.34-1.26.56-1.47.67l-.07-.04c-.02-.08-.04-.2-.06-.38-.02-.13-.04-.25-.06-.36l.01-.04c.71-.2 1.27-.37 1.68-.51s1.07-.37 1.95-.7l.13.09c0 .06-.01.25-.04.55-.02.3-.04.5-.04.59-.01.34-.03 1.21-.05 2.61v.87c0 .85 0 1.44.01 1.76.01.5.04.79.08.88.02.05.06.09.12.12.1.05.38.09.85.11.13 0 .26.02.38.04v.47c-.86-.04-1.55-.06-2.08-.06-.34-.02-1.18 0-2.49.04z"/><path d="m158.87 109.95c-.38-.22-.76-.56-1.17-1.02-.4-.46-.72-.94-.95-1.43-.17-.37-.3-.74-.38-1.12s-.12-.82-.12-1.33c0-.71.09-1.36.26-1.94.18-.58.48-1.15.9-1.71s.9-1.03 1.43-1.39l.31.28c-.35.42-.6.78-.75 1.08s-.27.72-.37 1.25c-.13.7-.19 1.54-.19 2.51 0 1.22.11 2.16.32 2.82s.54 1.22.99 1.69z"/><path d="m159.96 108.68v-.5c.45-.03.71-.06.79-.09.05-.02.08-.04.11-.08.04-.05.06-.12.07-.22.03-.22.05-.71.07-1.46.01-.36.02-.99.02-1.88 0-.79-.01-1.5-.02-2.11s-.04-.98-.08-1.09c-.02-.05-.04-.1-.07-.13s-.1-.05-.19-.07c-.26-.04-.5-.07-.7-.08v-.5c.81.02 1.37.04 1.68.04.41 0 .81-.01 1.23-.04l.52 1.16.41.88 1.88 3.84c.4-.77.7-1.37.91-1.79l.78-1.62c.43-.91.7-1.46.8-1.67s.21-.47.33-.79c.52.03.85.04.99.04l1.76-.04v.5h-.08c-.4 0-.65.04-.76.14s-.16.28-.16.55c0 .32 0 .57-.01.74l-.03 1.65v2.06c0 .5 0 .79.01.88.03.5.06.8.08.91.01.05.03.1.06.13s.08.06.14.08.31.04.75.07v.5l-1.89-.04-1.85.04v-.5c.49-.02.77-.04.84-.08s.12-.13.15-.28.04-.63.04-1.45v-4.27l-1.37 2.75-.66 1.37c-.17.36-.42.88-.73 1.56-.19.41-.35.75-.46 1h-.4c-.14-.33-.35-.78-.62-1.35-.46-.98-.81-1.71-1.04-2.19l-1.56-3.15v2.88c0 .48.01 1.05.02 1.71s.03 1.04.04 1.12.04.15.07.19.09.07.18.1.33.05.73.08v.5c-.44-.02-.89-.04-1.36-.04-.59 0-1.07.02-1.42.04z"/><path d="m177.44 108.24v.44c-.45-.02-.86-.03-1.21-.03-.33 0-.65.01-.97.03l-.05-.06.05-.77c-.14.09-.56.4-1.26.93-.18.04-.35.06-.51.06-.43 0-.77-.12-1.01-.38s-.36-.61-.36-1.08c0-.32.05-.58.16-.78s.22-.35.35-.45.32-.19.58-.28c.62-.22 1.31-.39 2.05-.52.01-.46-.09-.82-.29-1.06-.21-.24-.52-.36-.94-.36-.17 0-.33.02-.49.06-.07.02-.15.06-.24.12l-.25.59-.4-.09.04-.76c.29-.2.57-.37.83-.51s.45-.23.56-.26c.15-.04.35-.06.62-.06.43 0 .78.06 1.06.18s.48.27.62.44.22.35.27.54.07.43.07.73c0 .12-.01.45-.03.98-.01.35-.02.64-.02.86 0 .7.02 1.12.06 1.27.02.07.05.12.09.14.09.03.29.06.62.08zm-2.17-2.39c-.34.07-.64.16-.92.25s-.47.22-.58.37-.16.33-.16.55c0 .25.06.44.19.58s.3.21.51.21c.18 0 .36-.05.54-.15s.32-.23.42-.39z"/><path d="m181.49 108.23v.45c-.45-.02-.94-.03-1.49-.03-.61 0-1.25.01-1.91.03v-.45c.31 0 .52-.02.64-.06.06-.02.1-.05.12-.1.04-.07.06-.21.07-.42l.02-.52c0-.11.01-.29.01-.53v-.77c0-.35-.01-.77-.04-1.27-.01-.25-.03-.39-.05-.42s-.06-.06-.1-.07c-.07-.03-.3-.05-.67-.06v-.45c.72-.12 1.19-.21 1.42-.27s.48-.15.76-.28l.16.07-.01 1.18c.26-.26.45-.48.59-.65.21-.24.36-.4.46-.46.14-.09.33-.14.56-.14.15 0 .28.02.4.07l-.04.83c-.01.45-.02.71-.03.78l-.25.08c-.1-.13-.19-.22-.28-.27-.15-.08-.31-.12-.48-.12-.23 0-.43.07-.6.21s-.27.29-.3.44c-.02.09-.02.42-.02.99v.59l.01.8c0 .3.01.49.03.55.02.07.06.12.12.16s.2.07.41.08z"/><path d="m187.54 107.91-.26.57c-.34.17-.62.28-.83.33s-.46.08-.76.08c-.65 0-1.17-.12-1.58-.38-.4-.25-.71-.61-.92-1.07-.15-.33-.23-.77-.23-1.31 0-.41.04-.75.12-1.01s.19-.49.34-.69c.1-.13.23-.26.4-.38l.91-.57c.31-.2.52-.31.63-.35.19-.07.44-.11.74-.11.25 0 .49.02.71.06s.42.1.61.18l.06.1-.15.96c-.01.09-.03.36-.06.81h-.46c-.02-.35-.05-.61-.09-.77-.08-.13-.21-.24-.38-.33-.17-.08-.39-.13-.64-.13-.3 0-.54.05-.72.16s-.31.29-.39.55-.12.57-.12.94c0 .49.08.93.25 1.32s.39.67.67.86.62.27 1.03.27c.19 0 .36-.02.53-.06s.32-.1.47-.18z"/><path d="m194.92 108.22v.46c-.59-.02-.98-.02-1.16-.02-.12 0-.52.01-1.21.02l-.06-.06.08-1.22c.01-.21.02-.47.02-.77v-1.14c0-.53-.09-.9-.27-1.1s-.44-.31-.77-.31c-.25 0-.46.06-.64.18s-.32.29-.41.49c-.04.07-.05.23-.05.48v.74c0 .3.01.69.02 1.16s.03.75.04.83c.01.05.03.08.05.11.02.02.05.04.08.06.06.03.15.05.27.06l.46.02v.46c-1.08-.03-1.68-.04-1.8-.04l-1.47.04v-.46c.35-.02.56-.03.62-.05s.11-.04.14-.07.05-.07.07-.13c.03-.12.05-.49.06-1.11s.02-1.17.02-1.66v-1.9c0-.63-.02-1.2-.05-1.71-.01-.26-.03-.42-.05-.46-.02-.03-.04-.05-.06-.06-.04-.03-.12-.05-.22-.06-.07-.01-.24-.02-.52-.04v-.43c.56-.07.96-.13 1.21-.18s.61-.16 1.08-.3l.13.07-.05 1.39c-.02.71-.02 1.36-.02 1.97v.56l1.04-.86c.28-.11.56-.16.86-.16.31 0 .59.05.83.15s.43.23.57.4.24.34.29.54.09.45.09.76c0 .11-.01.41-.02.91-.01.37-.02.68-.02.91 0 .72.01 1.15.04 1.27.02.09.06.15.13.18.05.05.28.07.65.08z"/><path d="m198.58 108.68v-.6l1.1-1.08c.57-.57.99-1.01 1.27-1.33s.49-.61.65-.88c.15-.27.26-.51.32-.73s.09-.44.09-.67c0-.45-.12-.79-.35-1.03s-.55-.35-.95-.35c-.22 0-.44.04-.64.13s-.37.22-.51.4c-.07.24-.15.55-.24.93h-.46l.15-1.34c.02-.21.05-.42.07-.65.26-.25.55-.43.89-.55s.71-.18 1.13-.18c.58 0 1.06.09 1.42.28s.63.45.81.79.27.68.27 1.04c0 .23-.03.46-.1.68s-.18.46-.35.73c-.17.26-.34.5-.53.7l-.67.67-.62.6c-.33.32-.68.65-1.06.99l.02.08h1.04c.16 0 .68-.01 1.57-.03.28-.01.63-.02 1.04-.05l.05.08c-.04.34-.06.61-.06.81 0 .12.01.29.04.49l-.03.06-1.75-.05c-.39-.01-.68-.02-.85-.02z"/><path d="m204.73 104.97c0-.68.05-1.3.15-1.86.06-.36.18-.7.34-1 .17-.3.36-.55.57-.74s.46-.34.74-.44.59-.15.91-.15c.65 0 1.16.14 1.52.42s.63.68.79 1.19.24 1.23.24 2.14c0 .64-.03 1.21-.1 1.69-.06.48-.18.9-.35 1.24s-.36.62-.57.82-.45.36-.72.46-.59.16-.97.16c-.45 0-.84-.08-1.18-.25s-.61-.42-.82-.75-.35-.75-.43-1.24c-.08-.52-.12-1.07-.12-1.69zm1.44-.81c0 .88.04 1.67.14 2.38s.24 1.18.44 1.41.43.35.69.35c.32 0 .58-.16.79-.49.21-.32.31-1.11.31-2.36 0-.82-.05-1.63-.15-2.44-.06-.43-.13-.76-.23-.98s-.22-.38-.36-.48-.31-.15-.5-.15c-.21 0-.4.06-.56.19s-.29.34-.37.64c-.14.42-.2 1.06-.2 1.93z"/><path d="m210.71 108.68v-.6l1.1-1.08c.57-.57.99-1.01 1.27-1.33s.49-.61.65-.88c.15-.27.26-.51.32-.73s.09-.44.09-.67c0-.45-.12-.79-.35-1.03s-.55-.35-.95-.35c-.22 0-.44.04-.64.13s-.37.22-.51.4c-.07.24-.15.55-.24.93h-.46l.15-1.34c.02-.21.05-.42.07-.65.26-.25.55-.43.89-.55s.71-.18 1.13-.18c.58 0 1.06.09 1.42.28s.63.45.81.79.27.68.27 1.04c0 .23-.03.46-.1.68s-.18.46-.35.73c-.17.26-.34.5-.53.7l-.67.67-.62.6c-.33.32-.68.65-1.06.99l.02.08h1.04c.16 0 .68-.01 1.57-.03.28-.01.63-.02 1.04-.05l.05.08c-.04.34-.06.61-.06.81 0 .12.01.29.04.49l-.03.06-1.75-.05c-.39-.01-.68-.02-.85-.02z"/><path d="m216.86 104.97c0-.68.05-1.3.15-1.86.06-.36.18-.7.34-1 .17-.3.36-.55.57-.74s.46-.34.74-.44.59-.15.91-.15c.65 0 1.16.14 1.52.42s.63.68.79 1.19.24 1.23.24 2.14c0 .64-.03 1.21-.1 1.69-.06.48-.18.9-.35 1.24s-.36.62-.57.82-.45.36-.72.46-.59.16-.97.16c-.45 0-.84-.08-1.18-.25s-.61-.42-.82-.75-.35-.75-.43-1.24c-.08-.52-.12-1.07-.12-1.69zm1.44-.81c0 .88.04 1.67.14 2.38s.24 1.18.44 1.41.43.35.69.35c.32 0 .58-.16.79-.49.21-.32.31-1.11.31-2.36 0-.82-.05-1.63-.15-2.44-.06-.43-.13-.76-.23-.98s-.22-.38-.36-.48-.31-.15-.5-.15c-.21 0-.4.06-.56.19s-.29.34-.37.64c-.14.42-.2 1.06-.2 1.93z"/><path d="m223.15 100.02c.38.22.77.56 1.17 1.02s.72.94.95 1.43c.18.37.3.74.38 1.12s.12.82.12 1.33c0 .71-.09 1.36-.26 1.94s-.48 1.15-.9 1.71-.9 1.03-1.43 1.39l-.31-.28c.35-.42.6-.78.75-1.08s.27-.72.36-1.25c.13-.7.2-1.54.2-2.51 0-1.22-.11-2.16-.32-2.82s-.54-1.22-.99-1.69z"/></g></svg>