<svg enable-background="new 0 0 282.67 141.73" viewBox="0 0 282.67 141.73" xmlns="http://www.w3.org/2000/svg" xmlns:xlink="http://www.w3.org/1999/xlink"><linearGradient id="a" gradientUnits="userSpaceOnUse" x1="141.7323" x2="141.7323" y1="0" y2="141.7323"><stop offset="0" stop-color="#fff"/><stop offset=".004420736" stop-color="#f3f8f5"/><stop offset=".026" stop-color="#bed7c9"/><stop offset=".0484" stop-color="#8fbba2"/><stop offset=".0712" stop-color="#67a281"/><stop offset=".0945" stop-color="#478f66"/><stop offset=".1185" stop-color="#2e7f51"/><stop offset=".1434" stop-color="#1c7543"/><stop offset=".1698" stop-color="#116e3a"/><stop offset=".2004" stop-color="#0e6c37"/></linearGradient><path d="m0 0h283.46v141.73h-283.46z" fill="url(#a)"/><g fill="#fff"><path d="m38.5 53.99c.88.12 1.8.2 2.76.2 3.04 0 6.84-.08 9.16-.16 1.16-.68 1.2-.72 2.2-1.32-2.92-2.2-5.12-3.6-8.56-5.44l1.16-1.12c1.76 1.04 2.32 1.4 3.76 2.32 1.84-1.44 2.92-2.52 4-3.92h-11.33c-1.6 0-2.72.08-3.88.24v-1.96c.84.16 1.88.24 3.88.24h12.52v-3.84h-9.36c-1.28 0-2.48.08-3.68.2v-1.84c1.16.12 2.32.2 3.68.2h9.36v-3.52h-10.44c-1.92 0-2.92.04-3.88.2v-1.88c1.04.16 2.2.24 3.88.24h10.44v-.32c0-1.72-.04-2.52-.24-3.44h2.16c-.2 1.04-.28 1.88-.28 3.44v.32h11.36c1.68 0 2.8-.08 3.88-.24v1.88c-1-.16-1.96-.2-3.88-.2h-11.36v3.52h10.04c1.36 0 2.44-.08 3.6-.2v1.84c-1.16-.12-2.32-.2-3.6-.2h-10.04v3.84h13.32c2 0 3.04-.08 3.88-.24v1.96c-1.12-.16-2.28-.24-3.88-.24h-14.16c-1.4 1.64-2.68 2.84-4.88 4.68 1.4.92 1.4.92 3.76 2.64 3.32-2.32 6.2-4.84 7.08-6.24l1.6 1.08c-.64.52-1.2 1-1.48 1.24-2.96 2.56-5 4.08-8.08 6 6.16-.24 6.16-.24 13.56-.92-1.28-1.16-1.8-1.6-3.32-2.76l1.16-.96c3.4 2.76 5.2 4.44 8.24 7.72l-1.24 1.12c-1.52-1.84-2.2-2.6-3.6-3.96-6.68.68-6.68.68-12 .96v6.24c0 1.56.08 2.44.28 3.44h-2.16c.2-.88.24-1.72.24-3.44v-6.12c-4.44.24-5.68.28-13.12.48-.76.04-1.28.04-2.12.16zm11.07 3.75c-2.8 3.08-4.96 4.72-9 6.8-.4-.56-.76-.88-1.4-1.32 4.08-1.68 6.32-3.28 9-6.32zm12.64-1.2c2.84 3 5.24 4.72 9.28 6.64-.52.4-.84.76-1.28 1.36-3.84-2.08-5.92-3.68-9.4-7.2z"/><path d="m84.09 44.43c-1.2 0-2.12.04-2.84.16v-1.68c.68.12 1.52.16 2.84.16h3.52v-9.24c0-2.08-.08-3.36-.24-4.44h2.12c-.16 1.04-.24 2.28-.24 4.4v9.28h2.72c1.2 0 1.96-.04 2.72-.16v1.68c-.84-.12-1.6-.16-2.72-.16h-2.64c.28.68.4.96.84 1.68 1.72 3 2.76 4.36 5.04 6.52-.48.44-.68.68-1.08 1.28-2.64-2.88-3.92-4.92-5.08-8.08.16 4.68.2 5.44.2 6.52v8.44c0 2.36.04 3.36.24 4.48h-2.12c.2-1.16.24-2.16.24-4.48v-8.08c0-2 .08-4.12.2-6.84-1.44 5.4-3.44 9.6-6.4 13.44-.44-.6-.76-.88-1.28-1.32 2.92-3.32 5.6-8.56 7-13.56zm.08-3.4c-.76-3.24-1.44-5.28-2.76-8.04l1.44-.64c1.36 3.16 2.04 5.04 2.84 8.04zm6.48-.64c1.44-3.04 2.4-6.12 2.64-8.44l1.56.56c-1.12 4.44-1.52 5.6-2.88 8.56zm21.88 21.27c1.88 0 3.04-.08 4.16-.24v2c-1.44-.16-2.68-.24-4.12-.24h-14.88c-1.52 0-2.72.08-4.2.24v-2c1.12.16 2.24.24 4.2.24h8.08c2.12-6.64 2.44-7.96 3.92-15.68.6-3.08.84-4.72.84-5.76l2.16.64c-.2.6-.32 1.16-.52 2.24-.08.48-.12.56-1.48 7.2-.6 2.8-1.76 6.96-3.2 11.36zm-8.48-28.87c0-1.48-.04-2.32-.2-3.08h2.04c-.16.64-.2 1.32-.2 3v3.44h5.96c1.76 0 2.96-.08 4-.24v1.92c-1.44-.12-2.8-.2-3.96-.2h-12.48c-1.96 0-3.16.04-4.04.2v-1.88c.88.16 1.92.2 4.04.2h4.84zm-3.28 25.63c-.48-5.96-1.48-11.4-3.2-17.24l1.72-.44c1.6 5.76 2.6 11.04 3.24 17.24z"/><path d="m140.81 42.55c0-.8-.04-1.68-.12-2.44h1.72c4.08-2.2 6.44-3.92 10.04-7.28h-20.8c-1.4 0-2.72.08-3.68.24v-2c1 .16 2.24.24 3.76.24h19.36c1.48 0 2.24-.04 2.92-.16l1.2 1.32c-.92.8-1.04.92-1.4 1.24-2.76 2.48-3.2 2.84-5.16 4.2-2 1.44-3.28 2.2-6.12 3.72v3.96h11.92c2.04 0 3.2-.08 4.56-.24v2.04c-1.4-.16-2.56-.24-4.56-.24h-11.92v14.2c0 2.24-.76 2.88-3.4 2.88-1.44 0-3.24-.12-5.56-.36-.08-.72-.2-1.16-.44-1.88 2.52.4 4.24.56 5.8.56 1.48 0 1.88-.24 1.88-1.2v-14.2h-12.52c-1.84 0-3.12.08-4.64.24v-2.04c1.52.16 2.72.24 4.72.24h12.44z"/><path d="m166.17 35.95c.92.16 1.68.2 3.2.2h5.96c1.64 0 2.32-.04 3.2-.2v1.88c-.84-.12-1.52-.16-2.84-.16h-6.32c-1.4 0-2.24.04-3.2.16zm11.44 7.32c-.88-.12-1.56-.16-2.76-.16h-4.48c-1.28 0-1.96.04-2.8.16v-1.76c.8.12 1.44.16 2.8.16h4.48c1.32 0 2-.04 2.76-.16zm0 5.48c-.88-.12-1.56-.16-2.76-.16h-4.48c-1.28 0-1.96.04-2.8.16v-1.76c.8.12 1.44.16 2.8.16h4.48c1.32 0 2-.04 2.76-.16zm-.04 10.79c0 1.12.04 1.8.08 2.68-1.68-.08-1.84-.08-2.36-.08h-5.96v2.52h-1.76c.12-1.12.2-2.56.2-3.88v-5.24c0-1.28-.04-2.28-.16-3.32.64.12 1.12.16 2.48.16h5.16c1.4 0 1.96-.04 2.44-.12-.08.64-.12 1.28-.12 3.24zm.08-27.23c-.84-.12-1.64-.16-2.72-.16h-4.56c-1.12 0-1.88.04-2.72.16v-1.84c.84.16 1.48.2 2.72.2h4.56c1.24 0 1.84-.04 2.72-.2zm-8.32 28.43h6.72v-6.96h-6.72zm18.24-11.59c-.12.64-.2 1.16-.24 2-.32 5.12-1.16 7.84-3.28 10.4-1.24 1.52-2.44 2.4-4.96 3.68-.36-.56-.72-.92-1.36-1.32 2.52-1.08 3.68-1.84 4.88-3.2 1.96-2.24 3.08-5.76 3.08-9.68 0-.8-.04-1.4-.16-2zm8.44-9.12c1.68 0 2.8-.08 3.88-.24v1.88c-1.12-.16-2.28-.24-3.88-.24h-12.04c-1.6 0-2.72.08-3.88.24v-1.88c1.04.16 2.2.24 3.88.24h4.92v-5.04h-6c-1.6 0-2.72.08-3.88.24v-1.92c1.04.16 2.2.24 3.88.24h6v-1.32c0-1.36-.08-2.28-.24-3.36h2.08c-.16 1.04-.24 2-.24 3.44v1.24h7.36c1.68 0 2.8-.08 3.88-.24v1.92c-1.12-.16-2.28-.24-3.88-.24h-7.36v5.04zm3.76 6.44h-18.84v4.96h-1.76c.12-.88.16-1.6.16-2.36v-1.64c0-1.24-.04-1.84-.16-2.52.8.08 1.84.12 3.88.12h14.08c2.04 0 3.24-.04 4.4-.2-.08.76-.12 1.48-.12 2.44v2c0 .96.04 1.68.12 2.16h-1.76zm-6.16 15.39c0 .88.44 1.04 2.88 1.04 1.56 0 2.32-.12 2.8-.44.68-.48 1-2 1.2-5.88.8.56 1.12.72 1.68.84-.4 4.2-.84 5.68-1.88 6.4-.68.48-1.64.64-3.88.64-3.68 0-4.4-.4-4.4-2.52v-9.16c0-1.6-.08-2.52-.24-3.6h2.08c-.16 1.04-.24 2-.24 3.6z"/><path d="m214.49 38.19c-1.44 0-2.72.08-4.2.24v-2.12c1.4.2 2.56.28 4.2.28h11.6v-3.68c0-1.24-.08-2.28-.28-3.64h2.28c-.2 1.24-.28 2.44-.28 3.6v3.72h12.28c2.04 0 3.2-.08 4.32-.28v2.12c-1.48-.16-2.84-.24-4.32-.24h-11.56c2.12 4.2 4.04 7.04 7.12 10.36 3.24 3.48 6.12 5.76 9.88 7.84-.64.6-1.04 1.04-1.48 1.68-3.52-2.28-6-4.36-8.72-7.28-3.68-3.96-5.8-7.16-7.68-11.76.12 2.48.16 4 .16 5.48v10.36h4.6c1.96 0 2.84-.04 3.96-.2v1.92c-1.24-.2-2.04-.24-3.96-.24h-4.6v4.32c0 1.88.08 3.16.28 4.4h-2.28c.2-1.36.28-2.68.28-4.44v-4.28h-4.12c-2 0-2.8.04-4.04.24v-1.92c1.08.16 2 .2 4.04.2h4.12v-10.36c0-1.6.04-3.28.16-5.44-1.16 2.92-1.96 4.48-3.68 6.96-1.84 2.68-4.48 5.72-6.92 8.04-1.72 1.6-2.92 2.56-5.08 4.08-.44-.6-.84-.96-1.56-1.44 3.56-2.08 6.48-4.64 9.8-8.56 2.88-3.4 4.76-6.32 6.4-9.96z"/><path d="m88.72 97.11c-.7 0-1.27.02-1.68.1v-1.22c.38.07.91.1 1.68.1h1.13v-2.71c0-1.01-.05-1.58-.12-2.06h1.39c-.1.5-.12 1.2-.12 2.04v2.74h.5c.7 0 1.1-.02 1.61-.1v1.22c-.53-.07-.98-.1-1.61-.1h-.48c.72 1.44 1.3 2.18 2.42 3.19-.31.31-.46.46-.77.89-.84-.96-1.27-1.61-1.78-2.71.07 2.3.1 2.9.1 3.77v8.11c0 1.3.02 2.09.14 2.74h-1.43c.1-.67.14-1.49.14-2.74v-7.22c0-1.08.05-2.52.12-3.96-.67 3.29-1.39 5.33-2.69 7.42-.26-.36-.46-.55-.91-.91 1.56-2.3 2.5-4.78 3.29-8.57h-.93zm5.78 6.77h-.94c-.53 0-.74.02-1.08.07v-1.18c.46.07.7.1 1.15.1h.89c.5 0 .82-.02 1.18-.07-.07.7-.1 1.39-.1 2.45v3.58c.38.77.94 1.3 1.8 1.68.82.38 2.38.6 4.54.6 1.9 0 3.84-.1 6.84-.38-.22.46-.29.7-.43 1.32-2.5.14-3.96.19-5.47.19-4.85 0-6.58-.55-7.85-2.5-.65.91-1.06 1.42-1.8 2.26-.19.22-.19.22-.72.84l-.89-1.13c.82-.48 1.9-1.58 2.88-2.88zm-1.25-11.79c1.32 1.06 1.97 1.7 3.24 3.19l-.82.84c-1.15-1.49-1.85-2.18-3.19-3.31zm.31 5.45c1.1.89 1.75 1.54 2.95 2.95l-.79.79c-1.08-1.37-1.73-2.04-2.93-3.02zm5 9.65c0 1.2.02 1.87.12 2.45h-1.39c.1-.58.14-1.32.14-2.47v-7.78c0-1.42-.02-1.94-.1-2.38.67.1 1.39.12 2.5.12h2.64c-1.08-.86-1.63-1.22-3.31-2.18l.77-.72c1.18.7 1.61.98 2.4 1.56 1.34-.84 2.11-1.42 3.19-2.38h-6.05c-1.15 0-1.7.02-2.38.12v-1.27c.6.1 1.22.14 2.4.14h5.06c1.37 0 1.8-.02 2.3-.07l.53.74c-1.15 1.1-2.86 2.42-4.3 3.29.34.26.55.43.91.77h.98c1.37 0 2.18-.02 2.69-.12-.07.38-.1 1.2-.1 2.45v8.66c0 1.22-.41 1.54-1.87 1.54-.48 0-1.03-.02-1.68-.1-.02-.41-.1-.62-.26-1.13.77.12 1.42.19 1.92.19.62 0 .77-.12.77-.65v-2.86h-3.55v1.68c0 1.18.02 1.85.14 2.52h-1.34c.1-.6.14-1.39.14-2.54v-1.66h-3.29v2.08zm0-9.07v2.5h3.29v-2.5zm3.28 6.02v-2.57h-3.29v2.57zm1.06-3.53h3.55v-2.5h-3.55zm3.55 3.53v-2.57h-3.55v2.57z"/><path d="m114.75 111.99c.12-.89.17-1.68.17-2.69v-13.13c0-1.13-.02-1.75-.12-2.54.84.1 1.44.12 2.57.12h12.36c1.13 0 1.73-.02 2.57-.12-.1.72-.12 1.39-.12 2.54v13.13c0 1.01.05 1.82.17 2.69h-1.49v-1.97h-14.62v1.97zm1.49-3.14h14.62v-13.92h-14.62z"/><path d="m159.11 93.97h-6.94c-1.08 0-1.85.05-2.62.14v-1.49c.7.1 1.44.14 2.57.14h14.09c1.1 0 1.9-.05 2.59-.14v1.49c-.79-.1-1.54-.14-2.59-.14h-5.76v7.13h4.94c1.18 0 1.87-.05 2.42-.14v1.46c-.58-.1-1.3-.14-2.42-.14h-4.94v8.21h6.5c1.18 0 1.92-.05 2.66-.17v1.54c-.77-.12-1.54-.17-2.66-.17h-15.67c-1.15 0-1.9.05-2.69.17v-1.54c.72.12 1.44.17 2.66.17h1.39v-8.47c0-1.15-.05-1.87-.17-2.69h1.68c-.12.74-.17 1.51-.17 2.69v8.47h5.11v-16.52z"/><path d="m185.75 91.69c-.05.41-.12 1.37-.12 1.99 0 1.56.22 3.89.48 5.09.48 2.23 1.56 4.7 2.9 6.72 1.01 1.51 2.28 2.93 3.67 4.08.82.7 1.46 1.13 2.95 2.02-.53.43-.77.7-1.1 1.22-2.16-1.49-3.22-2.38-4.56-3.89-2.66-2.98-4.06-5.91-4.97-10.32-.62 3.6-1.56 6-3.22 8.38-.82 1.2-1.85 2.35-3.02 3.38-.96.84-1.66 1.37-3.34 2.42-.36-.5-.58-.74-1.13-1.13 2.47-1.42 3.58-2.23 5.06-3.84 2.28-2.42 3.65-5.18 4.37-8.74.34-1.63.5-3.36.5-5.16 0-1.01-.02-1.58-.1-2.23h1.63z"/></g><g opacity=".75"><g stroke="#fff" stroke-miterlimit="10"><path d="m159.07 124.35 67.31-18.29" fill="#fff" opacity=".6" stroke-width=".3036"/><path d="m282.15 86.19c-3.24.8-7.42 1.9-12.24 3.4-3.48 1.08-6.09 1.99-10.46 3.52-2.9 1.01-7.24 2.53-12.27 4.43-5.29 2-12.35 4.8-20.79 8.52" fill="none" opacity=".6" stroke-width=".3036"/><path d="m283.18 93.05c-2.01.64-4.75 1.49-8.02 2.42-3.77 1.07-6.63 1.78-9.31 2.44-4 .99-6.97 1.67-10.19 2.39-2.76.62-6.69 1.51-11.55 2.5-4.57.93-10.57 2.08-17.73 3.26" fill="none" opacity=".6" stroke-width=".3058"/><path d="m283.46 111.95c-9.33-.25-17.22-.82-23.25-1.38-8.28-.77-14.89-1.68-20-2.39-5.61-.78-10.34-1.53-13.83-2.11" fill="none" opacity=".6" stroke-width=".3106"/><path d="m263.57 48.03c-5.65 10.91-10.86 19.55-14.79 25.74-4.36 6.85-8.47 12.74-12.21 18.08-4.1 5.87-7.62 10.72-10.19 14.21" fill="none" opacity=".6" stroke-width=".3078"/><path d="m265.76 141.53c-2.92-3.88-5.43-7.04-7.27-9.3-8.75-10.76-12.71-14.14-13.89-15.13-3.08-2.57-5.8-4.37-7.62-5.48" fill="none" opacity=".6" stroke-width=".3036"/><path d="m246.08 68c.89 2.09 1.93 5 2.6 8.62.31 1.65.85 4.7.68 8.67-.21 4.79-1.37 8.32-1.94 10.03-2.68 8.01-7.5 13.47-10.43 16.31" fill="none" opacity=".6" stroke-width=".3082"/><g fill="none" opacity=".6" stroke-width=".3094"><path d="m236.98 111.62c-.09-.05-.18-.11-.26-.16"/><path d="m236.21 111.16c-1.16-.69-2.37-1.37-3.63-2.05-1.94-1.04-3.83-1.97-5.65-2.8" stroke-dasharray=".598 .598"/><path d="m226.66 106.19c-.09-.04-.19-.08-.28-.13"/></g></g><g opacity=".6"><path d="m171.08 125.43 12.15-3.17" fill="none" stroke="#fff" stroke-miterlimit="10" stroke-width=".3036"/><path d="m182.7 122.4-.92-.89.03-.03 1.9.24c.64-.02 1.27-.05 1.91-.07-.57.29-1.13.58-1.7.87l-1.55 1.13-.04-.01z" fill="#fff"/></g><g opacity=".6"><path d="m213.39 102.35 8.66 1.52" fill="none" stroke="#fff" stroke-miterlimit="10" stroke-width=".3036"/><path d="m221.56 104.86 1.99-.73-1.63-1.36z" fill="#fff"/></g><g fill="#fff" opacity=".6"><path d="m180.35 130.73c-.56-.4-.99-.97-1.25-1.65-.06-.16-.11-.33-.15-.5-.36 1.23-1.17 2.03-1.89 2.24l-.02-.04c1.13-.63 1.71-2.08 1.69-2.72l.12.04c-.06-.38-.06-.65-.06-.83h-.34c-.14 0-.37.02-.53.05l-.09-.19c.31.03.6.04.68.04h.21l.15-.15c.03-.03.04-.04.06-.04s.06.02.07.03l.21.16c.02.02.04.04.04.07s-.02.04-.04.06c-.04.02-.22.12-.26.14 0 .06-.01.14-.01.26 0 1.27.75 2.4 1.79 2.75v.04c-.1-.01-.27.05-.38.24z"/><path d="m182.75 129.21c-.02.04-.04.06-.05.07v.15l.01 1.04c0 .11 0 .28-.41.41-.04-.18-.17-.33-.27-.35v-.03c.06.01.29.01.36.01.08 0 .1-.02.1-.14 0-.23 0-.63 0-.83-.43.51-.95.96-1.34 1.14l-.02-.04c.46-.3 1.14-1.16 1.3-1.4-.17.06-.91.27-1.06.31-.01.05-.02.12-.08.12-.03 0-.05-.03-.06-.06l-.08-.33c.02 0 .16.02.17.02s.14-.01.17-.01v-.47c0-.14.01-.4.01-.53 0-.28-.01-.73-.04-1l.26.17h.16c.04-.12.1-.36.11-.5 0-.06 0-.13 0-.19l.34.16c.02.01.04.02.04.06s-.01.04-.13.08c-.05.06-.26.32-.31.38h.54l.07-.11c.03-.03.03-.04.05-.04s.03.01.05.03l.16.15c.01.01.01.01.03.03v.02c0 .08-.09.13-.14.14v1.23l.13.1c.03.02.05.05.05.08.01.12-.08.13-.12.13zm-.26-1.62h-.79v.39h.79zm0 .5h-.79v.51h.79zm-.79.62v.58c.33-.03.62-.05.79-.12 0-.15 0-.38 0-.47h-.79zm3.17-.48h-.64v.66c0 .1.02 1.52.02 1.55 0 .37-.33.45-.43.48-.02-.08-.02-.11-.06-.17-.06-.1-.15-.19-.24-.21v-.03c.07 0 .14.01.25.01.17 0 .22 0 .24-.05.02-.04.02-.07.02-.27 0-.38-.01-1.15-.02-1.98h-.51c-.14 0-.37.02-.53.05l-.09-.19c.31.03.6.04.68.04h.45c0-.08-.01-.29-.01-.4 0-.54 0-.59-.06-.82l.37.11c.04.01.07.02.07.06s-.04.09-.15.14c.01.15 0 .78 0 .91h.27l.08-.16c.01-.02.04-.06.07-.06s.07.03.08.04l.16.16c.02.02.04.04.04.07.01.05-.03.06-.06.06zm-1.4 1.35c-.13 0-.16-.12-.17-.22 0 0-.06-.34-.24-.61l.02-.03c.24.15.55.36.55.67 0 .15-.07.19-.16.19z"/><path d="m186.46 127.37c-.11.2-.27.52-.33.61-.06.1-.13.23-.18.3.23.24.52.56.52.95 0 .41-.29.53-.44.59-.02-.19-.17-.31-.24-.36v-.03c.06.01.12.03.21.03.23 0 .25-.12.25-.27 0-.3-.13-.69-.36-.9.04-.11.22-.58.25-.67.02-.08.08-.3.11-.39h-.57c0 .16-.02 1.85-.01 2.11l.02 1.21c0 .11-.03.22-.18.22-.04 0-.08-.03-.08-.08 0-.1.02-.53.02-.62.02-.68.02-1.36.02-2.04 0-.77 0-.91-.02-1.06l.29.15h.53l.08-.08c.03-.03.04-.05.07-.05.02 0 .04.02.06.04l.17.16c.02.02.03.04.03.05-.03.05-.15.1-.22.13zm2.36 1.39h-1.46c-.04.1-.11.26-.25.47h1.17l.09-.09c.04-.04.06-.06.08-.06s.03.01.07.04l.14.13c.03.02.03.05.03.06 0 .06-.08.1-.15.13-.01.11-.06.63-.08.74-.09.5-.34.57-.59.62-.04-.18-.14-.28-.26-.39l.02-.03c.1.04.22.08.33.08.08 0 .15-.01.2-.09.09-.13.1-.25.18-1.04h-.3c-.19.78-.77 1.39-1.28 1.52v-.01c.5-.35.86-.89 1.04-1.51h-.28c-.21.51-.59 1.08-1.25 1.35v-.03c.36-.24.82-.82 1-1.32h-.23c-.13.18-.53.67-.89.81v-.01c.43-.35.72-.85.95-1.38-.23 0-.43.02-.58.05l-.09-.19c.21.02.46.04.68.04h1.34l.13-.14c.03-.04.05-.05.06-.05.02 0 .05.03.07.04l.14.14c.01.01.04.04.04.07-.01.05-.05.05-.07.05zm-.65-1.47c0 .13.02.83.02.91 0 .16-.13.19-.16.19-.07 0-.07-.08-.07-.14h-.81c-.01.1-.1.15-.16.15-.05 0-.07-.03-.07-.08 0-.03.01-.15.01-.17 0-.57.01-.62.01-.77 0-.19 0-.24-.03-.45l.28.16h.75l.06-.07c.02-.03.04-.04.06-.04s.05.02.07.03l.11.08c.03.02.05.04.05.06s-.01.05-.12.14zm-.2-.09h-.82v.42h.82zm0 .54h-.82v.41h.82z"/><path d="m192.89 128.87h-1.67v1.48c0 .11.01.2-.07.29-.04.05-.14.16-.42.21-.01-.1-.03-.16-.08-.22-.02-.02-.14-.13-.42-.22l.01-.03c.13.02.38.06.52.06.17 0 .23-.04.23-.2v-1.37h-1.09c-.14 0-.37.02-.53.05l-.09-.19c.31.03.6.03.68.03h1.03v-.45c0-.29-.03-.41-.05-.48l.31.08c.25-.34.26-.36.46-.67h-1.34c-.14 0-.37.02-.52.05l-.1-.19c.31.03.6.04.68.04h1.32l.13-.12c.02-.03.04-.04.08-.04.03 0 .07.03.08.04l.24.18c.02.01.04.04.04.08 0 .05-.06.07-.09.07-.06.01-.14.02-.22.03-.04.03-.08.07-.41.35-.13.12-.23.18-.28.22.03.02.04.05.04.07 0 .07-.09.14-.14.17v.58h1.12l.18-.22c.04-.05.04-.05.06-.05s.06.03.07.04l.25.22c.02.02.04.04.04.07.01.04-.02.04-.05.04z"/></g><g fill="#fff" opacity=".6"><path d="m202.66 97.33h-.47v.4c.16.07.49.3.49.5 0 .07-.04.14-.1.14-.09 0-.11-.06-.18-.27-.04-.13-.14-.29-.2-.34v1.92c0 .07.01.38.01.45 0 .12-.11.15-.16.15-.08 0-.08-.05-.08-.15 0-.58.04-1.49.04-2.06-.14.42-.4.95-.67 1.18l-.03-.02c.13-.18.29-.51.42-.9.09-.27.24-.75.26-1-.07 0-.3.01-.47.05l-.1-.2c.11.01.29.03.59.04 0-.23-.01-.77-.09-.94l.38.12c.05.01.05.04.05.05 0 .04-.03.07-.04.08-.02.01-.11.08-.12.09v.6h.19l.07-.1c.02-.03.04-.06.07-.06.02 0 .03 0 .07.05l.09.1c.04.04.04.06.04.07 0 .04-.04.05-.06.05zm.5 2.14c-.02 0-.03 0-.06 0-.17.23-.45.5-.67.61l-.02-.02c.11-.12.52-.65.55-.88l.29.16c.02.01.04.03.04.06-.02.07-.12.07-.13.07zm1.86-.46h-1.16c0 .13.01.76.01.91 0 .11 0 .33-.36.38-.02-.08-.03-.16-.31-.34v-.02c.26.03.28.04.32.04.13 0 .13-.1.13-.15 0-.03-.01-.73-.01-.81h-.54c-.09 0-.33.01-.53.05l-.1-.19c.21.02.47.04.68.04h1.44l.12-.16c.03-.04.04-.06.07-.06.02 0 .03.01.07.04l.19.17c.02.01.04.04.04.07 0 .02-.04.03-.06.03zm-.05-2.34h-.81v.47h.32l.08-.1c.01 0 .03-.04.05-.04.01 0 .04.02.05.03l.14.11c.03.03.04.03.04.05s-.01.04-.02.04c-.01.01-.07.05-.08.06 0 .16.01.46.01.61 0 .04 0 .08-.04.12-.02.02-.08.06-.12.06-.06 0-.06-.04-.06-.11h-1.46v.03c0 .1-.08.15-.16.15-.06 0-.06-.04-.06-.07 0-.01 0-.08 0-.09.01-.12.02-.4.02-.52 0-.09 0-.31-.04-.46l.27.12h.31v-.47h-.16c-.08 0-.33.01-.53.05l-.09-.19c.21.02.46.03.68.03h1.29l.1-.14c.02-.03.04-.06.07-.06.02 0 .06.03.08.05l.15.14c.02.02.04.04.04.07-.01.06-.06.06-.07.06zm-.41 1.84h-1.05c-.14 0-.37.02-.52.05l-.1-.19c.31.03.6.03.68.03h.63l.11-.13c.04-.05.05-.05.07-.05s.06.04.07.04l.14.13c.02.02.04.04.04.07-.01.04-.04.05-.07.05zm-1.15-1.27h-.34v.62h.34zm.55-.57h-.36v.47h.36zm0 .57h-.36v.62h.36zm.87 2.77c-.08 0-.1-.02-.23-.23-.2-.3-.33-.41-.45-.49l.02-.03c.17.06.36.14.51.24.06.04.26.19.26.35 0 .09-.03.16-.11.16zm-.3-2.77h-.38v.62h.38z"/><path d="m207.16 97.31c-.02.03-.07.07-.1.09-.01.13-.01.23-.01.3 0 .58.01 1.15.02 1.73v.25c0 .07 0 .22-.16.22-.09 0-.09-.05-.08-.2h-.86c0 .19 0 .3-.15.3-.1 0-.11-.05-.11-.1 0-.02.01-.14.01-.17.02-.21.04-.55.04-1.12 0-.2 0-1.34-.01-1.44 0-.06-.01-.11-.02-.16l.28.19h.16c.05-.16.14-.52.16-.7 0-.05 0-.13 0-.17l.36.15c.04.01.07.03.07.06s-.02.05-.04.06-.12.05-.13.06c-.09.16-.12.2-.34.54h.56l.07-.11c0-.01.02-.03.04-.03.01 0 .05.03.07.04l.16.11c.02.01.03.04.03.06 0 .01-.01.03-.02.04zm-.33-.01h-.86v1.04h.86zm0 1.14h-.86v1.15h.86zm2.12-.97v.05c0 1.17-.02 1.6-.11 2-.15.65-.48.7-.66.73-.02-.1-.04-.17-.15-.27-.05-.05-.16-.13-.34-.21l.01-.04c.16.04.43.1.56.1.15 0 .2-.03.29-.21.05-.11.16-.47.16-1.06.01-.36.01-.74.01-1.19h-.98c-.14.3-.31.63-.59.93l-.02-.02c.34-.57.54-1.32.61-1.59.04-.16.04-.22.05-.32l.33.15c.02.01.06.04.06.08 0 .03-.01.06-.15.1-.05.13-.11.3-.23.57h.87l.08-.14c.02-.03.04-.04.07-.04.02 0 .04.01.08.04l.17.12c.02.01.03.03.03.06-.01.04-.02.05-.15.16zm-.92 1.44c-.12 0-.16-.1-.23-.29-.07-.18-.19-.34-.34-.44l.01-.03c.39.12.51.22.6.34.06.09.09.2.09.27 0 .13-.1.15-.13.15z"/><path d="m210.82 96.78c-.11.2-.27.52-.33.61-.06.1-.13.23-.18.3.23.24.52.56.52.95 0 .41-.29.53-.44.59-.02-.19-.17-.31-.24-.36v-.03c.06.01.12.03.21.03.23 0 .25-.12.25-.27 0-.3-.13-.69-.36-.9.04-.11.22-.58.25-.67.02-.08.08-.3.11-.39h-.57c0 .16-.02 1.85-.01 2.11l.02 1.21c0 .11-.03.22-.18.22-.04 0-.08-.03-.08-.08 0-.1.02-.53.02-.62.02-.68.02-1.36.02-2.04 0-.77 0-.91-.02-1.06l.29.15h.53l.08-.08c.03-.03.04-.05.07-.05.02 0 .04.02.06.04l.17.16c.02.02.03.04.03.05-.03.05-.14.1-.22.13zm2.37 1.39h-1.46c-.04.1-.11.26-.25.47h1.17l.09-.09c.04-.04.06-.06.08-.06s.03.01.07.04l.14.13c.03.02.03.05.03.06 0 .06-.08.1-.15.13-.01.11-.06.63-.08.74-.09.5-.34.57-.59.62-.04-.18-.14-.28-.26-.39l.02-.03c.1.04.22.08.33.08.08 0 .15-.01.2-.09.09-.13.1-.25.18-1.04h-.3c-.19.78-.77 1.39-1.28 1.52v-.01c.5-.35.86-.89 1.04-1.51h-.28c-.21.51-.59 1.08-1.25 1.35v-.03c.36-.24.82-.82 1-1.32h-.23c-.13.18-.53.67-.89.81v-.01c.43-.35.72-.85.95-1.38-.23 0-.43.02-.58.05l-.09-.19c.21.02.46.04.68.04h1.34l.13-.14c.03-.04.05-.05.06-.05.02 0 .05.03.07.04l.14.14c.01.01.04.04.04.07-.01.05-.05.05-.07.05zm-.66-1.47c0 .13.02.83.02.91 0 .16-.13.19-.16.19-.07 0-.07-.08-.07-.14h-.81c-.01.1-.1.15-.16.15-.05 0-.07-.03-.07-.08 0-.03.01-.15.01-.17 0-.57.01-.62.01-.77 0-.19 0-.24-.03-.45l.28.16h.75l.06-.07c.02-.03.04-.04.06-.04s.05.02.07.03l.11.08c.03.02.05.04.05.06s0 .05-.12.14zm-.2-.09h-.82v.42h.82zm0 .54h-.82v.41h.82z"/><path d="m217.25 98.28h-1.67v1.48c0 .11.01.2-.07.29-.04.05-.14.16-.42.21-.01-.1-.03-.16-.08-.22-.02-.02-.14-.13-.42-.22l.01-.03c.13.02.38.06.52.06.17 0 .23-.04.23-.2v-1.37h-1.09c-.14 0-.37.02-.53.05l-.09-.19c.31.03.6.03.68.03h1.03v-.45c0-.29-.03-.41-.05-.48l.31.08c.25-.34.26-.36.46-.67h-1.34c-.14 0-.37.02-.52.05l-.1-.19c.31.03.6.04.68.04h1.32l.13-.12c.02-.03.04-.04.08-.04.03 0 .07.03.08.04l.24.18c.02.01.04.04.04.08 0 .05-.06.07-.09.07-.06.01-.14.02-.22.03-.04.03-.08.07-.41.35-.13.12-.23.18-.28.22.03.02.04.05.04.07 0 .07-.09.14-.14.17v.58h1.12l.18-.22c.04-.05.04-.05.06-.05s.06.03.07.04l.25.22c.02.02.04.04.04.07.02.04-.02.04-.05.04z"/></g><g fill="#fff" opacity=".6"><path d="m256.17 81.87.04.07-.02.05c-.12.11-.26.21-.41.32-.16.11-.3.16-.42.16-.17 0-.3-.09-.39-.27s-.13-.39-.13-.64c0-.3.05-.64.15-1.02s.26-.76.49-1.16h-1.64c-.2 1.17-.4 2.13-.6 2.88-.11.08-.24.14-.38.17l-.06-.06c.1-.24.18-.45.24-.63s.13-.38.19-.62c.07-.24.14-.51.22-.82l.23-.92h-.16c-.21 0-.36.02-.46.05-.1.04-.18.09-.25.16s-.14.18-.23.33l-.05.02-.05-.04-.01-.05c.15-.45.26-.72.32-.8s.17-.12.33-.12l1.49.02c.49 0 1.05-.01 1.67-.03-.05.2-.08.32-.09.37l-.42.09c-.3.57-.45 1.15-.45 1.75 0 .27.03.49.1.66s.17.25.32.25c.05 0 .11-.01.16-.03s.13-.07.25-.15z"/><path d="m257.85 78.58h.91v.19h-.91v.99h-.18v-.99h-.91v-.19h.91v-.99h.18z"/></g><g fill="#fff" opacity=".6"><path d="m257.66 123.92.04.07-.02.05c-.12.11-.26.21-.41.32-.16.11-.3.16-.42.16-.17 0-.3-.09-.39-.27s-.13-.39-.13-.64c0-.3.05-.64.15-1.02s.26-.76.49-1.16h-1.64c-.2 1.17-.4 2.13-.6 2.88-.11.08-.24.14-.38.17l-.06-.06c.1-.24.18-.45.24-.63s.13-.38.19-.62c.07-.24.14-.51.22-.82l.23-.92h-.17c-.21 0-.36.02-.46.05-.1.04-.18.09-.25.16s-.14.18-.23.33l-.05.02-.05-.04-.01-.05c.15-.45.26-.72.32-.8s.17-.12.33-.12l1.49.02c.49 0 1.05-.01 1.67-.03-.05.2-.08.32-.09.37l-.42.09c-.3.57-.45 1.15-.45 1.75 0 .27.03.49.1.66s.17.25.32.25c.05 0 .11-.01.16-.03s.13-.07.25-.15z"/><path d="m258.05 120.25h1.97v.17h-1.97z"/></g><g fill="#fff" opacity=".6"><path d="m226.38 116.57v-.21c.25-.02.4-.04.44-.07.03-.02.05-.05.07-.09.05-.1.11-.36.18-.79.03-.2.13-.8.29-1.8.14-.92.22-1.47.22-1.66 0-.09-.02-.15-.07-.18-.05-.04-.22-.06-.51-.06l.03-.21c.46.03.76.04.9.04.19 0 .48-.01.87-.04l-.02.21c-.26.01-.42.03-.48.05-.03.01-.06.03-.08.06s-.04.08-.06.14c-.01.06-.07.39-.17 1-.09.6-.15.95-.17 1.04.25-.2.49-.42.71-.65.23-.23.59-.63 1.09-1.19.18-.2.28-.32.3-.37s.03-.14.03-.26c.05 0 .22 0 .52.01.2-.02.32-.03.36-.03v.21c-.15 0-.26.01-.31.04-.06.03-.17.13-.33.29l-1.81 1.84 1.47 1.96c.13.17.23.3.3.37.04.05.09.08.13.1.05.02.14.03.3.05v.21c-.15-.03-.28-.04-.38-.04l-.53.04c-.14-.22-.31-.46-.49-.72-.27-.38-.56-.76-.85-1.13s-.47-.59-.52-.65c-.08.45-.16 1.02-.26 1.7-.03.21-.05.35-.05.41s.02.11.05.13c.05.03.23.05.54.06l-.02.21c-.3-.02-.59-.03-.89-.03-.28-.02-.55-.01-.8.01z"/><path d="m230.89 112.54c0-1.12.4-1.66.95-1.66.56 0 .9.57.9 1.62 0 1.11-.36 1.68-.95 1.68-.52 0-.9-.58-.9-1.64zm1.53-.03c0-.8-.18-1.35-.59-1.35-.35 0-.6.51-.6 1.35s.22 1.38.59 1.38c.43 0 .6-.62.6-1.38z"/></g><path d="m192.99 78.96.02-.23c.24-.05.38-.09.41-.11.02-.02.04-.04.05-.08.03-.07.1-.43.2-1.07s.22-1.34.34-2.12c.08-.51.12-.83.12-.96 0-.05-.01-.09-.03-.11s-.06-.04-.12-.06c-.05-.01-.14-.02-.28-.03l-.13-.01h-.05l.02-.24 1.04.02c.04 0 .27-.01.68-.02.19 0 .36-.01.52-.01.33 0 .58.03.77.1s.34.18.45.33c.11.16.17.35.17.57 0 .17-.04.34-.11.5s-.18.3-.31.42c-.14.12-.29.21-.45.28-.05.02-.22.07-.51.16.32.04.56.1.72.18s.28.2.36.36.12.34.12.54c0 .23-.05.45-.15.63-.1.19-.23.35-.38.48s-.32.23-.51.31c-.27.11-.55.17-.86.17-.14 0-.32-.01-.54-.02-.29-.02-.53-.03-.71-.03-.17.02-.45.03-.85.05zm1.36-.4c.35.06.6.09.75.09.23 0 .41-.05.55-.16s.25-.27.32-.48.11-.42.11-.61c0-.2-.04-.37-.11-.51s-.18-.23-.31-.29-.35-.08-.65-.08c-.06 0-.18 0-.36.01-.01.09-.07.5-.19 1.25-.03.18-.07.44-.11.78zm.36-2.35c.08 0 .17.01.25.01.2 0 .36-.01.48-.03s.22-.06.32-.12.19-.13.26-.23.13-.22.18-.37.07-.3.07-.45c0-.14-.03-.26-.08-.38-.06-.11-.13-.19-.22-.24-.13-.07-.33-.11-.59-.11-.11 0-.23.01-.36.02l-.02.1-.15.85c-.08.53-.13.84-.14.95z" fill="#fff" opacity=".6"/><path d="m191.07 76.14c0 2.5-1.87 4.53-4.17 4.53s-4.17-2.03-4.17-4.53 1.87-4.53 4.17-4.53c1.13 0 2.15.49 2.9 1.27.79.83 1.27 1.98 1.27 3.26z" fill="none" opacity=".6" stroke="#fff" stroke-miterlimit="10" stroke-width=".3036"/><path d="m186.91 76.14 2.9-3.26-5.77 6.54z" fill="none" opacity=".6" stroke="#fff" stroke-miterlimit="10" stroke-width=".3036"/><path d="m184.04 72.86 5.77 6.53" fill="#fff" opacity=".6" stroke="#fff" stroke-miterlimit="10" stroke-width=".3036"/></g></svg>