<svg enable-background="new 0 0 282.67 141.73" viewBox="0 0 282.67 141.73" xmlns="http://www.w3.org/2000/svg" xmlns:xlink="http://www.w3.org/1999/xlink"><clipPath id="a"><path d="m207.21 111.6h62.17v18.36h-62.17z"/></clipPath><clipPath id="b"><path d="m22.55 112.41h54v16.74h-54z"/></clipPath><clipPath id="c"><path d="m103.91 85.55h74.86v17.31h-74.86z"/></clipPath><clipPath id="d"><path d="m65.83 50.26h150.39v17.45h-150.39z"/></clipPath><clipPath id="e"><path d="m1.81 6.2h278.44v18.07h-278.44z"/></clipPath><path d="m0 0h282.67v141.73h-282.67z" fill="#933232" stroke="#000" stroke-miterlimit="10"/><g fill="#620f13"><path clip-path="url(#a)" d="m220.14 116.28c-3.32.04-3.89 3.4-4.55 5.78-.57 2.11-2.17 2.7-3.36 2.7l3.91-12.63-1.77.28-3.06 12.38c-.98 0-1.98-.34-1.98-1.93 0-1.28.94-2.76.94-4.64 0-1.3-.7-1.94-2.19-1.94l-.06.26c.17 0 .68.11.68 1.3 0 .98-1.02 3.49-1.02 4.61 0 2.59 2.59 3.19 3.4 3.19l-1 4.17h.51l1.38-4.19c1.93 0 4.64-.85 5.51-4.02l.77-2.76c.23-.87 1.08-2.23 1.83-2.28z"/><path clip-path="url(#a)" d="m247.62 119.91-4.17-4.33-.66.7 2.53 3.06h-16.84v1.19h16.84l-2.53 3.06.66.71z"/><path clip-path="url(#a)" d="m269.1 116.32-.94.13c-.19.23-2.59 2.93-5.51 5.49l-.59-3.78c-.32-2-.7-2.13-1.19-2.13-.19 0-1.38.47-2.45.79l.09.26c.51-.17.7-.19.91-.19.7 0 .85.45.94 1l.79 5.27c-4.4 3.96-6.02 6.17-6.34 6.66l1-.28c.19-.26 2.4-2.81 5.53-5.4l.53 3.59c.23 1.59.98 2.08 1.55 2.08 1.23 0 2.68-1.74 2.68-2.21 0-.06-.04-.11-.11-.11-.26 0-.85 1.32-1.68 1.32-.28 0-.66-.15-.83-1.32l-.64-4.55c4.26-3.81 5.96-6.17 6.26-6.62"/><path clip-path="url(#b)" d="m32.27 119.56c0 1.38-1.09 4.03-4.83 4.03l.37-1.63c.91-4.07 2.42-4.3 2.99-4.3 1.1 0 1.47.68 1.47 1.9m.56-.48c0-1.18-.29-2.64-2.19-2.64-1.96 0-2.64 1.49-4.21 7.16-.91 0-2.44-.25-2.44-2.17 0-3.16 1.71-4.44 1.71-4.67 0-.04-.04-.06-.14-.06-.19 0-2.85 1.98-2.85 5.41 0 2.08 2.07 3.08 3.3 3.08-.68 2.58-1.36 3.59-1.53 3.82h1.55l.97-3.8c3.53 0 5.83-2.97 5.83-6.13z"/><path clip-path="url(#b)" d="m57.57 119.99-3.8-3.96-.6.64 2.31 2.8h-15.36v1.08h15.36l-2.31 2.8.6.64z"/><path clip-path="url(#b)" d="m76.04 116.67c-3.03.04-3.55 3.1-4.15 5.28-.52 1.92-1.98 2.46-3.06 2.46l3.57-11.52-1.61.25-2.79 11.29c-.89 0-1.8-.31-1.8-1.76 0-1.16.85-2.52.85-4.23 0-1.18-.64-1.77-2-1.77l-.06.23c.16 0 .62.1.62 1.18 0 .89-.93 3.18-.93 4.21 0 2.37 2.37 2.91 3.1 2.91l-.91 3.8h.47l1.26-3.82c1.76 0 4.23-.78 5.02-3.67l.7-2.52c.21-.8.99-2.04 1.67-2.08z"/><path clip-path="url(#c)" d="m113.46 97.41v-4.72h-9.44v1.06h8.43v3.66z"/><path clip-path="url(#c)" d="m120 85.83c-2.65 1.72-4.52 4.68-4.52 8.41 0 3.4 1.94 6.84 4.46 8.39l.22-.29c-2.41-1.9-3.11-4.11-3.11-8.16 0-4.06.75-6.16 3.11-8.07z"/><path clip-path="url(#c)" d="m130.59 93.83c0 1.3-1.02 3.8-4.55 3.8l.35-1.54c.86-3.84 2.29-4.06 2.82-4.06 1.03 0 1.38.64 1.38 1.8m.53-.46c0-1.12-.27-2.49-2.07-2.49-1.85 0-2.49 1.41-3.97 6.75-.86 0-2.3-.24-2.3-2.05 0-2.98 1.61-4.19 1.61-4.41 0-.04-.04-.05-.13-.05-.18 0-2.69 1.87-2.69 5.1 0 1.96 1.96 2.91 3.11 2.91-.64 2.43-1.28 3.38-1.44 3.6h1.46l.91-3.58c3.33 0 5.51-2.8 5.51-5.78z"/><path clip-path="url(#c)" d="m154.45 94.23-3.59-3.73-.56.6 2.17 2.64h-14.48v1.02h14.48l-2.17 2.63.56.61z"/><path clip-path="url(#c)" d="m172.92 91.14-.81.11c-.16.2-2.23 2.52-4.74 4.72l-.51-3.26c-.27-1.72-.6-1.83-1.02-1.83-.16 0-1.19.4-2.1.68l.07.22c.44-.15.6-.16.79-.16.6 0 .73.38.8.86l.68 4.54c-3.79 3.4-5.17 5.3-5.45 5.72l.86-.24c.16-.22 2.07-2.41 4.76-4.65l.46 3.09c.2 1.37.84 1.79 1.34 1.79 1.06 0 2.3-1.5 2.3-1.9 0-.05-.04-.09-.09-.09-.22 0-.73 1.13-1.44 1.13-.24 0-.57-.13-.71-1.13l-.55-3.91c3.64-3.28 5.1-5.31 5.36-5.69"/><path clip-path="url(#c)" d="m174.16 85.83-.16.3c2.36 1.9 3.11 4.01 3.11 8.07 0 4.04-.69 6.25-3.11 8.16l.22.29c2.52-1.55 4.46-4.99 4.46-8.39 0-3.74-1.86-6.71-4.52-8.43"/><path clip-path="url(#d)" d="m70.55 50.54c-2.67 1.73-4.55 4.72-4.55 8.48 0 3.43 1.95 6.89 4.5 8.46l.22-.3c-2.43-1.92-3.13-4.15-3.13-8.22 0-4.09.76-6.21 3.13-8.13z"/><path clip-path="url(#d)" d="m81.28 58.6c0 1.31-1.03 3.83-4.59 3.83l.35-1.55c.87-3.87 2.3-4.09 2.84-4.09 1.05 0 1.4.64 1.4 1.81m.53-.46c0-1.13-.28-2.51-2.08-2.51-1.86 0-2.51 1.42-4 6.8-.87 0-2.32-.24-2.32-2.06 0-3.01 1.62-4.22 1.62-4.44 0-.04-.04-.06-.13-.06-.18 0-2.71 1.88-2.71 5.14 0 1.97 1.97 2.93 3.13 2.93-.64 2.45-1.29 3.41-1.46 3.63h1.47l.92-3.61c3.37 0 5.56-2.82 5.56-5.82z"/><path clip-path="url(#d)" d="m105.28 59-3.62-3.76-.57.61 2.2 2.65h-14.6v1.04h14.6l-2.2 2.65.57.61z"/><path clip-path="url(#d)" d="m122.83 55.85c-2.88.04-3.37 2.95-3.94 5.01-.5 1.83-1.88 2.34-2.91 2.34l3.39-10.95-1.53.24-2.65 10.73c-.85 0-1.71-.29-1.71-1.68 0-1.11.81-2.4.81-4.02 0-1.12-.61-1.68-1.9-1.68l-.06.22c.15 0 .59.09.59 1.12 0 .85-.88 3.02-.88 4 0 2.25 2.25 2.77 2.95 2.77l-.87 3.61h.44l1.2-3.63c1.68 0 4.02-.74 4.77-3.48l.66-2.4c.2-.76.94-1.94 1.59-1.97z"/><path clip-path="url(#d)" d="m124.48 50.54-.17.29c2.38 1.92 3.13 4.04 3.13 8.13 0 4.07-.7 6.3-3.13 8.22l.22.3c2.54-1.57 4.5-5.03 4.5-8.46 0-3.76-1.88-6.75-4.55-8.48"/><path clip-path="url(#d)" d="m144.91 63.76-4.72-10.25h-.32l-4.73 10.25h1.05l3.85-8.41 3.82 8.41z"/><path clip-path="url(#d)" d="m155.55 50.54c-2.67 1.73-4.55 4.72-4.55 8.48 0 3.43 1.95 6.89 4.5 8.46l.22-.3c-2.43-1.92-3.13-4.15-3.13-8.22 0-4.09.76-6.21 3.13-8.13z"/><path clip-path="url(#d)" d="m167.59 55.85c-2.88.04-3.37 2.95-3.94 5.01-.5 1.83-1.88 2.34-2.91 2.34l3.39-10.95-1.53.24-2.65 10.73c-.85 0-1.71-.29-1.71-1.68 0-1.11.81-2.4.81-4.02 0-1.12-.61-1.68-1.9-1.68l-.06.22c.15 0 .59.09.59 1.12 0 .85-.88 3.02-.88 4 0 2.25 2.25 2.77 2.95 2.77l-.87 3.61h.44l1.2-3.63c1.68 0 4.02-.74 4.77-3.48l.66-2.4c.2-.76.94-1.94 1.59-1.97z"/><path clip-path="url(#d)" d="m191.4 59-3.61-3.76-.57.61 2.19 2.65h-14.6v1.04h14.6l-2.19 2.65.57.61z"/><path clip-path="url(#d)" d="m210.02 55.89-.81.11c-.17.2-2.25 2.54-4.77 4.76l-.52-3.28c-.28-1.73-.61-1.84-1.03-1.84-.17 0-1.2.41-2.12.68l.07.22c.44-.15.61-.17.79-.17.61 0 .74.39.81.87l.68 4.57c-3.82 3.43-5.22 5.35-5.49 5.77l.87-.24c.17-.22 2.08-2.43 4.79-4.68l.46 3.11c.2 1.38.85 1.81 1.35 1.81 1.07 0 2.32-1.51 2.32-1.92 0-.05-.04-.09-.09-.09-.22 0-.74 1.14-1.46 1.14-.24 0-.57-.13-.72-1.14l-.55-3.94c3.69-3.31 5.16-5.36 5.42-5.74"/><path clip-path="url(#d)" d="m211.27 50.54-.17.29c2.38 1.92 3.13 4.04 3.13 8.13 0 4.07-.7 6.3-3.13 8.22l.22.3c2.54-1.57 4.5-5.03 4.5-8.46.01-3.76-1.87-6.75-4.55-8.48"/><path clip-path="url(#e)" d="m11.93 18.57v-4.92h-9.84v1.11h8.79v3.81z"/><path clip-path="url(#e)" d="m18.7 6.5c-2.77 1.79-4.71 4.89-4.71 8.78 0 3.55 2.02 7.14 4.66 8.76l.23-.31c-2.52-1.98-3.24-4.29-3.24-8.51 0-4.24.78-6.43 3.24-8.42z"/><path clip-path="url(#e)" d="m25.08 6.5c-2.77 1.79-4.71 4.89-4.71 8.78 0 3.55 2.02 7.14 4.66 8.76l.23-.31c-2.52-1.98-3.24-4.29-3.24-8.51 0-4.24.78-6.43 3.24-8.42z"/><path clip-path="url(#e)" d="m36.13 14.83c0 1.36-1.07 3.97-4.75 3.97l.36-1.6c.9-4.01 2.39-4.24 2.94-4.24 1.09 0 1.45.67 1.45 1.87m.55-.47c0-1.16-.29-2.6-2.16-2.6-1.93 0-2.6 1.47-4.14 7.04-.9 0-2.4-.25-2.4-2.14 0-3.11 1.68-4.37 1.68-4.6 0-.04-.04-.06-.13-.06-.19 0-2.8 1.95-2.8 5.32 0 2.04 2.04 3.03 3.24 3.03-.67 2.54-1.34 3.53-1.51 3.76h1.53l.95-3.74c3.47.02 5.74-2.9 5.74-6.01z"/><path clip-path="url(#e)" d="m61.03 15.25-3.74-3.89-.59.63 2.27 2.75h-15.12v1.07h15.12l-2.27 2.75.59.63z"/><path clip-path="url(#e)" d="m79.2 11.99c-2.98.04-3.49 3.05-4.08 5.19-.52 1.89-1.95 2.42-3.02 2.42l3.51-11.34-1.58.25-2.75 11.11c-.88 0-1.78-.3-1.78-1.74 0-1.14.84-2.48.84-4.16 0-1.16-.63-1.74-1.97-1.74l-.06.23c.15 0 .61.1.61 1.16 0 .88-.92 3.13-.92 4.14 0 2.33 2.33 2.86 3.05 2.86l-.9 3.74h.46l1.24-3.76c1.74 0 4.16-.76 4.94-3.61l.69-2.48c.21-.78.97-2 1.64-2.04z"/><path clip-path="url(#e)" d="m80.91 6.5-.17.3c2.46 1.99 3.24 4.18 3.24 8.42 0 4.22-.72 6.53-3.24 8.51l.23.31c2.63-1.62 4.66-5.21 4.66-8.76-.01-3.9-1.95-6.99-4.72-8.78"/><path clip-path="url(#e)" d="m102.06 20.18-4.89-10.61h-.32l-4.91 10.61h1.09l3.99-8.7 3.95 8.7z"/><path clip-path="url(#e)" d="m113.07 6.5c-2.77 1.79-4.71 4.89-4.71 8.78 0 3.55 2.02 7.14 4.66 8.76l.23-.31c-2.52-1.98-3.24-4.29-3.24-8.51 0-4.24.78-6.43 3.24-8.42z"/><path clip-path="url(#e)" d="m125.54 11.99c-2.98.04-3.49 3.05-4.08 5.19-.52 1.89-1.95 2.42-3.02 2.42l3.51-11.34-1.58.25-2.75 11.11c-.88 0-1.78-.3-1.78-1.74 0-1.14.84-2.48.84-4.16 0-1.16-.63-1.74-1.97-1.74l-.06.23c.15 0 .61.1.61 1.16 0 .88-.92 3.13-.92 4.14 0 2.33 2.33 2.86 3.05 2.86l-.9 3.74h.46l1.24-3.76c1.74 0 4.16-.76 4.94-3.61l.69-2.48c.21-.78.97-2 1.64-2.04z"/><path clip-path="url(#e)" d="m150.19 15.25-3.74-3.89-.59.63 2.27 2.75h-15.11v1.07h15.11l-2.27 2.75.59.63z"/><path clip-path="url(#e)" d="m169.41 12.03-.84.11c-.17.21-2.33 2.63-4.94 4.92l-.53-3.4c-.29-1.79-.63-1.91-1.07-1.91-.17 0-1.24.42-2.2.71l.08.23c.46-.15.63-.17.82-.17.63 0 .76.4.84.9l.71 4.73c-3.95 3.55-5.4 5.53-5.69 5.97l.9-.25c.17-.23 2.16-2.52 4.96-4.85l.48 3.22c.21 1.43.88 1.87 1.39 1.87 1.11 0 2.4-1.57 2.4-1.99 0-.06-.04-.09-.1-.09-.23 0-.76 1.18-1.51 1.18-.25 0-.59-.13-.74-1.18l-.57-4.08c3.82-3.4 5.35-5.52 5.61-5.92"/><path clip-path="url(#e)" d="m170.76 6.5-.17.3c2.46 1.99 3.24 4.18 3.24 8.42 0 4.22-.72 6.53-3.24 8.51l.23.31c2.63-1.62 4.66-5.21 4.66-8.76 0-3.9-1.95-6.99-4.72-8.78"/><path clip-path="url(#e)" d="m200.04 15.25-3.75-3.89-.59.63 2.27 2.75h-15.11v1.07h15.11l-2.27 2.75.59.63z"/><path clip-path="url(#e)" d="m212.12 6.5c-2.77 1.79-4.71 4.89-4.71 8.78 0 3.55 2.02 7.14 4.66 8.76l.23-.31c-2.52-1.98-3.24-4.29-3.24-8.51 0-4.24.78-6.43 3.24-8.42z"/><path clip-path="url(#e)" d="m223.17 14.83c0 1.36-1.07 3.97-4.75 3.97l.36-1.6c.9-4.01 2.39-4.24 2.94-4.24 1.09 0 1.45.67 1.45 1.87m.56-.47c0-1.16-.29-2.6-2.16-2.6-1.93 0-2.6 1.47-4.14 7.04-.9 0-2.4-.25-2.4-2.14 0-3.11 1.68-4.37 1.68-4.6 0-.04-.04-.06-.13-.06-.19 0-2.8 1.95-2.8 5.32 0 2.04 2.04 3.03 3.24 3.03-.67 2.54-1.34 3.53-1.51 3.76h1.53l.95-3.74c3.47.02 5.74-2.9 5.74-6.01z"/><path clip-path="url(#e)" d="m248.07 15.25-3.74-3.89-.59.63 2.27 2.75h-15.11v1.07h15.11l-2.27 2.75.59.63z"/><path clip-path="url(#e)" d="m267.35 12.03-.84.11c-.17.21-2.33 2.63-4.94 4.92l-.53-3.4c-.29-1.79-.63-1.91-1.07-1.91-.17 0-1.24.42-2.2.71l.08.23c.46-.15.63-.17.82-.17.63 0 .76.4.84.9l.71 4.73c-3.95 3.55-5.4 5.53-5.69 5.97l.9-.25c.17-.23 2.16-2.52 4.96-4.85l.48 3.22c.21 1.43.88 1.87 1.39 1.87 1.11 0 2.4-1.57 2.4-1.99 0-.06-.04-.09-.1-.09-.23 0-.76 1.18-1.51 1.18-.25 0-.59-.13-.74-1.18l-.57-4.08c3.81-3.4 5.34-5.52 5.61-5.92"/><path clip-path="url(#e)" d="m268.64 6.5-.17.3c2.46 1.99 3.24 4.18 3.24 8.42 0 4.22-.72 6.53-3.24 8.51l.23.31c2.63-1.62 4.66-5.21 4.66-8.76 0-3.9-1.95-6.99-4.72-8.78"/><path clip-path="url(#e)" d="m275.02 6.5-.17.3c2.46 1.99 3.24 4.18 3.24 8.42 0 4.22-.72 6.53-3.24 8.51l.23.31c2.63-1.62 4.66-5.21 4.66-8.76-.01-3.9-1.95-6.99-4.72-8.78"/></g><path d="m32.61 28.66c.68.14 1.73.29 2.34.29h5.29l2.41-2.59c1.51 1.15 1.94 1.51 3.42 2.77.11.14.18.25.18.32 0 .14-.18.25-.43.25h-10.87c-.83 0-1.3.04-2.09.18zm.86 4.64c.9.22 1.58.29 2.34.29h3.1c.94-1.04 1.26-1.37 2.2-2.41 1.37 1.12 1.76 1.48 3.1 2.7.11.14.14.22.14.25 0 .14-.14.22-.32.22h-8.21c-.76 0-1.22.04-2.12.18zm0 4.65c1.01.18 1.8.29 2.48.29h3.06c.97-1.04 1.26-1.37 2.16-2.41 1.44 1.12 1.87 1.48 3.2 2.63.11.11.18.25.18.32 0 .14-.14.22-.4.22h-8.31c-.79 0-1.26.04-2.12.22zm.15-14.04c.79.22 1.69.32 2.34.32h3.28c.9-1.19 1.19-1.51 2.16-2.63 1.55 1.19 2.02 1.58 3.56 2.81.18.14.25.25.25.36s-.18.22-.43.22h-8.82c-.9 0-1.26.04-2.09.18zm3.7 30.27c0 .68-.43.86-2.09.86-1.33 0-1.51-.11-1.51-.79.11-4.9.14-6.05.14-7.67 0-2.95-.04-4.28-.11-5.76 1.73.97 2.23 1.26 3.92 2.3h2.48c.72-.9.94-1.19 1.73-2.05 1.12.79 1.44 1.04 2.45 1.84.32.29.47.47.47.68 0 .25-.22.47-1.08.9l-.04 2.34v1.8c0 1.37 0 1.87.11 5.15 0 .72-.47.9-2.3.9-1.04 0-1.22-.11-1.26-.65v-1.26h-2.92v1.41zm0-2.16h2.92v-8.13h-2.92zm5.73-16.38c2.56-2.45 4.32-4.61 6.08-7.56 1.48-2.48 2.41-4.54 2.92-6.44 1.08.29 1.91.47 2.45.58 2.41.58 2.88.76 2.88 1.08 0 .29-.32.47-1.22.65 1.3 2.09 2.45 3.2 4.57 4.46 2.02 1.22 3.67 1.84 6.37 2.38l-.04.4c-1.37.9-1.8 1.55-2.45 3.46-.04.18-.11.25-.25.25-.32 0-1.44-.72-2.52-1.58-3.02-2.45-4.61-4.75-6.19-8.89-1.8 3.02-3.56 5.15-6.26 7.49-1.69 1.44-3.13 2.41-6.05 4.1zm10.79 9v.29c0 1.22.04 4 .07 8.35 0 .61-.32.76-1.84.76-1.01 0-1.19-.11-1.19-.68.04-4.1.04-6.88.04-8.31v-.4h-2.05v3.74c.04 4.07.04 4.07.04 5.76v.14c0 .61-.5.79-2.27.79-1.01 0-1.22-.11-1.22-.72.11-4.03.14-6.16.14-13.46 0-3.02-.04-3.89-.14-5.87 1.73.83 2.23 1.08 3.89 1.94h11.16c.83-.79 1.04-1.04 1.87-1.84 1.22.86 1.58 1.12 2.7 2.05.29.25.4.43.4.58 0 .25-.25.47-1.12.97v8.64l.04 4.43c0 1.66-.54 2.34-2.02 2.74-.54.14-1.15.22-1.58.22s-.43 0-.47-1.08c-.07-1.4-.43-1.98-1.48-2.27v1.87c0 .61-.36.76-1.84.76-.9 0-1.08-.11-1.08-.65v-.04c0-.58 0-.72 0-1.22l.04-7.09v-.4zm-2.91-6.91h-2.05v6.16h2.05zm-1.98-5.11c.79.18 1.62.25 2.38.25h3.6c.72-.86 1.4-1.73 2.12-2.56 1.37 1.19 1.8 1.55 3.13 2.81.07.11.14.22.14.29 0 .11-.18.22-.36.22h-8.64c-.68 0-1.15.04-2.12.18zm6.98 5.11h-2.09v6.16h2.09zm5.04 6.16v-6.16h-2.2v6.16zm-2.19 1.15c0 1.62 0 3.64.04 6.01.58.04.79.04 1.12.04h.65c.32-.04.4-.14.4-.5v-5.94h-2.2v.39z" fill="#f8c9c9"/><path d="m92.33 39.35v5.98h3.06c.86-.97 1.73-1.87 2.52-2.77 1.58 1.3 2.05 1.69 3.6 3.02.14.14.18.22.18.32 0 .14-.11.18-.43.18h-8.93v6.66h3.78c1.15-1.37 1.51-1.76 2.66-3.06 1.69 1.33 2.2 1.76 3.85 3.24.14.18.22.25.22.36 0 .14-.14.22-.47.22h-23.07c-.83 0-1.3.04-2.23.18l-.29-1.22c.86.22 1.66.29 2.52.29h9.18v-6.66h-5.36c-.86 0-1.37.04-2.34.18l-.25-1.22c.97.22 1.62.29 2.56.29h5.4v-5.98h-3.6v1.22.14c0 .68-.68.9-2.66.9-1.04 0-1.33-.14-1.33-.72v-.04c.11-2.09.11-2.09.14-5.47-.11.11-.14.11-.36.11h-4.28v8.53c2.16-.68 3.06-1.01 5.15-1.8l.18.4c-4 3.13-6.52 4.82-10.37 7.02-.04 1.19-.18 1.58-.54 1.58-.43 0-.54-.18-2.34-5.11 1.44-.22 1.84-.32 4.14-.94v-9.68h-1.51c-.76 0-1.12.04-1.94.14l-.22-1.15c.94.18 1.44.25 2.2.25h1.48v-8.93h-1.51c-.9 0-1.3.04-2.16.14l-.22-1.15c.94.22 1.44.25 2.41.25h4.43c1.15-1.26 1.15-1.26 2.27-2.48 1.44 1.15 1.8 1.48 3.2 2.77-.04-1.22-.04-1.69-.18-3.13 1.94.86 2.48 1.15 4.28 2.12h10.73c.86-.94 1.12-1.22 2.02-2.16 1.37.94 1.76 1.22 3.02 2.2.32.29.47.5.47.68 0 .29-.25.5-1.33 1.12-.06 1.37-.06 2.17-.06 3.03 0 3.06.04 5.26.25 11.16 0 .47-.14.65-.58.76-.32.11-1.62.25-2.34.25-.86 0-1.12-.18-1.12-.72v-1.3zm-11.52-13.53h-4.43v8.93h.18c.76-1.08 1.01-1.37 1.8-2.38 1.15 1.15 1.48 1.51 2.52 2.7l.14.18c.04-2.77.04-4.5.04-5.25 0-1.48 0-2.66-.04-4.21zm7.67-.72h-3.6v6.33h3.6zm0 7.09h-3.6v6.41h3.6zm7.74-7.09h-3.89v6.33h3.89zm0 7.09h-3.89v6.41h3.89z" fill="#f8c9c9"/><path d="m113.88 38.52c0 2.12-1.73 3.85-3.82 3.85-2.12 0-3.85-1.73-3.85-3.85 0-2.09 1.73-3.82 3.85-3.82 2.13.01 3.82 1.7 3.82 3.82z" fill="#f8c9c9"/><path d="m118.88 40.86c3.42-2.74 6.16-5.83 8.89-10.01 1.37-2.12 2.12-3.74 2.12-4.64s-.83-1.58-2.59-2.2c.5-.32.94-.47 1.55-.47 1.01 0 2.84.4 4.1.9 1.44.58 2.05 1.15 2.05 1.91 0 .4-.11.61-.54 1.15-.22.22-.22.22-.9 1.15-.43.65-.43.65-.79 1.08.22.04.36.04.47.04 1.01 0 4.79-.58 6.48-1.01.83-.22 1.01-.29 1.84-.79.29-.18.54-.25.86-.25.61 0 1.33.43 2.63 1.62.94.9 1.3 1.44 1.3 1.94 0 .43-.07.58-.86 1.4-.54.54-.54.54-2.2 3.56-3.82 7.05-8.67 11.91-14.76 14.9-2.41 1.19-4.93 2.05-8.64 3.02l-.11-.4c5.11-2.3 8.78-4.72 12.38-8.21 2.66-2.59 4.79-5.51 6.95-9.57 1.26-2.38 1.8-3.64 2.3-5.44-1.98.32-4.28.76-6.8 1.4-.47.11-.94.18-1.08.18-.43 0-.43 0-1.84-.94-1.04 1.4-2.52 3.02-3.67 4.03 3.67 1.26 4.61 1.69 5.4 2.52.58.58.79 1.19.79 2.16 0 1.4-.97 2.81-1.91 2.81-.47 0-.76-.25-1.01-.9-1.33-3.1-2.05-4.18-3.96-5.9-2.66 2.38-5.18 4-8.24 5.29z" fill="#f8c9c9"/><path d="m153.29 54.07c3.2-1.98 5-3.42 7.24-5.72 3.46-3.56 6.01-7.31 8.31-12.17 1.12-2.3 1.73-4 2.23-5.98-2.38.18-7.13.94-9.93 1.55-2.52.54-3.49.83-4.82 1.48-.4.22-.83.32-1.19.32-.72 0-1.55-.5-2.56-1.55-1.22-1.33-1.94-2.81-1.94-4 0-.36.04-.58.18-.9 1.26 1.84 2.41 2.52 4.28 2.52 1.8 0 5.44-.36 11.66-1.15 3.17-.4 3.56-.5 4.39-1.01.32-.14.61-.25.86-.25h.07c.68.04 1.66.65 2.84 1.73 1.08.97 1.48 1.58 1.48 2.2 0 .36-.14.65-.58 1.04-.65.61-.65.61-2.09 3.56-2.92 5.94-5.9 9.9-9.79 13.1-3.17 2.59-6.05 4.1-10.44 5.58zm19.91-30.23c4.61 1.4 6.26 2.48 6.26 4.14 0 .97-.54 1.8-1.15 1.8-.4 0-.54-.14-1.22-1.26-1.01-1.66-2.27-2.99-4.07-4.36zm3.06-2.52c4.18.72 6.3 2.02 6.3 3.82 0 .83-.47 1.58-1.01 1.58-.4 0-.5-.11-1.15-1.08-1.01-1.51-2.34-2.77-4.32-4.03z" fill="#f8c9c9"/><path d="m185.91 28.01c1.3 0 3.06.76 5.18 2.2 1.44-.04 2.34-.11 4.61-.36 1.4-.14 2.88-.29 4.17-.43 6.19-.61 6.44-.65 7.16-1.08.43-.25.61-.32.94-.32.65 0 1.33.36 2.41 1.33 1.19 1.01 1.8 1.84 1.8 2.52 0 .29-.11.58-.36.94-.61.83-.79 1.4-1.4 4.21-.4 1.8-.68 3.1-.83 3.71-.68 2.77-.86 3.71-1.04 4.82 1.3.9 1.98 1.76 1.98 2.45s-.5 1.08-1.4 1.08c-.14 0-.36-.04-.86-.07-1.51-.22-2.66-.29-4.61-.29-3.6 0-8.71.25-11.41.61 0 1.12-.04 1.62-.22 2.16-.14.5-.54.79-1.04.79-.76 0-1.55-.79-2.27-2.2-.47-.94-.76-1.94-.76-2.56 0-.25 0-.32.18-.83.25-.76.36-1.84.36-3.64 0-3.02-.36-7.85-.72-9.79-.29-1.55-.58-2.27-1.26-3.24-.65-.9-1.01-1.19-1.98-1.69.65-.25.97-.32 1.37-.32zm9.54 18.54c8.13-.58 8.13-.58 9.75-.79.72-3.96 1.48-10.73 1.66-14.43-3.67.04-10.22.61-15.51 1.37.18 2.88.5 8.93.76 14.11z" fill="#f8c9c9"/><path d="m239.8 37.08c4.68 0 6.7.11 7.63.4.65.22 1.04.61 1.04 1.01 0 .65-.83 1.3-2.12 1.69-1.01.32-2.56.5-5 .58-1.26.04-1.26.04-7.24.07-3.28.04-7.56.14-8.67.22-.86.07-1.19.14-2.05.43-.22.11-.47.14-.72.14-.9 0-1.94-1.04-2.92-2.99-.76-1.4-1.12-2.56-1.12-3.38 0-.43.04-.61.29-1.15 1.76 2.77 2.34 3.06 6.3 3.06z" fill="#f8c9c9"/><path d="m81.68 98.07c3.2-1.98 5-3.42 7.23-5.72 3.46-3.56 6.01-7.31 8.31-12.17 1.12-2.3 1.73-4 2.23-5.98-2.38.18-7.13.94-9.93 1.55-2.52.54-3.49.83-4.82 1.48-.4.22-.83.32-1.19.32-.72 0-1.55-.5-2.56-1.55-1.22-1.33-1.94-2.81-1.94-4 0-.36.04-.58.18-.9 1.26 1.84 2.41 2.52 4.28 2.52 1.8 0 5.44-.36 11.66-1.15 3.17-.4 3.56-.5 4.39-1.01.32-.14.61-.25.86-.25h.07c.68.04 1.66.65 2.84 1.73 1.08.97 1.48 1.58 1.48 2.2 0 .36-.14.65-.58 1.04-.65.61-.65.61-2.09 3.56-2.92 5.94-5.9 9.9-9.79 13.1-3.17 2.59-6.05 4.1-10.44 5.58zm19.91-30.23c4.61 1.4 6.26 2.48 6.26 4.14 0 .97-.54 1.8-1.15 1.8-.4 0-.54-.14-1.22-1.26-1.01-1.66-2.27-2.99-4.07-4.36zm3.06-2.52c4.18.72 6.3 2.02 6.3 3.82 0 .83-.47 1.58-1.01 1.58-.4 0-.5-.11-1.15-1.08-1.01-1.51-2.34-2.77-4.32-4.03z" fill="#f8c9c9"/><path d="m114.98 78.85c1.91.86 3.49 1.91 4.82 3.24.83.83 1.22 1.62 1.22 2.52 0 .61-.32 1.44-.76 2.02-.43.5-.76.72-1.22.72-.29 0-.65-.18-.83-.43-.11-.18-.18-.32-.36-1.12-.68-2.77-1.58-4.68-3.13-6.7zm2.77 19.65c5.08-2.41 9.14-5.98 11.91-10.51 1.73-2.81 3.2-6.55 3.2-8.06 0-1.04-.65-1.69-2.38-2.41.61-.32.86-.4 1.37-.4.94 0 2.2.4 3.31 1.01 1.4.76 2.09 1.51 2.09 2.3 0 .32-.07.43-.4.9-.32.47-.5.86-1.15 2.34-2.45 5.69-5.04 9.04-9 11.55-2.59 1.66-5.18 2.77-8.82 3.67zm3.86-20.84c1.51.61 2.41 1.08 3.49 1.76 1.44.97 2.48 2.38 2.48 3.38 0 1.48-.97 2.95-1.91 2.95-.58 0-.9-.4-1.19-1.4-.76-2.88-1.73-4.82-3.17-6.44z" fill="#f8c9c9"/><path d="m143.71 84.97c2.84-2.34 5.22-5.11 7.67-8.93 1.98-3.06 2.92-4.93 2.92-5.83 0-.83-1.12-1.66-2.7-2.02.58-.36.94-.47 1.66-.47 1.66 0 4 .58 5.22 1.33.65.36.94.79.94 1.22 0 .32-.07.5-.68 1.33-.32.43-.58.79-.72 1.01-.79 1.15-.9 1.3-1.33 1.8.36.04.65.07.72.07.65 0 3.2-.43 5.04-.83 1.26-.29 1.44-.32 2.41-.9.36-.22.61-.29.86-.29.47 0 1.15.32 2.02.97 1.4 1.08 2.09 1.91 2.09 2.56 0 .43-.14.68-.76 1.26-.4.32-.47.43-1.58 2.56-2.48 4.61-4.14 6.98-6.52 9.5-2.77 2.95-6.23 5.29-9.97 6.84-1.58.65-2.95 1.04-5.98 1.8l-.14-.4c5.18-2.23 10.04-5.98 13.71-10.58 2.84-3.6 5.15-7.88 6.3-11.73-2.09.36-4.18.83-5.8 1.33-.65.18-.83.22-1.12.22-.61 0-1.26-.32-2.16-1.15-2.2 2.77-3.28 3.96-5.11 5.47-2.23 1.91-4.17 3.1-6.8 4.21z" fill="#f8c9c9"/><path d="m173.38 96.38c4.57-2.52 8.17-5.36 11.7-9.25 3.46-3.82 7.06-9.21 9.07-13.57-4.39.68-8.78 1.69-11.16 2.59-.5.18-.68.22-.94.22-.79 0-1.66-.65-2.66-1.94-.9-1.19-1.37-2.2-1.37-3.06 0-.32.04-.5.25-.94 1.15 1.66 2.45 2.45 4.07 2.45 1.98 0 5.9-.47 9.21-1.08 2.34-.43 2.48-.47 3.17-1.01.32-.22.65-.36.94-.36.68 0 1.84.76 3.02 1.98.79.83 1.01 1.22 1.01 1.73 0 .47-.22.76-.79 1.12-.65.4-.68.43-1.22 1.12-.22.36-.68.97-2.99 4.32-1.12 1.58-1.76 2.41-2.81 3.63 3.92 1.48 6.77 2.95 8.96 4.64 1.66 1.3 2.38 2.56 2.38 4.28 0 1.76-.83 3.2-1.87 3.2-.32 0-.68-.18-.94-.5-.14-.18-.14-.18-.65-1.08-2.2-3.96-5.4-7.63-8.53-9.75-2.92 3.42-5.18 5.47-8.13 7.38-3.1 2.02-5.18 2.95-9.58 4.32z" fill="#f8c9c9"/><path d="m90.32 112.39c.05-.05.17 0 .26.07.17.1.48.38.48.82.02 1.06-1.44 1.68-3 1.68-1.51-.02-2.69-.89-2.54-2.18.17-1.75 2.28-2.76 4.75-2.69 1.22.02 2.71.29 3.98.5 3.26.55 7.58 1.3 9.02.46.19-.17.6-.5 1.15-.94 1.39-1.06 3.36-2.38 5.28-2.38 1.94 0 3.1 1.22 2.95 2.54-.02.31-.17.53-.24.5-.05-.02.05-.19.07-.5.07-1.03-1.06-1.92-2.86-1.92-2.33 0-3.67.84-4.94 1.99-.62.6-1.34 1.39-1.92 2.06-.67.79-1.42 1.7-2.14 2.71-1.06 1.44-2.11 2.93-2.66 3.74l.02.02c.58-.48 1.37-1.18 2.21-1.8s1.9-1.3 2.62-1.3c.5 0 .79.24.74.65-.07.43-.58.98-.96 1.46-.38.46-.65.82-.79 1.06-.17.29-.19.46-.1.53.12.1.38 0 .58-.1.29-.14.6-.31 1.15-.74.41-.31.89-.74 1.15-.98.19-.17.26-.19.31-.14s-.02.14-.19.31c-.22.22-.94.86-1.44 1.25-.48.36-1.42.96-2.16.96-.48 0-.74-.22-.72-.62.02-.53.55-1.13 1.01-1.68.36-.43.72-.82 1.01-1.18.1-.12.14-.26.02-.34-.12-.07-.38.02-.62.14-.43.22-1.1.62-1.87 1.22-1.06.82-1.63 1.37-2.69 2.18-.22.17-.36.22-.62.22-.34 0-.48-.05-.31-.38.24-.46.58-1.01.98-1.61.19-.29.43-.6.72-.96h-.01c-.24.24-.6.58-.86.82s-.77.67-1.18.96c-1.37.96-2.86 1.39-5.09 1.39-1.85 0-3.82-.22-4.68-.34-.67.14-1.9.24-2.57.26-.86.02-2.4.02-2.33-.41.1-.48 1.06-.6 1.99-.6 1.01 0 2.69.19 3.58.31.82-.14 2.26-.72 3.26-1.56 1.37-1.15 1.94-2.16 3.29-3.58 1.18-1.27 2.35-2.11 3.65-2.5v-.02c-.79-.1-1.87-.29-3.22-.53-1.27-.22-2.59-.53-3.86-.58-2.14-.12-4.01.62-4.2 2.18-.12 1.08.96 1.85 2.28 1.9 1.46.02 2.45-.58 2.52-1.51.02-.24-.02-.5-.17-.7zm-2.92 7.12c.53.05 2.16.22 3.82.22 2.04-.02 3.31-.29 4.68-1.18.41-.26.86-.65 1.1-.86.34-.29.98-.86 1.54-1.34.38-.5 1.3-1.68 1.87-2.38.5-.62 1.58-1.8 2.45-2.54-1.3.5-3.05.58-4.3.5-.46-.02-.98-.12-1.15-.07-.46.17-1.1.67-1.78 1.46-1.01 1.2-1.46 2.18-2.71 3.36-1.75 1.61-3.96 2.5-5.52 2.81z" fill="#f8c9c9"/><path d="m108.2 118.87c.46-.31 1.01-.74 1.46-1.15.14-.12.22-.14.26-.1.05.07-.05.19-.19.31-.31.29-1.08.91-1.51 1.2-1.01.67-1.9.98-2.71.98-.89 0-1.3-.34-1.27-.96.02-.48.24-.91.72-1.49l-.02-.02c-.07.07-.34.31-.48.43-.12.1-.19.12-.24.07-.05-.07.05-.17.14-.26.31-.29.53-.46.89-.72.26-.19.72-.48 1.18-.72.7-.36 1.42-.67 2.06-.67h.02c.53 0 .72.34.7.65-.05.62-.82 1.1-1.54 1.46-.7.34-1.51.62-2.06.77-.1.19-.14.41-.14.55 0 .36.19.55.55.55.31 0 1.13-.16 2.18-.88zm-.81-1.2c.6-.41.96-.91.98-1.25.02-.22-.07-.34-.29-.34s-.58.24-1.06.7c-.38.36-.98 1.13-1.27 1.61.49-.12 1.13-.39 1.64-.72z" fill="#f8c9c9"/><path d="m112.91 119.08c.07-.58.55-1.42 1.73-2.28.79-.58 2.16-1.15 2.95-1.01.48.07.65.5.5.91.58-.6.98-.91 1.37-.91.5-.02.55.1.31.38-.31.36-.84.96-1.34 1.58-.31.38-.62.79-.84 1.18-.17.29-.17.48-.07.55.12.1.36 0 .55-.1.24-.12.7-.43 1.08-.74.5-.41.89-.74 1.15-.98.14-.12.26-.24.34-.17.07.07-.05.19-.31.43-.31.29-.89.79-1.34 1.15-.48.38-1.27.96-2.06.96-.46 0-.67-.22-.7-.5-.02-.26.12-.6.34-.86l-.02-.02c-.62.55-1.73 1.34-2.64 1.39-.55.03-1.08-.17-1-.96zm2.37-1.53c-.98.96-1.39 1.58-1.34 1.9.02.17.14.24.31.24.46 0 1.37-.53 2.02-1.13.77-.67 1.63-1.7 1.66-2.09.02-.31-.17-.43-.43-.43-.49-.01-1.35.64-2.22 1.51z" fill="#f8c9c9"/><path d="m121.52 118c.26-.36.7-.91.96-1.25.17-.22.22-.34.17-.41-.07-.1-.22-.05-.36.02-.29.14-.65.41-.94.65-.31.26-.7.6-1.03.91-.24.22-.34.29-.41.22-.05-.07.07-.19.36-.46.29-.26.82-.77 1.25-1.1.65-.5 1.13-.79 1.63-.79.46 0 .6.26.6.53 0 .29-.19.6-.5 1.03-.19.26-.53.7-.72.96l.05.05c.26-.26.84-.84 1.46-1.34.38-.31.77-.62 1.18-.89.36-.24.55-.31.7-.34.12-.02.43-.02.55.02.07.02.1.12-.17.34-.34.29-.79.7-.91 1.1-.19.65.1.94.46.94.29 0 .55-.22.82-.46.17-.14.24-.19.31-.14.05.05-.02.14-.24.36s-.55.46-.89.48c-.46.02-.82-.1-1.03-.43-.17-.26-.17-.77.05-1.27-.36.26-.84.62-1.03.79-.7.6-1.49 1.34-2.42 2.26-.17.17-.36.22-.62.22-.34 0-.5-.05-.31-.38.15-.32.65-1.11 1.03-1.62z" fill="#f8c9c9"/><path d="m129.28 115.43.17-.19c-.38 0-1.46 0-1.87-.02-.22 0-.41-.02-.41-.12s.24-.1.72-.12c.38-.02 1.37-.02 1.8-.02.31-.36.58-.7.74-.89.34-.41 1.27-1.49 2.04-2.16.36-.31.82-.55 1.22-.55.19 0 .29.07.31.14-.58.55-1.22 1.25-1.94 2.09-.46.53-.79.94-1.13 1.37.58 0 1.99 0 2.54.02.24 0 .36.02.36.12 0 .07-.12.07-.41.1-.79.05-2.06.02-2.74.05-.17.22-.34.43-.48.62-.19.24-1.13 1.51-1.82 2.47-.43.6-.79 1.13-1.1 1.56.29-.07.58-.1.84-.1.55 0 1.42.14 2.18.19 1.18.07 2.45-.24 3.19-.65 1.22-.67 1.37-1.7 1.39-2.18.02-.24-.05-.5-.12-.62.38-.07.7.22.67.67-.02.74-.53 1.61-1.85 2.33-.74.41-1.99.74-3.31.7-.6-.02-1.54-.24-2.18-.24-.31 0-.67.05-.91.1-.12.12-.46.24-.6.14-.17.07-.34.17-.5.29-.07.05-.17.14-.22.1-.02-.02 0-.1.14-.22.12-.1.29-.19.46-.29-.1-.07-.1-.36.14-.79.48-.86 1.42-2.16 2.21-3.19-.38.31-1.7 1.46-1.99 1.73-.17.14-.24.17-.29.12s0-.14.17-.29c.87-.75 1.71-1.52 2.58-2.27z" fill="#f8c9c9"/><path d="m143.41 115.89c0 .05-.17.1-.26.14-.58.26-1.13.74-1.73 1.32-.74.72-1.32 1.63-1.39 2.11-.02.24.07.41.34.41.53 0 1.44-.65 2.09-1.32.62-.62 1.27-1.66 1.32-2.28.02-.22 0-.43-.05-.5-.12-.17-.22-.46-.24-.7-.05-.7.19-1.73 2.64-2.38.65-.17 2.74-.46 3.94-.53.58-.72 1.9-2.26 2.76-3.07 1.87-1.75 3.6-2.86 4.8-2.86.74 0 1.06.5 1.01 1.06-.07.89-.86 1.94-2.88 3.14-1.56.94-3.19 1.44-4.49 1.8-.74.98-1.9 2.57-2.59 3.58.38-.05 1.2-.07 2.04-.07.96 0 1.61-.02 2.21-.24.17-.05.43-.26.5-.36.05.1.07.31 0 .46-.26.6-1.13.7-2.14.62-1.01-.07-2.21-.19-2.78-.14-1.46 1.99-3.19 4.39-4.42 6.07-.53.74-1.51 2.06-2.67 3.72-.89 1.3-1.82 2.62-2.33 3.19-.17.19-.53.55-.79.55-.22 0-.24-.12-.12-.38.24-.48 1.97-3.41 4.56-6.96.82-1.13 1.51-2.11 1.9-2.69.31-1.01.14-1.61.43-2.4s1.03-1.22 2.28-1.32c.6-.86 1.75-2.52 2.52-3.41-.86.05-2.69.36-3.36.55-2.4.67-2.74 1.82-2.74 2.28 0 .1.02.31.07.41.07.14.26.22.34.29.22.19.34.48.29.84-.07.58-.67 1.34-1.32 1.9-.7.6-1.92 1.39-2.98 1.39-.74 0-1.22-.38-1.18-1.06.05-.46.24-.98.65-1.46.43-.5.94-.89 1.42-1.15.72-.36 1.39-.58 1.99-.65.15-.02.39-.02.36.1zm1.54 3.31 2.21-3.05c-.65.05-1.54.26-1.87 1.13-.19.5-.12 1.13-.36 1.92zm10.92-9.14c1.54-.98 2.28-2.11 2.35-2.88.05-.41-.17-.72-.67-.72-.6 0-1.37.31-2.76 1.63-.72.67-2.38 2.69-3.26 3.79 1.24-.31 2.75-.84 4.34-1.82z" fill="#f8c9c9"/><path d="m155.46 120.07h-.02c-.53 0-.72-.31-.7-.67.05-.6.65-1.54 1.27-2.38.22-.29.58-.74.7-.89-.31 0-.82.02-.86.02-.14 0-.29 0-.26-.12.02-.1.29-.12.65-.14.02 0 .53-.02.67-.02.74-.91 1.73-1.97 2.26-2.5.43-.43 1.01-.98 1.51-.98.26 0 .36.07.36.14-.29.26-.91.94-1.46 1.56s-.98 1.15-1.46 1.78c.53-.02.98-.02 1.37-.02.29 0 .36.05.34.14-.05.12-.24.12-.43.12-.53 0-.91 0-1.46.02-.48.58-1.3 1.8-1.73 2.64-.14.26-.22.6-.02.7.14.07.41 0 .6-.1.29-.14.7-.41 1.08-.72.43-.34.86-.72 1.13-.96.12-.1.26-.24.34-.17.05.05 0 .12-.17.29-.26.26-.96.89-1.46 1.27-.52.36-1.34.99-2.25.99z" fill="#f8c9c9"/><path d="m165.04 115.79c.5-.02.55.1.31.38-.31.36-.84.96-1.34 1.58-.31.38-.62.79-.84 1.18-.17.29-.17.48-.07.55.12.1.36 0 .55-.1.24-.12.7-.43 1.08-.74.5-.41.89-.74 1.15-.98.14-.12.26-.24.34-.17s-.05.19-.31.43c-.31.29-.89.79-1.34 1.15-.48.38-1.27.96-2.06.96-.46 0-.67-.22-.7-.5-.02-.26.12-.6.34-.86l-.02-.02c-.62.55-1.73 1.34-2.64 1.39-.53.02-1.08-.19-.98-.96.05-.36.24-.74.67-1.25l-.02-.02c-.07.07-.17.17-.31.29-.1.07-.17.12-.22.07-.05-.07.07-.22.34-.46.07-.07.48-.41.72-.58s.65-.43 1.1-.67c.94-.48 1.78-.77 2.4-.67.48.07.65.5.5.91.55-.59.96-.91 1.35-.91zm-4.18 1.76c-.98.96-1.39 1.58-1.34 1.9.02.17.14.24.31.24.46 0 1.37-.53 2.02-1.13.77-.67 1.63-1.7 1.66-2.09.02-.31-.17-.43-.43-.43-.49-.01-1.36.64-2.22 1.51z" fill="#f8c9c9"/><path d="m166.86 117.07c-.34.29-.65.58-.86.77-.14.12-.22.14-.26.1-.05-.05 0-.12.12-.24.38-.34.84-.74 1.58-1.37.62-.79 1.97-2.4 3-3.58.82-.96 2.23-2.33 3.1-2.98.43-.31.79-.41 1.1-.41.24 0 .36.07.36.17-.79.41-2.76 2.42-4.06 3.98-1.68 1.99-3.02 3.79-3.7 4.8l.02.02c.65-.65 1.42-1.27 2.23-1.82.58-.38 1.44-.79 2.14-.72.53.07.82.36.74.91-.05.36-.22.72-.48 1.1.48-.17 1.73-.7 2.47-1.2.77-1.03 1.99-2.62 3-3.77 1.58-1.85 3.91-4.13 6.07-5.57.84-.58 1.87-1.03 2.62-1.03.62 0 1.03.36 1.03.91 0 1.08-1.78 2.98-4.2 4.82-1.94 1.49-5.5 3.55-7.15 4.42-.36.5-1.13 1.54-1.51 2.4-.1.24-.22.5-.05.65.17.12.53-.02.74-.14.31-.17.65-.41.98-.67.43-.34.74-.6 1.06-.89.1-.1.29-.26.36-.19.05.05-.02.14-.17.29-.29.29-.89.82-1.46 1.25-.48.36-1.37.96-2.16.96h-.02c-.46 0-.74-.22-.72-.65.02-.58.67-1.58 1.25-2.28l-.02-.02c-.6.36-1.7.82-2.28 1.01-.26.29-.72.7-.96.89-.98.74-1.97 1.01-2.76 1.03-.53.02-.96-.07-.96-.48.02-.46.65-.67 1.56-.91.67-.17 1.42-.36 1.85-.55.24-.26.65-.86.77-1.2.07-.24.17-.72-.24-.72-.43 0-1.22.41-2.09 1.08-1.06.82-1.75 1.51-2.66 2.42-.19.19-.43.31-.7.34-.48.02-.46-.12-.34-.38.22-.48.7-1.2.98-1.61.12-.17.46-.62.7-.94zm2.3 2.28c.41-.26.77-.58 1.1-1.01-.29.14-1.13.36-1.49.46-.86.22-1.37.43-1.34.74.02.19.26.24.58.22.48-.05.84-.22 1.15-.41zm13.73-7.8c2.83-2.3 3.46-3.77 3.46-4.51 0-.31-.19-.46-.41-.48-.48-.07-1.13.14-1.92.72-.96.7-2.45 2.04-3.74 3.46-1.13 1.25-3.17 3.91-4.32 5.3 1.34-.73 4.77-2.74 6.93-4.49z" fill="#f8c9c9"/><path d="m180.64 118.87c.46-.31 1.01-.74 1.46-1.15.14-.12.22-.14.26-.1.05.07-.05.19-.19.31-.31.29-1.08.91-1.51 1.2-1.01.67-1.9.98-2.71.98-.89 0-1.3-.34-1.27-.96.02-.48.24-.91.72-1.49l-.02-.02c-.07.07-.34.31-.48.43-.12.1-.19.12-.24.07-.05-.07.05-.17.14-.26.31-.29.53-.46.89-.72.26-.19.72-.48 1.18-.72.7-.36 1.42-.67 2.06-.67h.02c.53 0 .72.34.7.65-.05.62-.82 1.1-1.54 1.46-.7.34-1.51.62-2.06.77-.1.19-.14.41-.14.55 0 .36.19.55.55.55.3 0 1.12-.16 2.18-.88zm-.82-1.2c.6-.41.96-.91.98-1.25.02-.22-.07-.34-.29-.34s-.58.24-1.06.7c-.38.36-.98 1.13-1.27 1.61.49-.12 1.14-.39 1.64-.72z" fill="#f8c9c9"/><path d="m188.2 115.79c.5-.02.55.1.31.38-.31.36-.84.96-1.34 1.58-.31.38-.62.79-.84 1.18-.17.29-.17.48-.07.55.12.1.36 0 .55-.1.24-.12.7-.43 1.08-.74.5-.41.89-.74 1.15-.98.14-.12.26-.24.34-.17s-.05.19-.31.43c-.31.29-.89.79-1.34 1.15-.48.38-1.27.96-2.06.96-.46 0-.67-.22-.7-.5-.02-.26.12-.6.34-.86l-.02-.02c-.62.55-1.73 1.34-2.64 1.39-.53.02-1.08-.19-.98-.96.05-.36.24-.74.67-1.25l-.02-.02c-.07.07-.17.17-.31.29-.1.07-.17.12-.22.07-.05-.07.07-.22.34-.46.07-.07.48-.41.72-.58s.65-.43 1.1-.67c.94-.48 1.78-.77 2.4-.67.48.07.65.5.5.91.55-.59.96-.91 1.35-.91zm-4.18 1.76c-.98.96-1.39 1.58-1.34 1.9.02.17.14.24.31.24.46 0 1.37-.53 2.02-1.13.77-.67 1.63-1.7 1.66-2.09.02-.31-.17-.43-.43-.43-.49-.01-1.36.64-2.22 1.51z" fill="#f8c9c9"/><path d="m195.83 115.79c.41 0 .65.05.36.38-.43.53-.79.91-1.27 1.54-.41.5-.91 1.15-1.06 1.44-.1.19-.24.55-.12.84.07.19.31.31.6.34.58.05 1.22.02 2.16-.22 1.08-.26 2.28-.96 2.93-1.49.58-.46 1.32-1.34 1.37-2.23.05-1.01-.6-1.37-1.3-1.34-1.03.05-1.63.62-1.87.82-.07.07-.17.17-.19.14-.05-.05 0-.12.07-.22.17-.22.89-.89 1.99-.94.91-.05 1.92.31 1.85 1.54-.05.98-.96 1.82-1.56 2.3-.84.65-2.06 1.32-3.24 1.61-1.03.26-1.82.34-2.76.24-.65-.07-1.08-.46-1.1-1.03-.02-.36.12-.74.31-1.03.26-.38.77-.89 1.13-1.25l-.02-.02c-.48.38-1.3 1.03-1.92 1.51-.98.74-1.85 1.32-2.57 1.32-.5 0-.82-.24-.79-.67.02-.34.22-.67.46-.98.5-.67.96-1.22 1.7-1.92-.17.07-.7.46-1.06.74-.36.29-.6.48-.84.7-.19.17-.29.24-.36.19-.05-.05 0-.14.26-.38s1.13-.96 1.7-1.34c.62-.43.94-.53 1.39-.53.5 0 .55.07.26.38-.31.34-.77.89-1.25 1.49-.38.5-.77 1.03-.89 1.3-.1.19-.1.36-.02.43.1.1.31.07.55-.05.53-.29 1.06-.67 1.8-1.25 1.15-.89 1.82-1.49 2.59-2.09.2-.15.35-.27.71-.27z" fill="#f8c9c9"/></svg>