<svg viewBox="0 0 282.67 141.73" xmlns="http://www.w3.org/2000/svg"><path d="m0 0h282.67v141.73h-282.67z" fill="#3d4d81"/><g fill="#eed158"><path d="m29.42 29.41 2.67.04c2.04.04 2.55.52 2.61 1.15l.02.23c.02.29.06.36.17.36.08 0 .15-.08.15-.27 0-.23.06-1.68.06-2.31 0-.13 0-.25-.11-.25-.08 0-.28.06-.59.1-.34.06-.83.1-1.51.1h-7.96c-.25 0-1.06-.04-1.68-.1-.57-.04-.79-.25-.93-.25-.08 0-.17.27-.21.4-.04.17-.47 1.97-.47 2.18 0 .13.04.19.11.19.08 0 .15-.04.21-.21.06-.15.13-.29.36-.65.34-.5.85-.65 2.17-.67l3.14-.04v8.87c0 2.01 0 3.67-.11 4.55-.08.61-.19 1.07-.62 1.15-.19.04-.45.08-.64.08-.13 0-.17.06-.17.13 0 .13.11.17.34.17.64 0 1.97-.06 2.08-.06s1.44.06 2.61.06c.23 0 .34-.06.34-.17 0-.06-.04-.13-.17-.13-.19 0-.66-.04-.96-.08-.64-.08-.76-.54-.83-1.15-.11-.88-.11-2.54-.11-4.55v-8.87z"/><path d="m42.22 37.1c0-3.88 2.25-5.81 5.37-5.81 2.95 0 5.58 2.24 5.58 6.52 0 5.16-3.38 6.04-5.05 6.04-3.38 0-5.9-2.6-5.9-6.75zm-1.93.48c0 3.21 2.19 7 7.3 7 4.5 0 7.49-3.29 7.49-7.27s-3.18-6.69-7.39-6.69c-5.16 0-7.41 4.09-7.41 6.96z"/><path d="m62.9 39.17c0 1.72 0 3.12-.11 3.86-.08.52-.13.86-.49.94-.17.04-.4.08-.57.08-.11 0-.15.08-.15.15 0 .1.11.15.3.15.57 0 1.7-.06 1.85-.06s1.27.06 2.19.06c.21 0 .3-.06.3-.15 0-.06-.04-.15-.15-.15-.17 0-.47-.04-.72-.08-.57-.08-.66-.42-.72-.94-.08-.73-.08-2.14-.08-3.86v-1.74h.08c.89 1.05 4.82 5.13 5.67 5.78.81.61 1.3 1.01 2.27 1.09.42.04.76.04 1.3.04h.96c.32 0 .4-.06.4-.15s-.11-.15-.23-.15-.66-.06-1.15-.25c-.89-.36-1.1-.59-2.67-1.97-.76-.69-4.65-4.53-5.14-5.05.4-.44 3.59-3.46 4.05-3.88.83-.78 1.19-1.17 1.95-1.51.36-.15.76-.25 1.04-.25.15 0 .19-.06.19-.15s-.08-.13-.28-.13c-.47 0-1.7.04-1.8.04-.45 0-1.02-.04-1.4-.04-.13 0-.21.04-.21.13 0 .06.06.15.17.17.15.02.23.13.23.36 0 .29-.49.75-1.02 1.28-.7.71-4.03 3.96-4.33 4.3h-.08v-1.07c0-2.77 0-3.27.04-3.84.04-.63.17-.88.66-.99.23-.04.34-.04.47-.04.08 0 .15-.08.15-.15 0-.1-.08-.15-.3-.15-.55 0-1.68.04-1.85.04-.11 0-1.25-.04-2.1-.04-.21 0-.3.04-.3.15 0 .06.08.15.15.15.17 0 .49.02.64.04.62.08.72.38.76.99.04.57.04 1.07.04 3.84v3.14z"/><path d="m82.49 41.25c0 .29 0 1.05-.04 1.78-.04.52-.17.86-.55.94-.17.04-.38.08-.55.08-.11 0-.15.08-.15.15 0 .1.08.15.3.15.55 0 1.74-.06 1.83-.06.11 0 1.32.06 2.36.06.19 0 .3-.06.3-.15 0-.06-.04-.15-.15-.15-.17 0-.59-.04-.85-.08-.55-.08-.68-.42-.72-.94-.06-.73-.06-1.49-.06-1.78v-1.53c0-.59-.08-1.15.23-1.78.38-.75 3.01-4.95 3.63-5.66.4-.48.57-.67.93-.88.3-.17.66-.23.87-.23.15 0 .23-.1.23-.19 0-.06-.11-.1-.23-.1-.36 0-1.7.04-1.83.04-.15 0-.81-.04-1.3-.04-.19 0-.3.04-.3.1 0 .08.11.17.28.21.21.06.3.21.3.46 0 .23-.08.52-.32.92-.34.59-2.67 4.4-3.06 5.16l-3.4-5.55c-.13-.23-.25-.44-.25-.69 0-.15.08-.23.23-.29.17-.06.3-.13.3-.19 0-.08-.04-.13-.25-.13-.72 0-1.49.04-1.61.04-.08 0-1.49-.04-1.85-.04-.17 0-.23.04-.23.13s.08.17.19.17c.15 0 .51.08.79.25.34.23.79.63 1.23 1.3.64.94 3.16 4.9 3.31 5.18.28.5.4.86.4 1.82v1.53z"/><path d="m95.74 37.1c0-3.88 2.25-5.81 5.37-5.81 2.95 0 5.58 2.24 5.58 6.52 0 5.16-3.38 6.04-5.05 6.04-3.38 0-5.9-2.6-5.9-6.75zm-1.94.48c0 3.21 2.19 7 7.3 7 4.5 0 7.49-3.29 7.49-7.27s-3.18-6.69-7.39-6.69c-5.16 0-7.41 4.09-7.41 6.96z"/><path d="m128.34 37.41c-.06 0-.11-.04-.06-.15l1.87-5.66c.11-.31.21-.31.32 0l2.02 5.66c.02.08.02.15-.08.15h-4.05zm-2.97 4.64c-.38 1.05-.81 1.84-1.78 1.97-.17.02-.47.04-.62.04-.11 0-.19.04-.19.13 0 .13.13.17.4.17 1 0 2.17-.06 2.4-.06s1.15.06 1.66.06c.19 0 .32-.04.32-.17 0-.08-.06-.13-.21-.13h-.21c-.36 0-.81-.19-.81-.61 0-.38.11-.88.3-1.4l1.27-3.71c.04-.1.11-.17.21-.17h4.56c.11 0 .15.04.19.13l1.97 5.16c.13.34 0 .52-.13.57-.08.02-.15.06-.15.15 0 .13.23.13.64.15 1.46.04 3.01.04 3.33.04.23 0 .42-.04.42-.17 0-.1-.08-.13-.21-.13-.21 0-.53-.02-.85-.13-.45-.13-1.06-.46-1.83-2.33-1.3-3.19-4.63-11.84-4.95-12.64-.25-.65-.34-.75-.47-.75s-.21.13-.47.82l-4.82 13.02z"/><path d="m151.14 44.58c1.21 0 2.61-.1 3.38-.4.32-.13.36-.19.47-.52.19-.61.45-2.16.45-2.28s-.08-.25-.17-.25c-.13 0-.15.06-.19.25-.06.34-.32 1.09-.72 1.49-.74.73-1.68.84-3.08.84-3.99 0-6.73-3.04-6.73-6.46 0-1.8.3-3.4 1.68-4.65.66-.61 1.8-1.24 4.2-1.24 1.66 0 3.01.44 3.67.99.49.38.79 1.09.79 1.78 0 .25.02.38.15.38.11 0 .19-.1.21-.38.02-.25.02-1.24.04-1.82.04-.65.08-.86.08-1.01 0-.1-.04-.19-.23-.19-.62-.02-1.21-.15-1.91-.27-.91-.15-1.97-.21-2.72-.21-2.87 0-4.56.84-5.69 1.91-1.66 1.59-2.1 3.67-2.1 4.86 0 1.7.45 3.73 2.27 5.28 1.46 1.26 3.35 1.91 6.16 1.91z"/><path d="m164.34 38.65c-.06 0-.08-.04-.06-.13l1.74-4.88c.11-.27.21-.27.32 0l1.85 4.88c.02.08.02.13-.06.13h-3.78zm-2.69 3.73c-.36.9-.72 1.53-1.57 1.63-.15.02-.42.04-.55.04-.08 0-.17.06-.17.15 0 .1.13.15.36.15.76 0 1.7-.06 1.89-.06.21 0 1.23.06 1.68.06.17 0 .28-.04.28-.15 0-.08-.04-.15-.19-.15h-.17c-.32 0-.64-.13-.64-.48 0-.31.11-.75.28-1.19l1.06-2.85c.04-.1.11-.15.19-.15h4.31c.11 0 .13.02.17.1l1.68 4.09c.13.29-.06.44-.17.48-.08.04-.13.04-.13.13 0 .1.3.1.66.13 1.3.04 2.67.04 2.95.04.21 0 .42-.04.42-.15s-.13-.15-.23-.15c-.19 0-.47-.02-.74-.1-.4-.13-.91-.36-1.59-1.95-1.15-2.7-4.14-10.06-4.48-10.81-.19-.4-.25-.65-.45-.65-.13 0-.21.1-.45.69l-4.39 11.15z"/><path d="m181.47 32.01c0-.21.06-.29.23-.36.17-.06.76-.13 1.13-.13 2.23 0 4.29.23 6.05 1.99.76.75 1.76 2.2 1.76 4.46 0 1.63-.49 3.33-1.46 4.23-1.13 1.05-2.65 1.61-4.37 1.61-2.21 0-2.87-.38-3.1-.71-.15-.19-.19-.84-.21-1.28-.02-.34-.02-1.99-.02-3.88v-5.95zm-1.69 7.16c0 1.72 0 3.12-.11 3.86-.08.52-.13.86-.49.94-.17.04-.4.08-.57.08-.11 0-.15.08-.15.15 0 .1.11.15.3.15.3 0 .74-.02 1.13-.04.38 0 .72-.02.76-.02.08 0 .72.04 1.53.1.81.04 1.8.1 2.61.1 3.18 0 4.86-1.24 5.67-2.05 1.04-1.05 2.02-2.77 2.02-5.01 0-2.12-.89-3.6-1.83-4.53-2.21-2.2-5.63-2.03-7.49-2.03-1.1 0-2.29.04-2.51.04-.11 0-1.32-.04-2.17-.04-.21 0-.3.04-.3.15 0 .06.08.15.15.15.17 0 .49.02.64.04.62.08.72.38.76.99.04.57.04 1.07.04 3.84v3.14z"/><path d="m200.28 39.17c0 1.72 0 3.12-.11 3.86-.08.52-.13.88-.49.94-.17.02-.4.08-.57.08-.11 0-.15.08-.15.15 0 .1.11.15.3.15.3 0 .72-.02 1.08-.04.4-.02.76-.02.81-.02.28 0 .76 0 1.55.04.76.02 1.85.06 3.25.06.72 0 .91 0 1.04-.46.11-.38.25-1.59.25-1.72s-.02-.27-.13-.27-.15.06-.19.27c-.11.71-.36 1.03-.85 1.24-.49.19-1.38.19-1.87.19-1.85 0-2.19-.23-2.23-1.43-.02-.36 0-2.43 0-3.04v-1.49c0-.06.02-.13.13-.13.32 0 2.31.02 2.82.08.72.08.89.29.96.54.08.23.08.42.08.59 0 .1.04.17.13.17.13 0 .17-.19.17-.34 0-.13.04-.8.08-1.15.04-.59.15-.88.15-.99s-.04-.15-.11-.15-.15.1-.28.23c-.19.19-.47.21-.91.25-.42.04-2.89.04-3.12.04-.11 0-.11-.06-.11-.19v-4.84c0-.13.02-.19.11-.19.21 0 2.38.02 2.7.06 1.02.13 1.21.25 1.34.54.08.21.11.5.11.63 0 .15.04.23.15.23.08 0 .15-.1.17-.19.04-.21.08-1.01.11-1.17.04-.5.15-.71.15-.84 0-.08-.02-.17-.08-.17-.08 0-.17.06-.25.08-.15.02-.49.08-.85.1-.42.02-4.33 0-4.46 0-.11 0-1.32-.04-2.17-.04-.21 0-.3.04-.3.15 0 .06.08.15.15.15.17 0 .49.02.64.04.62.08.72.38.76.99.04.57.04 1.07.04 3.84v3.14z"/><path d="m228.03 31.11c-.04-.34-.15-.48-.28-.48s-.21.13-.3.29l-5.43 11.04-5.65-11.07c-.11-.21-.25-.27-.38-.27-.11 0-.19.13-.21.31l-1.36 11.63c-.08.67-.11 1.32-.72 1.43-.28.04-.4.06-.55.06-.11 0-.19.06-.19.13 0 .13.13.17.32.17.51 0 1.4-.06 1.57-.06.15 0 1.04.06 1.74.06.21 0 .34-.04.34-.17 0-.06-.08-.13-.15-.13-.13 0-.4-.02-.72-.1-.28-.06-.45-.23-.45-.5 0-.29 0-.63.02-.9l.72-8.05h.08c.32.73 1.83 3.73 2.38 4.86.47.96 1.7 3.25 2.19 4.13.36.65.47.82.64.82s.28-.17.66-.94l4.5-9.1h.04l.89 9.01c.04.34.02.61-.08.63-.08.02-.13.08-.13.15 0 .08.08.15.53.19.68.06 2.76.1 3.18.1.21 0 .38-.06.38-.17 0-.08-.06-.13-.15-.13-.19 0-.68 0-1.21-.17-.76-.25-.89-1.22-.96-1.84l-1.27-10.94z"/><path d="m239.95 36.03c0-2.77 0-3.27.02-3.84.04-.63.15-.88.66-.99.21-.04.34-.04.47-.04.06 0 .15-.08.15-.15 0-.1-.08-.15-.3-.15-.57 0-1.78.04-1.87.04-.11 0-1.27-.04-1.89-.04-.21 0-.3.04-.3.15 0 .06.06.15.15.15.13 0 .36.02.57.06.4.08.55.36.59.96.04.57.04 1.07.04 3.84v3.14c0 1.72-.02 3.12-.11 3.86-.06.52-.13.86-.49.94-.17.04-.4.08-.57.08-.11 0-.15.08-.15.15 0 .1.11.15.3.15.57 0 1.74-.06 1.85-.06.08 0 1.29.06 2.34.06.21 0 .3-.06.3-.15 0-.06-.04-.15-.15-.15-.17 0-.57-.04-.85-.08-.55-.08-.62-.42-.68-.94-.08-.73-.08-2.14-.08-3.86v-3.14z"/><path d="m256.15 44.58c1.21 0 2.61-.1 3.38-.4.32-.13.36-.19.47-.52.19-.61.45-2.16.45-2.28s-.08-.25-.17-.25c-.13 0-.15.06-.19.25-.06.34-.32 1.09-.72 1.49-.74.73-1.68.84-3.08.84-3.99 0-6.73-3.04-6.73-6.46 0-1.8.3-3.4 1.68-4.65.66-.61 1.8-1.24 4.2-1.24 1.66 0 3.01.44 3.67.99.49.38.79 1.09.79 1.78 0 .25.02.38.15.38.11 0 .19-.1.21-.38.02-.25.02-1.24.04-1.82.04-.65.08-.86.08-1.01 0-.1-.04-.19-.23-.19-.62-.02-1.21-.15-1.91-.27-.91-.15-1.97-.21-2.72-.21-2.87 0-4.56.84-5.69 1.91-1.66 1.59-2.1 3.67-2.1 4.86 0 1.7.45 3.73 2.27 5.28 1.46 1.26 3.35 1.91 6.16 1.91z"/><path d="m24.25 51.5c0-.13.06-.21.17-.25.21-.06.79-.13 1.42-.13 2.27 0 3.67 1.57 3.67 4.19 0 1.59-.55 2.72-1.3 3.23-.49.34-1.08.4-1.59.4-.93 0-1.91-.15-2.23-.34-.11-.06-.15-.15-.15-.25v-6.85zm-1.7 8.72c0 2.01 0 3.67-.11 4.55-.08.61-.19 1.07-.62 1.15-.19.04-.45.08-.64.08-.13 0-.17.06-.17.13 0 .13.11.17.34.17.64 0 1.97-.06 2-.06.11 0 1.44.06 2.61.06.23 0 .34-.06.34-.17 0-.06-.04-.13-.17-.13-.19 0-.66-.04-.96-.08-.64-.08-.76-.54-.83-1.15-.11-.88-.11-2.54-.11-4.55v-.5c0-.1.04-.17.15-.17l2.61.04c.13 0 .19.04.28.13.42.54 1.42 1.95 2.31 3.1 1.21 1.57 1.95 2.6 2.87 3.08.55.29 1.08.4 2.27.4h1.51c.38 0 .51-.04.51-.17 0-.06-.08-.13-.19-.13-.13 0-.42 0-.83-.06-.53-.08-1.44-.31-2.59-1.51-1.23-1.3-2.67-3.16-4.42-5.37 1.91-1.74 2.57-3.29 2.57-4.84 0-1.45-.93-2.47-1.46-2.85-1.13-.8-2.55-.92-3.89-.92-.66 0-2.27.06-2.51.06-.11 0-1.44-.06-2.4-.06-.23 0-.34.04-.34.17 0 .08.08.13.17.13.19 0 .55.02.72.06.7.15.87.48.91 1.19.04.67.04 1.26.04 4.53v3.69z"/><path d="m41.4 61.12c0 1.72 0 3.12-.11 3.86-.08.52-.13.88-.49.94-.17.02-.4.08-.57.08-.11 0-.15.08-.15.15 0 .1.11.15.3.15.3 0 .72-.02 1.08-.04.4-.02.76-.02.81-.02.28 0 .76 0 1.55.04.76.02 1.85.06 3.25.06.72 0 .91 0 1.04-.46.11-.38.25-1.59.25-1.72s-.02-.27-.13-.27-.15.06-.19.27c-.11.71-.36 1.03-.85 1.24-.49.19-1.38.19-1.87.19-1.85 0-2.19-.23-2.23-1.43-.02-.36 0-2.43 0-3.04v-1.49c0-.06.02-.13.13-.13.32 0 2.31.02 2.82.08.72.08.89.29.96.54.08.23.08.42.08.59 0 .1.04.17.13.17.13 0 .17-.19.17-.34 0-.13.04-.8.08-1.15.04-.59.15-.88.15-.99s-.04-.15-.11-.15-.15.1-.28.23c-.19.19-.47.21-.91.25-.42.04-2.89.04-3.12.04-.11 0-.11-.06-.11-.19v-4.84c0-.13.02-.19.11-.19.21 0 2.38.02 2.7.06 1.02.13 1.21.25 1.34.54.08.21.11.5.11.63 0 .15.04.23.15.23.08 0 .15-.1.17-.19.04-.21.08-1.01.11-1.17.04-.5.15-.71.15-.84 0-.08-.02-.17-.08-.17-.08 0-.17.06-.25.08-.15.02-.49.08-.85.1-.42.02-4.33 0-4.46 0-.11 0-1.32-.04-2.17-.04-.21 0-.3.04-.3.15 0 .06.08.15.15.15.17 0 .49.02.64.04.62.08.72.38.76.99.04.57.04 1.07.04 3.84v3.14z"/><path d="m57 55c-.28-.71-.51-1.26-.51-1.49 0-.13.02-.23.21-.31.17-.06.47-.08.68-.08.13 0 .19-.08.19-.17s-.17-.13-.51-.13c-.72 0-1.55.04-1.74.04-.23 0-1.3-.04-2.19-.04-.3 0-.49.02-.49.13 0 .06.04.17.15.17s.42 0 .72.06c.62.15.87.34 1.3 1.34l4.59 10.92c.36.86.49 1.09.7 1.09.19 0 .3-.27.81-1.34.42-.88 1.25-2.81 2.4-5.41.96-2.18 1.87-4.32 2.08-4.82.49-1.22.79-1.47 1.04-1.63.34-.21.76-.21.89-.21.15 0 .21-.08.21-.17s-.11-.13-.3-.13c-.55 0-1.36.04-1.46.04-.23 0-1.08-.04-1.83-.04-.3 0-.42.04-.42.15 0 .08.11.15.21.15.21 0 .42 0 .64.06.19.06.25.23.25.38s-.08.4-.17.67c-.4 1.28-2.84 7.36-3.93 9.75l-3.52-8.97z"/><path d="m75.32 57.98c0-2.77 0-3.27.02-3.84.04-.63.15-.88.66-.99.21-.04.34-.04.47-.04.06 0 .15-.08.15-.15 0-.1-.08-.15-.3-.15-.57 0-1.78.04-1.87.04-.11 0-1.27-.04-1.89-.04-.21 0-.3.04-.3.15 0 .06.06.15.15.15.13 0 .36.02.57.06.4.08.55.36.59.96.04.57.04 1.07.04 3.84v3.14c0 1.72-.02 3.12-.11 3.86-.06.52-.13.86-.49.94-.17.04-.4.08-.57.08-.11 0-.15.08-.15.15 0 .1.11.15.3.15.57 0 1.74-.06 1.85-.06.08 0 1.3.06 2.34.06.21 0 .3-.06.3-.15 0-.06-.04-.15-.15-.15-.17 0-.57-.04-.85-.08-.55-.08-.62-.42-.68-.94-.08-.73-.08-2.14-.08-3.86v-3.14z"/><path d="m85.21 61.12c0 1.72 0 3.12-.11 3.86-.08.52-.13.88-.49.94-.17.02-.4.08-.57.08-.11 0-.15.08-.15.15 0 .1.11.15.3.15.3 0 .72-.02 1.08-.04.4-.02.76-.02.81-.02.28 0 .76 0 1.55.04.76.02 1.85.06 3.25.06.72 0 .91 0 1.04-.46.11-.38.25-1.59.25-1.72s-.02-.27-.13-.27-.15.06-.19.27c-.11.71-.36 1.03-.85 1.24-.49.19-1.38.19-1.87.19-1.85 0-2.19-.23-2.23-1.43-.02-.36 0-2.43 0-3.04v-1.49c0-.06.02-.13.13-.13.32 0 2.31.02 2.82.08.72.08.89.29.96.54.08.23.08.42.08.59 0 .1.04.17.13.17.13 0 .17-.19.17-.34 0-.13.04-.8.08-1.15.04-.59.15-.88.15-.99s-.04-.15-.11-.15-.15.1-.28.23c-.19.19-.47.21-.91.25-.42.04-2.89.04-3.12.04-.11 0-.11-.06-.11-.19v-4.84c0-.13.02-.19.11-.19.21 0 2.38.02 2.7.06 1.02.13 1.21.25 1.34.54.08.21.11.5.11.63 0 .15.04.23.15.23.08 0 .15-.1.17-.19.04-.21.08-1.01.11-1.17.04-.5.15-.71.15-.84 0-.08-.02-.17-.08-.17-.08 0-.17.06-.25.08-.15.02-.49.08-.85.1-.42.02-4.33 0-4.46 0-.11 0-1.32-.04-2.17-.04-.21 0-.3.04-.3.15 0 .06.08.15.15.15.17 0 .49.02.64.04.62.08.72.38.76.99.04.57.04 1.07.04 3.84v3.14z"/><path d="m108.2 53.72c-.23-.61-.38-.84-.51-.84-.11 0-.23.1-.51.82l-3.91 9.96h-.04c-.23-.73-2.14-7.27-2.44-8.4-.21-.8-.36-1.43-.36-1.66s.13-.34.25-.38c.21-.1.51-.1.66-.1.08 0 .19-.06.19-.17 0-.08-.08-.13-.34-.13-.93 0-1.78.04-1.95.04-.19 0-1.23-.04-2.21-.04-.17 0-.3.04-.3.13 0 .1.08.17.17.17.13 0 .59.02.85.1.49.17.68.4.98 1.34l3.31 10.56c.38 1.22.53 1.4.72 1.4.21 0 .34-.19.66-.94.68-1.66 3.21-8.17 3.84-9.72l3.65 9.75c.25.69.42.92.62.92.21 0 .32-.21.81-1.53.74-1.99 2.59-7.65 3.42-9.91.36-.99.66-1.7 1.21-1.89.21-.06.57-.08.64-.08.13 0 .17-.1.17-.19 0-.06-.08-.1-.25-.1-.57 0-1.38.04-1.51.04-.17 0-.96-.04-1.91-.04-.23 0-.32.04-.32.13 0 .06.06.17.17.17.85 0 1 .21 1 .52 0 .23-.02.44-.21 1.11-.66 2.28-2.34 7.44-2.8 8.91h-.08l-3.65-9.93z"/><path d="m134.16 59.05c0-3.88 2.25-5.81 5.37-5.81 2.95 0 5.58 2.24 5.58 6.52 0 5.16-3.38 6.04-5.05 6.04-3.38 0-5.9-2.6-5.9-6.75zm-1.93.48c0 3.21 2.19 7 7.3 7 4.5 0 7.49-3.29 7.49-7.27s-3.18-6.69-7.39-6.69c-5.16 0-7.41 4.09-7.41 6.96z"/><path d="m154.84 61.12c0 1.72 0 3.12-.11 3.86-.08.52-.13.88-.49.94-.17.02-.4.08-.57.08-.11 0-.15.08-.15.15 0 .1.11.15.3.15.57 0 1.74-.06 1.85-.06.08 0 1.3.06 2.34.06.21 0 .3-.06.3-.15 0-.06-.04-.15-.15-.15-.17 0-.57-.04-.85-.08-.51-.08-.62-.42-.68-.94-.08-.69-.08-2.1-.08-3.86v-1.43c0-.13.02-.17.13-.17.32 0 2.53-.02 2.99.04.57.08.87.31.96.57.08.21.11.46.13.65 0 .08.02.17.13.17.13 0 .17-.19.17-.36 0-.13.02-.84.06-1.19.04-.59.17-.88.17-.99 0-.08-.02-.15-.11-.15-.06 0-.15.08-.23.19-.17.21-.42.27-.87.31-.25.02-.53.02-.85.02l-2.55.02c-.13 0-.13-.06-.13-.17v-4.86c0-.15.04-.19.15-.19l3.06.04c.72 0 1.17.29 1.27.52.11.23.17.52.17.67 0 .13.06.21.15.21s.15-.1.17-.19c.04-.21.06-1.01.08-1.17.06-.5.15-.71.15-.84 0-.08-.04-.17-.13-.17-.06 0-.15.08-.25.1-.17.06-.49.06-.85.08-.42.02-4.48 0-4.84 0-.11 0-1.27-.04-2.12-.04-.21 0-.3.04-.3.15 0 .06.08.15.15.15.17 0 .49.02.64.04.62.08.72.38.76.99.04.57.04 1.07.04 3.84v3.14z"/><path d="m181.94 58.02c0-.1.04-.15.13-.15.32 0 1.38 0 1.66.04.51.06 1.04.13 1.76.61 1.63 1.11 2.06 2.93 2.06 4.19 0 2.37-1.85 2.98-2.99 2.98-.38 0-1.29-.04-1.87-.31-.66-.31-.66-.61-.72-1.63-.02-.31-.02-2.91-.02-4.53v-1.19zm0-6.65c0-.13.06-.19.25-.23.34-.08.79-.1 1.02-.1 2.08 0 2.87 1.87 2.87 3.6 0 .86-.32 1.61-.76 2.12-.45.5-.74.54-1.93.54-.79 0-1.17-.06-1.3-.08-.11-.04-.15-.08-.15-.23zm-1.69 8.85c0 2.01 0 3.67-.11 4.55-.08.61-.19 1.07-.62 1.15-.19.04-.45.08-.64.08-.13 0-.17.06-.17.13 0 .13.11.17.34.17.32 0 .81-.04 1.23-.04.45-.02.81-.02.85-.02.08 0 .68.02 1.3.06.62.02 1.29.06 1.53.06 3.63 0 5.41-2.33 5.41-4.57 0-2.45-2.1-3.94-3.67-4.42 1-1.03 2-2.05 2-3.77 0-1.05-.76-3.14-4.25-3.14-.98 0-1.8.06-2.31.06-.11 0-1.44-.06-2.4-.06-.23 0-.34.04-.34.17 0 .08.08.13.17.13.19 0 .55.02.72.06.7.15.87.48.91 1.19.04.67.04 1.26.04 4.53v3.69z"/><path d="m197.48 59.05c0-3.88 2.25-5.81 5.37-5.81 2.95 0 5.58 2.24 5.58 6.52 0 5.16-3.38 6.04-5.05 6.04-3.38 0-5.9-2.6-5.9-6.75zm-1.93.48c0 3.21 2.19 7 7.3 7 4.5 0 7.49-3.29 7.49-7.27s-3.18-6.69-7.39-6.69c-5.16 0-7.41 4.09-7.41 6.96z"/><path d="m217.97 59.05c0-3.88 2.25-5.81 5.37-5.81 2.95 0 5.58 2.24 5.58 6.52 0 5.16-3.38 6.04-5.05 6.04-3.38 0-5.9-2.6-5.9-6.75zm-1.94.48c0 3.21 2.19 7 7.3 7 4.5 0 7.49-3.29 7.49-7.27s-3.18-6.69-7.39-6.69c-5.16 0-7.41 4.09-7.41 6.96z"/><path d="m238.64 61.12c0 1.72 0 3.12-.11 3.86-.08.52-.13.86-.49.94-.17.04-.4.08-.57.08-.11 0-.15.08-.15.15 0 .1.11.15.3.15.57 0 1.7-.06 1.85-.06s1.27.06 2.19.06c.21 0 .3-.06.3-.15 0-.06-.04-.15-.15-.15-.17 0-.47-.04-.72-.08-.57-.08-.66-.42-.72-.94-.08-.73-.08-2.14-.08-3.86v-1.74h.08c.89 1.05 4.82 5.13 5.67 5.78.81.61 1.3 1.01 2.27 1.09.42.04.76.04 1.29.04h.96c.32 0 .4-.06.4-.15s-.11-.15-.23-.15-.66-.06-1.15-.25c-.89-.36-1.1-.59-2.67-1.97-.76-.69-4.65-4.53-5.14-5.05.4-.44 3.59-3.46 4.05-3.88.83-.78 1.19-1.17 1.95-1.51.36-.15.76-.25 1.04-.25.15 0 .19-.06.19-.15s-.08-.13-.28-.13c-.47 0-1.7.04-1.8.04-.45 0-1.02-.04-1.4-.04-.13 0-.21.04-.21.13 0 .06.06.15.17.17.15.02.23.13.23.36 0 .29-.49.75-1.02 1.28-.7.71-4.03 3.96-4.33 4.3h-.08v-1.07c0-2.77 0-3.27.04-3.84.04-.63.17-.88.66-.99.23-.04.34-.04.47-.04.08 0 .15-.08.15-.15 0-.1-.08-.15-.3-.15-.55 0-1.68.04-1.85.04-.11 0-1.25-.04-2.1-.04-.21 0-.3.04-.3.15 0 .06.08.15.15.15.17 0 .49.02.64.04.62.08.72.38.76.99.04.57.04 1.07.04 3.84v3.14z"/><path d="m257.26 66.53c1.02 0 2.19-.13 2.97-.63 1.34-.86 1.74-1.99 1.74-3.04 0-1.53-.79-2.77-3.06-4.3l-.53-.36c-1.85-1.24-2.42-1.89-2.42-3.02 0-1.26 1.13-1.93 2.48-1.93 1.68 0 2.29.67 2.42.88.11.19.25.67.28.88.02.15.04.23.17.23s.15-.13.15-.4c0-1.22.08-1.8.08-1.89 0-.1-.04-.13-.19-.13s-.3 0-.66-.08c-.45-.1-1.19-.21-1.93-.21-2.46 0-4.14 1.26-4.14 3.35 0 1.24.66 2.33 2.67 3.81l.85.63c1.66 1.22 2.36 1.82 2.36 3.1 0 1.34-.96 2.37-2.8 2.37-1.25 0-2.65-.46-2.95-1.76-.06-.25-.06-.5-.06-.65s-.06-.21-.17-.21-.15.1-.15.29c-.02.29-.11 1.01-.11 1.89 0 .48.02.54.28.67.76.36 1.85.48 2.72.48z"/><path d="m38.92 89.53c-.08 0-.11.04-.15.13l-1.24 3.69c-.17.47-.33 1.08-.33 1.38 0 .32.23.47.54.49h.29c.19 0 .23.04.23.09 0 .08-.1.11-.27.11-.44 0-1.17-.06-1.36-.06-.21 0-.96.06-1.8.06-.21 0-.31-.04-.31-.11 0-.06.08-.09.25-.09.12 0 .31 0 .46-.04.73-.11 1.03-.6 1.46-1.83l4.31-11.82c.21-.57.27-.66.36-.66.08 0 .13.09.34.62.25.64 3.37 8.58 4.61 11.74.59 1.47.94 1.83 1.61 1.93.27.06.44.06.59.06.13 0 .21.02.21.09s-.11.11-.29.11c-.46 0-1.74-.02-2.66-.06-.25-.02-.36-.02-.36-.09 0-.06.04-.08.13-.09.19-.04.23-.25.13-.49l-1.95-5.05c-.02-.08-.06-.11-.13-.11zm4.48-.55c.06 0 .08-.06.06-.11l-2.2-5.84c-.06-.19-.13-.21-.19 0l-2.01 5.84c-.02.08 0 .11.06.11h4.29z"/><path d="m52.54 87.92c0-2.5-.02-2.97-.04-3.48-.04-.64-.21-.87-.69-.95-.15-.02-.34-.04-.54-.04-.13 0-.19-.04-.19-.09s.06-.09.23-.09c.61 0 1.55.06 1.72.06.23 0 1.46-.06 1.97-.06 1 0 2.05.08 2.87.64.59.4 1.26 1.25 1.26 2.4 0 1.23-.57 2.44-2.01 3.57 1.3 1.66 2.47 3.12 3.45 4.12.84.87 1.42 1.15 2.16 1.19.13.02.38.02.44.02.15 0 .19.04.19.09 0 .08-.08.11-.27.11h-1c-1.07 0-1.47-.15-1.95-.49-.65-.4-1.17-1.1-2.03-2.19-.65-.79-1.49-1.95-1.86-2.4-.1-.08-.13-.11-.27-.11l-2.37-.04c-.06 0-.08.04-.08.09v.79c0 1.59 0 2.55.06 3.23.04.51.13.79.73.87.19.02.36.04.52.04.17 0 .23.04.23.09 0 .08-.08.11-.25.11-.8 0-1.72-.06-1.82-.06-.29 0-.92.06-1.4.06-.17 0-.23-.04-.23-.11 0-.06.08-.09.19-.09.1 0 .23 0 .38-.02.38-.06.46-.3.5-.76.08-.68.08-1.85.08-3.69v-2.84zm1.01 1.48c0 .09.02.15.08.17.31.13 1.19.23 2.03.23.48 0 .88-.08 1.26-.32.65-.42 1.13-1.34 1.13-2.59 0-1.87-1.11-3.18-3.14-3.18-.56 0-1 .04-1.23.11-.1.04-.13.08-.13.21z"/><path d="m66.54 93.91c-1.63-1.42-2.03-3.35-2.03-4.78 0-1.12.38-2.89 1.82-4.31.94-.93 2.45-1.78 5.09-1.78.77 0 1.59.04 2.55.19.65.11 1.32.25 1.69.26.11 0 .15.04.15.13 0 .11-.08.36-.12.91-.02.53-.02 1.17-.02 1.4-.02.23-.04.28-.11.28-.1 0-.11-.09-.11-.28-.02-.79-.25-1.29-.63-1.57-.59-.45-2.01-.83-3.5-.83-2.47 0-3.5.76-4.16 1.36-1.23 1.15-1.49 2.57-1.49 4.12 0 3.03 2.26 6.01 6.38 6.01 1.23 0 2.24-.09 2.93-.7.38-.38.56-.81.65-1.42.04-.15.08-.23.17-.23.08 0 .08.13.06.25 0 .08-.13 1.04-.34 1.85-.1.28-.15.34-.46.47-.67.28-1.95.38-3.04.38-2.55 0-4.17-.64-5.46-1.72z"/><path d="m90.12 88.36c.06 0 .1-.02.1-.09v-.34c0-2.5 0-2.87-.02-3.48-.04-.6-.11-.85-.69-.95-.15-.02-.36-.04-.52-.04-.13 0-.21-.04-.21-.09 0-.08.06-.09.23-.09.63 0 1.61.06 1.72.06.08 0 1.09-.06 1.49-.06.15 0 .23.02.23.09 0 .06-.06.09-.19.09-.08 0-.19.02-.33.04-.54.06-.59.28-.63.93-.02.53-.02 1-.02 3.5v2.84c0 1.55 0 2.87.06 3.55.06.55.15.81.65.87.25.04.52.04.67.04.13 0 .21.04.21.09 0 .08-.06.11-.25.11-.8 0-1.78-.06-1.88-.06-.08 0-1.03.06-1.49.06-.17 0-.23-.04-.23-.11 0-.06.04-.09.19-.09.13 0 .25 0 .44-.04.31-.04.42-.3.48-.83.08-.66.08-2.16.08-3.69v-1.66c0-.08-.04-.09-.1-.09h-7.6c-.06 0-.1 0-.1.09v1.66c0 1.53 0 2.95.08 3.63.06.51.11.83.65.89.21.02.48.04.61.04.15 0 .21.06.21.09 0 .06-.06.11-.21.11-.82 0-1.78-.06-1.88-.06s-.96.06-1.49.06c-.15 0-.25-.02-.25-.11 0-.04.04-.09.19-.09s.29 0 .48-.04c.34-.08.42-.34.46-.93.08-.68.08-1.95.08-3.5v-2.85c0-2.5 0-2.95-.02-3.46-.04-.62-.13-.91-.75-.96-.19-.02-.34-.02-.46-.02s-.19-.06-.19-.09c0-.08.08-.09.23-.09.63 0 1.51.06 1.72.06.11 0 1.03-.06 1.47-.06.15 0 .25.02.25.09 0 .06-.08.09-.19.09-.08 0-.15 0-.34.02-.48.08-.59.3-.63.95-.02.51-.02 1-.02 3.5v.32c0 .09.04.11.1.11h7.6z"/><path d="m98.72 87.92c0-2.5 0-2.97-.02-3.48-.04-.64-.13-.87-.65-.95-.19-.02-.27-.02-.38-.04-.13 0-.19-.04-.19-.09s.06-.09.23-.09c.48 0 1.44.06 1.57.06.12 0 1-.06 1.46-.06.15 0 .23.02.23.09 0 .06-.06.09-.19.09-.1.02-.19.02-.33.04-.54.08-.59.32-.63.91-.02.53-.02 1.02-.02 3.52v2.84c0 1.72-.02 2.84.06 3.55.06.55.13.78.65.87.21.04.48.04.59.04.17.02.21.04.21.11 0 .06-.08.09-.25.09-.79 0-1.7-.06-1.78-.06-.11 0-1.01.06-1.49.06-.17 0-.25-.04-.25-.11 0-.04.06-.09.21-.09.1 0 .29 0 .46-.04.34-.08.4-.4.44-.85.08-.74.08-1.74.08-3.57v-2.84z"/><path d="m105.79 84.76c-.38-.89-.5-1.17-1.19-1.27-.21-.02-.38-.04-.5-.04-.13 0-.19-.04-.19-.09 0-.08.1-.09.27-.09.67 0 1.53.06 1.74.06.19 0 1.07-.06 1.49-.06.17 0 .25.02.25.08 0 .08-.06.11-.21.11-.19 0-.36.04-.52.08-.23.06-.25.17-.25.28 0 .19.21.76.4 1.21l3.58 8.92c1.03-2.31 3.47-8.24 3.85-9.43.1-.26.17-.53.17-.66 0-.17-.06-.3-.36-.34-.13-.04-.31-.06-.46-.06-.11 0-.19-.02-.19-.09 0-.06.06-.09.23-.09.61 0 1.38.04 1.59.04.11 0 .77-.04 1.24-.04.15 0 .23.02.23.08 0 .08-.06.11-.19.11-.31 0-.54.04-.8.21-.21.15-.42.42-.88 1.53-.4.98-.98 2.34-1.84 4.33-1.01 2.36-1.74 4.03-2.28 5.14-.36.77-.42.96-.56.96-.15 0-.23-.17-.5-.83l-4.14-10.04z"/><path d="m121.61 90.51c-.08 0-.12.04-.15.13l-1.02 2.85c-.15.47-.31 1-.31 1.27 0 .28.15.44.56.45h.19c.15 0 .19.06.19.09 0 .08-.08.11-.21.11-.4 0-1.17-.06-1.36-.06s-.92.06-1.69.06c-.17 0-.25-.04-.25-.11 0-.06.06-.09.21-.09s.33 0 .5-.02c.67-.09.94-.51 1.32-1.53l3.79-10.06c.19-.49.25-.57.33-.57.1 0 .13.08.33.55.23.57 2.95 7.32 4.04 9.89.56 1.3.88 1.61 1.42 1.68.27.06.42.06.54.06.13 0 .21.04.21.09 0 .08-.06.11-.25.11-.34 0-1.61-.02-2.51-.06-.25 0-.31-.04-.31-.09 0-.04.04-.06.12-.09.15-.06.21-.19.11-.4l-1.67-4.18c-.04-.06-.06-.09-.13-.09h-4zm3.81-.53c.06 0 .06-.06.04-.09l-1.84-4.8c-.08-.19-.1-.21-.17-.02l-1.7 4.82c-.04.06 0 .09.04.09h3.64z"/><path d="m135.27 90.78c0 2.76.04 3.55.29 3.82.23.21.77.3 2.11.3.98 0 1.65-.02 2.01-.34.34-.23.5-.61.59-1.15.02-.13.04-.19.12-.19.06 0 .08.06.08.19 0 .17-.12 1.13-.25 1.63-.12.4-.17.43-.98.43-1.82 0-3.43-.09-4.46-.09-.44 0-.98.06-1.49.06-.15 0-.25-.04-.25-.11 0-.06.04-.09.19-.09.13 0 .27 0 .44-.04.36-.06.42-.38.46-.83.08-.62.08-1.82.08-3.59v-2.84c0-2.53 0-2.97-.02-3.5-.04-.61-.12-.89-.73-.95-.17-.02-.31-.02-.46-.02-.11 0-.17-.04-.17-.09 0-.08.06-.09.21-.09.65 0 1.55.04 1.7.04.29 0 1.11-.04 1.57-.04.15 0 .21.04.21.09s-.08.09-.19.09c-.1 0-.25.02-.4.04-.5.06-.59.32-.63.91-.04.55-.02 1.02-.02 3.52v2.86z"/><path d="m153.32 86.6c0-2.93 0-3.46-.02-4.06-.04-.79-.19-1.04-.73-1.15-.17-.04-.52-.06-.67-.06-.1 0-.15-.04-.15-.09 0-.08.08-.09.25-.09.63 0 1.59.06 1.84.06.27 0 1.67-.06 2.22-.06 1.13 0 2.3.09 3.24.74.73.51 1.42 1.51 1.42 2.76 0 1.49-.69 2.89-2.32 4.29 1.47 1.95 2.8 3.69 3.93 4.86.94 1 1.67 1.32 2.39 1.4.31.04.5.04.59.04.13 0 .19.04.19.09 0 .08-.1.11-.34.11h-1c-1.25 0-1.74-.19-2.3-.64-.67-.47-1.24-1.27-2.2-2.5-.71-.93-1.68-2.31-2.11-2.85-.1-.09-.15-.15-.27-.15l-2.82-.04c-.08 0-.1.06-.1.13v1.06c0 1.91 0 2.93.08 3.72.04.6.15.93.73 1 .23.04.55.06.75.06.15 0 .19.04.19.09 0 .08-.08.11-.27.11-.86 0-1.93-.06-2.03-.06s-.98.06-1.51.06c-.19 0-.27-.04-.27-.11 0-.04.04-.09.17-.09.12 0 .27-.02.44-.04.42-.06.54-.43.59-.98.08-.79.08-1.97.08-4.25v-3.35zm1.05 1.81c0 .08.02.11.12.15.34.15 1.36.26 2.36.26.55 0 1-.08 1.42-.4.71-.53 1.34-1.64 1.34-3.12 0-2.17-1.23-3.72-3.62-3.72-.65 0-1.21.06-1.44.13-.13.06-.17.11-.17.26v6.43z"/><path d="m168.2 87.92c0-2.53 0-2.99-.02-3.52-.04-.61-.15-.79-.63-.89-.17-.04-.42-.06-.58-.06-.13 0-.21-.04-.21-.09 0-.08.08-.09.23-.09.4 0 1.03.04 1.74.06.19 0 3.41-.02 3.81-.02.33-.02.59-.04.77-.08.1-.04.12-.06.17-.06.04 0 .06.06.06.13-.02.09-.1.3-.12.64-.04.28-.06.57-.06 1 0 .17-.04.25-.1.25-.08 0-.12-.06-.12-.19 0-.3-.06-.55-.13-.68-.13-.32-.31-.42-1.05-.45-.36-.02-1.93-.06-2.59-.06-.1 0-.11.06-.11.17v4.58c0 .09.02.13.1.13.15 0 2.49-.02 2.87-.04.48-.04.73-.11.84-.3.06-.11.1-.13.15-.13.04 0 .06.04.06.11-.02.09-.08.42-.13.83-.06.45-.06.91-.06 1.12-.02.11-.04.19-.1.19-.08 0-.1-.09-.1-.21-.02-.21-.02-.36-.08-.53-.08-.25-.21-.43-.79-.47-.5-.06-2.43-.08-2.68-.08-.08 0-.1.04-.1.09v1.47c0 .49 0 2.59.02 2.97.04.6.12.95.58 1.06.31.08.77.11 1.42.11.8 0 1.3 0 1.72-.13.46-.15.63-.49.75-1.21.04-.15.08-.21.13-.21.08 0 .08.13.08.21 0 .15-.12 1.1-.21 1.49-.08.36-.17.42-.88.42-1.23 0-1.99-.04-2.66-.06s-1.19-.04-1.72-.04c-.33 0-.88.06-1.26.06-.15 0-.23-.04-.23-.11 0-.06.06-.11.17-.11.13 0 .29-.02.42-.04.36-.06.54-.23.57-1.44.02-.66.04-1.51.04-2.97v-2.84z"/><path d="m179.67 93.91c-1.63-1.42-2.03-3.35-2.03-4.78 0-1.12.38-2.89 1.82-4.31.94-.93 2.45-1.78 5.09-1.78.77 0 1.59.04 2.55.19.65.11 1.32.25 1.69.26.12 0 .15.04.15.13 0 .11-.08.36-.12.91-.02.53-.02 1.17-.02 1.4-.02.23-.04.28-.12.28-.1 0-.12-.09-.12-.28-.02-.79-.25-1.29-.63-1.57-.59-.45-2.01-.83-3.5-.83-2.47 0-3.5.76-4.16 1.36-1.23 1.15-1.49 2.57-1.49 4.12 0 3.03 2.26 6.01 6.38 6.01 1.23 0 2.24-.09 2.93-.7.38-.38.56-.81.65-1.42.04-.15.08-.23.17-.23.08 0 .08.13.06.25 0 .08-.13 1.04-.34 1.85-.1.28-.15.34-.46.47-.67.28-1.95.38-3.04.38-2.55 0-4.17-.64-5.46-1.72z"/><path d="m192.53 89.36c0-2.84 2.09-6.31 6.55-6.31 3.77 0 6.47 2.4 6.47 5.99s-2.6 6.6-6.61 6.6c-4.4 0-6.42-3.31-6.42-6.28zm11.85.06c0-3.89-2.72-5.9-5.42-5.9-3.22 0-5.27 2.04-5.27 5.44 0 3.82 2.43 6.16 5.65 6.16 2.05 0 5.04-1.25 5.04-5.71z"/><path d="m211.07 87.92c0-2.5-.02-2.97-.04-3.48-.04-.64-.21-.87-.69-.95-.15-.02-.34-.04-.54-.04-.13 0-.19-.04-.19-.09s.06-.09.23-.09c.61 0 1.55.06 1.72.06.23 0 1.46-.06 1.97-.06 1 0 2.05.08 2.87.64.59.4 1.26 1.25 1.26 2.4 0 1.23-.57 2.44-2.01 3.57 1.3 1.66 2.47 3.12 3.45 4.12.84.87 1.42 1.15 2.16 1.19.13.02.38.02.44.02.15 0 .19.04.19.09 0 .08-.08.11-.27.11h-1c-1.07 0-1.47-.15-1.95-.49-.65-.4-1.17-1.1-2.03-2.19-.65-.79-1.49-1.95-1.86-2.4-.1-.08-.13-.11-.27-.11l-2.37-.04c-.06 0-.08.04-.08.09v.79c0 1.59 0 2.55.06 3.23.04.51.13.79.73.87.19.02.36.04.52.04.17 0 .23.04.23.09 0 .08-.08.11-.25.11-.8 0-1.72-.06-1.82-.06-.29 0-.92.06-1.4.06-.17 0-.23-.04-.23-.11 0-.06.08-.09.19-.09.1 0 .23 0 .38-.02.38-.06.46-.3.5-.76.08-.68.08-1.85.08-3.69v-2.84zm1.02 1.48c0 .09.02.15.08.17.31.13 1.19.23 2.03.23.48 0 .88-.08 1.26-.32.65-.42 1.13-1.34 1.13-2.59 0-1.87-1.11-3.18-3.14-3.18-.55 0-1 .04-1.23.11-.1.04-.13.08-.13.21z"/><path d="m225 87.9c0-2.46 0-2.89-.02-3.46-.04-.64-.13-.83-.67-.93-.17-.04-.42-.06-.59-.06-.1 0-.17-.04-.17-.09 0-.08.08-.09.25-.09.44 0 1.46.06 1.69.06.38 0 1.61-.08 2.45-.08 1.65 0 4.62-.06 6.53 1.81.86.83 1.67 2.23 1.67 4.12 0 2.1-.88 3.57-1.82 4.54-.71.72-2.28 1.83-5.11 1.83-.69 0-1.51-.04-2.2-.08-.77-.06-1.3-.11-1.46-.11-.06 0-.4 0-.71.02s-.61.04-.82.04c-.15 0-.23-.04-.23-.09s.08-.11.21-.11c.1 0 .23 0 .38-.04.42-.04.52-.36.56-.93.08-.66.08-1.83.08-3.44v-2.91zm1.07 2.1c0 1.72.02 3.06.02 3.42.02.57.08.95.23 1.1.25.26 1 .59 2.97.59 1.61 0 3.08-.47 4.06-1.34.94-.77 1.63-2.25 1.63-4.18s-.77-3.2-1.55-4.03c-1.51-1.55-3.54-1.83-5.78-1.83-.54 0-1.17.08-1.34.13-.15.06-.21.13-.21.28-.02.55-.02 2.16-.02 3.63v2.23z"/><path d="m240.32 95.22c-.23-.11-.25-.21-.25-.55 0-.7.04-1.3.08-1.57.02-.17.04-.25.12-.25.06 0 .1.06.1.19 0 .19 0 .43.06.64.23 1.06 1.23 1.47 2.45 1.47 1.67 0 2.57-1.1 2.57-2.34 0-1.17-.42-1.81-2.01-3.02l-.79-.61c-1.65-1.25-2.15-2.23-2.15-3.31 0-1.66 1.25-2.84 3.35-2.84.65 0 1.15.08 1.55.15.27.06.44.08.59.09.12 0 .13.02.13.08 0 .09-.08.6-.08 1.66 0 .23-.02.32-.1.32s-.1-.08-.1-.19c-.02-.25-.06-.62-.23-.89-.19-.28-.75-.78-2.11-.78-1.28 0-2.16.7-2.16 2.02 0 .95.42 1.59 2.14 2.84l.52.38c1.95 1.47 2.36 2.44 2.36 3.63 0 .64-.25 1.8-1.4 2.61-.67.45-1.49.66-2.47.66-.79 0-1.57-.13-2.18-.42z"/><path d="m90.84 104.14c-.44-1.13-.61-1.44-1.38-1.57-.25-.06-.42-.06-.52-.06-.13 0-.19-.04-.19-.09 0-.09.13-.09.36-.09.71 0 1.49.04 1.76.04.21 0 1.07-.04 1.49-.04.27 0 .36.02.36.09s-.04.09-.17.09-.34.02-.54.06c-.29.08-.33.21-.33.36 0 .23.27.96.48 1.51l4.14 10.64c1.19-2.76 4-9.85 4.44-11.27.11-.3.19-.64.19-.81 0-.21-.06-.36-.44-.43-.21-.06-.36-.06-.54-.06-.11 0-.17-.02-.17-.09s.08-.09.29-.09c.67 0 1.47.06 1.69.06.17 0 .9-.06 1.46-.06.19 0 .27.02.27.09s-.06.09-.21.09c-.36 0-.69.06-.96.25-.25.19-.48.51-1.02 1.83-.54 1.36-1.09 2.76-2.07 5.08-1.15 2.78-1.97 4.71-2.62 6.16-.38.85-.44 1.04-.57 1.04-.15 0-.25-.21-.52-.91l-4.69-11.83z"/><path d="m105.46 110.55c0-2.84 2.09-6.31 6.55-6.31 3.77 0 6.47 2.4 6.47 5.99s-2.6 6.6-6.61 6.6c-4.4 0-6.42-3.31-6.42-6.28zm11.85.06c0-3.89-2.72-5.9-5.42-5.9-3.22 0-5.27 2.04-5.27 5.44 0 3.82 2.43 6.16 5.65 6.16 2.05 0 5.04-1.25 5.04-5.71z"/><path d="m125.09 111.97c0 2.76.04 3.55.29 3.82.23.21.77.3 2.11.3.98 0 1.65-.02 2.01-.34.34-.23.5-.61.59-1.15.02-.13.04-.19.12-.19.06 0 .08.06.08.19 0 .17-.12 1.13-.25 1.63-.12.4-.17.43-.98.43-1.82 0-3.43-.09-4.46-.09-.44 0-.98.06-1.49.06-.15 0-.25-.04-.25-.11 0-.06.04-.09.19-.09.13 0 .27 0 .44-.04.36-.06.42-.38.46-.83.08-.62.08-1.82.08-3.59v-2.84c0-2.53 0-2.97-.02-3.5-.04-.61-.12-.89-.73-.95-.17-.02-.31-.02-.46-.02-.11 0-.17-.04-.17-.09 0-.08.06-.09.21-.09.65 0 1.55.04 1.7.04.29 0 1.11-.04 1.57-.04.15 0 .21.04.21.09s-.08.09-.19.09c-.1 0-.25.02-.4.04-.5.06-.59.32-.63.91-.04.55-.02 1.02-.02 3.52v2.86z"/><path d="m135.42 111.42c0 2.29.56 3.27 1.24 3.93.86.78 1.93.96 2.81.96 1.09 0 2.05-.3 2.76-1.12.82-.93 1.02-2.38 1.02-4.03v-2.06c0-2.53-.02-2.97-.06-3.48-.04-.59-.1-.87-.73-.95-.13-.02-.33-.04-.44-.04s-.19-.04-.19-.09c0-.08.08-.09.23-.09.77 0 1.49.06 1.63.06.15 0 .86-.06 1.32-.06.15 0 .21.02.21.09 0 .06-.06.09-.17.09-.08 0-.17 0-.33.02-.48.06-.59.3-.63.98-.02.51-.02.93-.02 3.46v1.83c0 1.78-.19 3.65-1.51 4.78-1.13.98-2.39 1.1-3.39 1.1-.79 0-2.38-.15-3.45-1.13-.8-.77-1.4-1.85-1.4-4.18v-2.4c0-2.5 0-2.95-.04-3.46-.02-.64-.13-.89-.63-.96-.15-.02-.38-.04-.54-.04-.13 0-.19-.04-.19-.09 0-.08.06-.09.23-.09.61 0 1.57.06 1.72.06s1.07-.06 1.51-.06c.17 0 .21.02.21.09s-.1.09-.19.09-.19.02-.34.04c-.54.06-.59.34-.63.93-.02.53-.02 1-.02 3.5v2.31z"/><path d="m162.9 114.54c.08.87.17 1.57.86 1.74.34.09.82.13 1.05.13.12 0 .21.02.21.09s-.08.11-.25.11c-.4 0-2.18-.08-2.74-.11-.29-.04-.38-.06-.38-.11s.04-.09.13-.13c.1-.04.15-.23.12-.53l-.73-9.09-4.48 9.19c-.31.62-.34.74-.46.74-.1 0-.17-.11-.4-.53-.69-1.36-1.9-3.84-1.97-4.01-.21-.42-2.34-4.8-2.55-5.31l-.71 8.22c-.02.25-.02.55-.02.79 0 .34.1.55.46.62.21.04.44.06.59.06.15.02.17.06.17.09 0 .09-.08.11-.27.11-.57 0-1.3-.06-1.47-.06-.19 0-.94.06-1.36.06-.15 0-.23-.02-.23-.11 0-.04.06-.09.19-.09s.21 0 .42-.02c.42-.06.59-.36.71-1.42l1.07-10.4c.04-.25.08-.36.15-.36s.13.06.23.26l5.19 10.46 5.11-10.46c.08-.17.13-.25.21-.25.12 0 .13.15.15.43l.98 9.87z"/><path d="m169.63 109.11c0-2.53 0-2.99-.02-3.52-.04-.61-.15-.79-.63-.89-.17-.04-.42-.06-.58-.06-.13 0-.21-.04-.21-.09 0-.08.08-.09.23-.09.4 0 1.03.04 1.74.06.19 0 3.41-.02 3.81-.02.33-.02.59-.04.77-.08.1-.04.12-.06.17-.06.04 0 .06.06.06.13-.02.09-.1.3-.12.64-.04.28-.06.57-.06 1 0 .17-.04.25-.1.25-.08 0-.12-.06-.12-.19 0-.3-.06-.55-.13-.68-.13-.32-.31-.42-1.05-.45-.36-.02-1.93-.06-2.59-.06-.1 0-.11.06-.11.17v4.58c0 .09.02.13.1.13.15 0 2.49-.02 2.87-.04.48-.04.73-.11.84-.3.06-.11.1-.13.15-.13.04 0 .06.04.06.11-.02.09-.08.42-.13.83-.06.45-.06.91-.06 1.12-.02.11-.04.19-.1.19-.08 0-.1-.09-.1-.21-.02-.21-.02-.36-.08-.53-.08-.25-.21-.43-.79-.47-.5-.06-2.43-.08-2.68-.08-.08 0-.1.04-.1.09v1.47c0 .49 0 2.59.02 2.97.04.6.12.95.58 1.06.31.08.77.11 1.42.11.8 0 1.3 0 1.72-.13.46-.15.63-.49.75-1.21.04-.15.08-.21.13-.21.08 0 .08.13.08.21 0 .15-.12 1.1-.21 1.49-.08.36-.17.42-.88.42-1.23 0-1.99-.04-2.66-.06s-1.19-.04-1.72-.04c-.33 0-.88.06-1.26.06-.15 0-.23-.04-.23-.11 0-.06.06-.11.17-.11.13 0 .29-.02.42-.04.36-.06.54-.23.57-1.44.02-.66.04-1.51.04-2.97v-2.84z"/><path d="m188.98 107.79c0-2.93 0-3.48-.02-4.08-.04-.79-.13-1.04-.71-1.13-.19-.04-.36-.04-.52-.06-.12 0-.17-.02-.17-.09s.08-.09.25-.09c.52 0 1.55.06 1.7.06.17 0 1.13-.06 1.61-.06.19 0 .27.02.27.09s-.08.09-.17.09c-.17.02-.27.02-.46.06-.55.08-.63.36-.67 1.1-.02.6-.02 1.19-.02 4.14v3.33c0 2.1 0 3.4.08 4.2.04.6.15.95.73 1.02.29.04.57.06.67.06.17 0 .23.04.23.09 0 .08-.08.11-.27.11-.86 0-1.9-.06-1.99-.06-.13 0-1.05.06-1.59.06-.21 0-.27-.04-.27-.11 0-.06.06-.09.21-.09.1 0 .27 0 .44-.04.44-.06.54-.42.59-1 .08-.79.08-1.95.08-4.23v-3.35z"/></g></svg>