<svg enable-background="new 0 0 283.46 141.73" viewBox="0 0 283.46 141.73" xmlns="http://www.w3.org/2000/svg" xmlns:xlink="http://www.w3.org/1999/xlink"><clipPath id="a"><path d="m118.33 7.03h46.8v44.29h-46.8z"/></clipPath><clipPath id="b"><path d="m-9.74-89.37h302.94v302.94h-302.94z"/></clipPath><path clip-path="url(#a)" d="m123.13 22.07h7.16v6.05h-7.16z" fill="#2d3c89"/><path clip-path="url(#a)" d="m142.36 7.85h3.91v20.44h-3.91z" fill="#2d3c89"/><path clip-path="url(#a)" d="m142.36 38.42h3.91v5.4h-3.91z" fill="#2d3c89"/><path clip-path="url(#a)" d="m134.36 7.85h3.9v20.44h-3.9z" fill="#f29445"/><path clip-path="url(#a)" d="m134.36 38.42h3.9v5.4h-3.9z" fill="#f29445"/><path clip-path="url(#a)" d="m150.2 20.6h11.06v4.09h-11.06z" fill="#f29445"/><path clip-path="url(#a)" d="m150.2 39.73h11.06v4.09h-11.06z" fill="#f29445"/><path clip-path="url(#a)" d="m119.64 47.75h44.03v3.43h-44.03z" fill="#f29445"/><path clip-path="url(#a)" d="m123.13 13.73h7.16v7.03h-7.16z" fill="#f5c53a"/><path clip-path="url(#a)" d="m123.13 29.43h7.16v14.55h-7.16z" fill="#f5c53a"/><path clip-path="url(#a)" d="m150.2 26h11.06v12.43h-11.06z" fill="#f5c53a"/><path clip-path="url(#a)" d="m142.36 29.59h3.91v7.52h-3.91z" fill="#f5c53a"/><g fill="#2d3c89"><path clip-path="url(#a)" d="m134.36 29.59h3.9v7.52h-3.9z"/><path clip-path="url(#a)" d="m150.2 39.73h11.06v4.09h-11.06zm0-13.73h11.06v12.43h-11.06zm0-5.4h11.06v4.09h-11.06zm-.63 24.53h12.42c.36 0 .58-.26.58-.62v-4.71-15.09-4.8c0-.36-.22-.62-.58-.62h-12.42c-.36 0-.67.26-.67.62v4.8 15.09 4.71c0 .35.31.62.67.62zm-7.21-6.71h3.91v5.4h-3.91zm0-8.83h3.91v7.52h-3.91zm0-21.74h3.91v20.44h-3.91zm-.6 37.28h5.18c.36 0 .62-.28.62-.64v-6.08-10.18-21c0-.36-.26-.69-.62-.69h-5.18c-.36 0-.71.33-.71.69v21.01 10.18 6.08c0 .35.35.63.71.63zm-7.4-6.71h3.9v5.4h-3.9zm0-8.83h3.9v7.52h-3.9zm0-21.74h3.9v20.44h-3.9zm-.67 37.28h5.18c.36 0 .69-.28.69-.64v-6.08-10.18-21c0-.36-.33-.69-.69-.69h-5.18c-.36 0-.64.33-.64.69v21.01 10.18 6.08c0 .35.28.63.64.63zm-10.56-15.7h7.16v14.55h-7.16zm0-7.36h7.16v6.05h-7.16zm0-8.34h7.16v7.03h-7.16zm-.67 31.56h8.54c.36 0 .59-.36.59-.72v-15.08-8.8-7.59c0-.36-.23-.68-.59-.68h-8.53c-.36 0-.64.32-.64.68v7.59 8.8 15.08c0 .36.28.72.63.72zm41.21 5.89h-44.03v-3.43h44.03zm.81-4.74h-45.5c-.36 0-.65.29-.65.65v4.74c0 .36.29.65.65.65h45.5c.36 0 .65-.29.65-.65v-4.74c0-.36-.29-.65-.65-.65z"/><path clip-path="url(#b)" d="m31.75 60.72 2.62.04c2 .04 2.5.52 2.56 1.15l.02.23c.02.29.06.35.17.35.08 0 .15-.08.15-.27 0-.23.06-1.67.06-2.29 0-.12 0-.25-.1-.25-.08 0-.27.06-.58.1-.33.06-.81.1-1.48.1h-7.81c-.25 0-1.04-.04-1.65-.1-.56-.04-.77-.25-.92-.25-.08 0-.17.27-.21.4-.04.17-.46 1.96-.46 2.17 0 .12.04.19.1.19.08 0 .15-.04.21-.21.06-.15.12-.29.35-.65.33-.5.83-.65 2.12-.67l3.1-.04v8.81c0 2 0 3.65-.1 4.52-.08.6-.19 1.06-.6 1.15-.19.04-.44.08-.62.08-.12 0-.17.06-.17.12 0 .12.1.17.33.17.62 0 1.94-.06 2.04-.06s1.42.06 2.56.06c.23 0 .33-.06.33-.17 0-.06-.04-.12-.17-.12-.19 0-.65-.04-.94-.08-.62-.08-.75-.54-.81-1.15-.1-.87-.1-2.52-.1-4.52z"/><path clip-path="url(#b)" d="m44.31 68.37c0-3.85 2.21-5.77 5.27-5.77 2.9 0 5.48 2.23 5.48 6.48 0 5.12-3.31 6-4.96 6-3.31-.01-5.79-2.59-5.79-6.71zm-1.89.48c0 3.19 2.15 6.96 7.17 6.96 4.42 0 7.35-3.27 7.35-7.23 0-4.12-3.12-6.64-7.25-6.64-5.06-.01-7.27 4.05-7.27 6.91z"/><path clip-path="url(#b)" d="m64.6 70.43c0 1.71 0 3.1-.1 3.83-.08.52-.12.85-.48.94-.17.04-.4.08-.56.08-.1 0-.15.08-.15.15 0 .1.1.15.29.15.56 0 1.67-.06 1.81-.06.15 0 1.25.06 2.15.06.21 0 .29-.06.29-.15 0-.06-.04-.15-.15-.15-.17 0-.46-.04-.71-.08-.56-.08-.65-.42-.71-.94-.08-.73-.08-2.12-.08-3.83v-1.73h.08c.87 1.04 4.73 5.1 5.56 5.75.79.6 1.27 1 2.23 1.08.42.04.75.04 1.27.04h.94c.31 0 .4-.06.4-.15 0-.08-.1-.15-.23-.15s-.65-.06-1.12-.25c-.87-.35-1.08-.58-2.62-1.96-.75-.69-4.56-4.5-5.04-5.02.4-.44 3.52-3.44 3.98-3.85.81-.77 1.17-1.17 1.92-1.5.35-.15.75-.25 1.02-.25.15 0 .19-.06.19-.15 0-.08-.08-.12-.27-.12-.46 0-1.67.04-1.77.04-.44 0-1-.04-1.37-.04-.12 0-.21.04-.21.12 0 .06.06.15.17.17.15.02.23.12.23.35 0 .29-.48.75-1 1.27-.69.71-3.96 3.94-4.25 4.27h-.11v-1.05c0-2.75 0-3.25.04-3.81.04-.62.17-.87.65-.98.23-.04.33-.04.46-.04.08 0 .15-.08.15-.15 0-.1-.08-.15-.29-.15-.54 0-1.65.04-1.81.04-.1 0-1.23-.04-2.06-.04-.21 0-.29.04-.29.15 0 .06.08.15.15.15.17 0 .48.02.62.04.6.08.71.37.75.98.04.56.04 1.06.04 3.81v3.13z"/><path clip-path="url(#b)" d="m83.82 72.49c0 .29 0 1.04-.04 1.77-.04.52-.17.85-.54.94-.17.04-.37.08-.54.08-.1 0-.15.08-.15.15 0 .1.08.15.29.15.54 0 1.71-.06 1.79-.06.1 0 1.29.06 2.31.06.19 0 .29-.06.29-.15 0-.06-.04-.15-.15-.15-.17 0-.58-.04-.83-.08-.54-.08-.67-.42-.71-.94-.06-.73-.06-1.48-.06-1.77v-1.52c0-.58-.08-1.15.23-1.77.37-.75 2.96-4.92 3.56-5.62.4-.48.56-.67.92-.87.29-.17.65-.23.85-.23.15 0 .23-.1.23-.19 0-.06-.1-.1-.23-.1-.35 0-1.67.04-1.79.04-.15 0-.79-.04-1.27-.04-.19 0-.29.04-.29.1 0 .08.1.17.27.21.21.06.29.21.29.46 0 .23-.08.52-.31.92-.33.58-2.62 4.37-3 5.12l-3.33-5.52c-.12-.23-.25-.44-.25-.69 0-.15.08-.23.23-.29.17-.06.29-.12.29-.19 0-.08-.04-.12-.25-.12-.71 0-1.46.04-1.58.04-.08 0-1.46-.04-1.81-.04-.17 0-.23.04-.23.12s.08.17.19.17c.15 0 .5.08.77.25.33.23.77.62 1.21 1.29.62.94 3.1 4.87 3.25 5.14.27.5.4.85.4 1.81v1.52z"/><path clip-path="url(#b)" d="m96.82 68.37c0-3.85 2.21-5.77 5.27-5.77 2.9 0 5.48 2.23 5.48 6.48 0 5.12-3.31 6-4.96 6-3.31-.01-5.79-2.59-5.79-6.71zm-1.9.48c0 3.19 2.15 6.96 7.17 6.96 4.42 0 7.35-3.27 7.35-7.23 0-4.12-3.12-6.64-7.25-6.64-5.06-.01-7.27 4.05-7.27 6.91z"/><path clip-path="url(#b)" d="m128.81 68.68c-.06 0-.1-.04-.06-.15l1.83-5.62c.1-.31.21-.31.31 0l1.98 5.62c.02.08.02.15-.08.15zm-2.92 4.6c-.37 1.04-.79 1.83-1.75 1.96-.17.02-.46.04-.6.04-.1 0-.19.04-.19.12 0 .12.12.17.4.17.98 0 2.12-.06 2.35-.06s1.12.06 1.62.06c.19 0 .31-.04.31-.17 0-.08-.06-.12-.21-.12h-.21c-.35 0-.79-.19-.79-.6 0-.37.1-.87.29-1.4l1.25-3.69c.04-.1.1-.17.21-.17h4.48c.1 0 .15.04.19.12l1.94 5.12c.12.33 0 .52-.12.56-.08.02-.15.06-.15.15 0 .12.23.12.62.15 1.44.04 2.96.04 3.27.04.23 0 .42-.04.42-.17 0-.1-.08-.12-.21-.12-.21 0-.52-.02-.83-.12-.44-.12-1.04-.46-1.79-2.31-1.27-3.17-4.54-11.77-4.85-12.56-.25-.65-.33-.75-.46-.75-.12 0-.21.12-.46.81z"/><path clip-path="url(#b)" d="m151.18 75.8c1.19 0 2.56-.1 3.31-.4.31-.12.35-.19.46-.52.19-.6.44-2.15.44-2.27s-.08-.25-.17-.25c-.12 0-.15.06-.19.25-.06.33-.31 1.08-.71 1.48-.73.73-1.65.83-3.02.83-3.92 0-6.6-3.02-6.6-6.42 0-1.79.29-3.37 1.65-4.62.65-.6 1.77-1.23 4.12-1.23 1.62 0 2.96.44 3.6.98.48.37.77 1.08.77 1.77 0 .25.02.37.15.37.1 0 .19-.1.21-.37.02-.25.02-1.23.04-1.81.04-.65.08-.85.08-1 0-.1-.04-.19-.23-.19-.6-.02-1.19-.15-1.87-.27-.9-.15-1.94-.21-2.67-.21-2.81 0-4.48.83-5.58 1.9-1.62 1.58-2.06 3.65-2.06 4.83 0 1.69.44 3.71 2.23 5.25 1.44 1.26 3.29 1.9 6.04 1.9z"/><path clip-path="url(#b)" d="m164.13 69.91c-.06 0-.08-.04-.06-.12l1.71-4.85c.1-.27.21-.27.31 0l1.81 4.85c.02.08.02.12-.06.12zm-2.64 3.71c-.35.9-.71 1.52-1.54 1.62-.15.02-.42.04-.54.04-.08 0-.17.06-.17.15 0 .1.12.15.35.15.75 0 1.67-.06 1.85-.06.21 0 1.21.06 1.65.06.17 0 .27-.04.27-.15 0-.08-.04-.15-.19-.15h-.17c-.31 0-.62-.12-.62-.48 0-.31.1-.75.27-1.19l1.04-2.83c.04-.1.1-.15.19-.15h4.23c.1 0 .12.02.17.1l1.65 4.06c.12.29-.06.44-.17.48-.08.04-.12.04-.12.12 0 .1.29.1.65.12 1.27.04 2.62.04 2.9.04.21 0 .42-.04.42-.15 0-.1-.12-.15-.23-.15-.19 0-.46-.02-.73-.1-.4-.12-.9-.35-1.56-1.94-1.12-2.69-4.06-10-4.4-10.75-.19-.4-.25-.65-.44-.65-.12 0-.21.1-.44.69z"/><path clip-path="url(#b)" d="m180.94 63.3c0-.21.06-.29.23-.35s.75-.12 1.1-.12c2.19 0 4.21.23 5.94 1.98.75.75 1.73 2.19 1.73 4.44 0 1.62-.48 3.31-1.44 4.21-1.1 1.04-2.6 1.6-4.29 1.6-2.17 0-2.81-.37-3.04-.71-.15-.19-.19-.83-.21-1.27-.02-.33-.02-1.98-.02-3.85zm-1.66 7.13c0 1.71 0 3.1-.1 3.83-.08.52-.12.85-.48.94-.17.04-.4.08-.56.08-.1 0-.15.08-.15.15 0 .1.1.15.29.15.29 0 .73-.02 1.1-.04.37 0 .71-.02.75-.02.08 0 .71.04 1.5.1.79.04 1.77.1 2.56.1 3.12 0 4.77-1.23 5.56-2.04 1.02-1.04 1.98-2.75 1.98-4.98 0-2.1-.87-3.58-1.79-4.5-2.17-2.19-5.52-2.02-7.35-2.02-1.08 0-2.25.04-2.46.04-.1 0-1.29-.04-2.12-.04-.21 0-.29.04-.29.15 0 .06.08.15.15.15.17 0 .48.02.62.04.6.08.71.37.75.98.04.56.04 1.06.04 3.81z"/><path clip-path="url(#b)" d="m199.4 70.43c0 1.71 0 3.1-.1 3.83-.08.52-.12.87-.48.94-.17.02-.4.08-.56.08-.1 0-.15.08-.15.15 0 .1.1.15.29.15.29 0 .71-.02 1.06-.04.4-.02.75-.02.79-.02.27 0 .75 0 1.52.04.75.02 1.81.06 3.19.06.71 0 .9 0 1.02-.46.1-.37.25-1.58.25-1.71s-.02-.27-.12-.27-.15.06-.19.27c-.1.71-.35 1.02-.83 1.23-.48.19-1.35.19-1.83.19-1.81 0-2.15-.23-2.19-1.42-.02-.35 0-2.42 0-3.02v-1.48c0-.06.02-.12.12-.12.31 0 2.27.02 2.77.08.71.08.87.29.94.54.08.23.08.42.08.58 0 .1.04.17.12.17.12 0 .17-.19.17-.33 0-.12.04-.79.08-1.15.04-.58.15-.87.15-.98 0-.1-.04-.15-.1-.15s-.15.1-.27.23c-.19.19-.46.21-.9.25-.42.04-2.83.04-3.06.04-.1 0-.1-.06-.1-.19v-4.81c0-.12.02-.19.1-.19.21 0 2.33.02 2.65.06 1 .12 1.19.25 1.31.54.08.21.1.5.1.62 0 .15.04.23.15.23.08 0 .15-.1.17-.19.04-.21.08-1 .1-1.17.04-.5.15-.71.15-.83 0-.08-.02-.17-.08-.17-.08 0-.17.06-.25.08-.15.02-.48.08-.83.1-.42.02-4.25 0-4.37 0-.1 0-1.29-.04-2.12-.04-.21 0-.29.04-.29.15 0 .06.08.15.15.15.17 0 .48.02.62.04.6.08.71.37.75.98.04.56.04 1.06.04 3.81v3.15z"/><path clip-path="url(#b)" d="m226.62 62.41c-.04-.33-.15-.48-.27-.48s-.21.12-.29.29l-5.33 10.98-5.54-11c-.1-.21-.25-.27-.37-.27-.1 0-.19.12-.21.31l-1.33 11.56c-.08.67-.1 1.31-.71 1.42-.27.04-.4.06-.54.06-.1 0-.19.06-.19.12 0 .12.12.17.31.17.5 0 1.37-.06 1.54-.06.15 0 1.02.06 1.71.06.21 0 .33-.04.33-.17 0-.06-.08-.12-.15-.12-.12 0-.4-.02-.71-.1-.27-.06-.44-.23-.44-.5 0-.29 0-.62.02-.9l.71-8h.08c.31.73 1.79 3.71 2.33 4.83.46.96 1.67 3.23 2.15 4.1.35.65.46.81.62.81.17 0 .27-.17.65-.94l4.42-9.04h.04l.87 8.96c.04.33.02.6-.08.62-.08.02-.12.08-.12.15 0 .08.08.15.52.19.67.06 2.71.1 3.12.1.21 0 .37-.06.37-.17 0-.08-.06-.12-.15-.12-.19 0-.67 0-1.19-.17-.75-.25-.87-1.21-.94-1.83z"/><path clip-path="url(#b)" d="m238.32 67.3c0-2.75 0-3.25.02-3.81.04-.62.15-.87.65-.98.21-.04.33-.04.46-.04.06 0 .15-.08.15-.15 0-.1-.08-.15-.29-.15-.56 0-1.75.04-1.83.04-.1 0-1.25-.04-1.85-.04-.21 0-.29.04-.29.15 0 .06.06.15.15.15.12 0 .35.02.56.06.4.08.54.35.58.96.04.56.04 1.06.04 3.81v3.12c0 1.71-.02 3.1-.1 3.83-.06.52-.12.85-.48.94-.17.04-.4.08-.56.08-.1 0-.15.08-.15.15 0 .1.1.15.29.15.56 0 1.71-.06 1.81-.06.08 0 1.27.06 2.29.06.21 0 .29-.06.29-.15 0-.06-.04-.15-.15-.15-.17 0-.56-.04-.83-.08-.54-.08-.6-.42-.67-.94-.08-.73-.08-2.12-.08-3.83v-3.12z"/><path clip-path="url(#b)" d="m254.21 75.8c1.19 0 2.56-.1 3.31-.4.31-.12.35-.19.46-.52.19-.6.44-2.15.44-2.27s-.08-.25-.17-.25c-.12 0-.15.06-.19.25-.06.33-.31 1.08-.71 1.48-.73.73-1.65.83-3.02.83-3.92 0-6.6-3.02-6.6-6.42 0-1.79.29-3.37 1.65-4.62.65-.6 1.77-1.23 4.12-1.23 1.62 0 2.96.44 3.6.98.48.37.77 1.08.77 1.77 0 .25.02.37.15.37.1 0 .19-.1.21-.37.02-.25.02-1.23.04-1.81.04-.65.08-.85.08-1 0-.1-.04-.19-.23-.19-.6-.02-1.19-.15-1.87-.27-.9-.15-1.94-.21-2.67-.21-2.81 0-4.48.83-5.58 1.9-1.62 1.58-2.06 3.65-2.06 4.83 0 1.69.44 3.71 2.23 5.25 1.44 1.26 3.29 1.9 6.04 1.9z"/><path clip-path="url(#b)" d="m26.67 82.68c0-.12.06-.21.17-.25.21-.06.77-.12 1.4-.12 2.23 0 3.6 1.56 3.6 4.17 0 1.58-.54 2.71-1.27 3.21-.48.33-1.06.4-1.56.4-.92 0-1.87-.15-2.19-.33-.1-.06-.15-.15-.15-.25zm-1.66 8.66c0 2 0 3.65-.1 4.52-.08.6-.19 1.06-.6 1.15-.19.04-.44.08-.62.08-.12 0-.17.06-.17.12 0 .12.1.17.33.17.62 0 1.94-.06 1.96-.06.1 0 1.42.06 2.56.06.23 0 .33-.06.33-.17 0-.06-.04-.12-.17-.12-.19 0-.65-.04-.94-.08-.62-.08-.75-.54-.81-1.15-.1-.87-.1-2.52-.1-4.52v-.5c0-.1.04-.17.15-.17l2.56.04c.12 0 .19.04.27.12.42.54 1.4 1.94 2.27 3.08 1.19 1.56 1.92 2.58 2.81 3.06.54.29 1.06.4 2.23.4h1.48c.37 0 .5-.04.5-.17 0-.06-.08-.12-.19-.12-.12 0-.42 0-.81-.06-.52-.08-1.42-.31-2.54-1.5-1.21-1.29-2.62-3.15-4.33-5.33 1.87-1.73 2.52-3.27 2.52-4.81 0-1.44-.92-2.46-1.44-2.83-1.1-.79-2.5-.92-3.81-.92-.65 0-2.23.06-2.46.06-.1 0-1.42-.06-2.35-.06-.23 0-.33.04-.33.17 0 .08.08.12.17.12.19 0 .54.02.71.06.69.15.85.48.9 1.19.04.67.04 1.25.04 4.5v3.67z"/><path clip-path="url(#b)" d="m43.5 92.24c0 1.71 0 3.1-.1 3.83-.08.52-.12.87-.48.94-.17.02-.4.08-.56.08-.1 0-.15.08-.15.15 0 .1.1.15.29.15.29 0 .71-.02 1.06-.04.4-.02.75-.02.79-.02.27 0 .75 0 1.52.04.75.02 1.81.06 3.19.06.71 0 .9 0 1.02-.46.1-.37.25-1.58.25-1.71s-.02-.27-.12-.27-.15.06-.19.27c-.1.71-.35 1.02-.83 1.23-.48.19-1.35.19-1.83.19-1.81 0-2.15-.23-2.19-1.42-.02-.35 0-2.42 0-3.02v-1.48c0-.06.02-.12.12-.12.31 0 2.27.02 2.77.08.71.08.87.29.94.54.08.23.08.42.08.58 0 .1.04.17.12.17.12 0 .17-.19.17-.33 0-.12.04-.79.08-1.15.04-.58.15-.87.15-.98 0-.1-.04-.15-.1-.15s-.15.1-.27.23c-.19.19-.46.21-.9.25-.42.04-2.83.04-3.06.04-.1 0-.1-.06-.1-.19v-4.81c0-.12.02-.19.1-.19.21 0 2.33.02 2.65.06 1 .12 1.19.25 1.31.54.08.21.1.5.1.62 0 .15.04.23.15.23.08 0 .15-.1.17-.19.04-.21.08-1 .1-1.17.04-.5.15-.71.15-.83 0-.08-.02-.17-.08-.17-.08 0-.17.06-.25.08-.15.02-.48.08-.83.1-.42.02-4.25 0-4.37 0-.1 0-1.29-.04-2.12-.04-.21 0-.29.04-.29.15 0 .06.08.15.15.15.17 0 .48.02.62.04.6.08.71.37.75.98.04.56.04 1.06.04 3.81v3.15z"/><path clip-path="url(#b)" d="m58.81 86.16c-.27-.71-.5-1.25-.5-1.48 0-.12.02-.23.21-.31.17-.06.46-.08.67-.08.12 0 .19-.08.19-.17 0-.08-.17-.12-.5-.12-.71 0-1.52.04-1.71.04-.23 0-1.27-.04-2.15-.04-.29 0-.48.02-.48.12 0 .06.04.17.15.17.1 0 .42 0 .71.06.6.15.85.33 1.27 1.33l4.5 10.85c.35.85.48 1.08.69 1.08.19 0 .29-.27.79-1.33.42-.87 1.23-2.79 2.35-5.37.94-2.17 1.83-4.29 2.04-4.79.48-1.21.77-1.46 1.02-1.62.33-.21.75-.21.87-.21.15 0 .21-.08.21-.17 0-.08-.1-.12-.29-.12-.54 0-1.33.04-1.44.04-.23 0-1.06-.04-1.79-.04-.29 0-.42.04-.42.15 0 .08.1.15.21.15.21 0 .42 0 .62.06.19.06.25.23.25.37 0 .15-.08.4-.17.67-.4 1.27-2.79 7.31-3.85 9.69z"/><path clip-path="url(#b)" d="m76.79 89.12c0-2.75 0-3.25.02-3.81.04-.62.15-.87.65-.98.21-.04.33-.04.46-.04.06 0 .15-.08.15-.15 0-.1-.08-.15-.29-.15-.56 0-1.75.04-1.83.04-.1 0-1.25-.04-1.85-.04-.21 0-.29.04-.29.15 0 .06.06.15.15.15.12 0 .35.02.56.06.4.08.54.35.58.96.04.56.04 1.06.04 3.81v3.12c0 1.71-.02 3.1-.1 3.83-.06.52-.12.85-.48.94-.17.04-.4.08-.56.08-.1 0-.15.08-.15.15 0 .1.1.15.29.15.56 0 1.71-.06 1.81-.06.08 0 1.27.06 2.29.06.21 0 .29-.06.29-.15 0-.06-.04-.15-.15-.15-.17 0-.56-.04-.83-.08-.54-.08-.6-.42-.67-.94-.08-.73-.08-2.12-.08-3.83v-3.12z"/><path clip-path="url(#b)" d="m86.49 92.24c0 1.71 0 3.1-.1 3.83-.08.52-.12.87-.48.94-.17.02-.4.08-.56.08-.1 0-.15.08-.15.15 0 .1.1.15.29.15.29 0 .71-.02 1.06-.04.4-.02.75-.02.79-.02.27 0 .75 0 1.52.04.75.02 1.81.06 3.19.06.71 0 .9 0 1.02-.46.1-.37.25-1.58.25-1.71s-.02-.27-.12-.27-.15.06-.19.27c-.1.71-.35 1.02-.83 1.23-.48.19-1.35.19-1.83.19-1.81 0-2.15-.23-2.19-1.42-.02-.35 0-2.42 0-3.02v-1.48c0-.06.02-.12.12-.12.31 0 2.27.02 2.77.08.71.08.87.29.94.54.08.23.08.42.08.58 0 .1.04.17.12.17.12 0 .17-.19.17-.33 0-.12.04-.79.08-1.15.04-.58.15-.87.15-.98 0-.1-.04-.15-.1-.15s-.15.1-.27.23c-.19.19-.46.21-.9.25-.42.04-2.83.04-3.06.04-.1 0-.1-.06-.1-.19v-4.81c0-.12.02-.19.1-.19.21 0 2.33.02 2.65.06 1 .12 1.19.25 1.31.54.08.21.1.5.1.62 0 .15.04.23.15.23.08 0 .15-.1.17-.19.04-.21.08-1 .1-1.17.04-.5.15-.71.15-.83 0-.08-.02-.17-.08-.17-.08 0-.17.06-.25.08-.15.02-.48.08-.83.1-.42.02-4.25 0-4.37 0-.1 0-1.29-.04-2.12-.04-.21 0-.29.04-.29.15 0 .06.08.15.15.15.17 0 .48.02.62.04.6.08.71.37.75.98.04.56.04 1.06.04 3.81v3.15z"/><path clip-path="url(#b)" d="m109.05 84.89c-.23-.6-.37-.83-.5-.83-.1 0-.23.1-.5.81l-3.83 9.89h-.04c-.23-.73-2.1-7.23-2.4-8.35-.21-.79-.35-1.42-.35-1.65s.12-.33.25-.37c.21-.1.5-.1.65-.1.08 0 .19-.06.19-.17 0-.08-.08-.12-.33-.12-.92 0-1.75.04-1.92.04-.19 0-1.21-.04-2.17-.04-.17 0-.29.04-.29.12 0 .1.08.17.17.17.12 0 .58.02.83.1.48.17.67.4.96 1.33l3.25 10.5c.37 1.21.52 1.4.71 1.4.21 0 .33-.19.65-.94.67-1.65 3.15-8.12 3.77-9.67l3.58 9.69c.25.69.42.92.6.92.21 0 .31-.21.79-1.52.73-1.98 2.54-7.6 3.35-9.85.35-.98.65-1.69 1.19-1.87.21-.06.56-.08.62-.08.12 0 .17-.1.17-.19 0-.06-.08-.1-.25-.1-.56 0-1.35.04-1.48.04-.17 0-.94-.04-1.87-.04-.23 0-.31.04-.31.12 0 .06.06.17.17.17.83 0 .98.21.98.52 0 .23-.02.44-.21 1.1-.65 2.27-2.29 7.39-2.75 8.85h-.08z"/><path clip-path="url(#b)" d="m134.52 90.18c0-3.85 2.21-5.77 5.27-5.77 2.9 0 5.48 2.23 5.48 6.48 0 5.12-3.31 6-4.96 6-3.31-.01-5.79-2.59-5.79-6.71zm-1.9.48c0 3.19 2.15 6.96 7.17 6.96 4.42 0 7.35-3.27 7.35-7.23 0-4.12-3.12-6.64-7.25-6.64-5.06-.01-7.27 4.05-7.27 6.91z"/><path clip-path="url(#b)" d="m154.81 92.24c0 1.71 0 3.1-.1 3.83-.08.52-.12.87-.48.94-.17.02-.4.08-.56.08-.1 0-.15.08-.15.15 0 .1.1.15.29.15.56 0 1.71-.06 1.81-.06.08 0 1.27.06 2.29.06.21 0 .29-.06.29-.15 0-.06-.04-.15-.15-.15-.17 0-.56-.04-.83-.08-.5-.08-.6-.42-.67-.94-.08-.69-.08-2.08-.08-3.83v-1.42c0-.12.02-.17.12-.17.31 0 2.48-.02 2.94.04.56.08.85.31.94.56.08.21.1.46.12.65 0 .08.02.17.12.17.12 0 .17-.19.17-.35 0-.12.02-.83.06-1.19.04-.58.17-.87.17-.98 0-.08-.02-.15-.1-.15-.06 0-.15.08-.23.19-.17.21-.42.27-.85.31-.25.02-.52.02-.83.02l-2.5.02c-.12 0-.12-.06-.12-.17v-4.83c0-.15.04-.19.15-.19l3 .04c.71 0 1.15.29 1.25.52s.17.52.17.67c0 .12.06.21.15.21s.15-.1.17-.19c.04-.21.06-1 .08-1.17.06-.5.15-.71.15-.83 0-.08-.04-.17-.12-.17-.06 0-.15.08-.25.1-.17.06-.48.06-.83.08-.42.02-4.4 0-4.75 0-.1 0-1.25-.04-2.08-.04-.21 0-.29.04-.29.15 0 .06.08.15.15.15.17 0 .48.02.62.04.6.08.71.37.75.98.04.56.04 1.06.04 3.81v3.14z"/><path clip-path="url(#b)" d="m181.4 89.16c0-.1.04-.15.12-.15.31 0 1.35 0 1.62.04.5.06 1.02.12 1.73.6 1.6 1.1 2.02 2.92 2.02 4.17 0 2.35-1.81 2.96-2.94 2.96-.37 0-1.27-.04-1.83-.31-.65-.31-.65-.6-.71-1.62-.02-.31-.02-2.9-.02-4.5v-1.19zm0-6.61c0-.12.06-.19.25-.23.33-.08.77-.1 1-.1 2.04 0 2.81 1.85 2.81 3.58 0 .85-.31 1.6-.75 2.1s-.73.54-1.9.54c-.77 0-1.15-.06-1.27-.08-.1-.04-.15-.08-.15-.23v-5.58zm-1.66 8.79c0 2 0 3.65-.1 4.52-.08.6-.19 1.06-.6 1.15-.19.04-.44.08-.62.08-.12 0-.17.06-.17.12 0 .12.1.17.33.17.31 0 .79-.04 1.21-.04.44-.02.79-.02.83-.02.08 0 .67.02 1.27.06.6.02 1.27.06 1.5.06 3.56 0 5.31-2.31 5.31-4.54 0-2.44-2.06-3.92-3.6-4.4.98-1.02 1.96-2.04 1.96-3.75 0-1.04-.75-3.12-4.17-3.12-.96 0-1.77.06-2.27.06-.1 0-1.42-.06-2.35-.06-.23 0-.33.04-.33.17 0 .08.08.12.17.12.19 0 .54.02.71.06.69.15.85.48.9 1.19.04.67.04 1.25.04 4.5v3.67z"/><path clip-path="url(#b)" d="m196.65 90.18c0-3.85 2.21-5.77 5.27-5.77 2.9 0 5.48 2.23 5.48 6.48 0 5.12-3.31 6-4.96 6-3.31-.01-5.79-2.59-5.79-6.71zm-1.9.48c0 3.19 2.15 6.96 7.17 6.96 4.42 0 7.35-3.27 7.35-7.23 0-4.12-3.12-6.64-7.25-6.64-5.06-.01-7.27 4.05-7.27 6.91z"/><path clip-path="url(#b)" d="m216.75 90.18c0-3.85 2.21-5.77 5.27-5.77 2.9 0 5.48 2.23 5.48 6.48 0 5.12-3.31 6-4.96 6-3.31-.01-5.79-2.59-5.79-6.71zm-1.9.48c0 3.19 2.15 6.96 7.17 6.96 4.42 0 7.35-3.27 7.35-7.23 0-4.12-3.12-6.64-7.25-6.64-5.06-.01-7.27 4.05-7.27 6.91z"/><path clip-path="url(#b)" d="m237.03 92.24c0 1.71 0 3.1-.1 3.83-.08.52-.12.85-.48.94-.17.04-.4.08-.56.08-.1 0-.15.08-.15.15 0 .1.1.15.29.15.56 0 1.67-.06 1.81-.06.15 0 1.25.06 2.15.06.21 0 .29-.06.29-.15 0-.06-.04-.15-.15-.15-.17 0-.46-.04-.71-.08-.56-.08-.65-.42-.71-.94-.08-.73-.08-2.12-.08-3.83v-1.73h.08c.87 1.04 4.73 5.1 5.56 5.75.79.6 1.27 1 2.23 1.08.42.04.75.04 1.27.04h.94c.31 0 .4-.06.4-.15 0-.08-.1-.15-.23-.15-.12 0-.65-.06-1.12-.25-.87-.35-1.08-.58-2.62-1.96-.75-.69-4.56-4.5-5.04-5.02.4-.44 3.52-3.44 3.98-3.85.81-.77 1.17-1.17 1.92-1.5.35-.15.75-.25 1.02-.25.15 0 .19-.06.19-.15 0-.08-.08-.12-.27-.12-.46 0-1.67.04-1.77.04-.44 0-1-.04-1.37-.04-.12 0-.21.04-.21.12 0 .06.06.15.17.17.15.02.23.12.23.35 0 .29-.48.75-1 1.27-.69.71-3.96 3.94-4.25 4.27h-.08v-1.06c0-2.75 0-3.25.04-3.81.04-.62.17-.87.65-.98.23-.04.33-.04.46-.04.08 0 .15-.08.15-.15 0-.1-.08-.15-.29-.15-.54 0-1.65.04-1.81.04-.1 0-1.23-.04-2.06-.04-.21 0-.29.04-.29.15 0 .06.08.15.15.15.17 0 .48.02.62.04.6.08.71.37.75.98.04.56.04 1.06.04 3.81v3.14z"/><path clip-path="url(#b)" d="m255.3 97.61c1 0 2.15-.12 2.92-.62 1.31-.85 1.71-1.98 1.71-3.02 0-1.52-.77-2.75-3-4.27l-.52-.35c-1.81-1.23-2.37-1.87-2.37-3 0-1.25 1.1-1.92 2.44-1.92 1.65 0 2.25.67 2.37.87.1.19.25.67.27.87.02.15.04.23.17.23s.15-.12.15-.4c0-1.21.08-1.79.08-1.87 0-.1-.04-.12-.19-.12s-.29 0-.65-.08c-.44-.1-1.17-.21-1.9-.21-2.42 0-4.06 1.25-4.06 3.33 0 1.23.65 2.31 2.62 3.79l.83.62c1.62 1.21 2.31 1.81 2.31 3.08 0 1.33-.94 2.35-2.75 2.35-1.23 0-2.6-.46-2.9-1.75-.06-.25-.06-.5-.06-.65s-.06-.21-.17-.21c-.1 0-.15.1-.15.29-.02.29-.1 1-.1 1.87 0 .48.02.54.27.67.76.38 1.83.5 2.68.5z"/><path clip-path="url(#b)" d="m91.66 113.1c-2 0-3.2-1.72-3.2-3.88 0-2.59 1.36-3.26 2.56-3.26 1.71 0 3.05 1.45 3.05 3.78 0 3.01-1.69 3.36-2.41 3.36zm-.44.52c2.65 0 4.31-1.89 4.31-4.27s-1.61-3.9-4.21-3.9c-3.12 0-4.3 2.3-4.3 4.08 0 1.85 1.21 4.09 4.2 4.09z"/><path clip-path="url(#b)" d="m99.22 108.65h.03c.18.16 1.15 1.23 2.15 2.19.96.93 2.1 2.02 2.68 2.55.09.09.22.19.37.19.07 0 .15-.08.15-.28l.1-5.58c.01-.5.08-.66.33-.73.11-.03.19-.03.28-.03.1 0 .16-.04.16-.09 0-.07-.08-.08-.21-.08-.45 0-.79.02-.9.02-.2 0-.69-.02-1.17-.02-.14 0-.23.01-.23.08 0 .05.03.09.15.09s.34 0 .48.05c.22.08.3.24.31.78l.09 3.94h-.04c-.14-.12-1.35-1.37-1.98-1.99-1.33-1.3-2.71-2.71-2.82-2.82-.16-.16-.28-.29-.4-.29-.09 0-.16.12-.16.3l-.08 5.25c-.01.77-.04 1.01-.28 1.07-.12.03-.29.04-.42.04-.08 0-.15.04-.15.09 0 .08.08.09.21.09.47 0 .91-.03.99-.03.17 0 .59.03 1.19.03.12 0 .21-.02.21-.09 0-.05-.05-.09-.16-.09-.15 0-.32-.01-.48-.06-.18-.06-.29-.27-.31-.96z"/><path clip-path="url(#b)" d="m109.88 109.34c0-1.34 0-1.59.02-1.87.02-.31.09-.44.34-.48.1-.02.25-.03.35-.03.11 0 .17-.03.17-.09s-.06-.08-.2-.08c-.35 0-1.1.02-1.32.02-.25 0-.83-.02-1.26-.02-.14 0-.2.02-.2.08s.05.09.16.09.23.01.3.03c.29.08.37.18.4.48.01.28.01.53.01 1.87v1.56c0 .81 0 1.51-.04 1.89-.03.26-.08.43-.27.47-.08.02-.19.03-.32.03-.11 0-.15.05-.15.09 0 .06.06.09.18.09.19 0 .42-.01.64-.02.22 0 .42-.01.52-.01.37 0 .76.01 1.22.02.46.02.99.03 1.65.03.48 0 .52-.04.58-.24.07-.26.14-.92.14-1.02s-.02-.2-.08-.2c-.07 0-.09.05-.1.14-.02.17-.11.42-.23.53-.23.24-.58.25-1.07.25-.71 0-1.06-.05-1.22-.19-.2-.17-.2-.73-.2-1.86v-1.56z"/><path clip-path="url(#b)" d="m115.54 110.9c0 .85 0 1.56-.04 1.93-.03.26-.08.39-.27.43-.08.02-.19.03-.32.03-.11 0-.15.05-.15.09 0 .06.06.09.18.09.36 0 .99-.03 1.2-.03.25 0 .87.03 1.48.03.1 0 .18-.03.18-.09 0-.04-.04-.09-.15-.09-.14 0-.34-.01-.47-.03-.27-.04-.33-.18-.36-.42-.04-.37-.04-1.08-.04-1.94v-1.56c0-1.34 0-1.59.02-1.87.02-.31.09-.44.34-.48.1-.02.18-.03.27-.03s.15-.02.15-.1c0-.05-.07-.07-.19-.07-.35 0-.95.02-1.18.02-.26 0-.89-.02-1.23-.02-.15 0-.22.02-.22.07 0 .08.05.1.15.1.11 0 .23.01.33.04.2.06.29.17.31.47.01.28.01.53.01 1.87z"/><path clip-path="url(#b)" d="m121.4 108.65h.03c.18.16 1.15 1.23 2.15 2.19.96.93 2.1 2.02 2.68 2.55.09.09.22.19.37.19.07 0 .15-.08.15-.28l.1-5.58c.01-.5.08-.66.33-.73.11-.03.19-.03.28-.03.1 0 .16-.04.16-.09 0-.07-.08-.08-.21-.08-.45 0-.79.02-.9.02-.2 0-.69-.02-1.17-.02-.14 0-.23.01-.23.08 0 .05.03.09.15.09s.34 0 .48.05c.22.08.3.24.31.78l.09 3.94h-.04c-.14-.12-1.35-1.37-1.98-1.99-1.33-1.3-2.71-2.71-2.82-2.82-.16-.16-.28-.29-.4-.29-.09 0-.16.12-.16.3l-.08 5.25c-.01.77-.04 1.01-.28 1.07-.12.03-.29.04-.42.04-.08 0-.15.04-.15.09 0 .08.08.09.21.09.47 0 .91-.03.99-.03.17 0 .59.03 1.19.03.12 0 .21-.02.21-.09 0-.05-.05-.09-.16-.09-.15 0-.32-.01-.48-.06-.18-.06-.29-.27-.31-.96z"/><path clip-path="url(#b)" d="m130.83 110.9c0 .81 0 1.51-.04 1.89-.03.26-.08.43-.27.47-.08.02-.19.03-.32.03-.11 0-.15.05-.15.09 0 .06.06.09.18.09.19 0 .42-.01.64-.02.22 0 .42-.01.52-.01.27 0 .61.01 1.06.02.45.02 1 .03 1.69.03.34 0 .43 0 .49-.23.05-.18.12-.78.12-.98 0-.09-.01-.21-.08-.21-.06 0-.08.04-.1.14-.06.36-.17.55-.4.66-.24.1-.62.11-.86.11-.94 0-1.22-.14-1.24-.74-.01-.26 0-1.01 0-1.31v-.71c0-.05.01-.09.05-.09.23 0 1.27.02 1.44.04.34.03.46.17.51.34.02.11.02.23.03.32 0 .04.02.07.08.07.08 0 .09-.12.09-.2 0-.06.02-.42.04-.59.05-.45.07-.59.07-.65 0-.05-.03-.09-.07-.09s-.07.05-.15.11c-.08.09-.22.11-.44.14-.21.02-1.4.02-1.6.02-.05 0-.06-.04-.06-.09v-2.19c0-.05.02-.08.06-.08.19 0 1.28.02 1.44.04.46.04.53.17.6.32.05.1.06.26.06.32 0 .07.01.11.07.11.07 0 .09-.1.1-.15.02-.1.04-.49.05-.58.02-.41.07-.51.07-.57 0-.04-.01-.08-.06-.08-.04 0-.09.03-.15.04-.07.01-.22.04-.39.05-.18.01-2.21 0-2.5 0-.26 0-.84-.02-1.32-.02-.14 0-.21.02-.21.08s.06.09.16.09c.14 0 .29.01.36.03.29.08.37.18.4.48.01.28.01.53.01 1.87v1.59z"/><path clip-path="url(#b)" d="m142.45 111.61c0 2.04.01 3.08-.78 3.88-.21.21-.36.32-.5.4-.18.09-.23.14-.23.19s.04.08.08.08c.05 0 .14-.02.21-.06.22-.1.39-.19.52-.27 1-.61 1.55-1.33 1.77-1.97.21-.58.25-1.25.25-1.84 0-.52-.03-1.02-.03-1.47v-1.93c0-1.58 0-1.87.02-2.21.02-.36.1-.54.39-.59.12-.02.19-.03.3-.03.12 0 .19-.02.19-.09s-.07-.09-.22-.09c-.41 0-1.06.03-1.31.03-.27 0-.93-.03-1.48-.03-.16 0-.23.02-.23.09s.06.09.18.09c.15 0 .32.01.41.03.34.07.43.24.45.59.02.33.02.62.02 2.21v2.99z"/><path clip-path="url(#b)" d="m150.85 113.11c-1.73 0-2.77-1.44-2.77-3.26 0-2.19 1.2-2.73 2.22-2.73 1.48 0 2.66 1.21 2.66 3.17-.01 2.52-1.47 2.82-2.11 2.82zm-.38.48c2.36 0 3.84-1.59 3.84-3.62s-1.44-3.31-3.75-3.31c-2.78 0-3.84 1.96-3.84 3.47 0 1.56 1.09 3.46 3.75 3.46z"/><path clip-path="url(#b)" d="m157.09 110.64c0 1.28.36 1.94.83 2.34.67.58 1.61.6 2.09.6.59 0 1.29-.09 1.94-.64.77-.64.87-1.68.87-2.67v-.95c0-1.34.01-1.59.02-1.87.02-.31.08-.44.33-.48.11-.02.17-.03.27-.03s.16-.03.16-.09-.06-.08-.19-.08c-.35 0-.97.02-1.07.02-.01 0-.62-.02-1.09-.02-.12 0-.19.02-.19.08s.05.09.16.09.26.01.33.03c.29.08.36.18.39.48.01.28.02.53.02 1.87v1.11c0 .91-.02 1.68-.53 2.16-.36.35-.83.47-1.23.47-.31 0-.75-.03-1.16-.35-.45-.35-.7-.85-.7-2.15v-1.24c0-1.34 0-1.59.02-1.87.02-.31.09-.44.33-.48.11-.02.17-.03.27-.03.09 0 .15-.03.15-.09s-.06-.08-.2-.08c-.33 0-.95.02-1.18.02-.27 0-.89-.02-1.37-.02-.14 0-.2.02-.2.08s.05.09.16.09c.12 0 .28.01.35.03.29.08.37.17.4.48.02.28.01.53.01 1.87v1.32z"/><path clip-path="url(#b)" d="m167.71 107.39c0-.07.02-.1.08-.12.09-.02.31-.03.54-.03.54 0 1.4.32 1.4 1.57 0 .73-.31 1.11-.59 1.31-.16.11-.28.15-.65.15-.23 0-.5-.02-.7-.08-.06-.03-.08-.06-.08-.16zm-1.17 3.51c0 .81 0 1.51-.04 1.89-.03.26-.08.43-.27.47-.08.02-.19.03-.32.03-.11 0-.15.05-.15.09 0 .06.06.09.18.09.36 0 .95-.03 1.12-.03.14 0 .9.03 1.43.03.11 0 .19-.03.19-.09 0-.04-.04-.09-.11-.09-.11 0-.31-.01-.45-.03-.28-.04-.32-.21-.35-.47-.04-.37-.05-1.06-.05-1.89v-.12c0-.05.03-.07.07-.07l.82.02c.06 0 .11.01.17.06.11.14.5.73.86 1.21.51.69.85 1.1 1.25 1.3.24.12.49.18 1 .18h.87c.11 0 .18-.02.18-.09 0-.04-.04-.09-.11-.09s-.12 0-.22-.02c-.15-.03-.47-.07-.98-.58-.55-.55-1.2-1.35-2.01-2.35.9-.72 1.27-1.3 1.27-1.96 0-.59-.39-1.04-.65-1.22-.49-.32-1.16-.37-1.74-.37-.28 0-1.11.02-1.43.02-.19 0-.77-.02-1.25-.02-.14 0-.21.02-.21.08s.06.09.16.09c.14 0 .29.01.36.03.29.08.37.18.4.48.01.28.01.53.01 1.87z"/><path clip-path="url(#b)" d="m175.3 108.65h.03c.18.16 1.15 1.23 2.15 2.19.96.93 2.1 2.02 2.68 2.55.09.09.22.19.37.19.07 0 .15-.08.15-.28l.1-5.58c.01-.5.08-.66.33-.73.11-.03.19-.03.28-.03.1 0 .16-.04.16-.09 0-.07-.08-.08-.21-.08-.45 0-.79.02-.9.02-.2 0-.69-.02-1.17-.02-.14 0-.23.01-.23.08 0 .05.03.09.15.09s.34 0 .48.05c.22.08.3.24.31.78l.09 3.94h-.04c-.14-.12-1.35-1.37-1.98-1.99-1.33-1.3-2.71-2.71-2.82-2.82-.16-.16-.28-.29-.4-.29-.09 0-.16.12-.16.3l-.08 5.25c-.01.77-.04 1.01-.28 1.07-.12.03-.29.04-.42.04-.08 0-.15.04-.15.09 0 .08.08.09.21.09.47 0 .91-.03.99-.03.17 0 .59.03 1.19.03.12 0 .21-.02.21-.09 0-.05-.05-.09-.16-.09-.15 0-.32-.01-.48-.06-.18-.06-.29-.27-.31-.96z"/><path clip-path="url(#b)" d="m185.32 110.76c-.03 0-.05-.02-.03-.06l.89-2.24c.01-.03.02-.08.05-.08.02 0 .03.05.04.08l.86 2.25c.01.03 0 .05-.04.05zm1.97.49c.04 0 .07.01.09.06l.71 1.78c.04.1-.02.19-.08.2-.09.01-.11.04-.11.09 0 .06.1.06.27.07.77.02 1.44.02 1.76.02.34 0 .4-.02.4-.09 0-.06-.04-.09-.12-.09-.1 0-.21-.01-.34-.03-.17-.03-.43-.15-.78-.95-.58-1.34-2.11-4.97-2.33-5.46-.09-.2-.14-.28-.27-.28-.09 0-.17.1-.27.35l-2.4 5.57c-.19.45-.34.72-.76.78-.08 0-.19.01-.27.01-.07 0-.1.04-.1.09 0 .07.05.09.17.09.48 0 .97-.03 1.06-.03.29 0 .72.03 1.02.03.09 0 .15-.02.15-.09 0-.05-.02-.09-.14-.09h-.14c-.28 0-.36-.09-.36-.25 0-.1.04-.32.14-.54l.49-1.19c.02-.05.03-.06.08-.06h2.13z"/><path clip-path="url(#b)" d="m193.69 109.34c0-1.34 0-1.59.02-1.87.02-.31.09-.44.34-.48.1-.02.25-.03.35-.03.11 0 .17-.03.17-.09s-.06-.08-.2-.08c-.35 0-1.1.02-1.32.02-.25 0-.83-.02-1.26-.02-.14 0-.2.02-.2.08s.05.09.16.09.23.01.3.03c.29.08.37.18.4.48.01.28.01.53.01 1.87v1.56c0 .81 0 1.51-.04 1.89-.03.26-.08.43-.27.47-.08.02-.19.03-.32.03-.11 0-.15.05-.15.09 0 .06.06.09.18.09.19 0 .42-.01.64-.02.22 0 .42-.01.52-.01.37 0 .76.01 1.22.02.46.02.99.03 1.65.03.48 0 .52-.04.58-.24.07-.26.14-.92.14-1.02s-.02-.2-.08-.2c-.07 0-.09.05-.1.14-.02.17-.11.42-.23.53-.23.24-.58.25-1.07.25-.71 0-1.06-.05-1.22-.19-.2-.17-.2-.73-.2-1.86v-1.56z"/><path clip-path="url(#b)" d="m43.28 130.94c0 .62 0 1.13-.03 1.4-.03.19-.06.33-.19.36-.06.01-.14.03-.19.03-.04 0-.05.02-.05.04 0 .04.03.05.1.05.19 0 .6-.02.62-.02.03 0 .44.02.79.02.07 0 .1-.02.1-.05 0-.02-.01-.04-.05-.04-.06 0-.2-.01-.29-.03-.19-.03-.23-.17-.25-.36-.03-.27-.03-.78-.03-1.4v-2.65c0-.06.01-.11.05-.12.06-.03.17-.04.28-.04.15 0 .54-.03.88.32s.36.78.36.99c0 .59-.49 1.05-1.12 1.05-.14 0-.17.01-.17.06 0 .03.04.05.07.05.03.01.1.01.14.01.92 0 1.59-.62 1.59-1.54 0-.34-.18-.63-.32-.77-.1-.1-.39-.37-1.2-.37-.3 0-.67.02-.81.02-.05 0-.44-.02-.73-.02-.07 0-.1.01-.1.05 0 .03.03.04.05.04.06 0 .17.01.22.02.21.05.26.15.28.37.01.21.01.39.01 1.4v1.13z"/><path clip-path="url(#b)" d="m47.93 130.58c0-1.19.68-1.79 1.63-1.79.9 0 1.7.69 1.7 2.01 0 1.59-1.03 1.86-1.54 1.86-1.02 0-1.79-.8-1.79-2.08zm-.58.15c0 .99.67 2.16 2.22 2.16 1.37 0 2.28-1.01 2.28-2.24 0-1.28-.97-2.06-2.25-2.06-1.57 0-2.25 1.25-2.25 2.14z"/><path clip-path="url(#b)" d="m56.34 128.94c-.07-.19-.12-.26-.16-.26-.03 0-.07.03-.16.25l-1.18 3.07h-.01c-.07-.23-.65-2.24-.74-2.59-.06-.25-.11-.44-.11-.51s.04-.1.08-.12c.06-.03.16-.03.2-.03.03 0 .06-.02.06-.05s-.03-.04-.1-.04c-.28 0-.54.01-.59.01-.06 0-.37-.01-.67-.01-.05 0-.09.01-.09.04s.03.05.05.05c.04 0 .18.01.26.03.15.05.21.12.3.41l1.01 3.26c.12.37.16.43.22.43s.1-.06.2-.29c.21-.51.98-2.52 1.17-3l1.11 3c.08.21.13.28.19.28s.1-.06.25-.47c.23-.61.79-2.36 1.04-3.05.11-.3.2-.52.37-.58.06-.02.17-.03.19-.03.04 0 .05-.03.05-.06 0-.02-.03-.03-.08-.03-.17 0-.42.01-.46.01-.05 0-.29-.01-.58-.01-.07 0-.1.01-.1.04 0 .02.02.05.05.05.26 0 .3.06.3.16 0 .07-.01.14-.06.34-.2.7-.71 2.29-.85 2.74h-.03z"/><path clip-path="url(#b)" d="m60.88 131.22c0 .53 0 .96-.03 1.19-.03.16-.04.27-.15.29-.05.01-.12.03-.17.03-.03 0-.05.03-.05.05 0 .03.03.05.09.05.09 0 .22-.01.33-.01.12-.01.23-.01.25-.01.08 0 .23 0 .47.01.23.01.56.02.99.02.22 0 .28 0 .32-.14.03-.12.08-.49.08-.53s-.01-.08-.04-.08-.05.02-.06.08c-.03.22-.11.32-.26.38s-.42.06-.57.06c-.56 0-.67-.07-.68-.44-.01-.11 0-.75 0-.94v-.46c0-.02.01-.04.04-.04.1 0 .7.01.86.03.22.03.27.09.29.17.03.07.03.13.03.18 0 .03.01.05.04.05.04 0 .05-.06.05-.1s.01-.25.03-.36c.01-.18.05-.27.05-.3s-.01-.05-.03-.05-.05.03-.08.07c-.06.06-.14.06-.28.08-.13.01-.88.01-.95.01-.03 0-.03-.02-.03-.06v-1.49c0-.04.01-.06.03-.06.06 0 .72.01.82.02.31.04.37.08.41.17.03.06.03.16.03.19 0 .05.01.07.05.07.03 0 .05-.03.05-.06.01-.06.03-.31.03-.36.01-.16.05-.22.05-.26 0-.03-.01-.05-.03-.05-.03 0-.05.02-.08.03-.05.01-.15.03-.26.03-.13.01-1.32 0-1.36 0-.03 0-.4-.01-.66-.01-.06 0-.09.01-.09.05 0 .02.03.05.05.05.05 0 .15.01.19.01.19.03.22.12.23.3.01.17.01.33.01 1.18v.96z"/><path clip-path="url(#b)" d="m65.64 128.95c0-.03.02-.05.05-.06.06-.01.24-.03.41-.03.61 0 .98.39.98 1.08 0 .42-.15.71-.34.84-.14.09-.29.1-.43.1-.25 0-.54-.04-.63-.08-.03-.02-.04-.04-.04-.07zm-.49 2.27c0 .53 0 .96-.03 1.19-.03.16-.04.26-.15.29-.05.01-.12.03-.17.03-.03 0-.05.03-.05.05 0 .03.03.05.09.05.17 0 .56-.02.56-.02.03 0 .39.02.7.02.06 0 .09-.02.09-.05 0-.02-.01-.05-.05-.05-.05 0-.17-.01-.25-.03-.17-.03-.21-.13-.23-.29-.03-.23-.03-.65-.03-1.18v-.13c0-.03.01-.05.04-.05l.72.01c.04 0 .05.01.08.03.12.15.37.5.61.8.32.41.53.68.78.81.14.08.28.11.61.11h.36c.1 0 .14-.01.14-.05 0-.02-.02-.05-.05-.05s-.09 0-.2-.02c-.14-.02-.33-.07-.63-.38-.33-.34-.72-.84-1.19-1.42.53-.45.7-.85.7-1.25 0-.38-.25-.65-.39-.75-.3-.21-.7-.24-1.06-.24-.17 0-.65.01-.71.01-.03 0-.41-.01-.67-.01-.06 0-.09.01-.09.05 0 .02.03.05.05.05.05 0 .15.01.19.01.19.03.22.12.23.3.01.17.01.33.01 1.18v.98z"/><path clip-path="url(#b)" d="m70.2 131.22c0 .53 0 .96-.03 1.19-.03.16-.04.27-.15.29-.05.01-.12.03-.17.03-.03 0-.05.03-.05.05 0 .03.03.05.09.05.09 0 .22-.01.33-.01.12-.01.23-.01.25-.01.08 0 .23 0 .47.01.23.01.56.02.99.02.22 0 .28 0 .32-.14.03-.12.08-.49.08-.53s-.01-.08-.04-.08-.05.02-.06.08c-.03.22-.11.32-.26.38s-.42.06-.57.06c-.56 0-.67-.07-.68-.44-.01-.11 0-.75 0-.94v-.46c0-.02.01-.04.04-.04.1 0 .7.01.86.03.22.03.27.09.29.17.03.07.03.13.03.18 0 .03.01.05.04.05.04 0 .05-.06.05-.1s.01-.25.03-.36c.01-.18.05-.27.05-.3s-.01-.05-.03-.05-.05.03-.08.07c-.06.06-.14.06-.28.08-.13.01-.88.01-.95.01-.03 0-.03-.02-.03-.06v-1.49c0-.04.01-.06.03-.06.06 0 .72.01.82.02.31.04.37.08.41.17.03.06.03.16.03.19 0 .05.01.07.05.07.03 0 .05-.03.05-.06.01-.06.03-.31.03-.36.01-.16.05-.22.05-.26 0-.03-.01-.05-.03-.05-.03 0-.05.02-.08.03-.05.01-.15.03-.26.03-.13.01-1.32 0-1.36 0-.03 0-.4-.01-.66-.01-.06 0-.09.01-.09.05 0 .02.03.05.05.05.05 0 .15.01.19.01.19.03.22.12.23.3.01.17.01.33.01 1.18v.96z"/><path clip-path="url(#b)" d="m74.98 129.01c0-.06.02-.09.07-.11s.23-.04.34-.04c.68 0 1.3.07 1.84.61.23.23.54.68.54 1.38 0 .5-.15 1.03-.45 1.3-.34.32-.81.5-1.33.5-.67 0-.87-.12-.94-.22-.05-.06-.06-.26-.06-.39-.01-.1-.01-.61-.01-1.19zm-.51 2.21c0 .53 0 .96-.03 1.19-.03.16-.04.26-.15.29-.05.01-.12.03-.17.03-.03 0-.05.03-.05.05 0 .03.03.05.09.05.09 0 .23-.01.34-.01.12 0 .22-.01.23-.01.03 0 .22.01.47.03.25.01.55.03.79.03.97 0 1.48-.38 1.72-.63.32-.32.61-.85.61-1.54 0-.65-.27-1.11-.56-1.4-.67-.68-1.71-.63-2.28-.63-.34 0-.7.01-.76.01-.03 0-.4-.01-.66-.01-.06 0-.09.01-.09.05 0 .02.03.05.05.05.05 0 .15.01.19.01.19.03.22.12.23.3.01.17.01.33.01 1.18v.96z"/><path clip-path="url(#b)" d="m83.88 130.26c0-.03.01-.05.04-.05.1 0 .42 0 .5.01.16.02.32.04.54.19.5.34.63.9.63 1.29 0 .73-.56.92-.91.92-.12 0-.39-.01-.57-.1-.2-.1-.2-.19-.22-.5-.01-.1-.01-.9-.01-1.4zm0-2.04c0-.04.02-.06.08-.07.1-.03.24-.03.31-.03.63 0 .87.57.87 1.11 0 .26-.1.5-.23.65-.14.15-.23.17-.59.17-.24 0-.36-.02-.39-.03s-.05-.03-.05-.07zm-.52 2.72c0 .62 0 1.13-.03 1.4-.03.19-.06.33-.19.36-.06.01-.14.03-.19.03-.04 0-.05.02-.05.04 0 .04.03.05.1.05.1 0 .25-.01.37-.01.14-.01.25-.01.26-.01.03 0 .21.01.39.02.19.01.39.02.47.02 1.1 0 1.65-.72 1.65-1.41 0-.76-.64-1.21-1.12-1.36.3-.32.61-.63.61-1.16 0-.32-.23-.97-1.29-.97-.3 0-.55.02-.7.02-.03 0-.44-.02-.73-.02-.07 0-.1.01-.1.05 0 .03.03.04.05.04.06 0 .17.01.22.02.21.05.26.15.28.37.01.21.01.39.01 1.4v1.12z"/><path clip-path="url(#b)" d="m89 131.86c0 .09 0 .32-.01.55-.01.16-.05.26-.17.29-.05.01-.12.03-.17.03-.03 0-.05.03-.05.05 0 .03.03.05.09.05.17 0 .53-.02.56-.02s.4.02.72.02c.06 0 .09-.02.09-.05 0-.02-.01-.05-.05-.05-.05 0-.18-.01-.26-.03-.17-.03-.21-.13-.22-.29-.02-.23-.02-.46-.02-.55v-.47c0-.18-.03-.36.07-.55.12-.23.92-1.52 1.1-1.74.12-.15.17-.21.28-.27.09-.05.2-.07.26-.07.05 0 .07-.03.07-.06 0-.02-.03-.03-.07-.03-.11 0-.52.01-.56.01-.05 0-.25-.01-.39-.01-.06 0-.09.01-.09.03 0 .03.03.05.08.06.06.02.09.06.09.14 0 .07-.03.16-.1.28-.1.18-.81 1.36-.93 1.59l-1.03-1.71c-.04-.07-.08-.14-.08-.21 0-.05.03-.07.07-.09.05-.02.09-.04.09-.06 0-.03-.01-.04-.08-.04-.22 0-.45.01-.49.01-.03 0-.45-.01-.56-.01-.05 0-.07.01-.07.04s.03.05.06.05c.05 0 .16.03.24.08.1.07.24.19.37.4.19.29.96 1.51 1.01 1.6.08.16.12.26.12.56v.47z"/><path clip-path="url(#b)" d="m96.46 131.7c0 .1 0 .37-.02.65-.01.19-.07.33-.2.36-.06.01-.14.03-.19.03-.04 0-.05.02-.05.04 0 .04.03.05.1.05.19 0 .6-.02.63-.02s.44.02.79.02c.07 0 .1-.02.1-.05 0-.02-.01-.04-.05-.04-.06 0-.2-.01-.29-.03-.19-.03-.25-.17-.26-.36-.02-.28-.02-.55-.02-.65v-.56c0-.21 0-.41.1-.65.12-.28 1.02-1.8 1.23-2.05.14-.17.21-.25.34-.33.1-.06.23-.09.3-.09.05 0 .08-.02.08-.05s-.04-.04-.08-.04c-.12 0-.59.02-.63.02-.05 0-.26-.02-.43-.02-.06 0-.1.01-.1.04s.04.05.1.06c.08.02.1.09.1.18 0 .08-.03.19-.11.33-.13.21-.95 1.63-1.07 1.9-.12-.19-1.09-1.85-1.19-2.04-.05-.1-.08-.17-.08-.25 0-.05.03-.09.08-.12.06-.03.1-.03.1-.06s-.01-.05-.08-.05c-.25 0-.5.02-.54.02-.03 0-.52-.02-.64-.02-.06 0-.08.02-.08.05s.03.05.06.05c.06 0 .18.04.28.1.12.08.28.24.44.48.23.34 1.09 1.76 1.14 1.86.08.19.15.33.15.68v.56z"/><path clip-path="url(#b)" d="m100.88 131.06c-.02 0-.03-.01-.02-.04l.53-1.5c.03-.08.06-.08.1 0l.56 1.5c.01.03.01.04-.02.04zm-.82 1.15c-.11.28-.22.47-.48.5-.05.01-.13.01-.17.01-.03 0-.05.02-.05.05s.04.05.11.05c.23 0 .52-.02.57-.02.06 0 .37.02.51.02.05 0 .08-.01.08-.05 0-.03-.01-.05-.06-.05h-.05c-.1 0-.19-.04-.19-.15 0-.1.03-.23.08-.37l.32-.88c.01-.03.03-.05.06-.05h1.31c.03 0 .04.01.05.03l.51 1.26c.04.09-.02.14-.05.15s-.04.01-.04.04.09.03.2.04c.39.01.81.01.9.01.06 0 .13-.01.13-.05s-.04-.05-.07-.05c-.06 0-.14-.01-.23-.03-.12-.04-.28-.11-.48-.6-.35-.83-1.26-3.1-1.36-3.33-.06-.12-.08-.2-.14-.2-.04 0-.06.03-.14.21z"/><path clip-path="url(#b)" d="m109.14 128.73c-.01-.1-.05-.15-.08-.15-.04 0-.06.04-.09.09l-1.65 3.4-1.72-3.41c-.03-.06-.08-.08-.12-.08-.03 0-.06.04-.06.1l-.41 3.58c-.03.21-.03.41-.22.44-.08.01-.12.02-.17.02-.03 0-.06.02-.06.04 0 .04.04.05.1.05.16 0 .43-.02.48-.02s.32.02.53.02c.06 0 .1-.01.1-.05 0-.02-.03-.04-.05-.04-.04 0-.12-.01-.22-.03-.08-.02-.14-.07-.14-.16s0-.19.01-.28l.22-2.48h.03c.1.23.56 1.15.72 1.5.14.3.52 1 .67 1.27.11.2.14.25.19.25s.08-.05.2-.29l1.37-2.8h.01l.27 2.78c.01.1.01.19-.03.19-.03.01-.04.03-.04.05 0 .03.03.05.16.06.21.02.84.03.97.03.06 0 .12-.02.12-.05s-.02-.04-.05-.04c-.06 0-.21 0-.37-.05-.23-.08-.27-.37-.29-.57z"/><path clip-path="url(#b)" d="m112.29 131.06c-.02 0-.03-.01-.02-.04l.53-1.5c.03-.08.06-.08.1 0l.56 1.5c.01.03.01.04-.02.04zm-.82 1.15c-.11.28-.22.47-.48.5-.05.01-.13.01-.17.01-.03 0-.05.02-.05.05s.04.05.11.05c.23 0 .52-.02.57-.02.06 0 .37.02.51.02.05 0 .08-.01.08-.05 0-.03-.01-.05-.06-.05h-.05c-.1 0-.19-.04-.19-.15 0-.1.03-.23.08-.37l.32-.88c.01-.03.03-.05.06-.05h1.31c.03 0 .04.01.05.03l.51 1.26c.04.09-.02.14-.05.15s-.04.01-.04.04.09.03.2.04c.39.01.81.01.9.01.06 0 .13-.01.13-.05s-.04-.05-.07-.05c-.06 0-.14-.01-.23-.03-.12-.04-.28-.11-.48-.6-.35-.83-1.26-3.1-1.36-3.33-.06-.12-.08-.2-.14-.2-.04 0-.06.03-.14.21z"/><path clip-path="url(#b)" d="m116.86 129.48c.17.19.81.87 1.47 1.56.6.63 1.42 1.43 1.48 1.49.32.29.37.34.43.34.04 0 .05-.03.05-.39l.01-3.22c0-.33.01-.44.2-.48.06-.01.11-.01.14-.01.04 0 .06-.03.06-.05 0-.03-.05-.04-.1-.04-.23 0-.42.01-.48.01s-.34-.01-.59-.01c-.06 0-.11.01-.11.04 0 .02.01.05.05.05.05 0 .17.01.28.03.17.03.21.16.21.51l.06 2.75c-.17-.18-.78-.83-1.34-1.41-.88-.9-1.71-1.78-1.8-1.87-.06-.06-.16-.17-.22-.17-.05 0-.08.06-.08.28v3.15c0 .5-.02.65-.16.68-.08.03-.19.03-.23.03-.03 0-.05.02-.05.05 0 .04.03.05.09.05.26 0 .5-.02.55-.02s.28.02.6.02c.06 0 .1-.01.1-.05 0-.03-.02-.05-.05-.05-.05 0-.18-.01-.28-.03-.16-.04-.21-.17-.22-.63z"/><path clip-path="url(#b)" d="m123.12 131.06c-.02 0-.03-.01-.02-.04l.53-1.5c.03-.08.06-.08.1 0l.56 1.5c.01.03.01.04-.02.04zm-.82 1.15c-.11.28-.22.47-.48.5-.05.01-.13.01-.17.01-.03 0-.05.02-.05.05s.04.05.11.05c.23 0 .52-.02.57-.02.06 0 .37.02.51.02.05 0 .08-.01.08-.05 0-.03-.01-.05-.06-.05h-.05c-.1 0-.19-.04-.19-.15 0-.1.03-.23.08-.37l.32-.88c.01-.03.03-.05.06-.05h1.31c.03 0 .04.01.05.03l.51 1.26c.04.09-.02.14-.05.15s-.04.01-.04.04.09.03.2.04c.39.01.81.01.9.01.06 0 .13-.01.13-.05s-.04-.05-.07-.05c-.06 0-.14-.01-.23-.03-.12-.04-.28-.11-.48-.6-.35-.83-1.26-3.1-1.36-3.33-.06-.12-.08-.2-.14-.2-.04 0-.06.03-.14.21z"/><path clip-path="url(#b)" d="m131.38 128.73c-.01-.1-.05-.15-.08-.15-.04 0-.06.04-.09.09l-1.65 3.4-1.72-3.41c-.03-.06-.08-.08-.12-.08-.03 0-.06.04-.06.1l-.41 3.58c-.03.21-.03.41-.22.44-.08.01-.12.02-.17.02-.03 0-.06.02-.06.04 0 .04.04.05.1.05.16 0 .43-.02.48-.02s.32.02.53.02c.06 0 .1-.01.1-.05 0-.02-.03-.04-.05-.04-.04 0-.12-.01-.22-.03-.08-.02-.14-.07-.14-.16s0-.19.01-.28l.22-2.48h.03c.1.23.56 1.15.72 1.5.14.3.52 1 .67 1.27.11.2.14.25.19.25s.08-.05.2-.29l1.37-2.8h.01l.27 2.78c.01.1.01.19-.03.19-.03.01-.04.03-.04.05 0 .03.03.05.16.06.21.02.84.03.97.03.06 0 .12-.02.12-.05s-.02-.04-.05-.04c-.06 0-.21 0-.37-.05-.23-.08-.27-.37-.29-.57z"/><path clip-path="url(#b)" d="m134.71 130.25c0-.85 0-1.01.01-1.18.01-.19.05-.27.2-.3.06-.01.1-.01.14-.01.02 0 .05-.03.05-.05 0-.03-.03-.05-.09-.05-.17 0-.54.01-.57.01s-.39-.01-.57-.01c-.06 0-.09.01-.09.05 0 .02.02.05.05.05.04 0 .11.01.17.02.12.03.17.11.18.3.01.17.01.33.01 1.18v.97c0 .53-.01.96-.03 1.19-.02.16-.04.26-.15.29-.05.01-.12.03-.17.03-.03 0-.05.03-.05.05 0 .03.03.05.09.05.17 0 .53-.02.56-.02s.39.02.71.02c.06 0 .09-.02.09-.05 0-.02-.01-.05-.05-.05-.05 0-.17-.01-.26-.03-.17-.03-.19-.13-.21-.29-.03-.23-.03-.66-.03-1.19v-.98z"/><path clip-path="url(#b)" d="m140.89 130.26c0-.03.01-.05.04-.05.1 0 .42 0 .5.01.15.02.32.04.54.19.5.34.63.9.63 1.29 0 .73-.56.92-.91.92-.12 0-.39-.01-.57-.1-.2-.1-.2-.19-.22-.5-.01-.1-.01-.9-.01-1.4zm0-2.04c0-.04.02-.06.08-.07.1-.03.24-.03.31-.03.63 0 .87.57.87 1.11 0 .26-.1.5-.23.65-.14.15-.23.17-.59.17-.24 0-.36-.02-.39-.03s-.05-.03-.05-.07zm-.52 2.72c0 .62 0 1.13-.03 1.4-.03.19-.06.33-.19.36-.06.01-.14.03-.19.03-.04 0-.05.02-.05.04 0 .04.03.05.1.05.1 0 .25-.01.37-.01.14-.01.25-.01.26-.01.03 0 .21.01.39.02.19.01.39.02.47.02 1.1 0 1.65-.72 1.65-1.41 0-.76-.64-1.21-1.12-1.36.3-.32.61-.63.61-1.16 0-.32-.23-.97-1.29-.97-.3 0-.55.02-.7.02-.03 0-.44-.02-.73-.02-.07 0-.1.01-.1.05 0 .03.03.04.05.04.06 0 .17.01.22.02.21.05.26.15.28.37.01.21.01.39.01 1.4v1.12z"/><path clip-path="url(#b)" d="m145.31 130.58c0-1.19.68-1.79 1.63-1.79.9 0 1.7.69 1.7 2.01 0 1.59-1.03 1.86-1.54 1.86-1.02 0-1.79-.8-1.79-2.08zm-.59.15c0 .99.67 2.16 2.22 2.16 1.37 0 2.28-1.01 2.28-2.24 0-1.28-.97-2.06-2.25-2.06-1.56 0-2.25 1.25-2.25 2.14z"/><path clip-path="url(#b)" d="m151.24 130.58c0-1.19.68-1.79 1.63-1.79.9 0 1.7.69 1.7 2.01 0 1.59-1.03 1.86-1.54 1.86-1.02 0-1.79-.8-1.79-2.08zm-.59.15c0 .99.67 2.16 2.22 2.16 1.37 0 2.28-1.01 2.28-2.24 0-1.28-.97-2.06-2.25-2.06-1.57 0-2.25 1.25-2.25 2.14z"/><path clip-path="url(#b)" d="m157.22 131.22c0 .53 0 .96-.03 1.19-.03.16-.04.26-.15.29-.05.01-.12.03-.17.03-.03 0-.05.03-.05.05 0 .03.03.05.09.05.17 0 .52-.02.56-.02.05 0 .39.02.67.02.06 0 .09-.02.09-.05 0-.02-.01-.05-.05-.05-.05 0-.14-.01-.22-.03-.17-.03-.2-.13-.22-.29-.03-.23-.03-.66-.03-1.19v-.54h.03c.27.32 1.47 1.58 1.72 1.78.25.19.39.31.69.34.13.01.23.01.39.01h.29c.1 0 .12-.02.12-.05s-.03-.05-.07-.05-.2-.02-.35-.08c-.27-.11-.34-.18-.81-.61-.23-.21-1.41-1.4-1.56-1.56.12-.14 1.09-1.07 1.23-1.19.25-.24.36-.36.59-.47.11-.05.23-.08.32-.08.05 0 .06-.02.06-.05s-.03-.04-.08-.04c-.14 0-.52.01-.55.01-.14 0-.31-.01-.43-.01-.04 0-.06.01-.06.04 0 .02.02.05.05.05.05.01.07.04.07.11 0 .09-.15.23-.31.39-.21.22-1.23 1.22-1.32 1.32h-.03v-.33c0-.85 0-1.01.01-1.18.01-.19.05-.27.2-.3.07-.01.1-.01.14-.01.03 0 .05-.03.05-.05 0-.03-.03-.05-.09-.05-.17 0-.51.01-.56.01-.03 0-.38-.01-.64-.01-.06 0-.09.01-.09.05 0 .02.03.05.05.05.05 0 .15.01.19.01.19.03.22.12.23.3.01.17.01.33.01 1.18v1.01z"/><path clip-path="url(#b)" d="m162.58 132.89c.31 0 .67-.04.9-.19.41-.26.53-.61.53-.94 0-.47-.24-.85-.93-1.32l-.16-.11c-.56-.38-.74-.58-.74-.93 0-.39.34-.59.76-.59.51 0 .7.21.74.27.03.06.08.21.08.27.01.05.01.07.05.07s.05-.04.05-.12c0-.37.03-.56.03-.58 0-.03-.01-.04-.06-.04s-.09 0-.2-.03c-.14-.03-.36-.06-.59-.06-.75 0-1.26.39-1.26 1.03 0 .38.2.72.81 1.18l.26.19c.5.37.72.56.72.96 0 .41-.29.73-.85.73-.38 0-.81-.14-.9-.54-.02-.08-.02-.16-.02-.2 0-.05-.02-.06-.05-.06s-.05.03-.05.09c-.01.09-.03.31-.03.58 0 .15.01.17.08.21.24.09.57.13.83.13z"/><circle clip-path="url(#b)" cx="171.37" cy="130.34" r=".83"/><path clip-path="url(#b)" d="m179.81 129.81c0-1.01 0-1.19.01-1.4.01-.23.06-.34.24-.37.08-.01.12-.02.16-.02.03 0 .05-.01.05-.04 0-.04-.03-.05-.1-.05-.19 0-.6.02-.63.02s-.44-.02-.65-.02c-.07 0-.1.01-.1.05 0 .03.03.04.05.04.05 0 .13.01.2.03.14.03.21.14.22.36.01.21.01.39.01 1.4v1.14c0 .62 0 1.13-.03 1.4-.03.19-.06.33-.19.36-.06.01-.14.03-.19.03-.04 0-.05.02-.05.04 0 .04.03.05.1.05.19 0 .6-.02.63-.02s.44.02.79.02c.07 0 .1-.02.1-.05 0-.02-.01-.04-.05-.04-.06 0-.2-.01-.29-.03-.19-.03-.23-.17-.25-.36-.03-.27-.03-.78-.03-1.4z"/><path clip-path="url(#b)" d="m183.27 132.91c.35 0 .7-.08.98-.27.45-.32.55-.81.55-1.07 0-.52-.18-.92-.94-1.52l-.18-.14c-.62-.48-.79-.72-.79-1.09 0-.47.35-.75.79-.75.59 0 .77.27.81.34s.08.25.08.32c.01.05.01.08.05.08.03 0 .05-.05.05-.15 0-.44.03-.65.03-.68s-.01-.05-.06-.05-.1-.01-.23-.03c-.16-.04-.35-.06-.6-.06-.82 0-1.34.47-1.34 1.16 0 .44.15.84.84 1.4l.29.24c.56.46.74.72.74 1.16 0 .41-.3.86-.92.86-.43 0-.86-.18-.96-.66-.02-.09-.02-.18-.02-.24 0-.05-.01-.07-.05-.07-.03 0-.05.03-.05.1-.01.1-.03.36-.03.68 0 .17.01.2.1.25.26.14.55.19.86.19z"/><path clip-path="url(#b)" d="m187.66 132.91c.35 0 .7-.08.98-.27.45-.32.55-.81.55-1.07 0-.52-.18-.92-.94-1.52l-.18-.14c-.62-.48-.79-.72-.79-1.09 0-.47.35-.75.79-.75.59 0 .77.27.81.34s.08.25.08.32c.01.05.01.08.05.08.03 0 .05-.05.05-.15 0-.44.03-.65.03-.68s-.01-.05-.06-.05-.1-.01-.23-.03c-.16-.04-.35-.06-.6-.06-.82 0-1.34.47-1.34 1.16 0 .44.16.84.84 1.4l.29.24c.56.46.74.72.74 1.16 0 .41-.3.86-.92.86-.43 0-.86-.18-.96-.66-.02-.09-.02-.18-.02-.24 0-.05-.01-.07-.05-.07-.03 0-.05.03-.05.1-.01.1-.03.36-.03.68 0 .17.01.2.1.25.26.14.55.19.86.19z"/><path clip-path="url(#b)" d="m191.69 128.84c.21.23.94 1.05 1.69 1.85.68.74 1.61 1.69 1.69 1.75.34.34.42.41.47.41s.06-.03.06-.46l.01-3.78c0-.39.03-.53.24-.57.08-.02.12-.02.16-.02.05 0 .07-.02.07-.05 0-.04-.05-.05-.12-.05-.26 0-.48.02-.55.02s-.38-.02-.67-.02c-.08 0-.13.01-.13.05 0 .03.01.05.05.05.05 0 .2.01.32.03.2.05.25.19.25.61l.07 3.28c-.21-.21-.91-1-1.55-1.69-.99-1.07-1.96-2.11-2.05-2.22-.06-.06-.17-.21-.23-.21-.05 0-.07.07-.07.32l-.01 3.7c0 .59-.03.78-.19.82-.1.03-.21.04-.26.04-.03 0-.05.01-.05.04 0 .05.04.05.1.05.29 0 .56-.02.62-.02s.32.02.68.02c.08 0 .12-.01.12-.05 0-.03-.02-.04-.05-.04-.06 0-.2-.01-.32-.04-.17-.05-.24-.22-.25-.75z"/><path clip-path="url(#b)" d="m198.07 130.42c.22 0 .36-.17.36-.37 0-.21-.15-.34-.36-.34-.25 0-.36.21-.36.36.01.16.12.35.36.35zm0 2.18c.22 0 .36-.17.36-.37 0-.21-.15-.34-.36-.34-.25 0-.36.21-.36.36.01.16.12.35.36.35z"/><path clip-path="url(#b)" d="m205.17 132.8c.27 0 .37-.02.42-.19.06-.22.19-.72.19-.85 0-.04-.01-.1-.04-.1-.04 0-.06.03-.08.1-.08.34-.28.57-.76.62-.23.03-.99.03-1.1.03h-.47c-.03 0-.05-.02-.01-.05.8-.68 2.25-1.88 2.25-3.22 0-.68-.48-1.3-1.46-1.3-.52 0-.9.12-1.14.23-.06.04-.06.06-.06.1 0 .2.03.74.04.79s.03.08.05.08c.03 0 .06-.04.06-.1 0-.25.07-.48.23-.63.19-.17.38-.25.69-.25.43 0 1.03.27 1.03 1.19 0 1.24-.96 2.13-2.25 3.28-.05.05-.12.1-.12.15s.05.09.09.09h2.44z"/><path clip-path="url(#b)" d="m209 130.99h-1.65c.12-.16 1.54-2.12 1.64-2.29h.01zm.49-2.07c0-.36.01-.87.01-.97 0-.06-.02-.11-.06-.11s-.08.05-.14.12c-.21.28-2.31 3.13-2.34 3.17-.03.03-.06.08-.06.14s.06.08.14.08h1.96c0 .21.01.71-.01.99-.02.19-.06.33-.28.36-.1.01-.25.02-.3.02-.03 0-.05.03-.05.05 0 .03.03.05.1.05.36 0 .7-.02.75-.02s.46.02.81.02c.07 0 .1-.01.1-.05 0-.03-.03-.05-.06-.05-.06 0-.19-.01-.28-.03-.21-.05-.26-.16-.28-.36-.03-.28-.01-.78-.01-.99h.59c.08 0 .1-.02.14-.08.03-.08.06-.23.06-.26s0-.08-.03-.08-.09.07-.26.07h-.49v-2.07z"/><path clip-path="url(#b)" d="m213.91 131.49c0 .77-.52 1.14-1.17 1.14-.68 0-.92-.37-.97-.87-.01-.07-.01-.09-.05-.09-.03 0-.05.03-.05.1-.02.14-.05.5-.05.81 0 .08.01.12.1.18.14.08.52.16.79.16 1.15 0 1.93-.76 1.93-1.66 0-.75-.66-1.14-1.07-1.24v-.03c.2-.09.87-.52.87-1.16 0-.32-.23-.97-1.28-.97-.48 0-.85.12-1.05.22-.08.05-.08.08-.08.14 0 .15.02.44.05.65.01.06.03.07.05.07s.05-.01.05-.08c0-.5.34-.76.81-.76.76 0 .93.6.93.87 0 .76-.71 1.07-1.03 1.12-.08.01-.15.03-.15.08s.05.06.17.08c.43.07 1.2.37 1.2 1.24z"/><path clip-path="url(#b)" d="m216.83 128.36h1.22c.51 0 .57.17.57.41 0 .05.01.08.04.08s.05-.04.05-.07c.06-.47.08-.76.08-.81s-.02-.06-.05-.06c-.02 0-.06.01-.14.02s-.19.03-.37.03h-1.52c-.07 0-.12.02-.12.08l-.15 1.65c-.01.07.04.11.17.12.5.03 1.64.53 1.64 1.57 0 .89-.59 1.25-1.14 1.25-.47 0-.88-.14-.88-.83 0-.08-.01-.11-.05-.11-.03 0-.05.05-.06.12-.03.21-.03.59-.03.81 0 .06.01.12.12.18.16.09.4.12.59.12 1.3 0 1.94-.95 1.94-1.78 0-1.15-1.19-1.65-2.02-1.77z"/><path clip-path="url(#b)" d="m220.47 130.79c-.1 0-.13.01-.14.05l-.1.36c-.01.06-.01.1.03.1.03 0 .14-.06.26-.1.22-.06 1.36-.21 1.54-.24.1-.02.23-.03.23-.11 0-.05-.08-.06-.19-.06z"/><path clip-path="url(#b)" d="m224.45 128.36h1.22c.51 0 .57.17.57.41 0 .05.01.08.04.08s.05-.04.05-.07c.06-.47.08-.76.08-.81s-.02-.06-.05-.06c-.02 0-.06.01-.14.02s-.19.03-.37.03h-1.52c-.07 0-.12.02-.12.08l-.15 1.65c-.01.07.04.11.17.12.5.03 1.64.53 1.64 1.57 0 .89-.59 1.25-1.14 1.25-.47 0-.88-.14-.88-.83 0-.08-.01-.11-.05-.11-.03 0-.05.05-.06.12-.03.21-.03.59-.03.81 0 .06.01.12.12.18.16.09.4.12.59.12 1.3 0 1.94-.95 1.94-1.78 0-1.15-1.19-1.65-2.02-1.77z"/><path clip-path="url(#b)" d="m228.93 127.95c-.42 0-.57-.06-.61-.06s-.06.03-.06.09-.1.82-.1 1.03c0 .07.01.1.04.1s.05-.03.06-.09c.02-.18.11-.39.25-.5.16-.13.41-.16.6-.16h1.59c-.98 1.69-1.67 3.42-1.92 4.26-.02.06-.04.15-.04.22 0 .05.02.06.06.06.13 0 .63-.26.63-.39 0-.07-.01-.12 0-.23.1-.84 1.16-3.37 1.69-4.15.03-.05.04-.1.04-.12 0-.04-.03-.06-.12-.06z"/><path clip-path="url(#b)" d="m234.22 129.66c.01-.99.03-1.63.03-1.68 0-.06-.02-.14-.07-.14s-.1.04-.15.08l-1.25.83c-.03.02-.05.05-.05.06 0 .03.03.06.05.06.03 0 .05-.01.08-.03.16-.08.61-.31.74-.31.1 0 .12.07.12.2v.98 1.13c0 .65 0 1.2-.02 1.49-.01.2-.06.3-.27.34-.12.03-.44.05-.52.05-.03 0-.05.03-.05.05 0 .03.04.05.11.05.41 0 .96-.02.99-.02s.45.02.93.02c.08 0 .11-.01.11-.05 0-.03-.03-.05-.06-.05-.06 0-.33-.02-.43-.04-.21-.05-.23-.14-.26-.34-.03-.28-.04-.84-.03-1.49z"/><path clip-path="url(#b)" d="m239.18 132.8c.27 0 .37-.02.42-.19.06-.22.19-.72.19-.85 0-.04-.01-.1-.04-.1-.04 0-.06.03-.08.1-.08.34-.28.57-.76.62-.23.03-.99.03-1.1.03h-.47c-.03 0-.05-.02-.01-.05.8-.68 2.25-1.88 2.25-3.22 0-.68-.48-1.3-1.46-1.3-.52 0-.9.12-1.14.23-.06.04-.06.06-.06.1 0 .2.03.74.04.79.01.06.03.08.05.08.03 0 .06-.04.06-.1 0-.25.07-.48.23-.63.19-.17.38-.25.69-.25.43 0 1.03.27 1.03 1.19 0 1.24-.96 2.13-2.25 3.28-.05.05-.12.1-.12.15s.05.09.09.09h2.44z"/></g></svg>