<svg enable-background="new 0 0 530 595" viewBox="0 0 530 595" xmlns="http://www.w3.org/2000/svg" xmlns:xlink="http://www.w3.org/1999/xlink"><clipPath id="a"><path d="m.5 3.27h524v590h-524z"/></clipPath><path clip-path="url(#a)" d="m19.56 26.35v-9.26h-18.53v2.08h16.56v7.18z"/><path clip-path="url(#a)" d="m32.3 3.62c-5.21 3.38-8.87 9.19-8.87 16.52 0 6.68 3.81 13.43 8.76 16.48l.43-.58c-4.74-3.73-6.1-8.08-6.1-16.02 0-7.97 1.47-12.1 6.1-15.84z"/><path clip-path="url(#a)" d="m44.3 3.62c-5.21 3.38-8.87 9.19-8.87 16.52 0 6.68 3.81 13.43 8.76 16.48l.43-.58c-4.74-3.73-6.1-8.08-6.1-16.02 0-7.97 1.47-12.1 6.1-15.84z"/><path clip-path="url(#a)" d="m65.1 19.32c0 2.55-2.01 7.47-8.94 7.47l.68-3.02c1.69-7.54 4.49-7.97 5.53-7.97 2.05 0 2.73 1.25 2.73 3.52m1.04-.9c0-2.19-.54-4.89-4.06-4.89-3.63 0-4.88 2.77-7.79 13.25-1.69 0-4.53-.47-4.53-4.02 0-5.85 3.16-8.22 3.16-8.66 0-.07-.07-.11-.25-.11-.36 0-5.28 3.66-5.28 10.02 0 3.84 3.84 5.71 6.1 5.71-1.26 4.78-2.51 6.64-2.84 7.08h2.87l1.8-7.04c6.55.01 10.82-5.49 10.82-11.34z"/><path clip-path="url(#a)" d="m111.95 20.11-7.03-7.33-1.12 1.18 4.27 5.18h-28.44v2.01h28.44l-4.27 5.17 1.12 1.19z"/><path clip-path="url(#a)" d="m146.16 13.96c-5.6.07-6.57 5.75-7.69 9.77-.97 3.56-3.66 4.56-5.68 4.56l6.61-21.33-2.98.47-5.17 20.9c-1.65 0-3.34-.57-3.34-3.27 0-2.15 1.58-4.67 1.58-7.83 0-2.19-1.19-3.27-3.7-3.27l-.11.43c.29 0 1.15.18 1.15 2.19 0 1.65-1.72 5.89-1.72 7.79 0 4.38 4.38 5.39 5.75 5.39l-1.69 7.04h.86l2.33-7.08c3.27 0 7.83-1.44 9.3-6.79l1.29-4.67c.4-1.47 1.83-3.77 3.09-3.84z"/><path clip-path="url(#a)" d="m149.37 3.62-.32.57c4.63 3.74 6.1 7.87 6.1 15.84 0 7.94-1.36 12.28-6.1 16.02l.43.58c4.96-3.05 8.76-9.8 8.76-16.48 0-7.33-3.66-13.15-8.87-16.53"/><path clip-path="url(#a)" d="m189.16 29.37-9.19-19.97h-.61l-9.23 19.97h2.05l7.5-16.38 7.44 16.38z"/><path clip-path="url(#a)" d="m209.9 3.62c-5.21 3.38-8.87 9.19-8.87 16.52 0 6.68 3.81 13.43 8.77 16.48l.43-.58c-4.74-3.73-6.1-8.08-6.1-16.02 0-7.97 1.47-12.1 6.1-15.84z"/><path clip-path="url(#a)" d="m233.36 13.96c-5.6.07-6.57 5.75-7.69 9.77-.97 3.56-3.66 4.56-5.68 4.56l6.61-21.33-2.98.47-5.17 20.9c-1.65 0-3.34-.57-3.34-3.27 0-2.15 1.58-4.67 1.58-7.83 0-2.19-1.19-3.27-3.7-3.27l-.11.43c.29 0 1.15.18 1.15 2.19 0 1.65-1.72 5.89-1.72 7.79 0 4.38 4.38 5.39 5.75 5.39l-1.69 7.04h.86l2.33-7.08c3.27 0 7.83-1.44 9.3-6.79l1.29-4.67c.4-1.47 1.83-3.77 3.09-3.84z"/><path clip-path="url(#a)" d="m279.75 20.11-7.04-7.33-1.11 1.18 4.27 5.18h-28.44v2.01h28.44l-4.27 5.17 1.11 1.19z"/><path clip-path="url(#a)" d="m315.93 14.04-1.58.22c-.32.39-4.38 4.96-9.3 9.27l-1-6.39c-.54-3.38-1.19-3.59-2.01-3.59-.32 0-2.33.79-4.13 1.33l.14.43c.86-.29 1.19-.32 1.55-.32 1.18 0 1.44.76 1.58 1.69l1.33 8.91c-7.43 6.68-10.16 10.41-10.7 11.24l1.69-.47c.32-.43 4.06-4.74 9.34-9.12l.9 6.07c.4 2.69 1.65 3.52 2.62 3.52 2.08 0 4.52-2.95 4.52-3.74 0-.11-.07-.18-.18-.18-.43 0-1.44 2.23-2.84 2.23-.47 0-1.11-.25-1.4-2.23l-1.08-7.69c7.17-6.44 10.05-10.43 10.55-11.18"/><path clip-path="url(#a)" d="m318.47 3.62-.32.57c4.63 3.74 6.11 7.87 6.11 15.84 0 7.94-1.36 12.28-6.11 16.02l.43.58c4.96-3.05 8.76-9.8 8.76-16.48 0-7.33-3.66-13.15-8.87-16.53"/><path clip-path="url(#a)" d="m373.55 20.11-7.03-7.33-1.12 1.18 4.27 5.18h-28.44v2.01h28.44l-4.27 5.17 1.12 1.19z"/><path clip-path="url(#a)" d="m396.3 3.62c-5.21 3.38-8.87 9.19-8.87 16.52 0 6.68 3.81 13.43 8.76 16.48l.43-.58c-4.74-3.73-6.1-8.08-6.1-16.02 0-7.97 1.47-12.1 6.1-15.84z"/><path clip-path="url(#a)" d="m417.1 19.32c0 2.55-2.01 7.47-8.94 7.47l.68-3.02c1.69-7.54 4.49-7.97 5.53-7.97 2.05 0 2.73 1.25 2.73 3.52m1.04-.9c0-2.19-.54-4.89-4.06-4.89-3.63 0-4.89 2.77-7.79 13.25-1.69 0-4.52-.47-4.52-4.02 0-5.85 3.16-8.22 3.16-8.66 0-.07-.07-.11-.25-.11-.36 0-5.28 3.66-5.28 10.02 0 3.84 3.84 5.71 6.1 5.71-1.26 4.78-2.51 6.64-2.84 7.08h2.87l1.8-7.04c6.54.01 10.81-5.49 10.81-11.34z"/><path clip-path="url(#a)" d="m463.95 20.11-7.03-7.33-1.12 1.18 4.27 5.18h-28.44v2.01h28.44l-4.27 5.17 1.12 1.19z"/><path clip-path="url(#a)" d="m500.23 14.04-1.58.22c-.32.39-4.38 4.96-9.3 9.27l-1-6.39c-.54-3.38-1.19-3.59-2.01-3.59-.32 0-2.33.79-4.13 1.33l.14.43c.86-.29 1.19-.32 1.55-.32 1.18 0 1.44.76 1.58 1.69l1.33 8.91c-7.43 6.68-10.16 10.41-10.7 11.24l1.69-.47c.32-.43 4.06-4.74 9.34-9.12l.9 6.07c.39 2.69 1.65 3.52 2.62 3.52 2.08 0 4.52-2.95 4.52-3.74 0-.11-.07-.18-.18-.18-.43 0-1.44 2.23-2.84 2.23-.47 0-1.11-.25-1.4-2.23l-1.08-7.69c7.17-6.44 10.05-10.43 10.55-11.18"/><path clip-path="url(#a)" d="m502.67 3.62-.32.57c4.63 3.74 6.1 7.87 6.1 15.84 0 7.94-1.36 12.28-6.1 16.02l.43.58c4.96-3.05 8.76-9.8 8.76-16.48 0-7.33-3.66-13.15-8.87-16.53"/><path clip-path="url(#a)" d="m514.67 3.62-.32.57c4.63 3.74 6.1 7.87 6.1 15.84 0 7.94-1.36 12.28-6.1 16.02l.43.58c4.96-3.05 8.76-9.8 8.76-16.48 0-7.33-3.66-13.15-8.87-16.53"/><path clip-path="url(#a)" d="m262 78.1v-32.28" fill="none" stroke="#000" stroke-miterlimit="10" stroke-width="1.4345"/><path clip-path="url(#a)" d="m124.9 82.52c-5.21 3.38-8.87 9.19-8.87 16.52 0 6.68 3.81 13.43 8.76 16.49l.43-.58c-4.74-3.73-6.1-8.08-6.1-16.02 0-7.97 1.47-12.1 6.1-15.84z"/><path clip-path="url(#a)" d="m145.8 98.22c0 2.55-2.01 7.47-8.94 7.47l.68-3.02c1.69-7.54 4.49-7.97 5.53-7.97 2.05 0 2.73 1.25 2.73 3.52m1.04-.9c0-2.19-.54-4.89-4.06-4.89-3.63 0-4.88 2.77-7.79 13.25-1.69 0-4.53-.47-4.53-4.02 0-5.86 3.16-8.23 3.16-8.66 0-.07-.07-.11-.25-.11-.36 0-5.28 3.66-5.28 10.02 0 3.84 3.84 5.71 6.1 5.71-1.26 4.78-2.51 6.64-2.84 7.07h2.87l1.8-7.04c6.55.02 10.82-5.48 10.82-11.33z"/><path clip-path="url(#a)" d="m192.55 99.01-7.04-7.33-1.11 1.18 4.27 5.18h-28.44v2.01h28.44l-4.27 5.17 1.11 1.18z"/><path clip-path="url(#a)" d="m226.76 92.86c-5.6.07-6.57 5.75-7.69 9.77-.97 3.56-3.66 4.56-5.68 4.56l6.61-21.33-2.98.47-5.17 20.9c-1.65 0-3.34-.57-3.34-3.27 0-2.15 1.58-4.67 1.58-7.83 0-2.19-1.19-3.27-3.7-3.27l-.11.43c.29 0 1.15.18 1.15 2.19 0 1.65-1.72 5.89-1.72 7.79 0 4.38 4.38 5.39 5.75 5.39l-1.69 7.04h.86l2.33-7.07c3.27 0 7.83-1.44 9.3-6.79l1.29-4.67c.39-1.47 1.83-3.77 3.09-3.84z"/><path clip-path="url(#a)" d="m229.97 82.52-.32.57c4.63 3.74 6.11 7.87 6.11 15.84 0 7.94-1.36 12.28-6.11 16.02l.43.58c4.96-3.05 8.76-9.81 8.76-16.49 0-7.32-3.66-13.14-8.87-16.52"/><path clip-path="url(#a)" d="m269.77 108.27-9.2-19.97h-.61l-9.23 19.97h2.05l7.5-16.38 7.44 16.38z"/><path clip-path="url(#a)" d="m290.5 82.52c-5.21 3.38-8.87 9.19-8.87 16.52 0 6.68 3.81 13.43 8.76 16.49l.43-.58c-4.74-3.73-6.1-8.08-6.1-16.02 0-7.97 1.47-12.1 6.1-15.84z"/><path clip-path="url(#a)" d="m313.96 92.86c-5.6.07-6.57 5.75-7.69 9.77-.97 3.56-3.66 4.56-5.67 4.56l6.61-21.33-2.98.47-5.17 20.9c-1.65 0-3.34-.57-3.34-3.27 0-2.15 1.58-4.67 1.58-7.83 0-2.19-1.19-3.27-3.7-3.27l-.11.43c.29 0 1.15.18 1.15 2.19 0 1.65-1.72 5.89-1.72 7.79 0 4.38 4.38 5.39 5.75 5.39l-1.69 7.04h.86l2.33-7.07c3.27 0 7.83-1.44 9.3-6.79l1.29-4.67c.39-1.47 1.83-3.77 3.09-3.84z"/><path clip-path="url(#a)" d="m360.35 99.01-7.03-7.33-1.12 1.18 4.27 5.18h-28.44v2.01h28.44l-4.27 5.17 1.12 1.18z"/><path clip-path="url(#a)" d="m396.63 92.94-1.58.22c-.32.39-4.38 4.96-9.3 9.26l-1-6.39c-.54-3.38-1.19-3.59-2.01-3.59-.32 0-2.33.79-4.13 1.33l.14.43c.86-.29 1.19-.32 1.54-.32 1.18 0 1.44.76 1.58 1.69l1.33 8.91c-7.43 6.68-10.16 10.41-10.7 11.24l1.69-.47c.32-.43 4.06-4.74 9.34-9.12l.9 6.07c.39 2.69 1.65 3.52 2.62 3.52 2.08 0 4.52-2.95 4.52-3.74 0-.11-.07-.18-.18-.18-.43 0-1.44 2.23-2.84 2.23-.47 0-1.11-.25-1.4-2.23l-1.08-7.69c7.18-6.43 10.06-10.42 10.56-11.17"/><path clip-path="url(#a)" d="m399.07 82.52-.32.57c4.63 3.74 6.11 7.87 6.11 15.84 0 7.94-1.36 12.28-6.11 16.02l.43.58c4.96-3.05 8.76-9.81 8.76-16.49 0-7.32-3.66-13.14-8.87-16.52"/><path clip-path="url(#a)" d="m207.46 148.26v-9.27h-18.53v2.08h16.56v7.19z"/><path clip-path="url(#a)" d="m220.3 125.52c-5.21 3.38-8.87 9.19-8.87 16.52 0 6.68 3.81 13.43 8.76 16.49l.43-.58c-4.74-3.73-6.1-8.08-6.1-16.02 0-7.97 1.47-12.1 6.1-15.84z"/><path clip-path="url(#a)" d="m241.1 141.22c0 2.55-2.01 7.47-8.94 7.47l.68-3.02c1.69-7.54 4.49-7.97 5.53-7.97 2.05 0 2.73 1.25 2.73 3.52m1.04-.9c0-2.19-.54-4.89-4.06-4.89-3.63 0-4.88 2.77-7.79 13.25-1.69 0-4.52-.47-4.52-4.02 0-5.86 3.16-8.23 3.16-8.66 0-.07-.07-.11-.25-.11-.36 0-5.28 3.66-5.28 10.02 0 3.84 3.84 5.71 6.1 5.71-1.26 4.78-2.51 6.64-2.84 7.07h2.87l1.8-7.04c6.54.02 10.81-5.48 10.81-11.33z"/><path clip-path="url(#a)" d="m287.95 142.01-7.03-7.33-1.12 1.18 4.27 5.18h-28.44v2.01h28.44l-4.27 5.17 1.12 1.18z"/><path clip-path="url(#a)" d="m324.23 135.94-1.58.22c-.32.39-4.38 4.96-9.3 9.26l-1-6.39c-.54-3.38-1.19-3.59-2.01-3.59-.32 0-2.33.79-4.13 1.33l.14.43c.86-.29 1.19-.32 1.55-.32 1.18 0 1.44.76 1.58 1.69l1.33 8.91c-7.43 6.68-10.16 10.41-10.7 11.24l1.69-.47c.32-.43 4.06-4.74 9.34-9.12l.9 6.07c.39 2.69 1.65 3.52 2.62 3.52 2.08 0 4.52-2.95 4.52-3.74 0-.11-.07-.18-.18-.18-.43 0-1.44 2.23-2.84 2.23-.47 0-1.11-.25-1.4-2.23l-1.08-7.69c7.17-6.43 10.05-10.42 10.55-11.17"/><path clip-path="url(#a)" d="m326.67 125.52-.32.57c4.63 3.74 6.1 7.87 6.1 15.84 0 7.94-1.36 12.28-6.1 16.02l.43.58c4.96-3.05 8.76-9.81 8.76-16.49 0-7.32-3.66-13.14-8.87-16.52"/><path clip-path="url(#a)" d="m262 200.04v-32.28" fill="none" stroke="#000" stroke-miterlimit="10" stroke-width="1.4345"/><path clip-path="url(#a)" d="m230.3 220.12c0 2.55-2.01 7.47-8.94 7.47l.68-3.02c1.69-7.54 4.49-7.97 5.53-7.97 2.05 0 2.73 1.25 2.73 3.52m1.04-.9c0-2.19-.54-4.88-4.06-4.88-3.63 0-4.88 2.76-7.79 13.25-1.69 0-4.53-.47-4.53-4.02 0-5.85 3.16-8.23 3.16-8.66 0-.07-.07-.11-.25-.11-.36 0-5.28 3.66-5.28 10.02 0 3.84 3.84 5.71 6.1 5.71-1.26 4.78-2.51 6.64-2.84 7.07h2.87l1.8-7.04c6.55.01 10.82-5.49 10.82-11.34z"/><path clip-path="url(#a)" d="m277.15 220.91-7.04-7.33-1.11 1.18 4.27 5.18h-28.44v2.01h28.44l-4.27 5.17 1.11 1.18z"/><path clip-path="url(#a)" d="m311.36 214.76c-5.6.07-6.57 5.75-7.69 9.77-.97 3.56-3.66 4.56-5.68 4.56l6.61-21.33-2.98.47-5.17 20.9c-1.65 0-3.34-.57-3.34-3.27 0-2.15 1.58-4.67 1.58-7.83 0-2.19-1.19-3.27-3.7-3.27l-.11.43c.29 0 1.15.18 1.15 2.19 0 1.65-1.72 5.89-1.72 7.79 0 4.38 4.38 5.39 5.75 5.39l-1.69 7.04h.86l2.33-7.07c3.27 0 7.83-1.44 9.3-6.79l1.29-4.67c.39-1.47 1.83-3.77 3.09-3.84z"/><path clip-path="url(#a)" d="m231.16 257.76c-5.6.07-6.57 5.75-7.69 9.77-.97 3.56-3.66 4.56-5.68 4.56l6.61-21.33-2.98.47-5.17 20.9c-1.65 0-3.34-.57-3.34-3.27 0-2.15 1.58-4.67 1.58-7.83 0-2.19-1.19-3.27-3.7-3.27l-.11.43c.29 0 1.15.18 1.15 2.19 0 1.65-1.72 5.89-1.72 7.79 0 4.38 4.38 5.39 5.75 5.39l-1.69 7.04h.86l2.33-7.07c3.27 0 7.83-1.44 9.3-6.79l1.29-4.67c.4-1.47 1.83-3.77 3.09-3.84z"/><path clip-path="url(#a)" d="m277.55 263.91-7.03-7.33-1.12 1.18 4.27 5.18h-28.44v2.01h28.44l-4.27 5.17 1.12 1.18z"/><path clip-path="url(#a)" d="m313.83 257.84-1.58.22c-.32.39-4.38 4.96-9.3 9.26l-1-6.39c-.54-3.38-1.19-3.59-2.01-3.59-.32 0-2.33.79-4.13 1.33l.14.43c.86-.29 1.19-.32 1.55-.32 1.18 0 1.44.76 1.58 1.69l1.33 8.91c-7.43 6.68-10.16 10.41-10.7 11.24l1.69-.47c.32-.43 4.06-4.74 9.34-9.12l.9 6.07c.39 2.69 1.65 3.52 2.62 3.52 2.08 0 4.53-2.94 4.53-3.74 0-.11-.07-.18-.18-.18-.43 0-1.44 2.23-2.84 2.23-.47 0-1.11-.25-1.4-2.23l-1.08-7.69c7.16-6.43 10.04-10.42 10.54-11.17"/><path clip-path="url(#a)" d="m262 321.99v-32.28" fill="none" stroke="#000" stroke-miterlimit="10" stroke-width="1.4345"/><path clip-path="url(#a)" d="m270.6 342.02c0 2.55-2.01 7.47-8.94 7.47l.68-3.02c1.69-7.54 4.49-7.97 5.53-7.97 2.05 0 2.73 1.25 2.73 3.52m1.04-.9c0-2.19-.54-4.89-4.06-4.89-3.63 0-4.89 2.76-7.79 13.25-1.69 0-4.53-.47-4.53-4.02 0-5.85 3.16-8.22 3.16-8.66 0-.07-.07-.11-.25-.11-.36 0-5.28 3.66-5.28 10.02 0 3.84 3.84 5.71 6.1 5.71-1.26 4.78-2.51 6.64-2.84 7.07h2.87l1.8-7.04c6.55.02 10.82-5.48 10.82-11.33z"/><path clip-path="url(#a)" d="m258.66 392.15v-9.26h-18.53v2.08h16.56v7.18z"/><path clip-path="url(#a)" d="m285.03 379.84-1.58.22c-.32.4-4.38 4.96-9.3 9.27l-1-6.39c-.54-3.38-1.19-3.59-2.01-3.59-.32 0-2.34.79-4.13 1.33l.14.43c.86-.29 1.19-.32 1.54-.32 1.18 0 1.44.75 1.58 1.69l1.33 8.91c-7.43 6.68-10.16 10.41-10.7 11.24l1.69-.47c.32-.43 4.06-4.74 9.34-9.12l.9 6.07c.4 2.69 1.65 3.52 2.62 3.52 2.08 0 4.52-2.95 4.52-3.74 0-.11-.07-.18-.18-.18-.43 0-1.44 2.23-2.84 2.23-.47 0-1.11-.25-1.4-2.23l-1.08-7.69c7.18-6.44 10.06-10.43 10.56-11.18"/><path clip-path="url(#a)" d="m197.8 443.75 64.2-32.1" fill="none" stroke="#000" stroke-miterlimit="10" stroke-width="1.4345"/><path clip-path="url(#a)" d="m326.2 443.75-64.2-32.1" fill="none" stroke="#000" stroke-miterlimit="10" stroke-width="1.4345"/><path clip-path="url(#a)" d="m196.16 470.86v-9.27h-18.53v2.08h16.56v7.19z"/><path clip-path="url(#a)" d="m217.9 463.82c0 2.55-2.01 7.47-8.94 7.47l.68-3.02c1.69-7.54 4.49-7.97 5.53-7.97 2.05 0 2.73 1.25 2.73 3.52m1.04-.9c0-2.19-.54-4.89-4.06-4.89-3.63 0-4.89 2.77-7.79 13.25-1.69 0-4.52-.47-4.52-4.02 0-5.86 3.16-8.23 3.16-8.66 0-.07-.07-.11-.25-.11-.36 0-5.28 3.66-5.28 10.02 0 3.84 3.84 5.71 6.1 5.71-1.26 4.78-2.51 6.64-2.84 7.07h2.87l1.8-7.04c6.54.02 10.81-5.48 10.81-11.33z"/><path clip-path="url(#a)" d="m201.04 503.69c1.69-2.33 5.1-6.79 5.75-7.5.32-.4.61-.75.93-1.11.14-.18.29-.32.32-.4.07-.04.11-.11.11-.14 0-.04-.21-.39-.29-.47l-.32-.36c0-.04-.07-.14-.14-.25-.14-.21-.18-.29-.22-.29h-.04c-.04 0-.11.07-.14.11-.14.14-.25.25-.36.39-.04.04-.11.11-.25.22-.47-.36-1.08-.72-1.26-.72-.14 0-.22.07-1.47 1.47-2.66 3.09-3.99 4.67-4.63 5.46-.18-.43-.18-.43-.47-.97-.68-1.26-1.18-2.26-1.58-3.05-1-2.05-1-2.05-1.29-2.05-.11 0-.25.07-.29.11-.07.11-.14.22-.22.29l-.25.25c-.14-.04-.22-.04-.29-.04s-.14 0-.29.04c-.25-.18-.4-.25-.54-.25-.36 0-1.01.79-1.01 1.22 0 .04.11.32.25.68l1.15 3.34c.43 1.15.83 2.26 1.26 3.38.04.14.18.5.36 1.04-4.42 5.39-5.75 7.11-6.39 8.26-.68 1.22-1.15 2.05-1.29 2.23-.36.47-.58.83-.58 1.04 0 .04.11.29.25.65.04.11.07.22.07.25 0 .07-.07.32-.18.68-.04.11-.07.18-.07.25 0 .29 0 .29.79 1.54.18.32.25.36.54.36.65 0 1.51-.18 1.87-.43 1.69-2.91 4.56-7.4 7.11-11.02 1.18 2.05 1.18 2.05 3.59 5.6.68.97.86 1.19 1.15 1.19.43 0 1.15-.58 1.15-.9 0-.07-.04-.18-.11-.32-.04-.04-.04-.11-.04-.14 0-.07.11-.18.36-.36l.36-.29v-.25c.29-.14.4-.25.5-.5l-.11-.36c-.14-.29-.14-.32-.61-1.29-.65-1.4-1.29-2.8-2.26-4.78z"/><path clip-path="url(#a)" d="m336.36 458.46c-5.6.07-6.57 5.75-7.69 9.77-.97 3.56-3.66 4.56-5.68 4.56l6.61-21.33-2.98.47-5.17 20.9c-1.65 0-3.34-.57-3.34-3.27 0-2.15 1.58-4.67 1.58-7.83 0-2.19-1.19-3.27-3.7-3.27l-.11.43c.29 0 1.15.18 1.15 2.19 0 1.65-1.72 5.89-1.72 7.79 0 4.38 4.38 5.39 5.75 5.39l-1.69 7.04h.86l2.33-7.07c3.27 0 7.83-1.44 9.3-6.79l1.29-4.67c.39-1.47 1.83-3.77 3.09-3.84z"/><path clip-path="url(#a)" d="m286.65 516.92 39.55-19.78" fill="none" stroke="#000" stroke-miterlimit="10" stroke-width="1.4345"/><path clip-path="url(#a)" d="m365.75 516.92-39.55-19.78" fill="none" stroke="#000" stroke-miterlimit="10" stroke-width="1.4345"/><path clip-path="url(#a)" d="m283.96 544.05v-9.26h-18.53v2.08h16.56v7.18z"/><path clip-path="url(#a)" d="m308.26 531.66c-5.6.07-6.57 5.75-7.69 9.77-.97 3.56-3.66 4.56-5.68 4.56l6.61-21.33-2.98.47-5.17 20.9c-1.65 0-3.34-.57-3.34-3.27 0-2.15 1.58-4.67 1.58-7.83 0-2.19-1.19-3.27-3.7-3.27l-.11.43c.29 0 1.15.18 1.15 2.19 0 1.65-1.72 5.89-1.72 7.79 0 4.38 4.38 5.39 5.75 5.39l-1.69 7.04h.86l2.33-7.08c3.27 0 7.83-1.44 9.3-6.79l1.29-4.67c.4-1.47 1.83-3.77 3.09-3.84z"/><path clip-path="url(#a)" d="m289.83 576.89c1.69-2.33 5.1-6.79 5.75-7.5.32-.4.61-.75.93-1.11.14-.18.29-.32.32-.4.07-.04.11-.11.11-.14 0-.04-.21-.4-.29-.47l-.32-.36c0-.04-.07-.14-.14-.25-.14-.22-.18-.29-.22-.29h-.04c-.04 0-.11.07-.14.11-.14.14-.25.25-.36.4-.04.04-.11.11-.25.22-.47-.36-1.08-.72-1.26-.72-.14 0-.22.07-1.47 1.47-2.66 3.09-3.99 4.67-4.63 5.46-.18-.43-.18-.43-.47-.97-.68-1.26-1.18-2.26-1.58-3.05-1-2.05-1-2.05-1.29-2.05-.11 0-.25.07-.29.11-.07.11-.14.22-.22.29l-.25.25c-.14-.04-.22-.04-.29-.04s-.14 0-.29.04c-.25-.18-.4-.25-.54-.25-.36 0-1.01.79-1.01 1.22 0 .04.11.32.25.68l1.15 3.34c.43 1.15.83 2.26 1.26 3.38.04.14.18.5.36 1.04-4.42 5.39-5.75 7.11-6.39 8.26-.68 1.22-1.15 2.05-1.29 2.23-.36.47-.57.83-.57 1.04 0 .04.11.29.25.65.04.11.07.22.07.25 0 .07-.07.32-.18.68-.04.11-.07.18-.07.25 0 .29 0 .29.79 1.54.18.32.25.36.54.36.65 0 1.51-.18 1.87-.43 1.69-2.91 4.56-7.4 7.11-11.03 1.18 2.05 1.18 2.05 3.59 5.6.68.97.86 1.19 1.15 1.19.43 0 1.15-.57 1.15-.9 0-.07-.04-.18-.11-.32-.04-.04-.04-.11-.04-.14 0-.07.11-.18.36-.36l.36-.29v-.25c.29-.14.39-.25.5-.5l-.11-.36c-.14-.29-.14-.32-.61-1.29-.65-1.4-1.29-2.8-2.26-4.78z"/><path clip-path="url(#a)" d="m377.23 531.74-1.58.22c-.32.4-4.38 4.96-9.3 9.27l-1-6.39c-.54-3.38-1.19-3.59-2.01-3.59-.32 0-2.33.79-4.13 1.33l.14.43c.86-.29 1.19-.32 1.55-.32 1.18 0 1.44.75 1.58 1.69l1.33 8.91c-7.43 6.68-10.16 10.41-10.7 11.24l1.69-.47c.32-.43 4.06-4.74 9.34-9.12l.9 6.07c.39 2.69 1.65 3.52 2.62 3.52 2.08 0 4.52-2.95 4.52-3.74 0-.11-.07-.18-.18-.18-.43 0-1.44 2.23-2.84 2.23-.47 0-1.11-.25-1.4-2.23l-1.08-7.69c7.17-6.44 10.05-10.43 10.55-11.18"/><path clip-path="url(#a)" d="m368.93 576.89c1.69-2.33 5.1-6.79 5.75-7.5.32-.4.61-.75.93-1.11.14-.18.29-.32.32-.4.07-.04.11-.11.11-.14 0-.04-.21-.4-.29-.47l-.32-.36c0-.04-.07-.14-.14-.25-.14-.22-.18-.29-.22-.29h-.04c-.04 0-.11.07-.14.11-.14.14-.25.25-.36.4-.04.04-.11.11-.25.22-.47-.36-1.08-.72-1.26-.72-.14 0-.22.07-1.47 1.47-2.66 3.09-3.99 4.67-4.63 5.46-.18-.43-.18-.43-.47-.97-.68-1.26-1.18-2.26-1.58-3.05-1-2.05-1-2.05-1.29-2.05-.11 0-.25.07-.29.11-.07.11-.14.22-.22.29l-.25.25c-.14-.04-.22-.04-.29-.04s-.14 0-.29.04c-.25-.18-.4-.25-.54-.25-.36 0-1.01.79-1.01 1.22 0 .04.11.32.25.68l1.15 3.34c.43 1.15.83 2.26 1.26 3.38.04.14.18.5.36 1.04-4.42 5.39-5.75 7.11-6.39 8.26-.68 1.22-1.15 2.05-1.29 2.23-.36.47-.58.83-.58 1.04 0 .04.11.29.25.65.04.11.07.22.07.25 0 .07-.07.32-.18.68-.04.11-.07.18-.07.25 0 .29 0 .29.79 1.54.18.32.25.36.54.36.65 0 1.51-.18 1.87-.43 1.69-2.91 4.56-7.4 7.11-11.03 1.18 2.05 1.18 2.05 3.59 5.6.68.97.86 1.19 1.15 1.19.43 0 1.15-.57 1.15-.9 0-.07-.04-.18-.11-.32-.04-.04-.04-.11-.04-.14 0-.07.11-.18.36-.36l.36-.29v-.25c.29-.14.39-.25.5-.5l-.11-.36c-.14-.29-.14-.32-.61-1.29-.65-1.4-1.29-2.8-2.26-4.78z"/><path clip-path="url(#a)" d="m189.72 217.19 21.1-3.59-18.61-10.59 6.7 8.48"/><path clip-path="url(#a)" d="m200.86 115.62c-31.87 8.54-22.53 92.25-1.95 95.88" fill="none" stroke="#000" stroke-miterlimit="10" stroke-width="1.8"/><path clip-path="url(#a)" d="m187.99 259.92 21.1-3.59-18.6-10.59 6.69 8.49"/><path clip-path="url(#a)" d="m200.86 115.62c-45.61 12.22-38.27 132.52-3.69 138.61" fill="none" stroke="#000" stroke-miterlimit="10" stroke-width="1.8"/><path clip-path="url(#a)" d="m289.38 330.26-16.49 13.66 21.41-.13-10.04-4.01"/><path clip-path="url(#a)" d="m337.27 155.54c65.68 11.58-1.71 165.57-53.01 184.23" fill="none" stroke="#000" stroke-miterlimit="10" stroke-width="1.8"/><path clip-path="url(#a)" d="m302.58 368.49-16.48 13.66 21.41-.13-10.04-4.01"/><path clip-path="url(#a)" d="m337.27 155.54c76.64 13.51 21.96 199.99-39.8 222.47" fill="none" stroke="#000" stroke-miterlimit="10" stroke-width="1.8"/><path clip-path="url(#a)" d="m154.02 461.37 21.41.13-16.48-13.66 5.11 9.52"/><path clip-path="url(#a)" d="m210.82 231.65c-76.73 13.53-108.6 203.21-46.76 225.72" fill="none" stroke="#000" stroke-miterlimit="10" stroke-width="1.8"/><path clip-path="url(#a)" d="m354.64 448.31-16.48 13.66 21.41-.13-10.04-4"/><path clip-path="url(#a)" d="m313.18 231.65c76.43 13.48 97.91 203.78 36.35 226.19" fill="none" stroke="#000" stroke-miterlimit="10" stroke-width="1.8"/><path clip-path="url(#a)" d="m389.19 513.74-10.82 18.48 20.07-7.45-10.8-.33"/><path clip-path="url(#a)" d="m314.91 274.99c87.4 15.41 131.45 200.17 72.73 249.45" fill="none" stroke="#000" stroke-miterlimit="10" stroke-width="1.8"/><path clip-path="url(#a)" d="m255.64 513.74 18.47 10.81-7.44-20.07-.33 10.81"/><path clip-path="url(#a)" d="m249.47 280.6c-52.8 62.92-28.15 181.03 16.87 234.69" fill="none" stroke="#000" stroke-miterlimit="10" stroke-width="1.8"/></svg>